<svg xmlns="http://www.w3.org/2000/svg" viewBox="0 0 592.17 505.21"><defs><style>.cls-1,.cls-2{fill:none;stroke:#f08c34;stroke-linecap:round;stroke-width:11px;}.cls-1{stroke-miterlimit:10;}.cls-2{stroke-linejoin:round;}</style></defs><g id="Слой_2" data-name="Слой 2"><g id="Слой_2-2" data-name="Слой 2"><path class="cls-1" d="M400.15,308.32c3.88.59,9.12-1,12.29-3.33a7.24,7.24,0,0,0,3-6.87,4.51,4.51,0,0,0-.68-1.84,15.15,15.15,0,0,0-4.47-4.09,29.18,29.18,0,0,0-12.73-4.39c-9-1-19.18-1.33-26.36,4.26a9.08,9.08,0,0,0-3.38,5,7.74,7.74,0,0,0,.56,4.8c2.4,5.76,7.77,9.81,9.49,11.36a30.3,30.3,0,0,0,10.88,5.7c5.7,1.35,13.34-1.6,11.35-10.53Z"/><path class="cls-1" d="M391.05,257.52a13.42,13.42,0,0,1,2.17-2.68,6.82,6.82,0,0,1,7.32-.32,10.16,10.16,0,0,1,4.54,6c.61,2,1.12,7.6-.38,11.27-3.51,8.62-11.78,5.49-13.54,2C391.16,273.88,386.13,266,391.05,257.52Z"/><path class="cls-1" d="M363,273.43a10.24,10.24,0,0,0,5,1.35c6-.07,5.8-5.72,5.8-6.2-.07-6.71-8.52-12-11.53-13.13-1.87-.71-4.2-1.45-6.17-.65a5.44,5.44,0,0,0-3.06,4.13,10.13,10.13,0,0,0,.68,5.26c1.29,3.5,3.14,5.34,6.2,7.48C360.27,271.91,361.77,272.75,363,273.43Z"/><path class="cls-1" d="M337.56,283.85c-.63-4.73,3.28-6.62,8-6.39,3.19.15,7.84,1.27,10.21,3,2,1.49,3.95,3.4,4.54,5.88a5.72,5.72,0,0,1-3.06,6.16,10.85,10.85,0,0,1-6.6.29C342.73,291,338.29,289.3,337.56,283.85Z"/><path class="cls-1" d="M353.54,312.57c1.31-.62,2.79-1.06,3.69-2.16a4.73,4.73,0,0,0,.66-5.63c-2.42-3.61-9.45-3.68-11.94-2.56s-4.59,3.16-4.69,5.67C341,314.53,351.46,313.56,353.54,312.57Z"/><path class="cls-2" d="M62.84,166.66c-6.5-9.34-6.44-22.18-1.94-32.64"/><path class="cls-2" d="M109.25,201.21a26.56,26.56,0,0,1-9.67-17"/><path class="cls-2" d="M121.32,203.3a7.89,7.89,0,0,1-5.51-3.65,15.75,15.75,0,0,1-2.2-6.41,32.36,32.36,0,0,1,.28-11.19"/><path class="cls-2" d="M162.11,191.1a45.5,45.5,0,0,1-12.59-31.93"/><path class="cls-2" d="M226,141c-2.39-1.11-3.29-4-3.91-6.54s-1.42-5.43-3.75-6.66"/><path class="cls-2" d="M281.8,169.41c-2-1-3.05-3.41-3-5.68a18.07,18.07,0,0,1,1.78-6.5"/><path class="cls-2" d="M210.56,126.17a446.21,446.21,0,0,0-51.95-9.09"/><path class="cls-2" d="M177.58,228.14c2.57.46,5-1.66,5.86-4.12s.48-5.16.1-7.73"/><path class="cls-2" d="M192.23,166.21a48.64,48.64,0,0,0,7.69,6.34,25.18,25.18,0,0,0,4.57,2.46c6.36,2.46,12,1,18.35-1.67"/><path class="cls-2" d="M305.85,496.51a26.29,26.29,0,0,1-25.47-.31q-32.73-18.27-60.51-37c-89.24-59.79-142.41-121.26-174-172A374.8,374.8,0,0,1,14.61,225.7c-2.47-6.3-5.15-17.63-5.15-17.63s6.88-8.6,10.64-12.63l2.15-2.31a31.7,31.7,0,0,1,11.46-7.84c10-4,28.18-10.85,33.1-10,0,0,11.4,29.07,32.62,29.95,0,0,39.15,3.85,64.39,19.17,0,0,26.2,17,33.88,23.12,0,0,20.23,15.94,31.51,3.88,0,0,8.81-10.51-7.44-25.52a149.7,149.7,0,0,0-32.53-21.57l-14.36-6.83"/><path class="cls-2" d="M193.93,204.87c2.45-5.74.72-12.74.06-14.94a1,1,0,0,0-.93-.74c-15.79-1.41-30-16-30-16a72.58,72.58,0,0,0,11.3,18.4"/><path class="cls-2" d="M220.77,167.12a30.56,30.56,0,0,0,19.75,9.55,72,72,0,0,0,7.91,0q6-.16,12.06.13a5,5,0,0,1,1.93.35,5.4,5.4,0,0,1,2,2,74.21,74.21,0,0,0,21.95,20.66c1.64,1,4.11,1.75,5.2,3.34a12.65,12.65,0,0,1,1.16,2.9,29.42,29.42,0,0,0,5.85,10,23.74,23.74,0,0,0,18.38,8.22,10,10,0,0,0,7.48-3.15,8.8,8.8,0,0,0,1.91-10.3C326,210.12,317,199,314,193.42a206.44,206.44,0,0,0-15.76-24.8C292,159.83,274,148,274,148c-20.27-14.27-31.66-18-52.17-26.32a152.76,152.76,0,0,0-18-6.13c-10-2.67-20.25-4.09-30.49-5.49l-22.5-3.1L79.36,97.11C70.61,95.9,61.75,94.69,53,95.63c-11.61,1.23-22.47,6.11-33.1,10.93-5.7,2.59-8.65,4.2-14.36,6.79"/><path class="cls-2" d="M323.55,218.83c-3.19-2.44-6.24-5.41-7.41-9.24-.93-3-.59-6.29-.25-9.43"/><path class="cls-2" d="M204.14,254.55c-1.33,1.87-3.6,6.29-9.76,7.93-2.42.65-6.86-1.29-9-2.59-1.9-1.15-2.36-4.14-2-6.34A42.47,42.47,0,0,1,187.86,242"/><path class="cls-2" d="M197.33,261.4c-1.91-1.11-2-3.41-1.31-5.52a14.76,14.76,0,0,1,3.69-5.4"/><path class="cls-2" d="M224.62,251.48c1.36-3.74.15-7.67-2-11a38.89,38.89,0,0,0-8.58-8.65,9.54,9.54,0,0,0-4.75-2.43c-2.56-.25-4.83,1.52-6.67,3.31-2.26,2.21-4.23,4.85-4.78,7.95-.21,1.15,1.76,2.93,2.6,3.47,4.26,2.77,6.95,4.55,11.21,7.32,1.14.74,3.66,2.38,5,2.64C220.69,254.91,224.41,252.05,224.62,251.48Z"/><path class="cls-2" d="M229.92,188c2,4.24,6,7.27,10.32,9.06s9,2.49,13.66,3.17c.46,10.79,1.47,22.19,7.74,31,1.76,2.47,3.92,4.71,5.05,7.52,1.54,3.84,1.14,8.22,2.66,12.07,2.64,6.71,13.45,7.6,14.76,7.34a5.41,5.41,0,0,0,4.3-4.75,84.49,84.49,0,0,0-2.16-29.32s-8-25.13-8.6-30.53"/><path class="cls-2" d="M286.8,252.33a9.48,9.48,0,0,1-6.42-7.74c-.38-3.16.87-6.26,2.1-9.2l3-7.17"/><path class="cls-2" d="M218,220.25A31,31,0,0,0,220,198.89c.51,4.68,3,8.2,6.58,11.26,3.29,2.81,9.57,4.12,13.78,4.8a3.91,3.91,0,0,1,2.87,2.57c1.92,6.71,1.87,8.38,5.06,16.54.88,2.24,2.69,3.67,3.63,5.89.77,1.82-3.25,7.63-1.18,11.31,3.31,5.88,10.52,8.84,14.84,8.58,2.72-.16,3.85-2.35,4.78-6"/><path class="cls-2" d="M267.5,256.56a11.93,11.93,0,0,1-4.61-5.81,9.76,9.76,0,0,1,.07-5.33,24.66,24.66,0,0,1,2.11-5"/><path class="cls-1" d="M422.11,430.56c-32.25,23.07-70.79,45.74-116.81,66.87a26.54,26.54,0,0,1-25.46-2.19"/><path class="cls-1" d="M23.42,66.45C69.83-7.24,168.06,6.52,168.06,6.52c63.12,10,110.65,53,123,65.19a4,4,0,0,0,5.84-.1l-6.36-.31a4.08,4.08,0,0,0,5.83.67c12.44-11,60.15-49.33,123.3-53.1,0,0,135-5.64,162.73,122.22a188.44,188.44,0,0,1-10.25,112c-9.83,23.89-23.9,52-50.26,84.69l-.5.1c-4.33-5.77-22.9-18-22.9-18-25.54-19.56-57.69-31.33-77.62-56.58-4-5.06-7.43-10.6-12.12-15s-11-7.65-17.41-6.73c-8.51,1.23-13.35,6.33-21.66,4.14-5.63-1.49-9.47-4.28-15.27-3.77-2.73.24-8.62,2.05-11,5.69-8.59,13.29-4.29,10.14-15.8,22.05a27.11,27.11,0,0,0-4.74,8.51c-1.3,6.09,6.6,11.84,8.5,17.77,1.51,4.72.07,10,1.29,14.76,1.7,6.69,8.24,11.14,14.89,13s13.68,1.69,20.5,2.71c17.66,2.66,33.23,13.06,46.49,25s24.89,25.68,38.63,37.08a108,108,0,0,0,11.3,8.58"/></g></g></svg>