<svg width="181" height="126" viewBox="0 0 181 126" fill="none" xmlns="http://www.w3.org/2000/svg">
<g clip-path="url(#clip0_733_642)">
<path d="M136.233 70.9005C136.314 70.9005 136.423 70.9005 136.488 70.9005C136.553 70.9005 136.637 70.9005 136.72 70.9005C136.867 70.8868 137.013 70.8652 137.158 70.8357C137.446 70.7703 137.728 70.6789 138 70.5626C138.267 70.4491 138.522 70.3079 138.76 70.1415C138.981 69.9976 139.163 69.8022 139.291 69.5722C139.523 69.1349 139.512 68.5749 139.18 68.3041C138.778 67.9198 138.306 67.6158 137.789 67.4086C137.271 67.1824 136.725 67.0267 136.166 66.9458C135.881 66.9069 135.593 66.883 135.306 66.874C135.004 66.8578 134.705 66.8486 134.408 66.844C133.231 66.8254 132.057 66.918 131.098 67.3299C130.979 67.3789 130.862 67.4345 130.75 67.4965C130.639 67.5558 130.531 67.6214 130.427 67.6932C130.326 67.7644 130.228 67.8417 130.135 67.9246C130.056 67.9882 129.984 68.0612 129.922 68.1421C129.818 68.2677 129.748 68.4174 129.718 68.5772C129.704 68.7 129.725 68.8243 129.778 68.9359C129.86 69.1339 129.962 69.3231 130.082 69.5005C130.216 69.7099 130.365 69.9094 130.527 70.0975C130.694 70.2942 130.875 70.4886 131.067 70.683C131.26 70.8774 131.464 71.0532 131.696 71.2731L131.842 71.4165C131.884 71.4536 131.923 71.4929 131.972 71.5345C132.064 71.6132 132.169 71.6919 132.275 71.766C132.489 71.9256 132.721 72.0737 132.955 72.2149C133.18 72.3496 133.412 72.4716 133.65 72.5805C133.753 72.6254 133.858 72.6648 133.966 72.6985L134.128 72.7402L134.295 72.7656C134.742 72.8377 135.199 72.7304 135.568 72.4671C135.753 72.3083 135.893 72.1031 135.973 71.8724C136.066 71.5975 136.116 71.3106 136.124 71.0208V70.9236L136.168 70.9028C136.189 70.8974 136.212 70.8966 136.233 70.9005ZM136.27 71.1041C136.278 71.1066 136.286 71.1066 136.293 71.1041L136.347 70.9884C136.496 71.2937 136.583 71.6257 136.602 71.965C136.618 72.3488 136.526 72.7295 136.337 73.0641C136.127 73.4085 135.831 73.6924 135.477 73.8879C135.131 74.0786 134.752 74.2027 134.36 74.2536C134.265 74.2536 134.165 74.2744 134.068 74.279H133.782C133.585 74.2665 133.389 74.2403 133.196 74.2003C132.842 74.1248 132.496 74.0203 132.159 73.8879C131.842 73.7628 131.532 73.6183 131.232 73.4552C131.077 73.3696 130.926 73.2793 130.768 73.1752C130.692 73.1243 130.613 73.0665 130.536 73.0109L130.332 72.8512C130.101 72.6777 129.834 72.4648 129.586 72.2357C129.327 72.0023 129.084 71.751 128.86 71.4836C128.624 71.2034 128.415 70.9012 128.236 70.5812C128.144 70.4148 128.061 70.2432 127.988 70.0674C127.904 69.8746 127.837 69.6748 127.787 69.4704C127.732 69.2361 127.707 68.9959 127.712 68.7554C127.718 68.5025 127.763 68.2519 127.845 68.0126C127.994 67.5819 128.244 67.1927 128.573 66.8764C128.719 66.7315 128.879 66.6013 129.05 66.4876C129.208 66.3881 129.359 66.2817 129.514 66.1983C129.672 66.1107 129.835 66.0334 130.003 65.9669C130.167 65.8945 130.334 65.8304 130.504 65.7749C131.159 65.5619 131.84 65.4404 132.528 65.4139C133.179 65.3845 133.832 65.4031 134.48 65.4694C134.798 65.5041 135.111 65.5435 135.422 65.5874C135.732 65.6314 136.068 65.6823 136.391 65.7633C137.039 65.9185 137.663 66.1614 138.246 66.4853C138.536 66.6475 138.813 66.8316 139.076 67.036C139.351 67.2472 139.599 67.4921 139.813 67.765C139.867 67.8359 139.918 67.9131 139.966 67.9964C140.025 68.0921 140.071 68.1947 140.105 68.3018C140.161 68.4909 140.186 68.6879 140.179 68.885C140.165 69.2615 140.041 69.6257 139.822 69.9332C139.719 70.0818 139.595 70.2157 139.456 70.3312C139.323 70.4415 139.18 70.5377 139.027 70.6182C138.741 70.7745 138.438 70.8994 138.125 70.9907C137.817 71.0812 137.501 71.1409 137.181 71.1689C137.022 71.1793 136.861 71.1793 136.701 71.1689C136.62 71.1689 136.541 71.1689 136.47 71.1504C136.402 71.1397 136.335 71.1242 136.27 71.1041Z" fill="#634234"/>
<path d="M134.052 59.1935C134.198 58.9945 134.334 58.8186 134.497 58.6358C134.678 58.4606 134.894 58.3265 135.132 58.2424C135.385 58.1522 135.654 58.1129 135.923 58.1268C136.191 58.1407 136.454 58.2075 136.697 58.3234C137.197 58.5814 137.596 58.9994 137.831 59.5105C137.894 59.638 137.948 59.7703 137.991 59.9062C138.033 60.0344 138.068 60.165 138.095 60.2973C138.152 60.5482 138.193 60.8025 138.218 61.0586C138.274 61.6012 138.234 62.1493 138.102 62.6784C138.061 62.8223 138.01 62.9631 137.949 63.0996L137.863 63.3032L137.75 63.5045L137.629 63.7082L137.476 63.9026C137.368 64.0379 137.246 64.1627 137.114 64.2751C136.684 64.6251 136.153 64.8282 135.599 64.8544C135.045 64.8807 134.497 64.7287 134.035 64.4209C133.685 64.1976 133.403 63.8821 133.222 63.5092L133.273 63.5971C133.245 63.5485 133.231 63.5231 133.219 63.4976C133.208 63.4721 133.191 63.4421 133.18 63.4166C133.155 63.367 133.134 63.316 133.115 63.2639C133.076 63.1662 133.043 63.0665 133.015 62.9654C132.987 62.8636 132.969 62.7617 132.946 62.6622L132.909 62.3568C132.881 61.9475 132.928 61.5367 133.048 61.1442C133.161 60.7753 133.317 60.4205 133.511 60.0867C133.671 59.765 133.873 59.4712 134.052 59.1935ZM134.23 59.2976C134.092 59.5866 134.023 59.9032 134.026 60.2232C134.034 60.5357 134.108 60.8431 134.242 61.1257C134.364 61.3846 134.506 61.6337 134.666 61.8708L134.882 62.1994C134.912 62.2524 134.946 62.3034 134.984 62.3522L135.03 62.4216L135.053 62.4493L135.102 62.5373C135.102 62.4979 135.16 62.565 135.234 62.6113C135.317 62.6686 135.406 62.7174 135.498 62.7571C135.584 62.7965 135.674 62.8238 135.767 62.8381C135.812 62.8416 135.857 62.8416 135.902 62.8381C135.923 62.8381 135.943 62.8265 135.969 62.8219C135.994 62.8195 136.019 62.8116 136.041 62.7988C136.096 62.7788 136.146 62.7481 136.189 62.7085L136.266 62.6484L136.338 62.5627L136.412 62.4794L136.477 62.3707C136.523 62.3035 136.564 62.2331 136.6 62.1601C136.737 61.8098 136.816 61.4391 136.831 61.0632C136.85 60.8601 136.855 60.6561 136.848 60.4523C136.848 60.3505 136.848 60.2556 136.829 60.1677C136.824 60.0891 136.813 60.0111 136.797 59.934C136.7 59.5755 136.519 59.2449 136.27 58.969C136.136 58.821 135.97 58.7051 135.784 58.6298C135.599 58.5545 135.399 58.5217 135.199 58.534C134.988 58.5468 134.787 58.6281 134.627 58.7654C134.471 58.9243 134.338 59.1033 134.23 59.2976Z" fill="#634234"/>
<path d="M127.687 62.8358C127.934 63.0011 128.22 63.0999 128.517 63.1228C128.801 63.1429 129.083 63.0724 129.324 62.9215C129.42 62.8526 129.5 62.7641 129.558 62.662C129.617 62.5598 129.653 62.4463 129.665 62.3291C129.696 62.0963 129.677 61.8597 129.609 61.6349C129.541 61.4095 129.433 61.198 129.291 61.0101C129.131 60.8095 128.95 60.6265 128.751 60.4639C128.342 60.1204 127.881 59.8425 127.386 59.6401C127.273 59.5987 127.159 59.5639 127.042 59.536C126.929 59.5087 126.813 59.4917 126.697 59.4851C126.488 59.4712 126.393 59.543 126.437 59.5684C126.481 59.5939 126.437 59.6239 126.421 59.698C126.382 59.8126 126.364 59.9333 126.368 60.0544C126.368 60.2302 126.386 60.4825 126.407 60.7301C126.422 60.9849 126.468 61.2368 126.546 61.4798C126.648 61.7599 126.799 62.02 126.991 62.2481C127.198 62.4715 127.432 62.6689 127.687 62.8358ZM127.585 63.0187C127.294 62.8843 126.995 62.7669 126.69 62.6669C126.36 62.5499 126.039 62.4083 125.73 62.2434C125.385 62.0486 125.083 61.7875 124.84 61.4752C124.588 61.1591 124.407 60.793 124.309 60.4015C124.186 59.9184 124.212 59.4095 124.383 58.9413C124.483 58.6685 124.637 58.4187 124.836 58.2071C125.035 57.9954 125.276 57.8264 125.542 57.7102C125.815 57.6012 126.107 57.5507 126.4 57.5621C126.636 57.5723 126.87 57.6135 127.096 57.6848C127.28 57.7439 127.459 57.815 127.634 57.8977C127.807 57.9731 127.976 58.0589 128.139 58.1545C128.74 58.5152 129.281 58.9682 129.741 59.4967C129.974 59.7736 130.174 60.0755 130.339 60.3968C130.508 60.7413 130.611 61.114 130.643 61.496C130.669 61.8856 130.582 62.2744 130.393 62.616C130.3 62.7885 130.173 62.9402 130.019 63.0616C129.865 63.183 129.687 63.2716 129.498 63.3218C129.329 63.3665 129.153 63.3844 128.978 63.375C128.815 63.3715 128.652 63.3537 128.492 63.3218C128.178 63.2586 127.873 63.1568 127.585 63.0187Z" fill="#634234"/>
<path d="M121.638 65.3542C121.606 65.0352 121.667 64.7136 121.814 64.4286C121.986 64.1409 122.239 63.9106 122.542 63.7668C123.143 63.4796 123.814 63.3689 124.476 63.4474C124.802 63.4796 125.125 63.5376 125.443 63.621C125.611 63.6653 125.777 63.7201 125.939 63.7853C126.022 63.8177 126.108 63.857 126.196 63.901C126.284 63.9449 126.382 64.0051 126.444 64.0468C126.751 64.2401 127.03 64.4736 127.274 64.741C127.41 64.8964 127.529 65.0654 127.629 65.2454C127.681 65.3408 127.727 65.4398 127.766 65.5416C127.787 65.5926 127.803 65.6481 127.821 65.7013C127.84 65.7545 127.854 65.8286 127.868 65.8934C127.915 66.1449 127.915 66.4031 127.868 66.6547C127.827 66.8967 127.749 67.131 127.636 67.3489C127.519 67.5784 127.362 67.7853 127.172 67.9598C127.067 68.0578 126.951 68.1439 126.827 68.2167L126.727 68.2722L126.646 68.3116C126.593 68.3388 126.539 68.3627 126.484 68.3833C126.075 68.543 125.634 68.6071 125.197 68.5707C125.003 68.5555 124.81 68.5237 124.622 68.4759C124.448 68.4319 124.318 68.3879 124.158 68.337C123.849 68.2291 123.552 68.0871 123.275 67.9135C122.97 67.7185 122.692 67.4851 122.447 67.2193C122.191 66.9545 121.985 66.6456 121.839 66.3076C121.719 66.0034 121.651 65.6811 121.638 65.3542ZM121.844 65.3264C121.894 65.6001 122.042 65.8466 122.259 66.0206C122.477 66.1663 122.732 66.2466 122.994 66.2521C123.525 66.2775 124.084 66.2243 124.645 66.3053L125.058 66.3654L125.366 66.4002C125.524 66.419 125.683 66.4237 125.841 66.414H125.913C125.913 66.414 125.927 66.4279 125.941 66.4279C125.985 66.4225 126.025 66.403 126.057 66.3724C126.134 66.3067 126.19 66.2185 126.215 66.1202C126.215 66.1202 126.215 66.1202 126.215 66.0947C126.216 66.0762 126.216 66.0577 126.215 66.0392C126.209 66.0007 126.201 65.9628 126.189 65.9258C126.16 65.8373 126.12 65.7526 126.071 65.6735C125.943 65.476 125.787 65.2983 125.607 65.1459C125.22 64.8235 124.765 64.5925 124.276 64.4702C123.75 64.3129 123.221 64.1324 122.679 64.1833C122.545 64.1994 122.415 64.2345 122.292 64.2874C122.171 64.3466 122.066 64.432 121.983 64.5373C121.906 64.6518 121.854 64.7812 121.83 64.9171C121.806 65.0531 121.811 65.1925 121.844 65.3264Z" fill="#634234"/>
<path d="M125.399 71.8913C125.603 71.8094 125.794 71.697 125.964 71.5581C126.033 71.4943 126.086 71.4149 126.117 71.3267C126.154 71.2388 126.172 71.1442 126.171 71.049C126.178 70.969 126.162 70.8886 126.126 70.8169C126.089 70.7453 126.033 70.6854 125.964 70.644C125.935 70.6313 125.903 70.6247 125.872 70.6247C125.84 70.6247 125.808 70.6313 125.779 70.644C125.748 70.6555 125.716 70.6641 125.684 70.6695C125.656 70.6695 125.623 70.688 125.591 70.7019C125.359 70.806 125.088 70.9796 124.835 71.0976C124.71 71.1624 124.587 71.2179 124.49 71.2665L124.422 71.2966C124.404 71.3082 124.383 71.3151 124.376 71.3221C124.369 71.329 124.355 71.3359 124.376 71.3336H124.388C124.407 71.3296 124.426 71.3233 124.443 71.3151L124.462 71.3035H124.441C124.427 71.3043 124.413 71.3043 124.399 71.3035C124.374 71.3095 124.348 71.3095 124.323 71.3035C124.269 71.2873 124.242 71.2434 124.2 71.1508C124.174 71.0984 124.143 71.0488 124.107 71.0027C124.089 70.9785 124.066 70.958 124.04 70.9426C124.014 70.934 123.988 70.9293 123.961 70.9287H123.912L123.871 70.9148C123.837 70.9101 123.802 70.9101 123.769 70.9148C123.738 70.9131 123.708 70.918 123.68 70.9292C123.652 70.9404 123.627 70.9576 123.606 70.9796C123.594 70.9899 123.585 71.0027 123.578 71.0171C123.571 71.0314 123.567 71.047 123.567 71.0629C123.562 71.0982 123.562 71.134 123.567 71.1693C123.586 71.2538 123.624 71.3328 123.678 71.4007C123.807 71.5649 123.974 71.6946 124.165 71.7779C124.364 71.8706 124.577 71.9285 124.796 71.9492C124.998 71.9731 125.204 71.9534 125.399 71.8913ZM125.489 72.0811C125.042 72.2353 124.569 72.2952 124.098 72.2569C123.862 72.2483 123.629 72.2118 123.402 72.1482C123.161 72.0858 122.939 71.9632 122.758 71.7918C122.663 71.7023 122.585 71.5975 122.526 71.4817C122.501 71.4213 122.479 71.3595 122.461 71.2966L122.431 71.2017V71.1069C122.389 70.8497 122.429 70.5861 122.544 70.3525C122.785 69.9142 123.17 69.5725 123.634 69.3852C123.867 69.3026 124.112 69.2573 124.36 69.251C124.596 69.239 124.833 69.2491 125.067 69.2811C125.552 69.3349 126.009 69.5369 126.375 69.8596C126.421 69.9022 126.463 69.9495 126.5 70.0007C126.539 70.0504 126.575 70.103 126.606 70.1581C126.669 70.2723 126.71 70.397 126.727 70.526C126.752 70.7758 126.704 71.0276 126.588 71.2503C126.534 71.3587 126.468 71.4604 126.391 71.5535C126.308 71.6446 126.212 71.7226 126.106 71.7849C125.906 71.8946 125.7 71.9935 125.489 72.0811Z" fill="#634234"/>
<path d="M57.9872 38.2605C57.5144 37.764 57.1316 37.1893 56.8558 36.562L56.6657 36.0761C56.6123 35.9094 56.5567 35.7428 56.5057 35.5739C56.4547 35.405 56.4268 35.2337 56.3921 35.0602C56.3573 34.8866 56.3318 34.7154 56.3086 34.5395C56.2854 34.3637 56.2669 34.1901 56.2437 34.0119L56.1973 33.4797C56.1935 33.3012 56.2012 33.1226 56.2205 32.9451C56.2468 32.7693 56.2847 32.5953 56.3341 32.4245C56.3944 32.2579 56.4547 32.0889 56.5265 31.927C56.5984 31.765 56.6912 31.6076 56.7862 31.4642C56.8878 31.3065 56.9977 31.1543 57.1154 31.0083C57.2423 30.8704 57.3821 30.7448 57.5328 30.6334C57.5411 30.6269 57.5508 30.6222 57.561 30.6196C57.5713 30.6169 57.582 30.6165 57.5925 30.6182C57.603 30.62 57.613 30.6239 57.6218 30.6297C57.6307 30.6355 57.6383 30.643 57.6441 30.6519C57.651 30.6616 57.6558 30.6726 57.658 30.6843C57.688 30.8681 57.7059 31.0536 57.7113 31.2397C57.7113 31.4109 57.7299 31.5799 57.7252 31.7418C57.7206 31.9038 57.7252 32.0635 57.7252 32.2208C57.7252 32.3782 57.7252 32.5332 57.7044 32.6837C57.7008 32.8388 57.6861 32.9935 57.6603 33.1465C57.6415 33.2976 57.6136 33.4475 57.5768 33.5954L57.4818 34.0466C57.454 34.197 57.44 34.3498 57.4238 34.5094L57.4099 34.9723L57.4238 35.4351L57.4586 35.8979L57.5258 36.3607C57.6326 36.9916 57.8269 37.6045 58.1031 38.1818C58.1091 38.197 58.1097 38.2137 58.1049 38.2292C58.1001 38.2448 58.0901 38.2582 58.0767 38.2674C58.0632 38.2765 58.047 38.2808 58.0307 38.2796C58.0145 38.2783 57.9991 38.2716 57.9872 38.2605Z" fill="#634234"/>
<path d="M68.8054 46.2144C68.3525 46.1886 67.9179 46.0273 67.558 45.7516C67.2103 45.4976 66.9198 45.1735 66.7053 44.8004C66.4908 44.4273 66.3572 44.0135 66.313 43.5857C66.2633 43.1371 66.3498 42.6841 66.561 42.2852C66.8496 42.5785 67.1126 42.8959 67.347 43.2339C67.5496 43.5197 67.7376 43.8155 67.9104 44.1202C68.0797 44.4187 68.235 44.7242 68.3741 45.0574C68.5491 45.4307 68.6934 45.8177 68.8054 46.2144Z" fill="#634234"/>
<path d="M71.6038 46.6983C71.3332 46.8149 71.0295 46.8305 70.7483 46.7422C70.4576 46.6581 70.1913 46.5058 69.9716 46.2979C69.5578 45.8852 69.2817 45.355 69.181 44.7799C69.0778 44.262 69.0778 43.7289 69.181 43.211C69.2805 42.6815 69.5208 42.1884 69.8765 41.7832C70.0391 42.2527 70.1723 42.7319 70.2753 43.2179C70.375 43.6599 70.4631 44.0949 70.542 44.5115C70.6059 44.8952 70.7045 45.2724 70.8364 45.6384C70.9066 45.8258 70.9985 46.0044 71.11 46.1706C71.2446 46.3723 71.4114 46.5506 71.6038 46.6983Z" fill="#634234"/>
<path d="M81.0612 43.8773C80.3973 43.5801 79.8098 43.1362 79.3431 42.5791C78.8721 42.0277 78.496 41.4022 78.2302 40.7279C77.9587 40.056 77.8019 39.3434 77.7665 38.6198C77.7236 37.8925 77.8481 37.165 78.1305 36.4932C78.4111 37.1874 78.6174 37.8052 78.84 38.4208C79.0626 39.0363 79.2805 39.6287 79.5124 40.2188C79.7442 40.8089 79.99 41.3966 80.2497 41.9937C80.5093 42.5907 80.7992 43.19 81.0612 43.8773Z" fill="#634234"/>
<path d="M95.8697 32.2813C95.6662 32.3453 95.446 32.3304 95.253 32.2397C95.0676 32.1528 94.9019 32.0292 94.7661 31.8764C94.5315 31.6057 94.3674 31.2814 94.2884 30.9322C94.2273 30.6704 94.1946 30.4027 94.1911 30.1339C94.2081 29.829 94.1752 29.5234 94.0937 29.2291C94.2989 29.1742 94.5174 29.1981 94.7058 29.2962C94.8844 29.3881 95.0423 29.5157 95.1695 29.6711C95.3948 29.939 95.5536 30.2561 95.6332 30.5967C95.693 30.8541 95.7264 31.117 95.7329 31.3811C95.7225 31.6871 95.7688 31.9922 95.8697 32.2813Z" fill="#634234"/>
<path d="M108.812 38.856C108.629 38.9132 108.433 38.9137 108.25 38.8575C108.067 38.8013 107.906 38.6911 107.787 38.5413C107.541 38.2631 107.409 37.9031 107.416 37.5323C107.42 37.1993 107.527 36.8757 107.724 36.6067C107.926 36.3391 108.205 36.1396 108.524 36.0352C108.653 36.318 108.736 36.6195 108.77 36.9284C108.797 37.1339 108.81 37.3412 108.807 37.5485C108.807 37.7036 108.786 37.8656 108.765 38.0576C108.724 38.3241 108.74 38.5961 108.812 38.856Z" fill="#634234"/>
<path d="M92.2945 28.8519C91.2603 28.8832 90.2251 28.8407 89.1969 28.7246C88.1845 28.6213 87.1798 28.4817 86.1828 28.3058C85.1859 28.1322 84.1935 27.9263 83.2035 27.681C82.1982 27.4425 81.2112 27.1332 80.2497 26.7554C81.279 26.5992 82.3217 26.5495 83.3612 26.6073C84.3877 26.6525 85.4101 26.7653 86.4216 26.9451C87.4347 27.1212 88.4353 27.3623 89.4172 27.6671C90.4139 27.964 91.378 28.361 92.2945 28.8519Z" fill="#634234"/>
<path d="M84.6479 52.4486C84.7884 52.3566 84.9077 52.2359 84.998 52.0945C85.062 51.9958 85.1163 51.8912 85.1603 51.7821C85.2415 51.5901 85.2995 51.4142 85.3505 51.2661L85.5823 50.6158C85.6908 50.2928 85.8429 49.9861 86.0344 49.7041C86.3338 49.9255 86.5579 50.2333 86.6767 50.5858C86.7997 50.9506 86.7997 51.3456 86.6767 51.7104C86.6072 51.9139 86.4966 52.101 86.3519 52.2602C86.2071 52.4194 86.0312 52.5473 85.835 52.636C85.637 52.726 85.4184 52.7612 85.2021 52.7378C85.0945 52.7311 84.9896 52.7019 84.8942 52.6521C84.7987 52.6022 84.7148 52.5329 84.6479 52.4486Z" fill="#634234"/>
<path d="M88.0445 38.1172C88.7122 38.3833 89.2896 38.6749 89.8645 38.9479C90.152 39.0868 90.4326 39.2279 90.6992 39.3413C90.9549 39.4547 91.2193 39.5476 91.4898 39.619C92.0357 39.7687 92.6002 39.8396 93.1661 39.8296C93.769 39.8296 94.4228 39.7555 95.1415 39.7671C94.6504 40.2881 94.0368 40.6786 93.3563 40.9033C92.6335 41.1442 91.855 41.1636 91.1212 40.9588C90.9372 40.9062 90.7568 40.8421 90.581 40.7668C90.4081 40.6897 90.2408 40.6008 90.0802 40.5007C89.7784 40.3094 89.4971 40.0876 89.2409 39.8388C88.7202 39.3596 88.3117 38.7718 88.0445 38.1172Z" fill="#634234"/>
<path d="M114.388 114.546C113.472 115.075 112.431 115.349 111.374 115.337C110.313 115.327 109.271 115.056 108.341 114.546C106.503 113.558 104.68 112.546 102.871 111.507C99.2568 109.425 95.684 107.245 92.2247 104.919C88.7655 102.594 85.3642 100.152 82.0788 97.5652C78.7934 94.9781 75.6124 92.2591 72.5496 89.4082C69.4868 86.5573 66.5747 83.5375 63.8087 80.4019C62.4176 78.8284 61.0767 77.2186 59.7861 75.5725C58.4954 73.9264 57.2504 72.2395 56.0509 70.5117C53.6502 67.067 51.4763 63.4703 49.5428 59.7444C48.5782 57.8793 47.6879 55.9763 46.8718 54.0356C46.6678 53.5528 46.4691 53.0668 46.2759 52.5778L46.1415 52.2098L45.9838 51.835C45.8934 51.5758 45.8076 51.3189 45.7288 51.0644C45.4111 50.03 45.1445 49.0188 44.8964 47.9867C44.8689 47.8701 44.8686 47.7487 44.8955 47.6319C44.9225 47.5152 44.9759 47.4062 45.0517 47.3133C45.8957 46.2766 46.7211 45.2561 47.6531 44.2495L47.9963 43.8839C48.1076 43.7659 48.2444 43.6224 48.3742 43.4997C48.6381 43.2499 48.9185 43.0179 49.2135 42.8055C49.8022 42.378 50.4445 42.0295 51.124 41.7688C52.3644 41.2829 53.6095 40.8108 54.8823 40.3804C55.5176 40.1675 56.1599 39.9662 56.823 39.788C57.1545 39.7001 57.493 39.6191 57.8454 39.5566C58.024 39.5242 58.2048 39.4941 58.4042 39.4756C58.6351 39.4456 58.8689 39.4456 59.0998 39.4756C59.2251 39.4948 59.3432 39.5463 59.4424 39.6251C59.5416 39.7038 59.6185 39.807 59.6655 39.9245V39.9407C59.7698 40.2045 59.9089 40.5054 60.0457 40.783C60.1825 41.0607 60.3332 41.3477 60.4909 41.623C60.7997 42.1728 61.1436 42.7023 61.5203 43.2082C62.2311 44.2123 63.1351 45.065 64.1797 45.7166C64.6826 46.0155 65.2307 46.2312 65.8027 46.3553C65.9441 46.3854 66.0878 46.4085 66.2316 46.4247C66.3011 46.4247 66.373 46.4409 66.4634 46.4455H66.584L66.7324 46.4617C67.0709 46.5011 67.4048 46.545 67.7363 46.5936C69.0672 46.7857 70.3841 47.0379 71.6917 47.3318C74.3252 47.8967 76.8936 48.7294 79.3568 49.8171C79.9712 50.104 80.5787 50.4095 81.1723 50.7427L81.6174 51.0065C81.6916 51.0505 81.7658 51.0945 81.8493 51.1454L82.0556 51.2842L82.8857 51.835C83.9846 52.5724 85.0805 53.3183 86.1733 54.0726C87.2631 54.8317 88.3504 55.5837 89.4193 56.4121C89.9157 56.8126 90.4463 57.1688 91.0052 57.4766C91.5547 57.789 92.1361 58.0419 92.7394 58.231C93.3204 58.4223 93.9327 58.5008 94.5433 58.4624C95.1323 58.4142 95.6916 58.1836 96.1431 57.8029C96.1987 57.752 96.259 57.7034 96.3054 57.6548L96.3656 57.5946C96.3871 57.5701 96.4065 57.5438 96.4236 57.516C96.5046 57.3973 96.5738 57.271 96.6299 57.1388C96.7479 56.8668 96.8215 56.5777 96.8479 56.2826C96.8977 55.672 96.7883 55.0589 96.5302 54.5031C96.2695 53.9233 95.9241 53.3852 95.5055 52.9064C95.0823 52.414 94.6168 51.9595 94.1143 51.548C93.1104 50.6968 92.0617 49.8996 90.9727 49.1599C89.8812 48.4191 88.7471 47.743 87.5761 47.1351L84.0217 45.3556L87.6433 46.9754C88.8514 47.5307 90.0196 48.1686 91.1396 48.8845C92.2623 49.5974 93.3458 50.3699 94.3856 51.1986C94.9207 51.612 95.4195 52.0703 95.8764 52.5685C96.3445 53.0729 96.7352 53.6437 97.0357 54.2624C97.3544 54.9047 97.5037 55.6175 97.4693 56.3335C97.4486 56.6983 97.3703 57.0575 97.2374 57.3979C97.1691 57.5721 97.0845 57.7394 96.9847 57.8978C96.9587 57.9412 96.9301 57.9829 96.8989 58.0227L96.885 58.0412C96.8734 58.0551 96.8664 58.0644 96.8641 58.0644L96.8409 58.0921L96.7899 58.1431C96.725 58.2148 96.6601 58.2726 96.5928 58.3374C96.04 58.8335 95.3466 59.1464 94.6082 59.233C93.895 59.3083 93.1738 59.2415 92.4867 59.0363C91.8202 58.845 91.1759 58.5836 90.5647 58.2564C89.9564 57.9384 89.3769 57.5683 88.8327 57.1503C87.7894 56.3798 86.6811 55.6485 85.5868 54.9219C84.4924 54.1953 83.3749 53.4802 82.2596 52.7698L81.4273 52.2353L81.2163 52.1011C81.156 52.0617 81.0865 52.0224 81.0169 51.9831L80.6042 51.7516C80.0385 51.4439 79.4589 51.1639 78.8676 50.9001C76.4673 49.8886 73.9696 49.1249 71.4135 48.6207C70.1337 48.3523 68.8399 48.1371 67.5485 47.9612C67.2239 47.9196 66.8993 47.8779 66.5817 47.8455H66.482H66.3568C66.2733 47.8455 66.1806 47.834 66.0878 47.8247C65.9 47.8062 65.7169 47.7761 65.5337 47.7414C64.8086 47.5943 64.1124 47.3301 63.4725 46.9592C62.2502 46.2181 61.1891 45.2401 60.3518 44.0829C59.9302 43.5317 59.5431 42.9552 59.1925 42.3566C59.0209 42.0589 58.8571 41.7557 58.701 41.4472C58.5433 41.1325 58.3996 40.8363 58.2558 40.4868L58.8285 40.9497C58.7299 40.939 58.6304 40.939 58.5317 40.9497C58.4019 40.9612 58.2558 40.9867 58.1098 41.0144C57.8153 41.0746 57.5093 41.151 57.2032 41.2459C56.5911 41.4171 55.9744 41.6184 55.36 41.8313C54.1288 42.2594 52.9023 42.7245 51.6828 43.2082C51.127 43.4214 50.6022 43.7078 50.1224 44.0597C49.8848 44.2349 49.6587 44.425 49.4454 44.629C49.3364 44.7354 49.246 44.8303 49.1301 44.9553L48.7939 45.3163C47.9314 46.2419 47.0967 47.2855 46.2783 48.2991L46.429 47.6211C46.6608 48.6092 46.939 49.6112 47.2428 50.5738C47.3193 50.8052 47.3981 51.0505 47.4746 51.2842L47.6045 51.6267L47.7482 51.9854C47.9383 52.4621 48.1346 52.938 48.3371 53.4131C49.1556 55.306 50.0436 57.1712 50.9779 59.0085C52.868 62.6796 54.9947 66.2245 57.3446 69.6208C58.5039 71.3216 59.742 72.9877 61.0079 74.6237C62.2738 76.2598 63.5792 77.8634 64.9286 79.43C67.6274 82.5679 70.4931 85.5646 73.4793 88.4386C76.4656 91.3127 79.5725 94.0641 82.7906 96.6859C84.3981 98.0003 86.0288 99.2854 87.6827 100.541C89.3358 101.798 91.0168 103.019 92.7116 104.223C96.1083 106.618 99.5722 108.925 103.113 111.112C104.882 112.205 106.668 113.275 108.471 114.319C109.354 114.849 110.355 115.154 111.385 115.205C112.427 115.259 113.465 115.031 114.388 114.546Z" fill="#634234"/>
<path d="M88.4388 47.0632C88.5824 46.1148 88.4884 45.1456 88.1652 44.2424C88.1281 44.1313 88.091 44.0225 88.0493 43.9138L87.989 43.7541V43.7749C87.9935 43.7913 88.0006 43.8069 88.0098 43.8212C88.0271 43.8487 88.0491 43.873 88.0748 43.8929C88.1002 43.9107 88.1284 43.924 88.1582 43.9323H88.1791H88.1652H88.1142H87.9148L87.516 43.9022C87.2517 43.8721 86.9943 43.8189 86.73 43.7726C86.4657 43.7263 86.2199 43.6407 85.9672 43.562C84.9799 43.23 84.0435 42.7628 83.185 42.1736C82.7592 41.8881 82.3497 41.5791 81.9585 41.248C81.5632 40.912 81.1892 40.5519 80.8386 40.1696L81.8193 39.5171C82.0883 40.2784 82.4013 41.0281 82.7468 41.7733C82.923 42.1458 83.1038 42.5184 83.2963 42.8886C83.4887 43.2589 83.6881 43.6291 83.8852 44.0086C83.5492 43.7443 83.2309 43.4582 82.9322 43.1524C82.6318 42.8449 82.3492 42.5204 82.086 42.1805C81.5539 41.4972 81.0933 40.7613 80.7111 39.9845C80.6443 39.861 80.6238 39.7177 80.6534 39.5805C80.6829 39.4432 80.7605 39.321 80.8722 39.2357C80.9839 39.1504 81.1224 39.1076 81.2629 39.1151C81.4033 39.1226 81.5365 39.1798 81.6385 39.2764L81.7034 39.3319C82.0419 39.6235 82.4222 39.9313 82.8001 40.2113C83.178 40.4913 83.5675 40.7713 83.9594 41.0281C84.7371 41.546 85.5596 41.9936 86.417 42.3657L87.0616 42.6133C87.2795 42.6734 87.4974 42.7498 87.72 42.8077L88.0539 42.8794L88.2208 42.9187L88.2626 42.9303H88.295L88.3623 42.9442C88.4523 42.9639 88.538 43 88.615 43.0506C88.7357 43.1276 88.8296 43.24 88.8839 43.3723C88.8839 43.3931 88.9025 43.4162 88.9094 43.4371V43.4718V43.4857C88.921 43.5505 88.9349 43.6153 88.9465 43.6824C88.9674 43.8119 88.9859 43.9415 88.9999 44.0734C89.0606 44.5931 89.0505 45.1185 88.9697 45.6354C88.8987 46.1442 88.7176 46.6314 88.4388 47.0632Z" fill="#634234"/>
<path d="M94.6617 38.3284C95.5308 39.1631 96.5984 39.7635 97.7639 40.0732C98.3334 40.2253 98.9202 40.3031 99.5098 40.3046C100.099 40.3046 100.699 40.2445 101.311 40.2097C101.923 40.175 102.538 40.1496 103.15 40.1473H103.614C103.771 40.1473 103.903 40.1473 104.096 40.1588C104.206 40.1679 104.315 40.1896 104.42 40.2236C104.536 40.2662 104.645 40.3263 104.743 40.4018C104.888 40.5262 105.018 40.6685 105.128 40.8253C105.835 41.7674 106.641 42.6315 107.532 43.4031C107.977 43.7873 108.434 44.1529 108.923 44.4907C109.161 44.6589 109.405 44.8209 109.653 44.9767C109.776 45.0554 109.899 45.1317 110.027 45.2081L110.214 45.3192C110.266 45.349 110.32 45.376 110.374 45.4002C110.695 45.5337 111.001 45.6988 111.288 45.8931C111.385 45.9666 111.476 46.0496 111.557 46.1407C111.641 46.2407 111.714 46.3493 111.775 46.4646C111.857 46.6324 111.926 46.8065 111.981 46.9853C112.021 47.0917 112.081 47.2329 112.134 47.3579C112.188 47.4828 112.248 47.6101 112.31 47.7304C112.433 47.9708 112.572 48.2027 112.725 48.4246C112.883 48.6451 113.053 48.8561 113.236 49.0564C113.413 49.2498 113.603 49.4307 113.806 49.5979C114.207 49.9278 114.66 50.1904 115.146 50.3754C115.619 50.558 116.119 50.6605 116.625 50.6785C116.75 50.6785 116.88 50.6785 117.001 50.6785C117.107 50.6726 117.212 50.6579 117.316 50.6346C117.491 50.5929 117.655 50.514 117.796 50.4031C117.877 50.3366 117.955 50.2655 118.028 50.1903C118.092 50.1253 118.148 50.054 118.197 49.9774C118.292 49.8333 118.354 49.6708 118.38 49.5007C118.403 49.3454 118.39 49.187 118.341 49.0379C118.327 49.0055 118.315 48.9707 118.299 48.9384L118.274 48.8898C118.274 48.8898 118.274 48.8898 118.274 48.9036L118.29 48.9291L118.021 48.5912C117.26 47.6402 116.505 46.6798 115.791 45.6107C115.7 45.4788 115.614 45.3331 115.526 45.1919L115.283 44.7615C115.141 44.5046 114.995 44.2478 114.847 43.9932C114.55 43.4841 114.241 42.982 113.919 42.4868C113.28 41.494 112.586 40.5245 111.877 39.5526L111.756 39.3397C111.712 39.2772 111.675 39.2378 111.636 39.1869C111.555 39.0874 111.485 38.9902 111.388 38.8907C111.214 38.6917 111.019 38.495 110.822 38.2983C110.414 37.9073 109.98 37.5255 109.53 37.1575C108.626 36.4193 107.676 35.7135 106.693 35.0517C106.194 34.7254 105.693 34.3575 105.199 34.0428C104.706 33.7281 104.207 33.3995 103.704 33.094C102.696 32.4862 101.662 31.9308 100.602 31.4279C99.5399 30.9188 98.4432 30.4606 97.3257 30.0071L93.9638 28.6511C92.8739 28.2145 91.7618 27.8352 90.6321 27.5149C89.5099 27.2002 88.3576 26.9595 87.1867 26.742C86.0159 26.5244 84.8288 26.3486 83.6278 26.1704L80.0271 25.6335L76.4264 25.0967L72.828 24.5344C70.4307 24.1549 68.031 23.7939 65.6406 23.4005L62.0376 22.8196C60.8389 22.6206 59.6564 22.4263 58.4763 22.3152C57.3045 22.1851 56.1213 22.196 54.9521 22.3476C53.7755 22.5273 52.6177 22.8131 51.4929 23.2015C50.3545 23.5833 49.23 24.0368 48.1055 24.4904C46.981 24.9439 45.8866 25.4554 44.7505 25.8835C45.8287 25.3258 46.8813 24.7264 47.9687 24.1711C49.0561 23.6157 50.1458 23.0835 51.2749 22.6021C52.4116 22.106 53.5953 21.7254 54.8084 21.4659C56.039 21.2214 57.2946 21.1258 58.5482 21.1813C59.7932 21.2253 61.0151 21.3711 62.2207 21.503L65.8492 21.9056C68.2628 22.1717 70.6718 22.4702 73.0831 22.7525L76.6977 23.1806L80.3123 23.6435L83.9246 24.1063C85.1279 24.2567 86.3451 24.4117 87.567 24.6084C88.8021 24.8009 90.0264 25.0574 91.2349 25.3767C92.4441 25.7042 93.6352 26.095 94.8031 26.5476L98.1998 27.899C99.3312 28.3618 100.477 28.8246 101.606 29.3661C102.735 29.9065 103.836 30.5035 104.905 31.1549C105.438 31.4788 105.965 31.8144 106.479 32.1592C106.994 32.504 107.483 32.8534 107.993 33.1959C109.018 33.9086 110.006 34.6514 110.973 35.459C111.455 35.864 111.928 36.2897 112.392 36.7433L112.735 37.0973C112.848 37.2177 112.967 37.3496 113.069 37.4769C113.286 37.7338 113.491 38.0018 113.681 38.2798C114.376 39.2818 115.072 40.3023 115.723 41.3598C116.05 41.8897 116.363 42.4289 116.665 42.9797C116.815 43.2527 116.964 43.5281 117.107 43.8035L117.302 44.1691C117.372 44.2871 117.437 44.4005 117.516 44.5231C118.123 45.4881 118.853 46.4461 119.572 47.4134L119.855 47.7975L119.915 47.8831L119.962 47.9572C119.975 47.9772 119.986 47.9981 119.996 48.0197L120.068 48.177C120.114 48.2824 120.152 48.3907 120.184 48.501C120.309 48.9361 120.328 49.3946 120.24 49.8385C120.156 50.2659 119.982 50.6707 119.73 51.0256C119.607 51.1993 119.466 51.3598 119.31 51.5046C119.165 51.6397 119.01 51.7635 118.846 51.8749C118.495 52.1205 118.096 52.29 117.676 52.3724C117.481 52.4073 117.284 52.4274 117.087 52.4326C116.903 52.4326 116.73 52.4326 116.553 52.4326C115.849 52.3888 115.158 52.226 114.508 51.9512C113.867 51.6802 113.274 51.3066 112.753 50.8451C112.495 50.6178 112.256 50.3694 112.039 50.1023C111.826 49.8432 111.63 49.5712 111.45 49.2878C111.275 49.0012 111.12 48.7028 110.987 48.3946C110.917 48.2441 110.854 48.0891 110.796 47.9317C110.738 47.7744 110.685 47.6355 110.629 47.4527C110.601 47.3406 110.566 47.2301 110.525 47.1218C110.514 47.0917 110.502 47.0755 110.497 47.064C110.478 47.0414 110.457 47.0205 110.435 47.0015C110.223 46.8503 109.998 46.7186 109.762 46.6081C109.69 46.5688 109.605 46.5202 109.53 46.4693L109.333 46.3397C109.201 46.2517 109.071 46.1638 108.944 46.0712C108.687 45.8907 108.434 45.7033 108.188 45.5089C107.694 45.122 107.223 44.7071 106.776 44.2663C105.886 43.3881 105.092 42.4177 104.409 41.3714C104.352 41.2744 104.285 41.1843 104.207 41.103C104.187 41.0834 104.165 41.067 104.14 41.0544C104.101 41.0379 104.061 41.027 104.019 41.022C103.908 41.0058 103.736 40.9965 103.593 40.985L103.145 40.9526C102.545 40.9179 101.944 40.8901 101.341 40.8785C100.739 40.8669 100.129 40.8785 99.5051 40.8299C98.5772 40.7549 97.6733 40.498 96.845 40.0739C96.0167 39.6499 95.2803 39.0669 94.6779 38.3585L94.6617 38.3284Z" fill="#634234"/>
<path d="M118.723 50.292C117.984 49.7297 117.277 49.0424 117.005 48.1538C116.79 47.4596 116.869 46.7006 116.947 45.9717" stroke="#634234" stroke-linecap="round" stroke-linejoin="round"/>
<path d="M90.8058 58.5595C90.7587 59.0104 90.6173 59.4463 90.3908 59.8392C90.1372 60.2582 89.7876 60.6111 89.3706 60.8689C89.264 60.9337 89.155 60.9916 89.0437 61.0494C88.9881 61.0772 88.9324 61.098 88.8745 61.1235L88.7887 61.1582L88.7423 61.1767L88.6704 61.1975C88.3604 61.2758 88.0376 61.2892 87.7222 61.2369C87.2373 61.1628 86.7676 61.0112 86.331 60.7879C86.2267 60.7324 86.1224 60.6769 86.0134 60.6121L85.974 60.5866L85.9091 60.5427C85.8627 60.5103 85.8163 60.4779 85.7746 60.4432C85.6902 60.3734 85.6126 60.296 85.5427 60.2118C85.3257 59.9367 85.185 59.6095 85.1347 59.263C85.0847 58.9774 85.0847 58.6854 85.1347 58.3998C85.1463 58.3304 85.1648 58.2587 85.181 58.1893C85.1973 58.1198 85.2158 58.0689 85.2367 58.0111C85.2784 57.8985 85.3225 57.7897 85.3688 57.6848C85.557 57.2854 85.7904 56.9089 86.0644 56.5625C86.3306 56.2086 86.6524 55.8999 87.0173 55.6484C86.9872 56.095 86.9501 56.5046 86.906 56.9119C86.862 57.3192 86.8133 57.7079 86.7832 58.0689C86.7741 58.1558 86.7694 58.2431 86.7692 58.3304V58.4484C86.7692 58.4808 86.7692 58.5086 86.7692 58.5387C86.7812 58.6566 86.8085 58.7725 86.8504 58.8835C86.8875 58.9784 86.9362 59.0362 86.9408 59.0246C86.9415 59.0208 86.9415 59.0169 86.9408 59.0131C86.9408 59.0131 86.9408 59.0131 86.9292 58.9992C86.9176 58.9853 86.9176 58.9992 86.9292 58.9992L86.9547 59.0131C87.0196 59.0501 87.0938 59.0894 87.1704 59.1265C87.4587 59.2748 87.7569 59.4032 88.063 59.5106C88.1951 59.5615 88.3157 59.5731 88.3227 59.5962H88.3482H88.4084L88.529 59.58C88.6078 59.5661 88.689 59.5569 88.7609 59.5384C89.0977 59.4703 89.4232 59.355 89.7277 59.1959C89.902 59.1069 90.0715 59.0088 90.2355 58.902C90.4256 58.7955 90.6087 58.6683 90.8058 58.5595Z" fill="#634234"/>
<path d="M89.227 60.1451C88.7842 59.8882 88.7633 59.3537 88.9233 58.8678C89.1113 58.3926 89.4036 57.9656 89.7789 57.6182" stroke="#634234" stroke-linecap="round" stroke-linejoin="round"/>
<path d="M95.5543 57.8518C95.8696 56.984 95.5891 56.0746 95.0906 55.3064C94.5364 54.5395 93.8651 53.8641 93.1013 53.3047C92.7721 53.0478 92.4058 52.7817 92 52.7424C91.4065 52.6868 90.8802 53.0964 90.4535 53.5106C89.9296 54.0197 89.4728 54.6306 89.3453 55.3503C89.2966 55.6141 89.7533 56.026 89.9481 56.1533C90.9358 56.7943 91.5595 57.2062 92.5472 57.8472C92.8115 58.0184 93.3958 58.3956 93.7065 58.4581C94.6431 58.6409 95.5056 57.9814 95.5543 57.8518Z" stroke="#634234" stroke-linecap="round" stroke-linejoin="round"/>
<path d="M96.8666 43.1207C97.1896 43.5241 97.5822 43.8665 98.0259 44.1319C98.4566 44.3819 98.9169 44.577 99.3962 44.7128C100.354 44.9905 101.374 45.0738 102.454 45.1941C102.631 45.2141 102.795 45.294 102.919 45.4204C103.043 45.5468 103.12 45.7121 103.136 45.8883V45.9462L103.291 47.9085C103.342 48.5541 103.386 49.1928 103.458 49.8291C103.52 50.465 103.642 51.0934 103.825 51.7058C103.876 51.8562 103.936 52.0043 103.989 52.1686C104.043 52.3329 104.114 52.4625 104.189 52.606C104.339 52.8945 104.512 53.1708 104.706 53.4321C104.9 53.7075 105.114 53.9805 105.299 54.2883C105.489 54.6004 105.635 54.9377 105.73 55.2903C105.83 55.6351 105.89 55.9845 105.962 56.3062C106.025 56.6204 106.11 56.9297 106.217 57.2318C106.308 57.4848 106.459 57.7125 106.656 57.8959C106.861 58.0693 107.097 58.2041 107.351 58.2939C107.62 58.3935 107.898 58.4671 108.181 58.5138C108.466 58.5623 108.754 58.5886 109.044 58.5924C109.109 58.5924 109.176 58.5924 109.215 58.5924C109.215 58.5924 109.178 58.5924 109.192 58.5924C109.206 58.5924 109.217 58.5924 109.231 58.5739C109.282 58.5509 109.326 58.5169 109.361 58.4744C109.398 58.4357 109.425 58.3889 109.44 58.3379C109.449 58.3133 109.454 58.2876 109.456 58.2615V58.1435C109.486 57.5095 109.496 56.8639 109.456 56.2252C109.412 54.9495 109.285 53.678 109.076 52.4186C109.053 52.2566 109.018 52.1154 108.993 51.9557C108.979 51.884 108.965 51.7984 108.951 51.7382L108.891 51.5068C108.805 51.1782 108.728 50.8496 108.659 50.521C108.513 49.8592 108.357 49.202 108.232 48.5333L108.049 47.5313L107.894 46.5224C107.79 45.8394 107.741 45.149 107.75 44.4582C107.751 44.4335 107.762 44.4102 107.78 44.3933C107.798 44.3764 107.822 44.3673 107.847 44.368C107.865 44.3692 107.883 44.3755 107.898 44.3861C107.912 44.3968 107.924 44.4113 107.931 44.4281C108.163 45.0506 108.441 45.6708 108.71 46.2794L109.102 47.205L109.486 48.1306C109.746 48.7531 109.985 49.3802 110.235 50.0027L110.597 50.9422L110.687 51.1875C110.722 51.287 110.743 51.3657 110.771 51.4582C110.824 51.6318 110.88 51.8146 110.919 51.9835C111.281 53.3523 111.444 54.7661 111.402 56.1812C111.387 56.8866 111.33 57.5906 111.232 58.2893L111.207 58.4582C111.194 58.5292 111.178 58.5995 111.158 58.6688C111.12 58.8059 111.067 58.9385 111 59.0645C110.871 59.3167 110.692 59.54 110.473 59.721C110.255 59.9019 110.002 60.0368 109.73 60.1174C109.663 60.1382 109.593 60.1498 109.526 60.166C109.498 60.166 109.426 60.1799 109.377 60.1845H109.296H109.248C109.137 60.1824 109.026 60.1747 108.916 60.1614C108.533 60.1106 108.156 60.0199 107.792 59.8906C107.421 59.7669 107.068 59.5958 106.741 59.3815C106.393 59.1635 106.089 58.8825 105.844 58.5531C105.607 58.2175 105.449 57.8332 105.38 57.4285C105.321 57.0795 105.284 56.727 105.269 56.3733C105.252 56.0479 105.213 55.724 105.153 55.4037C105.093 55.1009 104.98 54.8111 104.819 54.5475C104.644 54.2731 104.448 54.0124 104.233 53.7677C102.793 52.18 101.886 50.1835 101.638 48.0566C101.563 47.3718 101.526 46.6835 101.527 45.9947L102.222 46.7561C101.687 46.6589 101.137 46.5524 100.583 46.3997C100.016 46.251 99.4674 46.0407 98.9464 45.7726C98.4143 45.4991 97.9347 45.1341 97.5297 44.6943C97.1243 44.2669 96.836 43.7425 96.6927 43.1716C96.69 43.1595 96.6897 43.1469 96.6918 43.1346C96.694 43.1223 96.6985 43.1106 96.7052 43.1001C96.7118 43.0895 96.7205 43.0804 96.7307 43.0732C96.7409 43.0661 96.7524 43.061 96.7646 43.0582C96.7862 43.0558 96.8079 43.0607 96.8264 43.072C96.8449 43.0833 96.859 43.1004 96.8666 43.1207Z" fill="#634234"/>
<path d="M110.203 58.0463C109.811 57.9172 109.464 57.6807 109.201 57.364C108.938 57.0473 108.769 56.6631 108.714 56.2553C108.626 55.524 108.916 54.8067 109.201 54.1263L109.897 52.4648" stroke="#634234" stroke-linecap="round" stroke-linejoin="round"/>
<path d="M93.9407 50.5811C93.9963 50.146 94.045 49.7341 94.0635 49.3269C94.0856 48.9299 94.0856 48.5321 94.0635 48.1351C94.0445 47.7512 94.0027 47.3687 93.9383 46.9897C93.8737 46.6208 93.787 46.256 93.6787 45.8974L95.3016 45.592C95.3602 45.9336 95.4574 46.2674 95.5915 46.587C95.745 46.9415 95.9354 47.2789 96.1595 47.5936C96.2198 47.677 96.2847 47.7603 96.3519 47.8436C96.4071 47.918 96.4675 47.9884 96.5328 48.0541C96.6783 48.1978 96.8411 48.3229 97.0174 48.4267C97.3949 48.6501 97.8035 48.8162 98.23 48.9196C98.4456 48.9751 98.6658 49.0168 98.8861 49.0515L99.22 49.0955C99.2574 49.0995 99.2945 49.1057 99.3313 49.114C99.3713 49.1223 99.4108 49.1331 99.4495 49.1464C99.5238 49.1712 99.5953 49.2038 99.6628 49.2436C99.7965 49.3184 99.9165 49.4155 100.018 49.5305C100.071 49.5914 100.118 49.6572 100.159 49.7272C100.196 49.7968 100.229 49.8687 100.256 49.9424L100.528 50.5834C100.708 51.0138 100.885 51.435 101.068 51.833L101.62 53.0294L101.759 53.3325L101.828 53.4829C101.843 53.5135 101.86 53.5429 101.879 53.5708C101.977 53.7148 102.085 53.8517 102.202 53.9804C102.391 54.1936 102.556 54.4263 102.695 54.6746L102.753 54.7903V54.8042L102.767 54.8436L102.795 54.9269C102.813 54.9846 102.828 55.0433 102.839 55.1027C102.841 55.1297 102.841 55.1568 102.839 55.1837V55.2416V55.355V55.4661V55.5447L102.816 55.6975L102.793 55.8178C102.774 55.9011 102.758 55.9636 102.74 56.0307L102.554 56.6763C102.506 56.8271 102.472 56.982 102.452 57.1391C102.448 57.1969 102.448 57.2549 102.452 57.3127C102.452 57.3127 102.44 57.3127 102.452 57.3289L102.482 57.3821L102.538 57.4908C102.582 57.5603 102.624 57.632 102.672 57.7037C103.112 58.305 103.706 58.776 104.393 59.0667C104.563 59.1398 104.74 59.1978 104.921 59.2403C105.044 59.2865 105.177 59.2938 105.304 59.2611C105.466 59.1914 105.603 59.0745 105.698 58.9256C105.825 58.7566 105.941 58.5599 106.064 58.3586C106.077 58.3367 106.099 58.3207 106.123 58.3142C106.148 58.3077 106.174 58.3112 106.196 58.3239C106.21 58.3326 106.222 58.3445 106.23 58.3586C106.238 58.3728 106.242 58.3886 106.243 58.4049C106.254 58.6489 106.238 58.8934 106.194 59.1338C106.171 59.2671 106.131 59.3969 106.076 59.5203C106.017 59.6651 105.931 59.7977 105.823 59.9113C105.7 60.0361 105.552 60.1346 105.39 60.2006C105.24 60.2583 105.085 60.2979 104.926 60.3186C104.652 60.3521 104.375 60.3521 104.1 60.3186C103.005 60.1945 101.99 59.685 101.237 58.8816C101.14 58.7751 101.049 58.6618 100.961 58.5484L100.836 58.3679L100.773 58.2776C100.755 58.2499 100.722 58.1851 100.699 58.1411C100.528 57.7804 100.453 57.3822 100.479 56.9841C100.504 56.6888 100.56 56.397 100.648 56.114C100.725 55.8641 100.808 55.635 100.88 55.4591L100.94 55.2809C100.939 55.2901 100.939 55.2995 100.94 55.3087C100.939 55.3179 100.939 55.3272 100.94 55.3365V55.3503V55.392C100.945 55.4236 100.953 55.4546 100.964 55.4846C100.969 55.4989 100.975 55.5128 100.982 55.5262V55.5447L100.97 55.5031C100.904 55.3473 100.821 55.1992 100.722 55.0611C100.562 54.8282 100.421 54.582 100.303 54.3252C100.27 54.2498 100.241 54.1725 100.217 54.0938L100.164 53.9272C100.127 53.8161 100.092 53.6958 100.059 53.5917C99.921 53.1368 99.8149 52.6729 99.7416 52.2032C99.6675 51.7265 99.6327 51.2637 99.584 50.8148C99.5585 50.5834 99.5307 50.3636 99.4959 50.1414C99.4959 50.0697 99.4959 50.0651 99.4797 50.0327C99.4714 50.0007 99.4597 49.9696 99.4449 49.9401C99.4067 49.8748 99.3573 49.8169 99.2988 49.7689C99.2713 49.7451 99.2409 49.7249 99.2084 49.7087C99.1942 49.7008 99.1794 49.6939 99.1643 49.6879L99.1087 49.674L98.7679 49.5999L98.0862 49.4565C97.6225 49.3593 97.1588 49.2667 96.6951 49.1348C96.4477 49.0669 96.2059 48.9803 95.9717 48.8756C95.8455 48.8171 95.7232 48.7506 95.6054 48.6766C95.501 48.6118 95.3944 48.5447 95.2901 48.4707C94.845 48.1753 94.4648 47.7927 94.1725 47.346C93.8675 46.8678 93.6859 46.3216 93.6439 45.7563V45.7123C93.621 45.503 93.6795 45.2929 93.8074 45.1254C93.9353 44.9579 94.1227 44.8458 94.3309 44.8123C94.5392 44.7787 94.7525 44.8262 94.9266 44.9451C95.1008 45.0639 95.2226 45.245 95.2669 45.4508C95.3791 45.9054 95.4397 46.3712 95.4477 46.8393C95.4557 47.3057 95.4106 47.7715 95.3132 48.2277C95.2159 48.6768 95.0648 49.1127 94.8634 49.5259C94.6675 49.9342 94.4103 50.3104 94.1006 50.6413C94.0918 50.6504 94.0812 50.6577 94.0694 50.6627C94.0576 50.6677 94.045 50.6702 94.0322 50.6702C94.0195 50.6702 94.0068 50.6677 93.9951 50.6627C93.9833 50.6577 93.9727 50.6504 93.9638 50.6413C93.9498 50.6242 93.9417 50.6031 93.9407 50.5811Z" fill="#634234"/>
<path d="M105.728 59.023C105.238 58.7005 104.863 58.2303 104.659 57.6808C104.55 57.2754 104.555 56.8476 104.675 56.4451C104.795 56.0424 104.959 55.6544 105.165 55.2881" stroke="#634234" stroke-linecap="round" stroke-linejoin="round"/>
<path d="M141.392 99.3542C140.154 100.305 138.906 101.247 137.631 102.147C136.356 103.047 135.081 103.943 133.771 104.811C131.159 106.528 128.495 108.169 125.781 109.735C124.425 110.517 123.066 111.295 121.696 112.049C121 112.426 120.316 112.797 119.609 113.139L118.552 113.653L117.481 114.136C116.762 114.449 116.043 114.757 115.318 115.05L114.77 115.268L114.492 115.377L114.186 115.488C113.189 115.812 112.124 115.874 111.096 115.668C110.067 115.463 109.109 114.997 108.313 114.315C108.306 114.307 108.299 114.298 108.295 114.288C108.291 114.278 108.289 114.267 108.289 114.257C108.289 114.246 108.291 114.235 108.295 114.225C108.299 114.215 108.306 114.206 108.313 114.199C108.325 114.186 108.34 114.177 108.357 114.173C108.374 114.169 108.392 114.171 108.408 114.178C109.756 114.823 111.285 114.986 112.739 114.641C113.077 114.549 113.406 114.43 113.725 114.287L113.957 114.171L114.212 114.037L114.724 113.762C115.42 113.401 116.115 113.051 116.792 112.683L118.879 111.635L120.979 110.628C121.675 110.307 122.384 109.966 123.087 109.633C123.789 109.3 124.478 108.939 125.174 108.597C127.942 107.185 130.67 105.694 133.358 104.123C136.059 102.58 138.691 100.921 141.311 99.2223C141.328 99.2097 141.35 99.2046 141.371 99.2081C141.393 99.2116 141.412 99.2233 141.424 99.2408C141.437 99.2583 141.442 99.2801 141.439 99.3014C141.435 99.3226 141.423 99.3416 141.406 99.3542H141.392Z" fill="#634234"/>
<path d="M48.7987 14.9629C50.3392 12.323 52.3046 9.95418 54.6159 7.95134L55.5062 7.22242L55.7381 7.03961L55.9699 6.87068L56.4337 6.53283C57.0457 6.07002 57.7019 5.66506 58.3464 5.2439C59.6633 4.44634 61.0346 3.74192 62.4503 3.1358C63.8681 2.53943 65.3196 2.02637 66.7975 1.59927C68.2797 1.18233 69.7846 0.850111 71.3048 0.60423C74.3496 0.104176 77.4376 -0.0857802 80.5209 0.0372876C80.9081 0.0534859 81.2953 0.0766264 81.6802 0.106709C81.8726 0.122907 82.0697 0.139106 82.2668 0.159932L82.5821 0.194643L82.8696 0.247866L85.1603 0.664396C86.6651 1.01382 88.1744 1.3725 89.6351 1.86539C92.5729 2.81478 95.4179 4.02927 98.1349 5.49382C100.849 6.94545 103.449 8.60091 105.911 10.4459C106.217 10.6773 106.528 10.9087 106.839 11.1401L107.741 11.8598C108.044 12.0912 108.336 12.3457 108.631 12.5933C108.925 12.8409 109.222 13.0862 109.507 13.3454L110.365 14.116L111.211 14.9074L111.626 15.3123C111.84 15.5183 111.721 15.4003 111.71 15.4118C111.679 15.4024 111.646 15.4024 111.615 15.4118C111.557 15.4277 111.506 15.4618 111.469 15.509L112.269 17.3418L110.796 17.2561L111.724 15.4813C111.708 15.4614 111.687 15.4468 111.663 15.4393C111.639 15.4319 111.613 15.432 111.589 15.4396C111.57 15.4441 111.551 15.4511 111.534 15.4604L111.501 15.4813L111.487 15.4952H111.499L111.524 15.4743L111.935 15.1272C112.484 14.6644 113.043 14.2224 113.609 13.7943C114.74 12.9289 115.913 12.1259 117.112 11.3646L118.016 10.7861C118.318 10.5986 118.628 10.4251 118.944 10.2446L119.871 9.70771L120.799 9.20556C121.112 9.03895 121.422 8.87002 121.74 8.70804L122.697 8.24523L123.655 7.78242L124.631 7.36126C127.23 6.22566 129.922 5.31821 132.679 4.64919C135.443 4.00147 138.261 3.6141 141.097 3.49217C143.922 3.53841 146.736 3.8483 149.502 4.41779C150.879 4.70473 152.254 5.01481 153.601 5.4244C154.281 5.60721 154.944 5.84556 155.614 6.05614C155.948 6.16721 156.277 6.28754 156.606 6.41713C156.935 6.54672 157.269 6.64853 157.594 6.78969C160.218 7.82321 162.72 9.14248 165.055 10.7236C167.39 12.3176 169.51 14.2043 171.364 16.3375C173.225 18.4737 174.807 20.8375 176.07 23.3722C177.35 25.9031 178.34 28.5704 179.019 31.3233C179.382 32.6957 179.673 34.086 179.891 35.4886C180.088 36.8909 180.264 38.3025 180.329 39.7233C180.394 41.1441 180.41 42.5649 180.366 43.9858L180.304 45.0525L180.269 45.5848L180.216 46.117L180.111 47.1792C180.067 47.5332 180.014 47.8849 179.968 48.2367C179.882 48.9448 179.736 49.6436 179.62 50.3471C179.562 50.6988 179.476 51.0413 179.404 51.393C179.332 51.7448 179.263 52.0873 179.172 52.4367C178.992 53.1309 178.829 53.8251 178.614 54.5008L178.298 55.5375L177.955 56.5487L177.781 57.0555L177.593 57.5577L177.216 58.5458C176.956 59.203 176.687 59.8532 176.409 60.5012C175.855 61.8001 175.265 63.0844 174.637 64.354C173.38 66.8905 171.982 69.3549 170.45 71.7359C168.912 74.1147 167.26 76.4095 165.493 78.6202L165.206 78.9789L164.742 79.076L164.628 79.0992L163.907 79.2473L163.339 78.6086L163.251 78.5091C163.221 78.471 163.188 78.4346 163.154 78.4003C163.068 78.3193 162.998 78.2407 162.903 78.1574L162.625 77.9051L162.326 77.6529C161.918 77.3174 161.487 76.9865 161.046 76.6625C160.606 76.3385 160.156 76.0169 159.701 75.7022C159.247 75.3875 158.774 75.0751 158.331 74.7765L158.299 74.7534L158.255 74.721C155.12 72.3676 151.545 70.4863 148.053 68.2671C146.268 67.155 144.571 65.9071 142.978 64.5345C142.591 64.1666 142.187 63.8149 141.818 63.4307L141.26 62.8476L140.981 62.556L140.71 62.2483C140.367 61.834 140.003 61.4268 139.688 60.9964L138.781 59.7653C138.266 59.0248 137.663 58.3495 136.984 57.7544C136.405 57.2592 135.697 56.9382 134.942 56.8288C134.779 56.8137 134.615 56.8137 134.452 56.8288C134.256 56.8545 134.061 56.8909 133.868 56.9375C133.422 57.0633 132.983 57.214 132.554 57.3887C131.994 57.612 131.412 57.7727 130.817 57.8678C130.476 57.9126 130.131 57.9227 129.788 57.8978C129.616 57.8747 129.442 57.8585 129.277 57.8261C129.113 57.7937 128.939 57.7567 128.798 57.7127C128.22 57.553 127.699 57.3332 127.263 57.1666C126.903 57.0087 126.521 56.9042 126.131 56.8565C126.047 56.8507 125.963 56.8507 125.878 56.8565H125.753L125.649 56.8681C125.467 56.8969 125.288 56.9411 125.113 57C124.792 57.0965 124.492 57.2536 124.23 57.4628C124.192 57.4966 124.157 57.5338 124.126 57.5739C124.126 57.5878 124.126 57.5739 124.1 57.6086L124.049 57.6873L123.949 57.84C123.813 58.0459 123.683 58.2542 123.553 58.4602C123.293 58.8767 123.059 59.284 122.809 59.7306C122.679 59.962 122.535 60.2119 122.361 60.4664C122.194 60.7071 122.015 60.9388 121.823 61.1607C121.459 61.5864 121.098 61.9613 120.738 62.3362L120.242 62.843C120.119 62.9888 120.008 63.1434 119.908 63.3058C119.792 63.4909 119.676 63.6876 119.584 63.875C119.513 63.9983 119.458 64.1296 119.419 64.2661C119.402 64.3597 119.409 64.456 119.44 64.5461C119.489 64.7078 119.556 64.8632 119.642 65.0089C119.839 65.363 120.129 65.754 120.432 66.1891C120.8 66.6839 121.093 67.2296 121.302 67.8089C121.462 68.4012 121.53 69.0147 121.503 69.6278C121.48 70.0905 121.486 70.5542 121.522 71.0162C121.562 71.3761 121.686 71.7217 121.884 72.0251C122.104 72.3523 122.378 72.6395 122.695 72.8744C123.04 73.1263 123.415 73.3353 123.81 73.4969C124.694 73.808 125.614 74.001 126.549 74.0707C127.592 74.1601 128.63 74.3077 129.658 74.5127C130.702 74.7405 131.72 75.0723 132.697 75.5031C134.608 76.3681 136.395 77.4841 138.009 78.8215C139.59 80.1357 141.085 81.5502 142.484 83.0562C143.891 84.5303 145.266 86.0298 146.683 87.4529C147.4 88.1672 148.136 88.8614 148.892 89.5356C149.273 89.8711 149.65 90.2066 150.04 90.5237C150.429 90.8407 150.84 91.1392 151.25 91.4354L151.109 91.646C150.678 91.3775 150.246 91.1022 149.827 90.806C149.407 90.5098 149.004 90.1951 148.602 89.8803C147.793 89.2579 147.007 88.5984 146.247 87.918C144.719 86.562 143.27 85.1273 141.802 83.7342C140.362 82.3329 138.838 81.0193 137.239 79.8003C135.67 78.6051 133.948 77.6253 132.118 76.887C131.218 76.5333 130.286 76.2668 129.335 76.0909C128.359 75.9377 127.376 75.8396 126.389 75.797C125.29 75.7491 124.203 75.5537 123.157 75.2162C122.603 75.0149 122.076 74.7451 121.589 74.4132C121.075 74.0593 120.628 73.6166 120.27 73.1058C120.084 72.8362 119.928 72.5467 119.806 72.2426C119.687 71.9377 119.602 71.6202 119.554 71.2962C119.489 70.7464 119.463 70.1928 119.475 69.6393C119.487 69.2368 119.437 68.8349 119.326 68.4476C119.167 68.0803 118.959 67.7357 118.71 67.4225C118.424 67.0314 118.091 66.6195 117.782 66.0965C117.706 65.9577 117.627 65.8304 117.55 65.6707C117.513 65.5921 117.478 65.5203 117.446 65.4393L117.356 65.1802C117.227 64.7863 117.19 64.3686 117.247 63.9583L117.27 63.7964L117.311 63.6205C117.342 63.5256 117.372 63.4307 117.402 63.3544C117.462 63.1924 117.525 63.0582 117.587 62.9216C117.715 62.6532 117.847 62.4056 117.995 62.158C118.067 62.033 118.144 61.9104 118.227 61.7831C118.321 61.642 118.423 61.5061 118.531 61.3759L118.635 61.2602L118.698 61.1907L118.828 61.0542L119.085 60.7812C119.421 60.4178 119.758 60.0522 120.045 59.7005C120.181 59.536 120.309 59.3646 120.428 59.1868C120.534 59.0178 120.641 58.8304 120.757 58.6152C120.989 58.1709 121.255 57.6896 121.524 57.243C121.659 57.0116 121.796 56.7802 121.935 56.5696L122.037 56.403L122.09 56.322C122.102 56.2988 122.146 56.2387 122.171 56.1993C122.288 56.032 122.422 55.8769 122.57 55.7365C123.071 55.2748 123.663 54.9232 124.309 54.7044C124.615 54.5959 124.929 54.5123 125.248 54.4545C125.331 54.4406 125.426 54.4268 125.521 54.4175L125.776 54.399C125.946 54.399 126.117 54.399 126.287 54.399C126.912 54.4482 127.527 54.5885 128.111 54.8155C128.626 55.0006 129.039 55.1649 129.454 55.2783C129.778 55.3716 130.12 55.3914 130.453 55.3362C130.861 55.2605 131.259 55.1402 131.64 54.9775C132.153 54.7678 132.678 54.587 133.212 54.436C133.512 54.3583 133.816 54.2981 134.123 54.2555C134.465 54.2125 134.811 54.2039 135.155 54.2301C135.81 54.2896 136.45 54.4586 137.049 54.7299C137.613 54.9843 138.143 55.3068 138.628 55.6902C139.497 56.4145 140.268 57.2474 140.923 58.1686L141.83 59.3811C142.118 59.7699 142.437 60.1147 142.741 60.4803L142.973 60.7511L143.223 61.0056L143.722 61.5193C144.058 61.8595 144.418 62.1742 144.775 62.5028C146.265 63.779 147.851 64.9394 149.518 65.9739C152.871 68.1236 156.518 70.0443 159.861 72.6198L159.785 72.5643C160.274 72.8929 160.738 73.2145 161.211 73.5478C161.684 73.881 162.138 74.2212 162.602 74.5683C163.066 74.9154 163.529 75.281 163.993 75.6651L164.338 75.9636L164.684 76.2807C164.797 76.3871 164.916 76.5121 165.034 76.6347C165.09 76.6879 165.155 76.7689 165.217 76.8407L165.4 77.0721L164.111 76.5815L164.227 76.5584L163.476 77.0212C165.21 74.8907 166.843 72.6862 168.375 70.4076C169.892 68.1233 171.28 65.7562 172.532 63.3173C173.15 62.0971 173.742 60.8591 174.308 59.6033C174.591 58.9785 174.867 58.3445 175.131 57.7127L175.511 56.7686L175.702 56.2942L175.873 55.8152C176.813 53.2624 177.516 50.6287 177.974 47.9474C178.029 47.6119 178.09 47.2763 178.141 46.9408L178.27 45.9272L178.335 45.4205L178.379 44.9137L178.475 43.8955C178.56 42.5372 178.623 41.1719 178.581 39.8089C178.539 38.4459 178.447 37.0829 178.303 35.7223C178.142 34.3643 177.91 33.0157 177.607 31.6819C176.471 26.3295 174.174 21.19 170.652 16.9646C168.881 14.8543 166.838 12.9869 164.577 11.4109C162.304 9.83964 159.86 8.52932 157.292 7.50473C152.132 5.49248 146.633 4.48471 141.093 4.5358C138.356 4.74793 135.645 5.22139 132.999 5.94969C130.358 6.70839 127.788 7.69321 125.317 8.89316L124.39 9.33746L123.481 9.82341L122.575 10.307L121.687 10.8254L120.799 11.3391L119.929 11.8852C119.639 12.0704 119.347 12.2462 119.062 12.436L118.211 13.0122C117.638 13.3871 117.094 13.8036 116.537 14.2016C116.261 14.4029 115.992 14.6158 115.721 14.8218C115.45 15.0277 115.176 15.2337 114.912 15.4489C114.376 15.8723 113.852 16.3097 113.34 16.754L112.957 17.0872L112.895 17.1428L112.776 17.2353C112.696 17.2939 112.612 17.3465 112.524 17.3927C112.351 17.4811 112.165 17.5443 111.974 17.5801C111.604 17.6469 111.223 17.612 110.871 17.4791C110.52 17.3462 110.211 17.1204 109.978 16.8257L108.51 14.9606L110.91 15.0555L112.385 15.1133L114.643 15.2013L113.184 16.9461C112.899 17.2817 112.51 17.5129 112.079 17.6033C111.777 17.6671 111.464 17.6632 111.164 17.592C110.864 17.5208 110.583 17.3839 110.342 17.1914C110.15 17.0271 110.129 16.997 110.054 16.9276L109.653 16.548L108.84 15.7983L108.007 15.0647C106.88 14.1067 105.74 13.1556 104.546 12.2879C102.182 10.4965 99.691 8.8801 97.0915 7.45151C94.4918 6.03285 91.7773 4.83459 88.9766 3.86936C87.5855 3.36952 86.155 2.99927 84.7268 2.63597L82.5659 2.1963L82.3108 2.1315L82.0651 2.09911C81.8866 2.07597 81.7057 2.05745 81.5225 2.03894C81.1609 2.00423 80.7922 1.97415 80.4259 1.95101C77.4685 1.75156 74.4986 1.84536 71.5598 2.23101C70.0898 2.42693 68.6322 2.69459 67.187 3.03398C65.7432 3.38636 64.3211 3.82214 62.9279 4.33911L61.9077 4.75101C61.5623 4.88523 61.2307 5.05184 60.8922 5.19994L60.3844 5.43134C60.2175 5.51233 60.0529 5.59795 59.8883 5.68126C59.559 5.8525 59.2252 6.01448 58.8983 6.19035C58.2583 6.56291 57.6022 6.91465 56.9901 7.33581L56.5264 7.64126L56.2945 7.79399L56.0627 7.95829L55.1654 8.62011C53.9768 9.5222 52.8662 10.5223 51.8453 11.6099L51.4604 12.0194L51.2656 12.2208L51.0848 12.436L50.3637 13.2968C50.1156 13.5791 49.9 13.8869 49.6798 14.1877L49.0143 15.0995L48.7987 14.9629Z" fill="#634234"/>
</g>
<path d="M125.182 121.852C124.722 121.852 124.382 121.782 124.162 121.642C123.942 121.502 123.832 121.242 123.832 120.862C123.832 120.262 123.732 119.242 123.532 117.803L123.412 117.173L120.443 116.723C120.323 117.183 120.153 118.113 119.933 119.512C119.813 120.492 119.623 121.142 119.364 121.462C119.224 121.642 119.024 121.732 118.764 121.732C118.524 121.732 118.304 121.662 118.104 121.522C117.904 121.362 117.804 121.172 117.804 120.952L117.864 120.802L117.894 120.682C119.214 115.544 120.213 110.475 120.893 105.477C120.893 105.397 120.903 105.267 120.923 105.087C120.943 104.887 120.963 104.607 120.983 104.247C121.043 103.508 121.103 102.918 121.163 102.478C121.243 102.038 121.363 101.708 121.523 101.488H122.543C122.822 101.488 123.062 101.558 123.262 101.698C123.462 101.818 123.562 101.998 123.562 102.238C123.562 103.758 123.772 106.017 124.192 109.016C124.592 112.095 124.792 114.254 124.792 115.494C124.792 115.614 124.842 115.924 124.942 116.423C125.042 116.883 125.092 117.183 125.092 117.323C125.092 117.463 125.192 118.063 125.392 119.122C125.572 120.082 125.661 120.702 125.661 120.982V121.012C125.661 121.452 125.502 121.732 125.182 121.852ZM123.202 116.093C123.142 115.794 123.112 115.424 123.112 114.984C123.112 113.184 122.952 110.885 122.632 108.086L122.333 104.967C121.473 109.666 120.883 113.214 120.563 115.614C120.863 115.814 121.743 115.974 123.202 116.093Z" fill="#4A281A"/>
<path d="M112.456 121.822C112.436 121.742 112.396 121.602 112.336 121.402C112.296 121.202 112.286 121.032 112.306 120.892C112.346 118.573 112.406 116.843 112.486 115.704C112.506 115.284 112.516 114.664 112.516 113.844C112.516 112.365 112.446 110.575 112.306 108.476C112.186 105.917 112.126 103.977 112.126 102.658C112.126 102.358 112.246 102.088 112.486 101.848C112.726 101.608 113.016 101.488 113.356 101.488C114.496 101.488 115.485 101.578 116.325 101.758C116.725 101.838 116.985 101.978 117.105 102.178C117.225 102.358 117.265 102.668 117.225 103.108C116.945 103.288 116.655 103.378 116.355 103.378C116.255 103.378 116.105 103.358 115.905 103.318C115.725 103.278 115.245 103.238 114.466 103.198H114.406C114.126 103.198 113.986 103.348 113.986 103.648C113.886 106.547 113.836 108.196 113.836 108.596C113.876 110.675 113.916 112.245 113.956 113.304C113.956 113.444 113.966 113.614 113.986 113.814C114.006 114.014 114.006 114.184 113.986 114.324C113.926 115.244 113.896 116.213 113.896 117.233C113.896 118.893 113.926 120.052 113.986 120.712C113.966 121.152 113.896 121.452 113.776 121.612C113.656 121.792 113.436 121.882 113.116 121.882C113.036 121.882 112.816 121.862 112.456 121.822Z" fill="#4A281A"/>
<path d="M105.512 121.88C105.332 121.88 105.162 121.79 105.002 121.611C104.862 121.431 104.832 121.251 104.912 121.071C104.972 120.891 105.112 120.591 105.332 120.171C105.952 119.151 106.362 117.772 106.562 116.032C106.582 115.912 106.502 115.762 106.322 115.583C106.162 115.383 106.062 115.233 106.022 115.133L105.602 114.533C105.182 113.953 104.832 113.423 104.552 112.943C104.292 112.444 104.042 111.784 103.803 110.964C103.703 110.624 103.633 110.264 103.593 109.884C103.553 109.485 103.533 109.235 103.533 109.135L103.473 108.445C103.453 108.105 103.423 107.805 103.383 107.545C103.343 107.265 103.313 107.035 103.293 106.855C103.113 105.696 103.023 104.746 103.023 104.006C103.023 103.726 103.033 103.516 103.053 103.377C103.073 103.077 103.073 102.807 103.053 102.567C103.053 102.327 103.053 102.127 103.053 101.967C103.073 101.567 103.213 101.367 103.473 101.367C103.533 101.367 103.643 101.387 103.803 101.427C104.542 101.647 104.912 102.067 104.912 102.687C104.912 102.847 104.892 103.147 104.852 103.586L104.762 104.816C104.762 105.376 104.772 105.796 104.792 106.076C104.952 107.735 105.132 109.375 105.332 110.994C105.392 111.434 105.532 111.844 105.752 112.224C105.992 112.584 106.232 112.883 106.472 113.123C106.732 113.343 106.881 113.453 106.921 113.453C107.041 113.093 107.111 112.853 107.131 112.733C107.251 110.954 107.321 109.644 107.341 108.805C107.361 108.105 107.371 106.945 107.371 105.326V101.817C107.391 101.657 107.431 101.547 107.491 101.487C107.571 101.407 107.701 101.367 107.881 101.367C108.281 101.367 108.611 101.517 108.871 101.817C109.131 102.097 109.231 102.437 109.171 102.837C109.111 103.317 109.081 103.956 109.081 104.756C109.081 105.236 109.091 105.566 109.111 105.746C109.131 105.926 109.141 106.176 109.141 106.496C109.141 106.995 109.101 107.705 109.021 108.625C109.021 108.845 109.001 109.195 108.961 109.674C108.921 110.274 108.821 111.194 108.661 112.434L108.541 113.423C108.421 114.623 108.181 116.102 107.821 117.862C107.701 118.422 107.521 119.011 107.281 119.631C107.041 120.231 106.772 120.791 106.472 121.311C106.412 121.451 106.282 121.581 106.082 121.701C105.882 121.82 105.692 121.88 105.512 121.88Z" fill="#4A281A"/>
<path d="M96.358 121.791C96.0981 120.731 95.9682 119.262 95.9682 117.382L96.0282 114.713C96.0681 113.914 96.0881 113.024 96.0881 112.044C95.9682 111.764 95.9082 111.514 95.9082 111.294V111.204C96.1081 110.825 96.2081 109.965 96.2081 108.625L96.2381 107.246C96.2581 106.806 96.2681 106.316 96.2681 105.776C96.2681 104.597 96.1881 103.667 96.0282 102.987C96.0881 102.707 96.1881 102.467 96.3281 102.267C96.468 102.047 96.638 101.938 96.8379 101.938H98.1575C98.7173 101.938 99.2071 102.067 99.627 102.327C100.047 102.567 100.367 102.917 100.587 103.377C100.987 104.197 101.186 105.166 101.186 106.286C101.186 107.086 101.176 107.716 101.156 108.175C101.116 108.755 101.017 109.285 100.857 109.765C100.797 110.025 100.707 110.245 100.587 110.425C100.487 110.585 100.337 110.785 100.137 111.025C99.8569 111.364 99.3971 111.684 98.7573 111.984C98.4973 112.124 98.1575 112.254 97.7376 112.374V115.583L97.7976 117.502L97.8576 118.432C97.9375 119.552 97.9775 120.501 97.9775 121.281C97.9775 121.521 97.8775 121.721 97.6776 121.881C97.4777 122.061 97.2478 122.151 96.9878 122.151L96.358 121.791ZM97.7676 111.144C98.9472 110.965 99.537 109.275 99.537 106.076C99.537 105.496 99.507 105.046 99.447 104.727C99.387 104.487 99.3071 104.297 99.2071 104.157C99.1071 103.997 98.9572 103.867 98.7573 103.767C98.5373 103.647 98.2974 103.587 98.0375 103.587C98.0375 103.567 97.9275 103.557 97.7076 103.557V105.266C97.7076 106.446 97.7176 107.496 97.7376 108.415C97.7376 109.455 97.7476 110.135 97.7676 110.455V111.084V111.144Z" fill="#4A281A"/>
<path d="M93.0642 124.7C92.8843 124.7 92.7043 124.6 92.5244 124.4C92.3644 124.22 92.2845 124.011 92.2845 123.771C92.2845 123.431 92.3445 122.481 92.4644 120.922C92.0246 120.802 91.5847 120.742 91.1448 120.742C90.725 120.742 90.1352 120.792 89.3754 120.892L88.6557 120.982C87.1961 121.141 86.0465 121.251 85.2068 121.311C85.1268 121.311 84.597 121.341 83.6173 121.401C83.6173 121.601 83.6173 121.891 83.6173 122.271C83.6373 122.651 83.6373 122.961 83.6173 123.201C83.5973 123.461 83.5174 123.671 83.3774 123.831C83.2574 123.991 83.1075 124.071 82.9275 124.071C82.8276 124.071 82.6976 124.031 82.5377 123.951C82.3777 123.811 82.2078 123.541 82.0278 123.141C81.9879 123.021 81.9679 122.591 81.9679 121.851L81.9379 121.042C81.9179 120.882 81.9979 120.712 82.1778 120.532C82.3577 120.332 82.6077 120.222 82.9275 120.202C83.8273 120.142 84.4071 119.632 84.667 118.672C84.8069 118.212 84.9369 117.663 85.0569 117.023C85.1768 116.363 85.2568 115.783 85.2968 115.283C85.5767 112.644 85.7166 110.625 85.7166 109.225C85.7166 108.746 85.6966 108.046 85.6566 107.126C85.6167 106.486 85.5967 106.016 85.5967 105.717C85.5967 104.877 85.5867 104.247 85.5667 103.827C85.5667 102.128 85.5467 101.048 85.5067 100.588C85.4667 100.188 85.5367 99.8585 85.7166 99.5985C85.8966 99.3186 86.1765 99.1587 86.5564 99.1187C87.516 99.0187 88.0958 98.9688 88.2958 98.9688C88.7156 98.9688 89.0855 99.0187 89.4054 99.1187C89.5454 99.1587 89.6653 99.1787 89.7653 99.1787C89.8853 99.1787 89.9752 99.1887 90.0352 99.2087C90.4151 99.2487 90.675 99.3286 90.815 99.4486C90.9749 99.5686 91.0549 99.8585 91.0549 100.318L91.0249 102.388C91.0249 102.847 91.0349 103.187 91.0549 103.407C91.1149 105.587 91.2248 108.945 91.3848 113.484L91.4148 114.294C91.4547 115.313 91.5047 116.353 91.5647 117.413C91.6247 118.452 91.7047 119.182 91.8046 119.602C92.5444 119.602 93.1042 119.652 93.4841 119.752C93.8839 119.852 94.0839 120.102 94.0839 120.502C94.0839 120.602 94.0739 120.682 94.0539 120.742C93.9939 121.141 93.9339 121.581 93.8739 122.061C93.814 122.541 93.774 122.951 93.754 123.291C93.734 123.391 93.724 123.581 93.724 123.861C93.724 124.14 93.674 124.35 93.574 124.49C93.4941 124.63 93.3241 124.7 93.0642 124.7ZM85.8666 119.962C86.7463 119.882 87.4661 119.832 88.0259 119.812L90.1552 119.662C90.1952 119.222 90.2152 118.902 90.2152 118.702C90.2152 118.422 90.1952 117.943 90.1552 117.263C90.1552 117.123 90.1352 116.893 90.0952 116.573C90.0752 116.253 90.0652 115.963 90.0652 115.703L89.8553 110.935V107.966L89.4954 101.068C89.4954 100.748 89.4654 100.498 89.4054 100.318C89.1855 100.218 88.8256 100.168 88.3258 100.168C87.8859 100.168 87.4661 100.198 87.0662 100.258V104.967V107.246C87.0062 109.965 86.9062 112.374 86.7663 114.474C86.7063 115.453 86.5764 116.473 86.3764 117.533C86.1965 118.592 86.0265 119.402 85.8666 119.962Z" fill="#4A281A"/>
<path d="M68.2406 121.853C68.0607 121.813 67.9107 121.753 67.7908 121.673C67.6908 121.613 67.6308 121.493 67.6108 121.313C67.6308 121.193 67.6808 121.063 67.7608 120.923C67.8408 120.783 67.9207 120.703 68.0007 120.683C68.1807 120.663 68.3106 120.603 68.3906 120.503C68.4706 120.403 68.5405 120.263 68.6005 120.083C68.6205 119.963 68.6805 119.663 68.7805 119.184C68.8804 118.704 68.9404 118.244 68.9604 117.804L68.9904 117.294C68.9904 117.054 68.9704 116.714 68.9304 116.274C68.8904 115.835 68.8704 115.515 68.8704 115.315C68.8704 114.155 69.3003 113.016 70.16 111.896C69.0004 110.836 68.4206 109.677 68.4206 108.417V107.457C68.4206 106.418 68.5005 105.638 68.6605 105.118C68.8004 104.578 69.0604 103.989 69.4402 103.349C69.5802 103.049 69.7701 102.819 70.01 102.659C70.25 102.479 70.5099 102.319 70.7898 102.179C71.0897 102.039 71.3196 101.929 71.4796 101.849C71.5995 101.789 71.7695 101.729 71.9894 101.669C72.2293 101.609 72.4193 101.499 72.5592 101.339C72.8191 101.239 73.079 101.189 73.339 101.189C73.7188 101.189 74.0487 101.279 74.3286 101.459C74.6285 101.639 74.7785 101.849 74.7785 102.089C74.7785 102.949 74.7585 104.298 74.7185 106.138L74.6285 110.396L74.5985 112.076L74.6285 113.755C74.6685 114.675 74.7485 115.975 74.8684 117.654L74.9884 119.603C75.0084 119.783 75.0384 119.983 75.0784 120.203C75.1184 120.423 75.1384 120.603 75.1384 120.743C75.1384 121.283 74.8585 121.553 74.2986 121.553C74.0587 121.553 73.8388 121.493 73.6389 121.373C73.4589 121.253 73.3589 121.083 73.339 120.863C73.279 120.403 73.249 119.933 73.249 119.453L73.159 111.986C72.4592 112.106 71.9394 112.236 71.5995 112.376C71.2596 112.516 71.0097 112.706 70.8498 112.946C70.7098 113.166 70.5999 113.485 70.5199 113.905C70.4599 114.165 70.4299 114.555 70.4299 115.075C70.4299 115.335 70.4499 115.705 70.4899 116.185L70.5199 117.324C70.5199 118.184 70.4699 118.914 70.3699 119.513C70.27 120.093 70.05 120.643 69.7101 121.163C69.5502 121.423 69.3303 121.613 69.0504 121.733C68.7705 121.853 68.5005 121.893 68.2406 121.853ZM71.2097 111.086C71.2896 111.106 71.4196 111.116 71.5995 111.116C72.0194 111.116 72.5592 111.026 73.219 110.846C73.219 110.326 73.199 109.527 73.159 108.447C73.099 107.427 73.069 106.418 73.069 105.418C73.069 104.578 73.099 103.729 73.159 102.869C72.6192 102.949 72.1393 103.089 71.7195 103.289C71.2996 103.489 71.0197 103.709 70.8798 103.949C70.3599 104.928 70.09 105.888 70.07 106.828C70.07 107.887 70.09 108.667 70.13 109.167C70.15 109.607 70.25 110.017 70.4299 110.396C70.6099 110.776 70.8698 111.006 71.2097 111.086Z" fill="#4A281A"/>
<path d="M56.9161 122.241C56.7561 122.241 56.6161 122.191 56.4962 122.092C56.3762 121.992 56.2863 121.862 56.2263 121.702C56.2063 121.662 56.1963 121.602 56.1963 121.522C56.1963 121.262 56.3362 121.052 56.6161 120.892C57.176 120.652 57.5958 120.292 57.8757 119.812C58.1756 119.312 58.3856 118.733 58.5055 118.073C58.8654 116.113 59.0453 113.984 59.0453 111.685C59.0453 110.825 59.0354 110.175 59.0154 109.736C58.8754 106.357 58.7554 103.977 58.6555 102.598V102.478C58.6555 102.298 58.6955 102.158 58.7754 102.058C58.8554 101.958 58.9954 101.888 59.1953 101.848C60.4749 101.608 61.4945 101.488 62.2543 101.488C62.6542 101.488 62.9541 101.498 63.154 101.518C63.6138 101.538 63.9637 101.678 64.2037 101.938C64.4436 102.198 64.5635 102.558 64.5635 103.018L64.5935 104.607C64.6335 106.007 64.6535 107.056 64.6535 107.756L64.6235 109.196C64.6235 111.315 64.7035 113.994 64.8634 117.233C64.9434 118.693 65.0134 119.822 65.0734 120.622C65.0934 120.982 65.0334 121.242 64.8934 121.402C64.7735 121.562 64.5635 121.662 64.2636 121.702C63.6039 121.742 63.254 121.432 63.214 120.772C63.274 120.192 63.3039 119.612 63.3039 119.033C63.3039 118.453 63.2939 117.973 63.274 117.593L63.244 114.174C63.244 112.515 63.214 110.815 63.154 109.076C63.114 107.636 63.054 106.277 62.9741 104.997C62.8941 103.718 62.8141 102.938 62.7341 102.658C62.6142 102.678 62.3643 102.728 61.9844 102.808C61.6045 102.888 61.0847 102.958 60.4249 103.018C60.3649 103.937 60.3349 104.597 60.3349 104.997C60.3349 105.457 60.3649 105.857 60.4249 106.197C60.4649 106.737 60.5049 107.526 60.5449 108.566V109.226C60.5449 112.465 60.5149 114.654 60.4549 115.794C60.4149 116.113 60.3949 116.363 60.3949 116.543C60.3149 117.383 60.235 118.023 60.155 118.463C59.9551 119.522 59.3453 120.602 58.3256 121.702C58.0457 122.022 57.5958 122.201 56.976 122.241H56.9161Z" fill="#4A281A"/>
<path d="M54.5808 125.271C54.4209 125.311 54.3009 125.331 54.2209 125.331C53.981 125.331 53.8111 125.181 53.7111 124.882C53.6311 124.642 53.5912 124.342 53.5912 123.982L53.6211 121.913C53.6211 121.793 53.6111 121.683 53.5912 121.583C53.5712 121.483 53.5512 121.383 53.5312 121.283H50.0823C50.2822 121.283 49.8024 121.383 48.6428 121.583C47.5032 121.763 46.6134 121.883 45.9737 121.943L44.6241 122.062L43.1246 122.212C43.1246 122.392 43.1246 122.612 43.1246 122.872C43.1446 123.132 43.1446 123.442 43.1246 123.802V123.952C43.1246 124.272 43.0446 124.512 42.8847 124.672C42.7247 124.832 42.5748 124.912 42.4348 124.912C42.3548 124.912 42.2349 124.872 42.0749 124.792C41.7151 124.532 41.5151 124.172 41.4751 123.712L41.3852 121.523C41.3452 120.743 41.6651 120.353 42.3449 120.353C42.7247 120.333 43.0246 120.233 43.2446 120.053C43.4645 119.873 43.7244 119.593 44.0243 119.213C44.3242 118.814 44.5541 118.374 44.7141 117.894C44.894 117.394 45.064 116.794 45.2239 116.094C45.4038 115.335 45.5338 114.595 45.6138 113.875C45.6937 113.155 45.7937 112.126 45.9137 110.786C46.0936 108.687 46.1836 106.578 46.1836 104.458L46.1536 102.779C46.1536 102.399 46.2636 102.089 46.4835 101.849C46.7034 101.589 47.0033 101.459 47.3832 101.459C47.5032 101.459 47.5931 101.469 47.6531 101.489C48.5728 101.649 49.3226 101.749 49.9024 101.789H50.0523C50.3122 101.789 50.4622 101.739 50.5022 101.639C50.6821 101.399 50.902 101.279 51.162 101.279C51.3419 101.279 51.5018 101.319 51.6418 101.399C51.9617 101.519 52.1716 101.819 52.2716 102.299L52.1216 107.427C52.1216 110.206 52.1316 112.286 52.1516 113.665C52.1516 114.385 52.1716 115.485 52.2116 116.964L52.2416 118.614C52.2416 118.774 52.2516 118.924 52.2716 119.063C52.2916 119.203 52.3116 119.343 52.3316 119.483C52.7314 119.523 53.0313 119.543 53.2313 119.543C53.3912 119.543 53.5112 119.533 53.5912 119.513C54.031 119.453 54.4209 119.563 54.7608 119.843C55.1206 120.103 55.3006 120.443 55.3006 120.863C55.3006 121.403 55.2606 122.212 55.1806 123.292C55.1806 123.572 55.1606 123.972 55.1206 124.492C55.0807 124.912 54.9007 125.171 54.5808 125.271ZM45.9437 120.503C47.0633 120.403 47.943 120.313 48.5828 120.233C49.2426 120.133 49.8924 119.983 50.5322 119.783C50.7321 117.364 50.8321 114.775 50.8321 112.016C50.8321 109.457 50.7321 106.648 50.5322 103.589C50.0123 103.569 49.0426 103.519 47.6231 103.439L47.5931 104.848C47.4332 107.927 47.3232 110.226 47.2632 111.746C47.1833 114.025 46.7934 116.264 46.0936 118.464C46.0536 118.584 45.9637 118.884 45.8237 119.363C45.7037 119.823 45.5138 120.223 45.2539 120.563L45.9437 120.503Z" fill="#4A281A"/>
<path d="M30.9203 121.822C30.9003 121.742 30.8603 121.602 30.8003 121.402C30.7603 121.202 30.7503 121.032 30.7703 120.892C30.8103 118.573 30.8703 116.843 30.9503 115.704C30.9703 115.284 30.9803 114.664 30.9803 113.844C30.9803 112.365 30.9103 110.575 30.7703 108.476C30.6504 105.917 30.5904 103.977 30.5904 102.658C30.5904 102.358 30.7104 102.088 30.9503 101.848C31.1902 101.608 31.4801 101.488 31.82 101.488C32.9596 101.488 33.9493 101.578 34.789 101.758C35.1889 101.838 35.4488 101.978 35.5688 102.178C35.6887 102.358 35.7287 102.668 35.6887 103.108C35.4088 103.288 35.1189 103.378 34.819 103.378C34.719 103.378 34.5691 103.358 34.3691 103.318C34.1892 103.278 33.7094 103.238 32.9296 103.198H32.8696C32.5897 103.198 32.4498 103.348 32.4498 103.648C32.3498 106.547 32.2998 108.196 32.2998 108.596C32.3398 110.675 32.3798 112.245 32.4198 113.304C32.4198 113.444 32.4298 113.614 32.4498 113.814C32.4698 114.014 32.4698 114.184 32.4498 114.324C32.3898 115.244 32.3598 116.213 32.3598 117.233C32.3598 118.893 32.3898 120.052 32.4498 120.712C32.4298 121.152 32.3598 121.452 32.2398 121.612C32.1199 121.792 31.9 121.882 31.5801 121.882C31.5001 121.882 31.2802 121.862 30.9203 121.822Z" fill="#4A281A"/>
<path d="M23.976 121.882C23.7961 121.882 23.6261 121.792 23.4662 121.612C23.3262 121.433 23.2962 121.253 23.3762 121.073C23.4362 120.893 23.5761 120.593 23.7961 120.173C24.4159 119.153 24.8257 117.774 25.0257 116.034C25.0456 115.914 24.9657 115.764 24.7857 115.584C24.6258 115.385 24.5258 115.235 24.4858 115.135L24.066 114.535C23.6461 113.955 23.2962 113.425 23.0163 112.945C22.7564 112.446 22.5065 111.786 22.2666 110.966C22.1666 110.626 22.0966 110.266 22.0566 109.886C22.0166 109.486 21.9966 109.237 21.9966 109.137L21.9367 108.447C21.9167 108.107 21.8867 107.807 21.8467 107.547C21.8067 107.267 21.7767 107.037 21.7567 106.857C21.5768 105.698 21.4868 104.748 21.4868 104.008C21.4868 103.728 21.4968 103.518 21.5168 103.378C21.5368 103.079 21.5368 102.809 21.5168 102.569C21.5168 102.329 21.5168 102.129 21.5168 101.969C21.5368 101.569 21.6768 101.369 21.9367 101.369C21.9966 101.369 22.1066 101.389 22.2666 101.429C23.0063 101.649 23.3762 102.069 23.3762 102.689C23.3762 102.849 23.3562 103.149 23.3162 103.588L23.2262 104.818C23.2262 105.378 23.2362 105.798 23.2562 106.078C23.4162 107.737 23.5961 109.377 23.7961 110.996C23.856 111.436 23.996 111.846 24.2159 112.226C24.4558 112.585 24.6958 112.885 24.9357 113.125C25.1956 113.345 25.3455 113.455 25.3855 113.455C25.5055 113.095 25.5755 112.855 25.5955 112.735C25.7154 110.956 25.7854 109.646 25.8054 108.807C25.8254 108.107 25.8354 106.947 25.8354 105.328V101.819C25.8554 101.659 25.8954 101.549 25.9553 101.489C26.0353 101.409 26.1653 101.369 26.3452 101.369C26.7451 101.369 27.075 101.519 27.3349 101.819C27.5948 102.099 27.6948 102.439 27.6348 102.839C27.5748 103.319 27.5448 103.958 27.5448 104.758C27.5448 105.238 27.5548 105.568 27.5748 105.748C27.5948 105.928 27.6048 106.178 27.6048 106.497C27.6048 106.997 27.5648 107.707 27.4848 108.627C27.4848 108.847 27.4648 109.197 27.4249 109.676C27.3849 110.276 27.2849 111.196 27.125 112.436L27.005 113.425C26.885 114.625 26.6451 116.104 26.2852 117.864C26.1653 118.424 25.9853 119.013 25.7454 119.633C25.5055 120.233 25.2356 120.793 24.9357 121.313C24.8757 121.453 24.7457 121.583 24.5458 121.702C24.3459 121.822 24.1559 121.882 23.976 121.882Z" fill="#4A281A"/>
<path d="M14.8221 121.791C14.5622 120.731 14.4322 119.262 14.4322 117.382L14.4922 114.713C14.5322 113.914 14.5522 113.024 14.5522 112.044C14.4322 111.764 14.3723 111.514 14.3723 111.294V111.204C14.5722 110.825 14.6722 109.965 14.6722 108.625L14.7021 107.246C14.7221 106.806 14.7321 106.316 14.7321 105.776C14.7321 104.597 14.6522 103.667 14.4922 102.987C14.5522 102.707 14.6522 102.467 14.7921 102.267C14.9321 102.047 15.102 101.938 15.3019 101.938H16.6215C17.1813 101.938 17.6712 102.067 18.091 102.327C18.5109 102.567 18.8308 102.917 19.0507 103.377C19.4506 104.197 19.6505 105.166 19.6505 106.286C19.6505 107.086 19.6405 107.716 19.6205 108.175C19.5805 108.755 19.4806 109.285 19.3206 109.765C19.2606 110.025 19.1707 110.245 19.0507 110.425C18.9507 110.585 18.8008 110.785 18.6009 111.025C18.321 111.364 17.8611 111.684 17.2213 111.984C16.9614 112.124 16.6215 112.254 16.2017 112.374V115.583L16.2616 117.502L16.3216 118.432C16.4016 119.552 16.4416 120.501 16.4416 121.281C16.4416 121.521 16.3416 121.721 16.1417 121.881C15.9417 122.061 15.7118 122.151 15.4519 122.151L14.8221 121.791ZM16.2316 111.144C17.4113 110.965 18.0011 109.275 18.0011 106.076C18.0011 105.496 17.9711 105.046 17.9111 104.727C17.8511 104.487 17.7711 104.297 17.6712 104.157C17.5712 103.997 17.4212 103.867 17.2213 103.767C17.0014 103.647 16.7615 103.587 16.5016 103.587C16.5016 103.567 16.3916 103.557 16.1717 103.557V105.266C16.1717 106.446 16.1817 107.496 16.2017 108.415C16.2017 109.455 16.2116 110.135 16.2316 110.455V111.084V111.144Z" fill="#4A281A"/>
<path d="M11.5283 124.7C11.3483 124.7 11.1684 124.6 10.9884 124.4C10.8285 124.22 10.7485 124.011 10.7485 123.771C10.7485 123.431 10.8085 122.481 10.9285 120.922C10.4886 120.802 10.0487 120.742 9.6089 120.742C9.18903 120.742 8.59923 120.792 7.83948 120.892L7.11971 120.982C5.66019 121.141 4.51057 121.251 3.67085 121.311C3.59088 121.311 3.06105 121.341 2.08137 121.401C2.08137 121.601 2.08137 121.891 2.08137 122.271C2.10137 122.651 2.10137 122.961 2.08137 123.201C2.06138 123.461 1.98141 123.671 1.84145 123.831C1.72149 123.991 1.57154 124.071 1.3916 124.071C1.29163 124.071 1.16167 124.031 1.00173 123.951C0.84178 123.811 0.671836 123.541 0.491895 123.141C0.451908 123.021 0.431915 122.591 0.431915 121.851L0.401925 121.042C0.381931 120.882 0.461905 120.712 0.641846 120.532C0.821787 120.332 1.0717 120.222 1.3916 120.202C2.2913 120.142 2.87111 119.632 3.13103 118.672C3.27098 118.212 3.40094 117.663 3.5209 117.023C3.64086 116.363 3.72083 115.783 3.76082 115.283C4.04073 112.644 4.18068 110.625 4.18068 109.225C4.18068 108.746 4.16069 108.046 4.1207 107.126C4.08071 106.486 4.06072 106.016 4.06072 105.717C4.06072 104.877 4.05072 104.247 4.03073 103.827C4.03073 102.128 4.01074 101.048 3.97075 100.588C3.93076 100.188 4.00074 99.8585 4.18068 99.5985C4.36062 99.3186 4.64053 99.1587 5.02041 99.1187C5.98009 99.0187 6.5599 98.9688 6.75983 98.9688C7.17969 98.9688 7.54957 99.0187 7.86947 99.1187C8.00942 99.1587 8.12938 99.1787 8.22935 99.1787C8.34931 99.1787 8.43928 99.1887 8.49926 99.2087C8.87914 99.2487 9.13905 99.3286 9.279 99.4486C9.43895 99.5686 9.51892 99.8585 9.51892 100.318L9.48893 102.388C9.48893 102.847 9.49893 103.187 9.51892 103.407C9.57891 105.587 9.68887 108.945 9.84882 113.484L9.87881 114.294C9.91879 115.313 9.96878 116.353 10.0288 117.413C10.0887 118.452 10.1687 119.182 10.2687 119.602C11.0084 119.602 11.5682 119.652 11.9481 119.752C12.348 119.852 12.5479 120.102 12.5479 120.502C12.5479 120.602 12.5379 120.682 12.5179 120.742C12.458 121.141 12.398 121.581 12.338 122.061C12.278 122.541 12.238 122.951 12.218 123.291C12.198 123.391 12.188 123.581 12.188 123.861C12.188 124.14 12.1381 124.35 12.0381 124.49C11.9581 124.63 11.7882 124.7 11.5283 124.7ZM4.33063 119.962C5.21034 119.882 5.93011 119.832 6.48992 119.812L8.61922 119.662C8.65921 119.222 8.6792 118.902 8.6792 118.702C8.6792 118.422 8.65921 117.943 8.61922 117.263C8.61922 117.123 8.59923 116.893 8.55924 116.573C8.53925 116.253 8.52925 115.963 8.52925 115.703L8.31932 110.935V107.966L7.95944 101.068C7.95944 100.748 7.92945 100.498 7.86947 100.318C7.64954 100.218 7.28966 100.168 6.78982 100.168C6.34997 100.168 5.93011 100.198 5.53024 100.258V104.967V107.246C5.47026 109.965 5.37029 112.374 5.23034 114.474C5.17036 115.453 5.0404 116.473 4.84046 117.533C4.66052 118.592 4.49058 119.402 4.33063 119.962Z" fill="#4A281A"/>
<defs>
<clipPath id="clip0_733_642">
<rect width="135.648" height="115.797" fill="white" transform="translate(44.7505)"/>
</clipPath>
</defs>
</svg>
