<svg width="133" height="94" viewBox="0 0 133 94" fill="none" xmlns="http://www.w3.org/2000/svg">
<path d="M93.5869 91.3882C93.242 91.3882 92.9871 91.3357 92.8221 91.2307C92.6572 91.1258 92.5747 90.9308 92.5747 90.6459C92.5747 90.1961 92.4997 89.4313 92.3498 88.3517L92.2598 87.8793L90.0331 87.5419C89.9431 87.8868 89.8156 88.5841 89.6507 89.6338C89.5607 90.3685 89.4183 90.8558 89.2233 91.0958C89.1184 91.2307 88.9684 91.2982 88.7735 91.2982C88.5935 91.2982 88.4286 91.2457 88.2786 91.1408C88.1287 91.0208 88.0537 90.8783 88.0537 90.7134L88.0987 90.6009L88.1212 90.511C89.1109 86.6572 89.8606 82.856 90.3704 79.1072C90.3704 79.0473 90.3779 78.9498 90.3929 78.8148C90.4079 78.6649 90.4229 78.4549 90.4379 78.185C90.4829 77.6302 90.5279 77.1879 90.5729 76.858C90.6329 76.5281 90.7228 76.2807 90.8428 76.1157H91.6075C91.8175 76.1157 91.9974 76.1682 92.1474 76.2732C92.2973 76.3631 92.3723 76.4981 92.3723 76.678C92.3723 77.8177 92.5297 79.5121 92.8446 81.7614C93.1445 84.0706 93.2945 85.6901 93.2945 86.6197C93.2945 86.7097 93.332 86.9421 93.4069 87.317C93.4819 87.6619 93.5194 87.8868 93.5194 87.9918C93.5194 88.0968 93.5944 88.5466 93.7443 89.3413C93.8793 90.0611 93.9468 90.526 93.9468 90.7359V90.7584C93.9468 91.0883 93.8268 91.2982 93.5869 91.3882ZM92.1024 87.0696C92.0574 86.8447 92.0349 86.5673 92.0349 86.2374C92.0349 84.8878 91.9149 83.1634 91.675 81.0641L91.4501 78.7249C90.8053 82.2487 90.3629 84.9103 90.123 86.7097C90.348 86.8597 91.0077 86.9796 92.1024 87.0696Z" fill="white"/>
<path d="M84.0428 91.3657C84.0278 91.3057 83.9978 91.2007 83.9529 91.0508C83.9229 90.9008 83.9154 90.7734 83.9304 90.6684C83.9604 88.929 84.0053 87.6319 84.0653 86.7772C84.0803 86.4623 84.0878 85.9975 84.0878 85.3827C84.0878 84.273 84.0353 82.931 83.9304 81.3565C83.8404 79.4371 83.7954 77.9826 83.7954 76.9929C83.7954 76.768 83.8854 76.5656 84.0653 76.3856C84.2453 76.2057 84.4627 76.1157 84.7176 76.1157C85.5723 76.1157 86.3146 76.1832 86.9444 76.3182C87.2443 76.3781 87.4392 76.4831 87.5292 76.6331C87.6191 76.768 87.6491 77.0004 87.6191 77.3303C87.4092 77.4653 87.1918 77.5328 86.9669 77.5328C86.8919 77.5328 86.7794 77.5178 86.6295 77.4878C86.4945 77.4578 86.1346 77.4278 85.5498 77.3978H85.5048C85.2949 77.3978 85.1899 77.5103 85.1899 77.7352C85.115 79.9095 85.0775 81.1466 85.0775 81.4465C85.1075 83.0059 85.1375 84.1831 85.1675 84.9778C85.1675 85.0828 85.175 85.2102 85.1899 85.3602C85.2049 85.5101 85.2049 85.6376 85.1899 85.7425C85.145 86.4323 85.1225 87.1596 85.1225 87.9243C85.1225 89.1689 85.145 90.0386 85.1899 90.5335C85.175 90.8633 85.1225 91.0883 85.0325 91.2082C84.9425 91.3432 84.7776 91.4107 84.5377 91.4107C84.4777 91.4107 84.3127 91.3957 84.0428 91.3657Z" fill="white"/>
<path d="M78.8347 91.4103C78.6997 91.4103 78.5722 91.3428 78.4523 91.2079C78.3473 91.0729 78.3248 90.938 78.3848 90.803C78.4298 90.668 78.5348 90.4431 78.6997 90.1282C79.1646 89.3635 79.4719 88.3288 79.6219 87.0243C79.6369 86.9343 79.5769 86.8218 79.442 86.6869C79.322 86.5369 79.247 86.4245 79.217 86.3495L78.9021 85.8996C78.5872 85.4648 78.3248 85.0674 78.1149 84.7075C77.92 84.3326 77.7325 83.8378 77.5526 83.223C77.4776 82.9681 77.4251 82.6982 77.3951 82.4133C77.3651 82.1134 77.3502 81.9259 77.3502 81.851L77.3052 81.3336C77.2902 81.0787 77.2677 80.8538 77.2377 80.6589C77.2077 80.4489 77.1852 80.2765 77.1702 80.1415C77.0353 79.2718 76.9678 78.5596 76.9678 78.0047C76.9678 77.7948 76.9753 77.6374 76.9903 77.5324C77.0053 77.3075 77.0053 77.105 76.9903 76.9251C76.9903 76.7452 76.9903 76.5952 76.9903 76.4752C77.0053 76.1753 77.1102 76.0254 77.3052 76.0254C77.3501 76.0254 77.4326 76.0404 77.5526 76.0704C78.1074 76.2353 78.3848 76.5502 78.3848 77.0151C78.3848 77.135 78.3698 77.3599 78.3398 77.6898L78.2723 78.612C78.2723 79.0319 78.2798 79.3468 78.2948 79.5567C78.4148 80.8013 78.5498 82.0309 78.6997 83.2455C78.7447 83.5754 78.8497 83.8828 79.0146 84.1677C79.1945 84.4376 79.3745 84.6625 79.5544 84.8425C79.7494 85.0074 79.8618 85.0899 79.8918 85.0899C79.9818 84.82 80.0343 84.64 80.0493 84.5501C80.1392 83.2155 80.1917 82.2333 80.2067 81.6035C80.2217 81.0787 80.2292 80.209 80.2292 78.9944V76.3628C80.2442 76.2428 80.2742 76.1603 80.3192 76.1154C80.3791 76.0554 80.4766 76.0254 80.6116 76.0254C80.9115 76.0254 81.1589 76.1379 81.3538 76.3628C81.5488 76.5727 81.6237 76.8276 81.5788 77.1275C81.5338 77.4874 81.5113 77.9672 81.5113 78.567C81.5113 78.9269 81.5188 79.1743 81.5338 79.3093C81.5488 79.4443 81.5563 79.6317 81.5563 79.8716C81.5563 80.2465 81.5263 80.7788 81.4663 81.4686C81.4663 81.6335 81.4513 81.8959 81.4213 82.2558C81.3913 82.7057 81.3163 83.3955 81.1964 84.3251L81.1064 85.0674C81.0164 85.9671 80.8365 87.0767 80.5666 88.3963C80.4766 88.8162 80.3417 89.2585 80.1617 89.7234C79.9818 90.1732 79.7793 90.5931 79.5544 90.9829C79.5094 91.0879 79.412 91.1854 79.262 91.2753C79.1121 91.3653 78.9696 91.4103 78.8347 91.4103Z" fill="white"/>
<path d="M71.9692 91.3427C71.7743 90.548 71.6768 89.4458 71.6768 88.0363L71.7218 86.0345C71.7518 85.4347 71.7668 84.7674 71.7668 84.0326C71.6768 83.8227 71.6318 83.6353 71.6318 83.4703V83.4028C71.7818 83.1179 71.8568 82.4731 71.8568 81.4685L71.8793 80.4338C71.8942 80.1039 71.9017 79.7366 71.9017 79.3317C71.9017 78.447 71.8418 77.7497 71.7218 77.2399C71.7668 77.0299 71.8418 76.85 71.9467 76.7001C72.0517 76.5351 72.1792 76.4526 72.3291 76.4526H73.3188C73.7386 76.4526 74.106 76.5501 74.4209 76.745C74.7358 76.925 74.9757 77.1874 75.1407 77.5323C75.4406 78.1471 75.5905 78.8743 75.5905 79.7141C75.5905 80.3139 75.583 80.7862 75.568 81.1311C75.538 81.5659 75.4631 81.9633 75.3431 82.3232C75.2981 82.5181 75.2306 82.6831 75.1407 82.818C75.0657 82.938 74.9532 83.0879 74.8033 83.2679C74.5934 83.5228 74.2485 83.7627 73.7686 83.9876C73.5737 84.0926 73.3188 84.1901 73.0039 84.28V86.6868L73.0489 88.1263L73.0939 88.8235C73.1538 89.6633 73.1838 90.3755 73.1838 90.9603C73.1838 91.1403 73.1088 91.2902 72.9589 91.4102C72.8089 91.5451 72.6365 91.6126 72.4416 91.6126L71.9692 91.3427ZM73.0264 83.3579C73.9111 83.2229 74.3534 81.9558 74.3534 79.5566C74.3534 79.1218 74.3309 78.7844 74.286 78.5444C74.241 78.3645 74.181 78.2221 74.106 78.1171C74.031 77.9971 73.9186 77.8997 73.7686 77.8247C73.6037 77.7347 73.4237 77.6897 73.2288 77.6897C73.2288 77.6747 73.1463 77.6672 72.9814 77.6672V78.9493C72.9814 79.834 72.9889 80.6213 73.0039 81.311C73.0039 82.0908 73.0114 82.6006 73.0264 82.8405V83.3129V83.3579Z" fill="white"/>
<path d="M69.4988 93.5247C69.3639 93.5247 69.2289 93.4497 69.094 93.2998C68.974 93.1648 68.914 93.0074 68.914 92.8274C68.914 92.5725 68.959 91.8602 69.049 90.6906C68.7191 90.6007 68.3892 90.5557 68.0593 90.5557C67.7444 90.5557 67.3021 90.5932 66.7323 90.6681L66.1924 90.7356C65.0978 90.8556 64.2356 90.938 63.6058 90.983C63.5458 90.983 63.1484 91.0055 62.4137 91.0505C62.4137 91.2005 62.4137 91.4179 62.4137 91.7028C62.4287 91.9877 62.4287 92.2201 62.4137 92.4001C62.3987 92.595 62.3387 92.7524 62.2337 92.8724C62.1438 92.9924 62.0313 93.0524 61.8964 93.0524C61.8214 93.0524 61.7239 93.0224 61.604 92.9624C61.484 92.8574 61.3565 92.655 61.2216 92.3551C61.1916 92.2651 61.1766 91.9427 61.1766 91.3879L61.1541 90.7806C61.1391 90.6606 61.1991 90.5332 61.334 90.3982C61.469 90.2483 61.6564 90.1658 61.8964 90.1508C62.5711 90.1058 63.006 89.7235 63.2009 89.0037C63.3059 88.6588 63.4034 88.2464 63.4933 87.7666C63.5833 87.2718 63.6433 86.8369 63.6733 86.462C63.8832 84.4827 63.9882 82.9682 63.9882 81.9185C63.9882 81.5587 63.9732 81.0338 63.9432 80.3441C63.9132 79.8642 63.8982 79.5118 63.8982 79.2869C63.8982 78.6571 63.8907 78.1848 63.8757 77.8699C63.8757 76.5953 63.8607 75.7856 63.8307 75.4407C63.8007 75.1408 63.8532 74.8934 63.9882 74.6984C64.1231 74.4885 64.3331 74.3685 64.618 74.3385C65.3377 74.2636 65.7726 74.2261 65.9225 74.2261C66.2374 74.2261 66.5148 74.2636 66.7548 74.3385C66.8597 74.3685 66.9497 74.3835 67.0247 74.3835C67.1146 74.3835 67.1821 74.391 67.2271 74.406C67.512 74.436 67.7069 74.496 67.8119 74.586C67.9319 74.6759 67.9918 74.8934 67.9918 75.2382L67.9694 76.7902C67.9694 77.1351 67.9768 77.39 67.9918 77.555C68.0368 79.1894 68.1193 81.7086 68.2393 85.1125L68.2618 85.7198C68.2917 86.4845 68.3292 87.2643 68.3742 88.059C68.4192 88.8387 68.4792 89.3861 68.5542 89.701C69.109 89.701 69.5288 89.7384 69.8137 89.8134C70.1136 89.8884 70.2636 90.0758 70.2636 90.3757C70.2636 90.4507 70.2561 90.5107 70.2411 90.5557C70.1961 90.8556 70.1511 91.1855 70.1061 91.5453C70.0612 91.9052 70.0312 92.2126 70.0162 92.4675C70.0012 92.5425 69.9937 92.685 69.9937 92.8949C69.9937 93.1048 69.9562 93.2623 69.8812 93.3672C69.8212 93.4722 69.6938 93.5247 69.4988 93.5247ZM64.1006 89.9709C64.7604 89.9109 65.3002 89.8734 65.7201 89.8584L67.3171 89.7459C67.3471 89.4161 67.3621 89.1761 67.3621 89.0262C67.3621 88.8162 67.3471 88.4564 67.3171 87.9465C67.3171 87.8416 67.3021 87.6691 67.2721 87.4292C67.2571 87.1893 67.2496 86.9719 67.2496 86.7769L67.0921 83.2006V80.9738L66.8222 75.8006C66.8222 75.5606 66.7997 75.3732 66.7548 75.2382C66.5898 75.1633 66.3199 75.1258 65.945 75.1258C65.6151 75.1258 65.3002 75.1483 65.0003 75.1933V78.7246V80.434C64.9554 82.4733 64.8804 84.2803 64.7754 85.8547C64.7304 86.5895 64.633 87.3542 64.483 88.149C64.3481 88.9437 64.2206 89.551 64.1006 89.9709Z" fill="white"/>
<path d="M50.881 91.388C50.7461 91.358 50.6336 91.313 50.5436 91.253C50.4687 91.2081 50.4237 91.1181 50.4087 90.9831C50.4237 90.8932 50.4612 90.7957 50.5212 90.6907C50.5811 90.5858 50.6411 90.5258 50.7011 90.5108C50.8361 90.4958 50.9335 90.4508 50.9935 90.3758C51.0535 90.3009 51.106 90.1959 51.1509 90.0609C51.1659 89.971 51.2109 89.746 51.2859 89.3862C51.3609 89.0263 51.4059 88.6814 51.4209 88.3515L51.4433 87.9691C51.4433 87.7892 51.4284 87.5343 51.3984 87.2044C51.3684 86.8745 51.3534 86.6346 51.3534 86.4846C51.3534 85.6149 51.6758 84.7602 52.3206 83.9205C51.4508 83.1257 51.016 82.256 51.016 81.3113V80.5916C51.016 79.8118 51.076 79.227 51.1959 78.8371C51.3009 78.4323 51.4958 77.9899 51.7807 77.5101C51.8857 77.2852 52.0282 77.1127 52.2081 76.9928C52.388 76.8578 52.583 76.7378 52.7929 76.6329C53.0178 76.5279 53.1903 76.4454 53.3102 76.3855C53.4002 76.3405 53.5277 76.2955 53.6926 76.2505C53.8725 76.2055 54.015 76.123 54.12 76.0031C54.3149 75.9281 54.5098 75.8906 54.7048 75.8906C54.9897 75.8906 55.2371 75.9581 55.447 76.0931C55.672 76.228 55.7844 76.3855 55.7844 76.5654C55.7844 77.2102 55.7694 78.2224 55.7394 79.6019L55.6719 82.7958L55.6495 84.0554L55.6719 85.315C55.7019 86.0048 55.7619 86.9795 55.8519 88.239L55.9419 89.7011C55.9569 89.836 55.9793 89.986 56.0093 90.1509C56.0393 90.3159 56.0543 90.4508 56.0543 90.5558C56.0543 90.9606 55.8444 91.1631 55.4245 91.1631C55.2446 91.1631 55.0796 91.1181 54.9297 91.0281C54.7947 90.9381 54.7198 90.8107 54.7048 90.6457C54.6598 90.3009 54.6373 89.9485 54.6373 89.5886L54.5698 83.9879C54.045 84.0779 53.6551 84.1754 53.4002 84.2804C53.1453 84.3853 52.9578 84.5278 52.8379 84.7077C52.7329 84.8727 52.6504 85.1126 52.5905 85.4275C52.5455 85.6224 52.523 85.9148 52.523 86.3047C52.523 86.4996 52.538 86.777 52.568 87.1369L52.5905 87.9916C52.5905 88.6364 52.553 89.1837 52.478 89.6336C52.403 90.0684 52.2381 90.4808 51.9832 90.8707C51.8632 91.0656 51.6983 91.2081 51.4883 91.298C51.2784 91.388 51.076 91.418 50.881 91.388ZM53.1078 83.3132C53.1678 83.3282 53.2652 83.3357 53.4002 83.3357C53.7151 83.3357 54.12 83.2682 54.6148 83.1332C54.6148 82.7434 54.5998 82.1436 54.5698 81.3338C54.5248 80.5691 54.5023 79.8118 54.5023 79.0621C54.5023 78.4323 54.5248 77.795 54.5698 77.1502C54.1649 77.2102 53.8051 77.3152 53.4902 77.4651C53.1753 77.6151 52.9653 77.78 52.8604 77.9599C52.4705 78.6947 52.2681 79.4145 52.2531 80.1192C52.2531 80.914 52.2681 81.4988 52.2981 81.8736C52.3131 82.2035 52.388 82.5109 52.523 82.7958C52.6579 83.0807 52.8529 83.2532 53.1078 83.3132Z" fill="white"/>
<path d="M42.388 91.6806C42.268 91.6806 42.163 91.6431 42.0731 91.5681C41.9831 91.4931 41.9156 91.3957 41.8706 91.2757C41.8556 91.2457 41.8481 91.2007 41.8481 91.1408C41.8481 90.9458 41.9531 90.7884 42.163 90.6684C42.5829 90.4885 42.8978 90.2186 43.1077 89.8587C43.3327 89.4838 43.4901 89.0489 43.5801 88.5541C43.85 87.0846 43.9849 85.4876 43.9849 83.7632C43.9849 83.1184 43.9774 82.6311 43.9624 82.3012C43.8575 79.767 43.7675 77.9826 43.6925 76.9479V76.858C43.6925 76.723 43.7225 76.6181 43.7825 76.5431C43.8425 76.4681 43.9474 76.4156 44.0974 76.3856C45.0571 76.2057 45.8218 76.1157 46.3916 76.1157C46.6915 76.1157 46.9165 76.1232 47.0664 76.1382C47.4113 76.1532 47.6737 76.2582 47.8537 76.4531C48.0336 76.648 48.1236 76.918 48.1236 77.2628L48.1461 78.4549C48.176 79.5046 48.191 80.2918 48.191 80.8167L48.1686 81.8963C48.1686 83.4858 48.2285 85.4951 48.3485 87.9243C48.4085 89.019 48.461 89.8662 48.5059 90.466C48.5209 90.7359 48.476 90.9308 48.371 91.0508C48.281 91.1707 48.1236 91.2457 47.8986 91.2757C47.4038 91.3057 47.1414 91.0733 47.1114 90.5784C47.1564 90.1436 47.1789 89.7087 47.1789 89.2739C47.1789 88.839 47.1714 88.4791 47.1564 88.1942L47.1339 85.6301C47.1339 84.3855 47.1114 83.1109 47.0664 81.8063C47.0364 80.7267 46.9914 79.707 46.9315 78.7474C46.8715 77.7877 46.8115 77.2029 46.7515 76.9929C46.6616 77.0079 46.4741 77.0454 46.1892 77.1054C45.9043 77.1654 45.5144 77.2179 45.0196 77.2628C44.9746 77.9526 44.9521 78.4475 44.9521 78.7474C44.9521 79.0922 44.9746 79.3921 45.0196 79.6471C45.0496 80.0519 45.0796 80.6442 45.1096 81.424V81.9188C45.1096 84.348 45.0871 85.99 45.0421 86.8447C45.0121 87.0846 44.9971 87.272 44.9971 87.407C44.9371 88.0368 44.8771 88.5166 44.8172 88.8465C44.6672 89.6412 44.2099 90.451 43.4451 91.2757C43.2352 91.5156 42.8978 91.6506 42.433 91.6806H42.388Z" fill="white"/>
<path d="M40.6365 93.9521C40.5166 93.982 40.4266 93.997 40.3666 93.997C40.1867 93.997 40.0592 93.8846 39.9842 93.6597C39.9243 93.4797 39.8943 93.2548 39.8943 92.9849L39.9168 91.4329C39.9168 91.3429 39.9093 91.2605 39.8943 91.1855C39.8793 91.1105 39.8643 91.0355 39.8493 90.9605H37.2626C37.4126 90.9605 37.0527 91.0355 36.183 91.1855C35.3283 91.3204 34.661 91.4104 34.1812 91.4554L33.169 91.5454L32.0444 91.6578C32.0444 91.7928 32.0444 91.9577 32.0444 92.1527C32.0594 92.3476 32.0594 92.58 32.0444 92.8499V92.9624C32.0444 93.2023 31.9844 93.3822 31.8644 93.5022C31.7445 93.6222 31.632 93.6821 31.527 93.6821C31.4671 93.6821 31.3771 93.6522 31.2571 93.5922C30.9872 93.3972 30.8373 93.1273 30.8073 92.7824L30.7398 91.1405C30.7098 90.5557 30.9497 90.2633 31.4596 90.2633C31.7445 90.2483 31.9694 90.1733 32.1343 90.0384C32.2993 89.9034 32.4942 89.6935 32.7191 89.4086C32.9441 89.1087 33.1165 88.7788 33.2365 88.4189C33.3714 88.044 33.4989 87.5942 33.6189 87.0693C33.7538 86.4995 33.8513 85.9447 33.9113 85.4049C33.9712 84.8651 34.0462 84.0928 34.1362 83.0882C34.2711 81.5137 34.3386 79.9317 34.3386 78.3422L34.3161 77.0826C34.3161 76.7977 34.3986 76.5653 34.5635 76.3854C34.7285 76.1904 34.9534 76.093 35.2383 76.093C35.3283 76.093 35.3958 76.1005 35.4407 76.1155C36.1305 76.2354 36.6928 76.3104 37.1277 76.3404H37.2402C37.4351 76.3404 37.5476 76.3029 37.5775 76.2279C37.7125 76.048 37.8774 75.958 38.0724 75.958C38.2073 75.958 38.3273 75.988 38.4323 76.048C38.6722 76.1379 38.8296 76.3629 38.9046 76.7228L38.7921 80.569C38.7921 82.6533 38.7996 84.2128 38.8146 85.2474C38.8146 85.7873 38.8296 86.612 38.8596 87.7216L38.8821 88.9587C38.8821 89.0787 38.8896 89.1911 38.9046 89.2961C38.9196 89.4011 38.9346 89.506 38.9496 89.611C39.2495 89.641 39.4744 89.656 39.6244 89.656C39.7443 89.656 39.8343 89.6485 39.8943 89.6335C40.2242 89.5885 40.5166 89.671 40.7715 89.8809C41.0414 90.0758 41.1764 90.3308 41.1764 90.6457C41.1764 91.0505 41.1464 91.6578 41.0864 92.4676C41.0864 92.6775 41.0714 92.9774 41.0414 93.3673C41.0114 93.6821 40.8765 93.8771 40.6365 93.9521ZM34.1587 90.3757C34.9984 90.3008 35.6582 90.2333 36.138 90.1733C36.6329 90.0983 37.1202 89.9859 37.6 89.8359C37.75 88.0215 37.825 86.0797 37.825 84.0103C37.825 82.091 37.75 79.9842 37.6 77.6899C37.2102 77.6749 36.4829 77.6375 35.4183 77.5775L35.3958 78.6346C35.2758 80.9439 35.1933 82.6683 35.1483 83.8079C35.0884 85.5173 34.796 87.1968 34.2711 88.8462C34.2411 88.9362 34.1737 89.1611 34.0687 89.521C33.9787 89.8659 33.8363 90.1658 33.6413 90.4207L34.1587 90.3757Z" fill="white"/>
<path d="M22.891 91.3657C22.876 91.3057 22.846 91.2007 22.801 91.0508C22.771 90.9008 22.7635 90.7734 22.7785 90.6684C22.8085 88.929 22.8535 87.6319 22.9135 86.7772C22.9285 86.4623 22.936 85.9975 22.936 85.3827C22.936 84.273 22.8835 82.931 22.7785 81.3565C22.6885 79.4371 22.6436 77.9826 22.6436 76.9929C22.6436 76.768 22.7335 76.5656 22.9135 76.3856C23.0934 76.2057 23.3108 76.1157 23.5657 76.1157C24.4205 76.1157 25.1627 76.1832 25.7925 76.3182C26.0924 76.3781 26.2873 76.4831 26.3773 76.6331C26.4673 76.768 26.4973 77.0004 26.4673 77.3303C26.2574 77.4653 26.0399 77.5328 25.815 77.5328C25.74 77.5328 25.6276 77.5178 25.4776 77.4878C25.3427 77.4578 24.9828 77.4278 24.398 77.3978H24.353C24.1431 77.3978 24.0381 77.5103 24.0381 77.7352C23.9631 79.9095 23.9256 81.1466 23.9256 81.4465C23.9556 83.0059 23.9856 84.1831 24.0156 84.9778C24.0156 85.0828 24.0231 85.2102 24.0381 85.3602C24.0531 85.5101 24.0531 85.6376 24.0381 85.7425C23.9931 86.4323 23.9706 87.1596 23.9706 87.9243C23.9706 89.1689 23.9931 90.0386 24.0381 90.5335C24.0231 90.8633 23.9706 91.0883 23.8806 91.2082C23.7907 91.3432 23.6257 91.4107 23.3858 91.4107C23.3258 91.4107 23.1609 91.3957 22.891 91.3657Z" fill="white"/>
<path d="M17.6828 91.4103C17.5478 91.4103 17.4204 91.3428 17.3004 91.2079C17.1955 91.0729 17.173 90.938 17.2329 90.803C17.2779 90.668 17.3829 90.4431 17.5478 90.1282C18.0127 89.3635 18.3201 88.3288 18.47 87.0243C18.485 86.9343 18.4251 86.8218 18.2901 86.6869C18.1701 86.5369 18.0952 86.4245 18.0652 86.3495L17.7503 85.8996C17.4354 85.4648 17.173 85.0674 16.963 84.7075C16.7681 84.3326 16.5807 83.8378 16.4007 83.223C16.3257 82.9681 16.2733 82.6982 16.2433 82.4133C16.2133 82.1134 16.1983 81.9259 16.1983 81.851L16.1533 81.3336C16.1383 81.0787 16.1158 80.8538 16.0858 80.6589C16.0558 80.4489 16.0333 80.2765 16.0184 80.1415C15.8834 79.2718 15.8159 78.5596 15.8159 78.0047C15.8159 77.7948 15.8234 77.6374 15.8384 77.5324C15.8534 77.3075 15.8534 77.105 15.8384 76.9251C15.8384 76.7452 15.8384 76.5952 15.8384 76.4752C15.8534 76.1753 15.9584 76.0254 16.1533 76.0254C16.1983 76.0254 16.2808 76.0404 16.4007 76.0704C16.9555 76.2353 17.2329 76.5502 17.2329 77.0151C17.2329 77.135 17.218 77.3599 17.188 77.6898L17.1205 78.612C17.1205 79.0319 17.128 79.3468 17.143 79.5567C17.2629 80.8013 17.3979 82.0309 17.5478 83.2455C17.5928 83.5754 17.6978 83.8828 17.8627 84.1677C18.0427 84.4376 18.2226 84.6625 18.4026 84.8425C18.5975 85.0074 18.71 85.0899 18.74 85.0899C18.8299 84.82 18.8824 84.64 18.8974 84.5501C18.9874 83.2155 19.0399 82.2333 19.0548 81.6035C19.0698 81.0787 19.0773 80.209 19.0773 78.9944V76.3628C19.0923 76.2428 19.1223 76.1603 19.1673 76.1154C19.2273 76.0554 19.3248 76.0254 19.4597 76.0254C19.7596 76.0254 20.007 76.1379 20.202 76.3628C20.3969 76.5727 20.4719 76.8276 20.4269 77.1275C20.3819 77.4874 20.3594 77.9672 20.3594 78.567C20.3594 78.9269 20.3669 79.1743 20.3819 79.3093C20.3969 79.4443 20.4044 79.6317 20.4044 79.8716C20.4044 80.2465 20.3744 80.7788 20.3144 81.4686C20.3144 81.6335 20.2994 81.8959 20.2694 82.2558C20.2395 82.7057 20.1645 83.3955 20.0445 84.3251L19.9545 85.0674C19.8646 85.9671 19.6846 87.0767 19.4147 88.3963C19.3248 88.8162 19.1898 89.2585 19.0099 89.7234C18.8299 90.1732 18.6275 90.5931 18.4026 90.9829C18.3576 91.0879 18.2601 91.1854 18.1102 91.2753C17.9602 91.3653 17.8178 91.4103 17.6828 91.4103Z" fill="white"/>
<path d="M10.8174 91.3427C10.6224 90.548 10.525 89.4458 10.525 88.0363L10.57 86.0345C10.5999 85.4347 10.6149 84.7674 10.6149 84.0326C10.525 83.8227 10.48 83.6353 10.48 83.4703V83.4028C10.6299 83.1179 10.7049 82.4731 10.7049 81.4685L10.7274 80.4338C10.7424 80.1039 10.7499 79.7366 10.7499 79.3317C10.7499 78.447 10.6899 77.7497 10.57 77.2399C10.6149 77.0299 10.6899 76.85 10.7949 76.7001C10.8998 76.5351 11.0273 76.4526 11.1773 76.4526H12.1669C12.5868 76.4526 12.9542 76.5501 13.2691 76.745C13.584 76.925 13.8239 77.1874 13.9888 77.5323C14.2887 78.1471 14.4387 78.8743 14.4387 79.7141C14.4387 80.3139 14.4312 80.7862 14.4162 81.1311C14.3862 81.5659 14.3112 81.9633 14.1913 82.3232C14.1463 82.5181 14.0788 82.6831 13.9888 82.818C13.9138 82.938 13.8014 83.0879 13.6514 83.2679C13.4415 83.5228 13.0966 83.7627 12.6168 83.9876C12.4218 84.0926 12.1669 84.1901 11.852 84.28V86.6868L11.897 88.1263L11.942 88.8235C12.002 89.6633 12.032 90.3755 12.032 90.9603C12.032 91.1403 11.957 91.2902 11.807 91.4102C11.6571 91.5451 11.4846 91.6126 11.2897 91.6126L10.8174 91.3427ZM11.8745 83.3579C12.7592 83.2229 13.2016 81.9558 13.2016 79.5566C13.2016 79.1218 13.1791 78.7844 13.1341 78.5444C13.0891 78.3645 13.0291 78.2221 12.9542 78.1171C12.8792 77.9971 12.7667 77.8997 12.6168 77.8247C12.4518 77.7347 12.2719 77.6897 12.077 77.6897C12.077 77.6747 11.9945 77.6672 11.8295 77.6672V78.9493C11.8295 79.834 11.837 80.6213 11.852 81.311C11.852 82.0908 11.8595 82.6006 11.8745 82.8405V83.3129V83.3579Z" fill="white"/>
<path d="M8.34699 93.5247C8.21204 93.5247 8.07708 93.4497 7.94212 93.2998C7.82216 93.1648 7.76218 93.0074 7.76218 92.8274C7.76218 92.5725 7.80717 91.8602 7.89714 90.6906C7.56725 90.6007 7.23736 90.5557 6.90747 90.5557C6.59257 90.5557 6.15022 90.5932 5.58041 90.6681L5.04058 90.7356C3.94595 90.8556 3.08373 90.938 2.45394 90.983C2.39396 90.983 1.99659 91.0055 1.26183 91.0505C1.26183 91.2005 1.26183 91.4179 1.26183 91.7028C1.27683 91.9877 1.27683 92.2201 1.26183 92.4001C1.24684 92.595 1.18686 92.7524 1.08189 92.8724C0.991922 92.9924 0.879459 93.0524 0.744504 93.0524C0.669529 93.0524 0.572061 93.0224 0.452101 92.9624C0.33214 92.8574 0.204682 92.655 0.069727 92.3551C0.0397369 92.2651 0.0247418 91.9427 0.0247418 91.3879L0.00224926 90.7806C-0.0127458 90.6606 0.0472344 90.5332 0.18219 90.3982C0.317145 90.2483 0.504583 90.1658 0.744504 90.1508C1.41928 90.1058 1.85414 89.7235 2.04907 89.0037C2.15404 88.6588 2.25151 88.2464 2.34148 87.7666C2.43145 87.2718 2.49143 86.8369 2.52142 86.462C2.73135 84.4827 2.83631 82.9682 2.83631 81.9185C2.83631 81.5587 2.82132 81.0338 2.79133 80.3441C2.76134 79.8642 2.74634 79.5118 2.74634 79.2869C2.74634 78.6571 2.73884 78.1848 2.72385 77.8699C2.72385 76.5953 2.70885 75.7856 2.67886 75.4407C2.64887 75.1408 2.70136 74.8934 2.83631 74.6984C2.97127 74.4885 3.1812 74.3685 3.4661 74.3385C4.18587 74.2636 4.62072 74.2261 4.77067 74.2261C5.08557 74.2261 5.36298 74.2636 5.6029 74.3385C5.70786 74.3685 5.79783 74.3835 5.87281 74.3835C5.96278 74.3835 6.03026 74.391 6.07524 74.406C6.36015 74.436 6.55508 74.496 6.66005 74.586C6.78001 74.6759 6.83999 74.8934 6.83999 75.2382L6.8175 76.7902C6.8175 77.1351 6.82499 77.39 6.83999 77.555C6.88497 79.1894 6.96745 81.7086 7.08741 85.1125L7.1099 85.7198C7.13989 86.4845 7.17738 87.2643 7.22236 88.059C7.26735 88.8387 7.32733 89.3861 7.4023 89.701C7.95712 89.701 8.37698 89.7384 8.66189 89.8134C8.96179 89.8884 9.11174 90.0758 9.11174 90.3757C9.11174 90.4507 9.10424 90.5107 9.08925 90.5557C9.04426 90.8556 8.99928 91.1855 8.95429 91.5453C8.90931 91.9052 8.87932 92.2126 8.86432 92.4675C8.84933 92.5425 8.84183 92.685 8.84183 92.8949C8.84183 93.1048 8.80434 93.2623 8.72936 93.3672C8.66938 93.4722 8.54193 93.5247 8.34699 93.5247ZM2.94878 89.9709C3.60856 89.9109 4.14838 89.8734 4.56824 89.8584L6.16521 89.7459C6.1952 89.4161 6.2102 89.1761 6.2102 89.0262C6.2102 88.8162 6.1952 88.4564 6.16521 87.9465C6.16521 87.8416 6.15022 87.6691 6.12023 87.4292C6.10523 87.1893 6.09773 86.9719 6.09773 86.7769L5.94029 83.2006V80.9738L5.67038 75.8006C5.67038 75.5606 5.64788 75.3732 5.6029 75.2382C5.43795 75.1633 5.16804 75.1258 4.79317 75.1258C4.46327 75.1258 4.14838 75.1483 3.84848 75.1933V78.7246V80.434C3.80349 82.4733 3.72852 84.2803 3.62355 85.8547C3.57857 86.5895 3.4811 87.3542 3.33115 88.149C3.19619 88.9437 3.06874 89.551 2.94878 89.9709Z" fill="white"/>
<g clip-path="url(#clip0_545_2560)">
<path d="M99.8754 53.1749C99.9363 53.1749 100.018 53.1749 100.067 53.1749C100.115 53.1749 100.178 53.1749 100.241 53.1749C100.351 53.1646 100.461 53.1484 100.569 53.1263C100.785 53.0772 100.997 53.0087 101.2 52.9215C101.401 52.8363 101.592 52.7304 101.771 52.6056C101.936 52.4977 102.073 52.3512 102.169 52.1787C102.343 51.8507 102.334 51.4307 102.086 51.2276C101.784 50.9394 101.43 50.7114 101.042 50.556C100.654 50.3863 100.244 50.2695 99.825 50.2088C99.611 50.1797 99.3957 50.1618 99.1798 50.155C98.9538 50.1429 98.7295 50.136 98.5069 50.1325C97.6235 50.1186 96.7436 50.188 96.0237 50.4969C95.9345 50.5337 95.8474 50.5754 95.7629 50.6219C95.6795 50.6663 95.5988 50.7156 95.5212 50.7694C95.4447 50.8228 95.3715 50.8808 95.3021 50.943C95.2423 50.9906 95.1886 51.0454 95.1421 51.1061C95.0644 51.2003 95.0118 51.3125 94.9891 51.4324C94.9787 51.5245 94.9943 51.6177 95.0343 51.7014C95.0956 51.8499 95.1719 51.9918 95.2621 52.1249C95.3625 52.2819 95.474 52.4316 95.596 52.5726C95.7212 52.7202 95.8568 52.866 96.0011 53.0117C96.1454 53.1575 96.2985 53.2894 96.4724 53.4543L96.5819 53.5619C96.6132 53.5897 96.6428 53.6192 96.6793 53.6504C96.7488 53.7094 96.8271 53.7684 96.9071 53.824C97.0671 53.9437 97.241 54.0548 97.4166 54.1607C97.5852 54.2617 97.7594 54.3532 97.9383 54.4349C98.0155 54.4685 98.0944 54.4981 98.1747 54.5234L98.2965 54.5546L98.4217 54.5737C98.757 54.6278 99.1002 54.5473 99.3763 54.3498C99.5156 54.2308 99.6207 54.0768 99.6806 53.9038C99.7497 53.6976 99.7878 53.4824 99.7937 53.2651V53.1922L99.8267 53.1766C99.8426 53.1726 99.8592 53.172 99.8754 53.1749ZM99.9032 53.3276C99.9089 53.3295 99.9149 53.3295 99.9206 53.3276L99.9606 53.2408C100.073 53.4698 100.138 53.7188 100.152 53.9732C100.164 54.2611 100.095 54.5466 99.9536 54.7976C99.7959 55.0559 99.5736 55.2688 99.3085 55.4154C99.0488 55.5585 98.7645 55.6515 98.4704 55.6897C98.3991 55.6897 98.3243 55.7053 98.2513 55.7088H98.0374C97.8895 55.6994 97.7425 55.6797 97.5974 55.6497C97.3323 55.5931 97.0723 55.5147 96.8201 55.4154C96.5818 55.3216 96.3495 55.2132 96.1246 55.0909C96.0081 55.0267 95.895 54.959 95.7768 54.8809C95.7194 54.8427 95.6603 54.7993 95.6029 54.7577L95.4499 54.6379C95.276 54.5078 95.076 54.3481 94.89 54.1763C94.6955 54.0012 94.5137 53.8127 94.3457 53.6122C94.1684 53.4021 94.0118 53.1754 93.8779 52.9354C93.8086 52.8106 93.7465 52.6819 93.6919 52.5501C93.6287 52.4054 93.5781 52.2556 93.5406 52.1023C93.4995 51.9266 93.4808 51.7464 93.4849 51.566C93.4892 51.3764 93.5226 51.1885 93.584 51.0089C93.6964 50.686 93.8834 50.394 94.1301 50.1568C94.2396 50.0481 94.3596 49.9505 94.4883 49.8652C94.6065 49.7906 94.7195 49.7107 94.8361 49.6483C94.9544 49.5825 95.077 49.5245 95.203 49.4747C95.3256 49.4204 95.451 49.3723 95.5786 49.3307C96.0696 49.1709 96.5805 49.0798 97.0966 49.0599C97.585 49.0379 98.0744 49.0518 98.5608 49.1016C98.799 49.1276 99.0338 49.1571 99.2668 49.1901C99.4998 49.2231 99.7519 49.2612 99.9936 49.322C100.48 49.4384 100.948 49.6206 101.385 49.8635C101.603 49.9851 101.811 50.1232 102.007 50.2765C102.214 50.4349 102.4 50.6186 102.56 50.8232C102.601 50.8764 102.639 50.9343 102.675 50.9968C102.719 51.0686 102.754 51.1455 102.779 51.2259C102.821 51.3677 102.84 51.5154 102.835 51.6632C102.824 51.9457 102.731 52.2188 102.567 52.4494C102.49 52.5609 102.397 52.6613 102.292 52.7479C102.193 52.8307 102.085 52.9028 101.971 52.9631C101.756 53.0804 101.529 53.1741 101.294 53.2426C101.063 53.3104 100.826 53.3552 100.587 53.3762C100.467 53.384 100.347 53.384 100.227 53.3762C100.166 53.3762 100.107 53.3762 100.053 53.3623C100.002 53.3543 99.9522 53.3427 99.9032 53.3276Z" fill="white"/>
<path d="M98.2389 44.3949C98.3485 44.2456 98.4511 44.1137 98.5728 43.9766C98.7085 43.8452 98.8711 43.7446 99.0493 43.6816C99.2392 43.6139 99.4408 43.5844 99.6422 43.5948C99.8437 43.6052 100.041 43.6554 100.223 43.7423C100.598 43.9358 100.898 44.2493 101.073 44.6326C101.121 44.7283 101.161 44.8275 101.193 44.9294C101.225 45.0255 101.251 45.1235 101.272 45.2227C101.314 45.4109 101.345 45.6016 101.364 45.7937C101.405 46.2006 101.376 46.6117 101.277 47.0086C101.246 47.1165 101.208 47.222 101.162 47.3244L101.098 47.4772L101.012 47.6282L100.922 47.7809L100.807 47.9267C100.726 48.0282 100.635 48.1218 100.536 48.2061C100.214 48.4686 99.8151 48.6209 99.3994 48.6406C98.9838 48.6603 98.5727 48.5463 98.2268 48.3154C97.9641 48.148 97.7529 47.9113 97.6164 47.6316L97.6547 47.6976C97.6338 47.6611 97.6234 47.642 97.6147 47.623C97.606 47.6039 97.5938 47.5813 97.5851 47.5622C97.5667 47.525 97.5504 47.4868 97.5364 47.4477C97.5076 47.3744 97.4826 47.2997 97.4616 47.2238C97.4408 47.1474 97.4269 47.0711 97.4095 46.9964L97.3817 46.7673C97.3611 46.4604 97.3964 46.1523 97.486 45.8579C97.5713 45.5812 97.688 45.3151 97.8338 45.0648C97.9537 44.8235 98.105 44.6031 98.2389 44.3949ZM98.3728 44.473C98.2696 44.6897 98.2172 44.9272 98.2198 45.1672C98.226 45.4016 98.2811 45.6321 98.3815 45.844C98.473 46.0382 98.5794 46.225 98.6997 46.4029L98.8615 46.6493C98.8845 46.6891 98.9101 46.7273 98.938 46.7639L98.9727 46.8159L98.9901 46.8368L99.0267 46.9027C99.0267 46.8732 99.0701 46.9235 99.1258 46.9582C99.1881 47.0012 99.2545 47.0378 99.324 47.0676C99.3881 47.0971 99.456 47.1176 99.5257 47.1283C99.5593 47.1309 99.593 47.1309 99.6266 47.1283C99.6422 47.1283 99.6579 47.1196 99.677 47.1162C99.696 47.1144 99.7144 47.1085 99.7309 47.0988C99.7721 47.0839 99.81 47.0608 99.8422 47.0311L99.8996 46.986L99.9535 46.9218L100.009 46.8593L100.058 46.7777C100.092 46.7274 100.123 46.6746 100.15 46.6198C100.253 46.3571 100.312 46.0791 100.324 45.7972C100.337 45.6448 100.342 45.4918 100.336 45.339C100.336 45.2626 100.336 45.1915 100.322 45.1255C100.318 45.0666 100.31 45.008 100.298 44.9502C100.225 44.6814 100.09 44.4334 99.9031 44.2265C99.8022 44.1155 99.6777 44.0286 99.5386 43.9721C99.3995 43.9156 99.2495 43.891 99.0997 43.9002C98.9414 43.9099 98.7906 43.9708 98.6702 44.0738C98.5537 44.193 98.4537 44.3273 98.3728 44.473Z" fill="white"/>
<path d="M93.4659 47.1269C93.6514 47.2508 93.8658 47.3249 94.0884 47.3421C94.3011 47.3572 94.513 47.3043 94.6936 47.1911C94.7654 47.1394 94.8253 47.0731 94.8694 46.9965C94.9135 46.9198 94.9407 46.8347 94.9492 46.7468C94.9724 46.5722 94.9582 46.3948 94.9074 46.2261C94.8564 46.0571 94.7757 45.8985 94.6692 45.7575C94.549 45.6071 94.4132 45.4699 94.2641 45.348C93.9568 45.0903 93.6113 44.8818 93.2398 44.7301C93.1557 44.699 93.0697 44.6729 92.9825 44.652C92.8974 44.6315 92.8107 44.6188 92.7234 44.6138C92.5669 44.6034 92.4956 44.6572 92.5286 44.6763C92.5617 44.6954 92.5286 44.718 92.5165 44.7735C92.487 44.8594 92.4735 44.95 92.4765 45.0408C92.4765 45.1727 92.4904 45.3618 92.506 45.5475C92.5168 45.7386 92.5518 45.9276 92.6104 46.1098C92.687 46.3199 92.8 46.515 92.9442 46.686C93.0995 46.8536 93.2747 47.0017 93.4659 47.1269ZM93.3894 47.264C93.1709 47.1632 92.9468 47.0752 92.7182 47.0002C92.4706 46.9124 92.2299 46.8063 91.9983 46.6826C91.7397 46.5365 91.5127 46.3406 91.3305 46.1064C91.1418 45.8693 91.006 45.5948 90.9323 45.3011C90.8401 44.9388 90.8595 44.5571 90.988 44.206C91.0627 44.0013 91.1783 43.814 91.3278 43.6553C91.4772 43.4966 91.6574 43.3698 91.8574 43.2827C92.0617 43.2009 92.2809 43.1631 92.5008 43.1716C92.678 43.1792 92.8534 43.2101 93.0225 43.2636C93.1603 43.3079 93.2951 43.3613 93.4259 43.4232C93.556 43.4798 93.6826 43.5442 93.805 43.6159C94.2559 43.8864 94.6614 44.2261 95.0066 44.6225C95.1808 44.8302 95.3313 45.0566 95.4552 45.2976C95.5816 45.556 95.6589 45.8355 95.683 46.122C95.7024 46.4142 95.6372 46.7058 95.4952 46.962C95.4256 47.0914 95.3301 47.2051 95.2146 47.2962C95.0992 47.3873 94.9662 47.4537 94.824 47.4913C94.697 47.5248 94.5656 47.5383 94.4345 47.5313C94.3118 47.5286 94.1896 47.5153 94.0693 47.4913C93.8341 47.4439 93.6057 47.3676 93.3894 47.264Z" fill="white"/>
<path d="M88.9291 49.0149C88.905 48.7756 88.9509 48.5345 89.0613 48.3207C89.19 48.105 89.3801 47.9322 89.6073 47.8243C90.0582 47.609 90.5611 47.5259 91.0575 47.5848C91.3023 47.609 91.5448 47.6525 91.7826 47.715C91.9092 47.7482 92.0334 47.7894 92.1548 47.8382C92.2174 47.8625 92.2817 47.892 92.3478 47.925C92.4139 47.958 92.4869 48.0031 92.5338 48.0343C92.7637 48.1794 92.9731 48.3545 93.1564 48.555C93.258 48.6715 93.3472 48.7983 93.4224 48.9333C93.4618 49.0049 93.4961 49.0791 93.525 49.1555C93.5407 49.1937 93.5528 49.2353 93.5667 49.2752C93.5807 49.3152 93.5911 49.3707 93.6015 49.4193C93.6372 49.608 93.6372 49.8016 93.6015 49.9903C93.5711 50.1718 93.5124 50.3475 93.4276 50.5109C93.3399 50.6831 93.2221 50.8382 93.0799 50.9691C93.0008 51.0426 92.9139 51.1072 92.8208 51.1618L92.746 51.2034L92.6851 51.2329C92.6457 51.2533 92.605 51.2713 92.5634 51.2867C92.2567 51.4065 91.9265 51.4546 91.5983 51.4273C91.4528 51.4159 91.3085 51.3921 91.1671 51.3562C91.0366 51.3232 90.9393 51.2902 90.8193 51.252C90.5873 51.1711 90.3651 51.0646 90.1568 50.9344C89.9284 50.7881 89.7197 50.6131 89.536 50.4138C89.344 50.2152 89.1896 49.9835 89.0804 49.73C88.9899 49.5018 88.9388 49.2601 88.9291 49.0149ZM89.0839 48.9941C89.1215 49.1993 89.232 49.3842 89.3951 49.5147C89.5585 49.624 89.7498 49.6842 89.9464 49.6883C90.3446 49.7074 90.7636 49.6675 91.1845 49.7282L91.494 49.7733L91.7253 49.7994C91.8435 49.8135 91.9628 49.817 92.0817 49.8098H92.1356C92.1356 49.8098 92.1461 49.8202 92.1565 49.8202C92.1893 49.8162 92.2198 49.8015 92.2434 49.7786C92.3016 49.7293 92.3429 49.6632 92.3617 49.5894C92.3617 49.5894 92.3617 49.5894 92.3617 49.5703C92.3625 49.5564 92.3625 49.5425 92.3617 49.5286C92.3576 49.4998 92.3512 49.4714 92.3426 49.4436C92.3207 49.3772 92.291 49.3137 92.2539 49.2544C92.1579 49.1063 92.0408 48.973 91.9061 48.8587C91.6159 48.6169 91.2747 48.4437 90.908 48.3519C90.5132 48.2339 90.1168 48.0986 89.7099 48.1367C89.6098 48.1488 89.512 48.1751 89.4195 48.2148C89.3292 48.2592 89.2502 48.3233 89.1882 48.4023C89.1303 48.4881 89.091 48.5852 89.0731 48.6871C89.0551 48.7891 89.0588 48.8936 89.0839 48.9941Z" fill="white"/>
<path d="M91.7495 53.918C91.9028 53.8565 92.0458 53.7723 92.1738 53.6681C92.2254 53.6202 92.2648 53.5607 92.2886 53.4945C92.3161 53.4286 92.3297 53.3577 92.3286 53.2863C92.3339 53.2262 92.3223 53.1659 92.2949 53.1122C92.2675 53.0585 92.2256 53.0136 92.1738 52.9825C92.1519 52.973 92.1282 52.968 92.1043 52.968C92.0803 52.968 92.0566 52.973 92.0347 52.9825C92.0116 52.9912 91.9877 52.9976 91.9634 53.0016C91.9425 53.0016 91.9182 53.0155 91.8939 53.0259C91.72 53.104 91.5165 53.2342 91.327 53.3227C91.2331 53.3713 91.1409 53.413 91.0679 53.4494L91.0174 53.472C91.0035 53.4806 90.9879 53.4858 90.9827 53.4911C90.9774 53.4963 90.967 53.5015 90.9827 53.4997H90.9914C91.0058 53.4967 91.0197 53.492 91.0331 53.4858L91.047 53.4772H91.0314C91.0209 53.4777 91.0105 53.4777 91.0001 53.4772C90.9812 53.4817 90.9615 53.4817 90.9427 53.4772C90.9027 53.465 90.8818 53.432 90.8505 53.3626C90.8312 53.3233 90.8079 53.2861 90.781 53.2515C90.7673 53.2334 90.7501 53.218 90.7305 53.2064C90.7115 53.2 90.6915 53.1965 90.6714 53.196H90.6349L90.6036 53.1856C90.5782 53.1821 90.5525 53.1821 90.5271 53.1856C90.5045 53.1843 90.4818 53.188 90.4608 53.1964C90.4398 53.2048 90.4208 53.2177 90.4053 53.2342C90.3963 53.242 90.389 53.2515 90.3839 53.2623C90.3788 53.2731 90.3761 53.2848 90.3758 53.2967C90.3723 53.3232 90.3723 53.35 90.3758 53.3765C90.3904 53.4398 90.4189 53.4991 90.4593 53.5501C90.5555 53.6732 90.681 53.7704 90.8244 53.833C90.9736 53.9025 91.1335 53.9459 91.2974 53.9614C91.4495 53.9793 91.6037 53.9645 91.7495 53.918ZM91.8173 54.0603C91.4825 54.176 91.1272 54.2209 90.774 54.1922C90.5975 54.1857 90.4224 54.1583 90.2523 54.1106C90.0711 54.0639 89.9048 53.9719 89.7689 53.8434C89.6981 53.7763 89.6393 53.6976 89.595 53.6108C89.5762 53.5655 89.56 53.5191 89.5463 53.472L89.5237 53.4008V53.3296C89.4926 53.1368 89.5224 52.9391 89.6089 52.7639C89.7894 52.4352 90.0781 52.1789 90.4262 52.0384C90.6012 51.9765 90.7849 51.9425 90.9705 51.9378C91.1476 51.9288 91.3252 51.9363 91.5009 51.9603C91.8647 52.0007 92.2073 52.1522 92.4816 52.3942C92.5165 52.4261 92.548 52.4616 92.5755 52.5001C92.6051 52.5373 92.6319 52.5768 92.6555 52.6181C92.7024 52.7037 92.733 52.7973 92.7459 52.894C92.7649 53.0814 92.7286 53.2702 92.6416 53.4372C92.6014 53.5185 92.5518 53.5948 92.4938 53.6646C92.4317 53.733 92.3596 53.7915 92.2799 53.8382C92.1298 53.9204 91.9754 53.9946 91.8173 54.0603Z" fill="white"/>
<path d="M41.1913 28.6954C40.8367 28.323 40.5496 27.8919 40.3427 27.4215L40.2001 27.057C40.1601 26.9321 40.1184 26.8071 40.0801 26.6804C40.0419 26.5537 40.021 26.4253 39.9949 26.2951C39.9688 26.165 39.9497 26.0365 39.9323 25.9046C39.9149 25.7727 39.901 25.6426 39.8836 25.5089L39.8489 25.1098C39.846 24.9759 39.8518 24.842 39.8663 24.7089C39.886 24.577 39.9144 24.4465 39.9515 24.3184C39.9967 24.1934 40.0419 24.0667 40.0958 23.9452C40.1497 23.8237 40.2192 23.7057 40.2905 23.5981C40.3668 23.4799 40.4492 23.3658 40.5375 23.2562C40.6326 23.1528 40.7374 23.0586 40.8505 22.9751C40.8567 22.9702 40.864 22.9666 40.8717 22.9647C40.8794 22.9627 40.8874 22.9624 40.8953 22.9637C40.9031 22.965 40.9106 22.9679 40.9173 22.9722C40.9239 22.9766 40.9296 22.9823 40.9339 22.9889C40.9392 22.9962 40.9427 23.0045 40.9444 23.0132C40.9669 23.151 40.9803 23.2902 40.9844 23.4298C40.9844 23.5582 40.9983 23.6849 40.9948 23.8064C40.9913 23.9279 40.9948 24.0476 40.9948 24.1656C40.9948 24.2837 40.9948 24.3999 40.9791 24.5127C40.9765 24.6291 40.9654 24.7451 40.9461 24.8598C40.932 24.9732 40.9111 25.0857 40.8835 25.1965L40.8122 25.535C40.7913 25.6478 40.7809 25.7623 40.7687 25.8821L40.7583 26.2292L40.7687 26.5763L40.7948 26.9234L40.8453 27.2705C40.9253 27.7437 41.071 28.2034 41.2782 28.6364C41.2827 28.6477 41.2832 28.6603 41.2796 28.6719C41.276 28.6836 41.2685 28.6937 41.2584 28.7005C41.2483 28.7074 41.2361 28.7106 41.2239 28.7097C41.2117 28.7087 41.2002 28.7037 41.1913 28.6954Z" fill="white"/>
<path d="M49.3048 34.6603C48.9652 34.6409 48.6392 34.52 48.3693 34.3132C48.1085 34.1227 47.8906 33.8796 47.7298 33.5998C47.5689 33.32 47.4687 33.0096 47.4355 32.6888C47.3983 32.3524 47.4631 32.0126 47.6216 31.7134C47.838 31.9334 48.0352 32.1714 48.2111 32.4249C48.363 32.6393 48.504 32.8612 48.6336 33.0897C48.7606 33.3135 48.8771 33.5426 48.9814 33.7926C49.1127 34.0726 49.2208 34.3628 49.3048 34.6603Z" fill="white"/>
<path d="M51.4035 35.0232C51.2005 35.1106 50.9728 35.1224 50.7619 35.0562C50.5438 34.9931 50.3441 34.8788 50.1793 34.7229C49.869 34.4134 49.6619 34.0158 49.5864 33.5844C49.509 33.196 49.509 32.7962 49.5864 32.4077C49.661 32.0106 49.8412 31.6408 50.108 31.3369C50.2299 31.6891 50.3298 32.0484 50.4071 32.4129C50.4819 32.7444 50.548 33.0707 50.6071 33.3831C50.6551 33.6709 50.729 33.9538 50.8279 34.2283C50.8806 34.3689 50.9495 34.5028 51.0331 34.6275C51.1341 34.7787 51.2592 34.9124 51.4035 35.0232Z" fill="white"/>
<path d="M58.4967 32.9072C57.9988 32.6844 57.5582 32.3514 57.2082 31.9336C56.8549 31.5201 56.5729 31.0509 56.3735 30.5452C56.1698 30.0413 56.0523 29.5068 56.0257 28.9641C55.9935 28.4186 56.0869 27.873 56.2987 27.3691C56.5092 27.8898 56.6639 28.3532 56.8308 28.8148C56.9978 29.2765 57.1612 29.7208 57.3351 30.1634C57.509 30.6059 57.6933 31.0467 57.8881 31.4945C58.0829 31.9423 58.3002 32.3918 58.4967 32.9072Z" fill="white"/>
<path d="M69.603 24.2107C69.4504 24.2587 69.2852 24.2476 69.1404 24.1795C69.0014 24.1144 68.8772 24.0217 68.7753 23.907C68.5993 23.704 68.4763 23.4608 68.4171 23.1989C68.3712 23.0025 68.3467 22.8018 68.344 22.6002C68.3568 22.3715 68.3322 22.1423 68.271 21.9216C68.4249 21.8804 68.5888 21.8983 68.7301 21.9719C68.8641 22.0409 68.9824 22.1365 69.0778 22.253C69.2468 22.454 69.3659 22.6918 69.4256 22.9473C69.4705 23.1403 69.4955 23.3375 69.5004 23.5356C69.4926 23.765 69.5274 23.9939 69.603 24.2107Z" fill="white"/>
<path d="M79.3097 29.1415C79.1727 29.1844 79.0259 29.1848 78.8887 29.1427C78.7514 29.1005 78.6303 29.0178 78.5411 28.9055C78.3569 28.6968 78.2576 28.4268 78.2629 28.1488C78.2657 27.899 78.3465 27.6563 78.4942 27.4546C78.6455 27.2538 78.8549 27.1042 79.0941 27.0259C79.1907 27.238 79.2529 27.4642 79.2784 27.6958C79.2991 27.8499 79.3084 28.0054 79.3062 28.1609C79.3062 28.2772 79.2906 28.3987 79.2749 28.5427C79.2444 28.7426 79.2562 28.9465 79.3097 29.1415Z" fill="white"/>
<path d="M66.9218 21.6384C66.1461 21.6619 65.3697 21.63 64.5986 21.543C63.8393 21.4655 63.0858 21.3608 62.338 21.2289C61.5903 21.0987 60.8461 20.9442 60.1035 20.7603C59.3496 20.5814 58.6093 20.3494 57.8882 20.066C58.6601 19.9489 59.4422 19.9117 60.2218 19.955C60.9917 19.9889 61.7585 20.0735 62.5171 20.2084C63.2769 20.3404 64.0274 20.5213 64.7638 20.7498C65.5114 20.9725 66.2344 21.2702 66.9218 21.6384Z" fill="white"/>
<path d="M61.1865 39.3357C61.2919 39.2667 61.3813 39.1762 61.4491 39.0702C61.497 38.9961 61.5378 38.9176 61.5708 38.8359C61.6317 38.6918 61.6752 38.5599 61.7134 38.4488L61.8873 37.9611C61.9687 37.7189 62.0827 37.4888 62.2264 37.2773C62.4509 37.4434 62.619 37.6742 62.7081 37.9386C62.8003 38.2122 62.8003 38.5084 62.7081 38.7821C62.6559 38.9347 62.573 39.075 62.4645 39.1944C62.3559 39.3138 62.224 39.4097 62.0768 39.4763C61.9283 39.5438 61.7644 39.5701 61.6021 39.5526C61.5215 39.5476 61.4428 39.5257 61.3712 39.4883C61.2996 39.4509 61.2367 39.3989 61.1865 39.3357Z" fill="white"/>
<path d="M63.7344 28.5879C64.2352 28.7875 64.6682 29.0062 65.0994 29.2109C65.315 29.3151 65.5254 29.4209 65.7254 29.506C65.9172 29.5911 66.1155 29.6607 66.3184 29.7143C66.7278 29.8265 67.1511 29.8797 67.5756 29.8722C68.0277 29.8722 68.5181 29.8167 69.0572 29.8253C68.6888 30.2161 68.2286 30.509 67.7182 30.6775C67.1761 30.8582 66.5923 30.8727 66.0419 30.7191C65.9039 30.6797 65.7686 30.6316 65.6367 30.5751C65.5071 30.5173 65.3816 30.4506 65.2611 30.3755C65.0348 30.232 64.8239 30.0657 64.6316 29.8791C64.2411 29.5197 63.9348 29.0789 63.7344 28.5879Z" fill="white"/>
<path d="M83.4914 85.9087C82.805 86.3057 82.0241 86.5108 81.2308 86.5023C80.4352 86.4949 79.6538 86.291 78.9563 85.9087C77.578 85.1682 76.2106 84.4086 74.8543 83.63C72.1433 82.068 69.4637 80.4331 66.8692 78.6889C64.2748 76.9447 61.7238 75.1137 59.2598 73.1734C56.7958 71.233 54.41 69.1938 52.1129 67.0556C49.8158 64.9174 47.6318 62.6525 45.5573 60.3009C44.5139 59.1207 43.5083 57.9134 42.5403 56.6788C41.5723 55.4443 40.6385 54.1791 39.7389 52.8832C37.9384 50.2997 36.308 47.6022 34.8578 44.8078C34.1344 43.4089 33.4667 41.9817 32.8546 40.5262C32.7016 40.1641 32.5526 39.7996 32.4077 39.4328L32.3069 39.1569L32.1886 38.8757C32.1208 38.6813 32.0565 38.4887 31.9973 38.2978C31.7591 37.522 31.5591 36.7636 31.3731 35.9895C31.3524 35.902 31.3522 35.811 31.3724 35.7235C31.3926 35.6359 31.4327 35.5541 31.4896 35.4845C32.1225 34.707 32.7416 33.9416 33.4406 33.1866L33.698 32.9124C33.7814 32.8239 33.884 32.7163 33.9814 32.6243C34.1793 32.4369 34.3896 32.263 34.6109 32.1036C35.0524 31.783 35.5341 31.5216 36.0438 31.3261C36.9741 30.9617 37.9079 30.6076 38.8625 30.2848C39.339 30.1251 39.8206 29.9741 40.318 29.8405C40.5666 29.7746 40.8205 29.7138 41.0848 29.667C41.2187 29.6427 41.3544 29.6201 41.5039 29.6062C41.6771 29.5837 41.8524 29.5837 42.0256 29.6062C42.1195 29.6206 42.2081 29.6592 42.2825 29.7183C42.357 29.7774 42.4146 29.8548 42.4499 29.9429V29.9551C42.5281 30.1529 42.6324 30.3785 42.735 30.5868C42.8376 30.7951 42.9507 31.0103 43.0689 31.2168C43.3005 31.6291 43.5584 32.0262 43.841 32.4056C44.374 33.1587 45.0521 33.7983 45.8355 34.287C46.2127 34.5111 46.6238 34.6729 47.0527 34.766C47.1588 34.7885 47.2666 34.8059 47.3744 34.818C47.4266 34.818 47.4805 34.8302 47.5483 34.8336H47.6387L47.75 34.8458C48.0039 34.8753 48.2543 34.9083 48.503 34.9447C49.5011 35.0888 50.4888 35.2779 51.4695 35.4984C53.4446 35.922 55.3709 36.5466 57.2183 37.3623C57.6792 37.5775 58.1347 37.8066 58.5799 38.0565L58.9138 38.2544C58.9694 38.2874 59.0251 38.3203 59.0877 38.3585L59.2424 38.4626L59.865 38.8757C60.6892 39.4288 61.5111 39.9882 62.3307 40.554C63.148 41.1232 63.9635 41.6873 64.7652 42.3086C65.1375 42.609 65.5355 42.8761 65.9546 43.1069C66.3667 43.3412 66.8028 43.5309 67.2553 43.6727C67.691 43.8162 68.1502 43.8751 68.6081 43.8463C69.0499 43.8101 69.4694 43.6372 69.808 43.3517C69.8497 43.3135 69.8949 43.277 69.9297 43.2406L69.9749 43.1955C69.9911 43.177 70.0056 43.1573 70.0184 43.1364C70.0792 43.0475 70.131 42.9527 70.1732 42.8536C70.2616 42.6496 70.3168 42.4328 70.3366 42.2114C70.374 41.7535 70.2919 41.2937 70.0984 40.8768C69.9028 40.4419 69.6438 40.0384 69.3298 39.6793C69.0124 39.31 68.6633 38.9691 68.2865 38.6605C67.5335 38.0221 66.747 37.4242 65.9302 36.8694C65.1116 36.3138 64.261 35.8068 63.3828 35.3508L60.717 34.0162L63.4332 35.2311C64.3393 35.6475 65.2154 36.1259 66.0554 36.6629C66.8974 37.1976 67.7101 37.7769 68.4899 38.3984C68.8913 38.7085 69.2653 39.0522 69.608 39.4259C69.9591 39.8042 70.2521 40.2323 70.4775 40.6963C70.7165 41.178 70.8284 41.7126 70.8026 42.2496C70.7871 42.5232 70.7285 42.7926 70.6288 43.0479C70.5775 43.1786 70.514 43.3041 70.4392 43.4228C70.4198 43.4554 70.3983 43.4867 70.3749 43.5165L70.3644 43.5304C70.3557 43.5408 70.3505 43.5478 70.3488 43.5478L70.3314 43.5686L70.2931 43.6068C70.2445 43.6606 70.1958 43.704 70.1453 43.7526C69.7307 44.1246 69.2106 44.3593 68.6568 44.4242C68.1219 44.4807 67.5811 44.4306 67.0657 44.2767C66.5658 44.1332 66.0826 43.9371 65.6242 43.6918C65.168 43.4533 64.7334 43.1757 64.3252 42.8622C63.5427 42.2843 62.7115 41.7359 61.8908 41.1909C61.07 40.646 60.2319 40.1097 59.3955 39.5769L58.7712 39.176L58.6129 39.0753C58.5677 39.0458 58.5156 39.0163 58.4634 38.9868L58.1539 38.8132C57.7296 38.5824 57.2949 38.3724 56.8514 38.1746C55.0512 37.416 53.1779 36.8431 51.2609 36.465C50.301 36.2637 49.3307 36.1023 48.3621 35.9704C48.1187 35.9392 47.8752 35.9079 47.637 35.8836H47.5622H47.4683C47.4057 35.8836 47.3362 35.875 47.2666 35.868C47.1258 35.8541 46.9884 35.8316 46.851 35.8055C46.3072 35.6953 45.785 35.4971 45.3051 35.2189C44.3884 34.6631 43.5926 33.9296 42.9646 33.0617C42.6484 32.6483 42.358 32.2159 42.0951 31.767C41.9664 31.5436 41.8436 31.3163 41.7265 31.0849C41.6082 30.8489 41.5004 30.6267 41.3926 30.3646L41.8221 30.7118C41.7481 30.7037 41.6735 30.7037 41.5995 30.7118C41.5022 30.7204 41.3926 30.7395 41.2831 30.7603C41.0622 30.8055 40.8327 30.8627 40.6032 30.9339C40.1441 31.0623 39.6815 31.2133 39.2207 31.373C38.2974 31.6941 37.3775 32.0429 36.4628 32.4056C36.046 32.5656 35.6524 32.7803 35.2925 33.0443C35.1144 33.1757 34.9448 33.3183 34.7848 33.4713C34.7031 33.5511 34.6352 33.6222 34.5483 33.716L34.2962 33.9867C33.6493 34.6809 33.0233 35.4636 32.4095 36.2238L32.5225 35.7153C32.6964 36.4564 32.905 37.2079 33.1328 37.9298C33.1902 38.1034 33.2493 38.2874 33.3067 38.4626L33.4041 38.7195L33.5119 38.9885C33.6545 39.346 33.8017 39.703 33.9536 40.0593C34.5674 41.479 35.2334 42.8779 35.9342 44.2559C37.3518 47.0092 38.9468 49.6678 40.7092 52.215C41.5787 53.4906 42.5072 54.7402 43.4567 55.9673C44.4061 57.1943 45.3851 58.397 46.3972 59.572C48.4212 61.9254 50.5705 64.1729 52.8102 66.3284C55.0499 68.4839 57.3801 70.5475 59.7937 72.5139C60.9993 73.4996 62.2223 74.4634 63.4627 75.4053C64.7026 76.3476 65.9633 77.264 67.2344 78.1665C69.7819 79.9628 72.3798 81.6931 75.0351 83.3332C76.3625 84.1535 77.702 84.9553 79.0537 85.7386C79.7164 86.1365 80.4672 86.3648 81.2395 86.4033C82.0211 86.4438 82.7991 86.2729 83.4914 85.9087Z" fill="white"/>
<path d="M64.0296 35.2971C64.1373 34.5858 64.0668 33.859 63.8244 33.1815C63.7966 33.0982 63.7688 33.0166 63.7375 32.9351L63.6922 32.8153V32.8309C63.6957 32.8432 63.7009 32.8549 63.7079 32.8657C63.7208 32.8863 63.7373 32.9045 63.7566 32.9195C63.7756 32.9328 63.7968 32.9427 63.8192 32.949H63.8348H63.8244H63.7861H63.6366L63.3375 32.9264C63.1393 32.9038 62.9463 32.8639 62.748 32.8292C62.5498 32.7945 62.3655 32.7303 62.1759 32.6713C61.4354 32.4223 60.7331 32.0718 60.0892 31.63C59.7699 31.4158 59.4628 31.1841 59.1694 30.9357C58.8729 30.6837 58.5924 30.4136 58.3295 30.127L59.065 29.6376C59.2667 30.2085 59.5015 30.7709 59.7606 31.3297C59.8927 31.6091 60.0284 31.8885 60.1727 32.1662C60.317 32.4439 60.4666 32.7216 60.6144 33.0062C60.3624 32.8079 60.1237 32.5934 59.8997 32.3641C59.6744 32.1334 59.4624 31.89 59.265 31.6352C58.866 31.1226 58.5205 30.5708 58.2338 29.9881C58.1837 29.8955 58.1684 29.788 58.1905 29.6851C58.2127 29.5822 58.2709 29.4905 58.3547 29.4265C58.4384 29.3625 58.5423 29.3305 58.6477 29.3361C58.753 29.3417 58.8529 29.3846 58.9294 29.4571L58.9781 29.4987C59.232 29.7174 59.5171 29.9482 59.8006 30.1582C60.084 30.3682 60.3762 30.5782 60.67 30.7709C61.2534 31.1592 61.8702 31.495 62.5133 31.774L62.9967 31.9597C63.1601 32.0048 63.3236 32.0621 63.4905 32.1055L63.7409 32.1593L63.8661 32.1888L63.8974 32.1975H63.9218L63.9722 32.2079C64.0397 32.2227 64.104 32.2498 64.1617 32.2877C64.2523 32.3455 64.3227 32.4297 64.3635 32.529C64.3635 32.5446 64.3774 32.5619 64.3826 32.5776V32.6036V32.614C64.3913 32.6626 64.4017 32.7112 64.4104 32.7615C64.4261 32.8587 64.44 32.9559 64.4504 33.0548C64.496 33.4445 64.4884 33.8386 64.4278 34.2263C64.3746 34.6079 64.2387 34.9733 64.0296 35.2971Z" fill="white"/>
<path d="M68.697 28.7458C69.3488 29.3718 70.1495 29.8221 71.0236 30.0544C71.4508 30.1685 71.8909 30.2268 72.333 30.228C72.7747 30.228 73.2251 30.1828 73.6842 30.1568C74.1432 30.1308 74.604 30.1117 75.0631 30.1099H75.4109C75.5291 30.1099 75.6282 30.1099 75.7726 30.1186C75.8553 30.1254 75.937 30.1417 76.016 30.1672C76.103 30.1991 76.1845 30.2442 76.2577 30.3008C76.367 30.3941 76.464 30.5008 76.5464 30.6184C77.077 31.325 77.6815 31.9731 78.3496 32.5518C78.6835 32.8399 79.0261 33.1141 79.393 33.3675C79.5715 33.4936 79.7541 33.6151 79.9407 33.732C80.0329 33.791 80.125 33.8483 80.2207 33.9055L80.3615 33.9889C80.4004 34.0112 80.4405 34.0315 80.4815 34.0496C80.7217 34.1497 80.9512 34.2736 81.1666 34.4193C81.2398 34.4744 81.3074 34.5366 81.3684 34.605C81.4313 34.68 81.4861 34.7614 81.5318 34.8479C81.5937 34.9738 81.6455 35.1044 81.6866 35.2384C81.7161 35.3183 81.7613 35.4241 81.8013 35.5179C81.8413 35.6116 81.8866 35.707 81.9335 35.7973C82.0256 35.9775 82.1295 36.1515 82.2448 36.3179C82.3628 36.4833 82.4905 36.6415 82.6273 36.7917C82.7604 36.9368 82.9033 37.0725 83.0551 37.1979C83.3563 37.4453 83.6957 37.6422 84.0602 37.781C84.4147 37.918 84.7897 37.9948 85.1696 38.0084C85.2635 38.0084 85.3609 38.0084 85.4513 38.0084C85.5309 38.0039 85.61 37.9929 85.6878 37.9754C85.8189 37.9441 85.9417 37.8849 86.0477 37.8018C86.1087 37.7519 86.1667 37.6986 86.2216 37.6422C86.2694 37.5935 86.3119 37.54 86.3486 37.4825C86.4194 37.3744 86.4662 37.2525 86.4859 37.125C86.5032 37.0085 86.4931 36.8897 86.4564 36.7779C86.4459 36.7536 86.4373 36.7275 86.4251 36.7032L86.4059 36.6668C86.4059 36.6668 86.4059 36.6668 86.4059 36.6772L86.4181 36.6963L86.2164 36.4429C85.646 35.7296 85.0792 35.0093 84.5436 34.2075C84.4758 34.1086 84.4114 33.9993 84.3454 33.8934L84.1628 33.5706C84.0567 33.3779 83.9471 33.1853 83.8359 32.9944C83.6133 32.6126 83.3814 32.236 83.1403 31.8646C82.6604 31.12 82.1404 30.3928 81.6083 29.6639L81.5179 29.5042C81.4849 29.4574 81.457 29.4279 81.4275 29.3897C81.3666 29.3151 81.3144 29.2422 81.2414 29.1675C81.111 29.0183 80.9649 28.8708 80.8171 28.7232C80.5111 28.4299 80.1859 28.1436 79.8486 27.8676C79.1704 27.314 78.4574 26.7846 77.7201 26.2883C77.3463 26.0436 76.9707 25.7676 76.6003 25.5316C76.2299 25.2956 75.856 25.0491 75.4787 24.82C74.7229 24.3642 73.9473 23.9476 73.1521 23.5704C72.3556 23.1886 71.5331 22.845 70.695 22.5048L68.1736 21.4878C67.3561 21.1603 66.5221 20.8759 65.6748 20.6356C64.8331 20.3996 63.9689 20.2191 63.0908 20.056C62.2126 19.8928 61.3223 19.7609 60.4216 19.6273L57.721 19.2247L55.0205 18.822L52.3218 18.4003C50.5237 18.1156 48.724 17.8449 46.9312 17.5499L44.2289 17.1142C43.3299 16.965 42.4431 16.8192 41.558 16.7359C40.6791 16.6384 39.7917 16.6465 38.9148 16.7602C38.0324 16.895 37.164 17.1093 36.3204 17.4006C35.4666 17.687 34.6232 18.0271 33.7799 18.3673C32.9365 18.7075 32.1157 19.091 31.2637 19.4121C32.0723 18.9938 32.8617 18.5443 33.6773 18.1278C34.4928 17.7113 35.3101 17.3121 36.1569 16.9511C37.0094 16.579 37.8973 16.2936 38.807 16.099C39.73 15.9156 40.6717 15.8439 41.6119 15.8855C42.5457 15.9185 43.4621 16.0278 44.3663 16.1267L47.0877 16.4287C48.8979 16.6283 50.7046 16.8522 52.513 17.0639L55.224 17.385L57.9349 17.7321L60.6441 18.0792C61.5466 18.192 62.4596 18.3083 63.3759 18.4558C64.3023 18.6002 65.2205 18.7925 66.1269 19.032C67.0338 19.2776 67.9271 19.5708 68.8031 19.9102L71.3505 20.9237C72.1991 21.2709 73.0582 21.618 73.905 22.0241C74.7519 22.4294 75.5778 22.8771 76.3795 23.3656C76.7794 23.6086 77.1741 23.8603 77.5602 24.1189C77.9462 24.3775 78.3131 24.6395 78.6957 24.8964C79.4643 25.4309 80.205 25.988 80.9302 26.5937C81.2918 26.8975 81.6466 27.2168 81.9944 27.557L82.2517 27.8225C82.3369 27.9127 82.4256 28.0117 82.5021 28.1071C82.6655 28.2998 82.8187 28.5008 82.9612 28.7094C83.4829 29.4608 84.0045 30.2262 84.4932 31.0194C84.7383 31.4168 84.9731 31.8212 85.1992 32.2342C85.3122 32.439 85.4235 32.6455 85.5313 32.8521L85.6774 33.1263C85.7295 33.2148 85.7782 33.2998 85.8373 33.3918C86.2929 34.1155 86.8407 34.8341 87.3797 35.5595L87.5919 35.8476L87.6371 35.9118L87.6719 35.9674C87.6817 35.9824 87.6904 35.998 87.698 36.0142L87.7519 36.1322C87.786 36.2113 87.815 36.2925 87.8388 36.3752C87.9322 36.7016 87.9465 37.0454 87.8805 37.3784C87.818 37.6989 87.6875 38.0025 87.498 38.2687C87.4057 38.3989 87.3003 38.5193 87.1832 38.6279C87.0746 38.7292 86.9583 38.8221 86.8355 38.9056C86.5721 39.0899 86.2729 39.217 85.9573 39.2788C85.8114 39.3049 85.6638 39.32 85.5156 39.3239C85.3783 39.3239 85.2478 39.3239 85.1157 39.3239C84.5877 39.2911 84.0691 39.169 83.582 38.9629C83.1009 38.7596 82.6563 38.4794 82.2656 38.1333C82.0718 37.9628 81.8927 37.7765 81.73 37.5762C81.5703 37.3819 81.4228 37.1778 81.2884 36.9653C81.1569 36.7504 81.0407 36.5265 80.9406 36.2954C80.8884 36.1826 80.8415 36.0663 80.798 35.9483C80.7545 35.8303 80.7145 35.7261 80.6728 35.589C80.6513 35.5049 80.6252 35.4221 80.5945 35.3408C80.5858 35.3183 80.5772 35.3061 80.5737 35.2974C80.5594 35.2805 80.5437 35.2648 80.5267 35.2506C80.3679 35.1372 80.1992 35.0384 80.0224 34.9555C79.9685 34.926 79.9042 34.8896 79.8486 34.8514L79.7007 34.7542C79.6016 34.6883 79.5043 34.6223 79.4086 34.5529C79.2156 34.4175 79.0261 34.277 78.8417 34.1312C78.4712 33.841 78.1176 33.5298 77.7827 33.1992C77.1152 32.5406 76.5201 31.8127 76.0073 31.028C75.9649 30.9553 75.9142 30.8877 75.856 30.8267C75.8412 30.812 75.8242 30.7997 75.8056 30.7903C75.7768 30.7779 75.7463 30.7697 75.7152 30.766C75.6317 30.7538 75.503 30.7469 75.3952 30.7382L75.0596 30.7139C74.6092 30.6879 74.1589 30.667 73.7068 30.6584C73.2546 30.6497 72.7973 30.6584 72.3296 30.6219C71.6336 30.5657 70.9557 30.373 70.3344 30.0549C69.7132 29.7369 69.1609 29.2997 68.7092 28.7684L68.697 28.7458Z" fill="white"/>
<path d="M86.7433 37.7183C86.1886 37.2965 85.6582 36.7811 85.4548 36.1146C85.293 35.594 85.3522 35.0247 85.4113 34.478" stroke="white" stroke-linecap="round" stroke-linejoin="round"/>
<path d="M65.8054 43.9196C65.77 44.2578 65.664 44.5847 65.4941 44.8794C65.3039 45.1936 65.0417 45.4583 64.729 45.6517C64.649 45.7003 64.5673 45.7437 64.4838 45.7871C64.4421 45.8079 64.4003 45.8235 64.3569 45.8426L64.2925 45.8686L64.2577 45.8825L64.2038 45.8981C63.9713 45.9568 63.7292 45.9669 63.4926 45.9276C63.129 45.8721 62.7767 45.7584 62.4493 45.591C62.371 45.5493 62.2928 45.5076 62.2111 45.4591L62.1815 45.44L62.1328 45.407C62.098 45.3827 62.0632 45.3584 62.0319 45.3324C61.9687 45.2801 61.9104 45.222 61.8581 45.1588C61.6953 44.9525 61.5898 44.7071 61.552 44.4472C61.5146 44.2331 61.5146 44.014 61.552 43.7999C61.5607 43.7478 61.5746 43.694 61.5868 43.6419C61.599 43.5899 61.6129 43.5517 61.6285 43.5083C61.6598 43.4238 61.6929 43.3423 61.7276 43.2636C61.8688 42.9641 62.0438 42.6817 62.2493 42.4219C62.449 42.1564 62.6903 41.9249 62.964 41.7363C62.9414 42.0713 62.9136 42.3785 62.8805 42.6839C62.8475 42.9894 62.811 43.281 62.7884 43.5517C62.7816 43.6169 62.7781 43.6823 62.7779 43.7478V43.8363C62.7779 43.8606 62.7779 43.8815 62.7779 43.904C62.7869 43.9925 62.8074 44.0794 62.8388 44.1626C62.8666 44.2338 62.9031 44.2772 62.9066 44.2685C62.9071 44.2656 62.9071 44.2627 62.9066 44.2598C62.9066 44.2598 62.9066 44.2598 62.8979 44.2494C62.8892 44.239 62.8892 44.2494 62.8979 44.2494L62.917 44.2598C62.9657 44.2876 63.0214 44.3171 63.0788 44.3448C63.295 44.4561 63.5187 44.5524 63.7482 44.6329C63.8474 44.6711 63.9378 44.6798 63.943 44.6972H63.9621H64.0073L64.0978 44.685C64.1569 44.6746 64.2177 44.6676 64.2717 44.6538C64.5243 44.6027 64.7684 44.5162 64.9968 44.3969C65.1275 44.3302 65.2546 44.2566 65.3776 44.1765C65.5202 44.0967 65.6576 44.0012 65.8054 43.9196Z" fill="white"/>
<path d="M64.6209 45.1081C64.2888 44.9155 64.2731 44.5145 64.3931 44.1501C64.5341 43.7937 64.7534 43.4735 65.0348 43.2129" stroke="white" stroke-linecap="round" stroke-linejoin="round"/>
<path d="M69.3665 43.3881C69.603 42.7373 69.3926 42.0552 69.0187 41.479C68.6031 40.9039 68.0996 40.3973 67.5268 39.9778C67.2798 39.7851 67.0051 39.5856 66.7008 39.5561C66.2556 39.5144 65.8609 39.8216 65.5409 40.1323C65.1479 40.5141 64.8054 40.9723 64.7097 41.512C64.6732 41.7099 65.0158 42.0188 65.1619 42.1142C65.9026 42.595 66.3704 42.9039 67.1112 43.3846C67.3094 43.5131 67.7476 43.796 67.9806 43.8428C68.6831 43.9799 69.33 43.4853 69.3665 43.3881Z" stroke="white" stroke-linecap="round" stroke-linejoin="round"/>
<path d="M70.3509 32.3398C70.5931 32.6423 70.8875 32.8992 71.2204 33.0982C71.5434 33.2857 71.8886 33.432 72.248 33.5338C72.9662 33.7421 73.7313 33.8046 74.5417 33.8948C74.6738 33.9098 74.7968 33.9697 74.8899 34.0646C74.983 34.1594 75.0406 34.2833 75.0529 34.4155V34.4589L75.1694 35.9306C75.2077 36.4148 75.2407 36.8938 75.2946 37.3711C75.3408 37.848 75.4328 38.3193 75.5693 38.7786C75.6076 38.8914 75.6528 39.0025 75.6928 39.1257C75.7328 39.249 75.7867 39.3461 75.8424 39.4538C75.9551 39.6701 76.0847 39.8773 76.2301 40.0733C76.3762 40.2799 76.5362 40.4847 76.6753 40.7155C76.818 40.9495 76.9269 41.2025 76.9987 41.467C77.0735 41.7256 77.1187 41.9876 77.1726 42.2289C77.2197 42.4645 77.2836 42.6965 77.3639 42.9231C77.4322 43.1129 77.5448 43.2836 77.6925 43.4212C77.847 43.5512 78.0237 43.6524 78.2142 43.7197C78.416 43.7944 78.6244 43.8496 78.8367 43.8846C79.0505 43.921 79.2668 43.9407 79.4836 43.9436C79.5323 43.9436 79.5827 43.9436 79.6123 43.9436C79.6123 43.9436 79.5845 43.9436 79.5949 43.9436C79.6053 43.9436 79.614 43.9436 79.6245 43.9297C79.6621 43.9124 79.6954 43.8869 79.7218 43.8551C79.7493 43.826 79.7696 43.791 79.781 43.7527C79.7875 43.7342 79.7916 43.7149 79.7931 43.6954V43.6069C79.8157 43.1313 79.8227 42.6471 79.7931 42.1681C79.7596 41.2114 79.6643 40.2577 79.508 39.3132C79.4906 39.1917 79.4645 39.0858 79.4454 38.9661C79.4349 38.9123 79.4245 38.848 79.4141 38.8029L79.3688 38.6294C79.3045 38.3829 79.2471 38.1365 79.195 37.89C79.0854 37.3937 78.9689 36.9008 78.875 36.3992L78.7376 35.6477L78.6211 34.891C78.543 34.3788 78.507 33.861 78.5133 33.3429C78.5142 33.3244 78.5224 33.3069 78.536 33.2942C78.5497 33.2816 78.5677 33.2748 78.5863 33.2752C78.6 33.2762 78.613 33.2809 78.6241 33.2889C78.6352 33.2968 78.6438 33.3078 78.6489 33.3204C78.8228 33.7872 79.0315 34.2524 79.2332 34.7088L79.5271 35.403L79.8157 36.0972C80.0105 36.5641 80.1896 37.0344 80.3774 37.5013L80.6487 38.2059L80.7165 38.3899C80.7426 38.4645 80.7582 38.5235 80.7791 38.5929C80.8191 38.7231 80.8608 38.8602 80.8904 38.9869C81.162 40.0135 81.2838 41.0738 81.2521 42.1352C81.241 42.6642 81.1986 43.1922 81.1251 43.7162L81.106 43.8429C81.0965 43.8961 81.0843 43.9489 81.0695 44.0009C81.0407 44.1037 81.001 44.2031 80.9512 44.2976C80.8542 44.4867 80.7197 44.6542 80.5559 44.79C80.3921 44.9257 80.2024 45.0268 79.9983 45.0873C79.9479 45.1029 79.8957 45.1116 79.8453 45.1237C79.8244 45.1237 79.7705 45.1342 79.734 45.1376H79.6732H79.6366C79.5535 45.136 79.4705 45.1302 79.388 45.1203C79.1005 45.0822 78.8178 45.0141 78.5446 44.9172C78.2666 44.8244 78.0018 44.6961 77.7569 44.5354C77.4958 44.3718 77.2676 44.1611 77.0839 43.9141C76.9063 43.6624 76.7875 43.3742 76.7361 43.0706C76.6915 42.8088 76.6636 42.5445 76.6527 42.2792C76.6396 42.0352 76.6106 41.7923 76.5657 41.552C76.5207 41.325 76.4359 41.1076 76.3153 40.9099C76.1838 40.704 76.0367 40.5085 75.8754 40.325C74.7957 39.1343 74.1155 37.6369 73.9296 36.0417C73.8734 35.5281 73.8456 35.0119 73.8461 34.4953L74.3678 35.0663C73.9661 34.9934 73.554 34.9136 73.1384 34.799C72.7131 34.6875 72.3015 34.5298 71.9107 34.3287C71.5116 34.1236 71.152 33.8498 70.8482 33.52C70.5441 33.1995 70.3279 32.8061 70.2205 32.378C70.2184 32.3689 70.2182 32.3594 70.2198 32.3502C70.2214 32.341 70.2248 32.3322 70.2298 32.3243C70.2348 32.3164 70.2413 32.3096 70.249 32.3042C70.2566 32.2988 70.2653 32.295 70.2744 32.2929C70.2906 32.2911 70.3069 32.2948 70.3207 32.3032C70.3346 32.3117 70.3452 32.3246 70.3509 32.3398Z" fill="white"/>
<path d="M80.353 43.5343C80.0595 43.4374 79.7991 43.2601 79.6017 43.0225C79.4043 42.785 79.2778 42.4968 79.2367 42.191C79.1706 41.6425 79.3879 41.1045 79.6018 40.5943L80.1235 39.3481" stroke="white" stroke-linecap="round" stroke-linejoin="round"/>
<path d="M68.1564 37.9351C68.1981 37.6088 68.2346 37.2999 68.2486 36.9944C68.2651 36.6967 68.2651 36.3983 68.2486 36.1006C68.2343 35.8126 68.2029 35.5258 68.1547 35.2415C68.1062 34.9648 68.0411 34.6913 67.9599 34.4223L69.1771 34.1933C69.221 34.4494 69.294 34.6998 69.3945 34.9395C69.5096 35.2054 69.6524 35.4584 69.8205 35.6945C69.8657 35.757 69.9144 35.8195 69.9649 35.8819C70.0062 35.9378 70.0515 35.9905 70.1005 36.0399C70.2096 36.1476 70.3317 36.2414 70.4639 36.3193C70.747 36.4868 71.0535 36.6114 71.3734 36.689C71.5351 36.7306 71.7003 36.7619 71.8655 36.7879L72.1159 36.8209C72.1439 36.8239 72.1718 36.8286 72.1993 36.8347C72.2294 36.841 72.259 36.8491 72.288 36.859C72.3438 36.8776 72.3974 36.9021 72.448 36.9319C72.5483 36.9881 72.6382 37.0609 72.7141 37.1471C72.7541 37.1928 72.7896 37.2422 72.8201 37.2947C72.8479 37.3469 72.8723 37.4008 72.8932 37.4561L73.0966 37.9368C73.2322 38.2596 73.3644 38.5755 73.5018 38.874L73.9156 39.7713L74.02 39.9986L74.0721 40.1114C74.0831 40.1344 74.0959 40.1564 74.1104 40.1774C74.1836 40.2854 74.2644 40.388 74.3521 40.4846C74.4938 40.6445 74.618 40.819 74.7225 41.0052L74.766 41.092V41.1024L74.7764 41.1319L74.7973 41.1944C74.8109 41.2377 74.822 41.2817 74.8303 41.3263C74.8316 41.3465 74.8316 41.3668 74.8303 41.3871V41.4304V41.5155V41.5988V41.6578L74.8129 41.7723L74.7955 41.8626C74.7816 41.9251 74.7694 41.9719 74.7555 42.0223L74.6164 42.5065C74.5802 42.6196 74.5546 42.7358 74.5399 42.8536C74.5372 42.8969 74.5372 42.9404 74.5399 42.9837C74.5399 42.9837 74.5312 42.9837 74.5399 42.9959L74.5625 43.0358L74.6042 43.1174C74.6373 43.1694 74.6686 43.2232 74.7051 43.2771C75.0346 43.728 75.4806 44.0813 75.9954 44.2993C76.1235 44.3541 76.2561 44.3976 76.3918 44.4294C76.4836 44.4641 76.5838 44.4696 76.6788 44.4451C76.8004 44.3928 76.9035 44.3051 76.9744 44.1934C77.07 44.0667 77.1569 43.9192 77.2491 43.7682C77.2589 43.7517 77.2748 43.7398 77.2933 43.7349C77.3119 43.7301 77.3316 43.7327 77.3482 43.7422C77.3586 43.7487 77.3671 43.7576 77.3732 43.7682C77.3792 43.7788 77.3826 43.7907 77.383 43.8029C77.3914 43.9859 77.3791 44.1693 77.3465 44.3496C77.3293 44.4496 77.2995 44.547 77.2578 44.6394C77.2134 44.7481 77.1491 44.8475 77.0683 44.9327C76.9757 45.0263 76.8651 45.1002 76.7431 45.1497C76.6311 45.1929 76.5144 45.2227 76.3953 45.2382C76.1897 45.2633 75.9818 45.2633 75.7763 45.2382C74.9548 45.1451 74.1935 44.763 73.6287 44.1604C73.5557 44.0806 73.4879 43.9956 73.4218 43.9105L73.3279 43.7751L73.2809 43.7075C73.267 43.6866 73.2427 43.638 73.2253 43.6051C73.0971 43.3346 73.0403 43.0359 73.0601 42.7373C73.0786 42.5158 73.1211 42.297 73.187 42.0847C73.2444 41.8973 73.307 41.7255 73.3609 41.5936L73.4061 41.4599C73.4053 41.4669 73.4053 41.4739 73.4061 41.4808C73.4053 41.4877 73.4053 41.4947 73.4061 41.5016V41.512V41.5432C73.4095 41.5669 73.4153 41.5902 73.4235 41.6127C73.4274 41.6234 73.4321 41.6338 73.4374 41.6439V41.6578L73.4287 41.6266C73.3787 41.5098 73.3164 41.3986 73.2427 41.2951C73.1221 41.1204 73.0168 40.9358 72.9279 40.7432C72.9032 40.6866 72.8817 40.6286 72.8636 40.5696L72.8236 40.4447C72.7958 40.3614 72.7697 40.2711 72.7454 40.193C72.6417 39.8519 72.5621 39.5039 72.5071 39.1517C72.4515 38.7942 72.4254 38.4471 72.3889 38.1104C72.3698 37.9368 72.3489 37.7719 72.3228 37.6053C72.3228 37.5515 72.3228 37.548 72.3106 37.5238C72.3044 37.4997 72.2957 37.4765 72.2845 37.4543C72.2559 37.4054 72.2188 37.3619 72.175 37.3259C72.1544 37.3081 72.1316 37.293 72.1072 37.2808C72.0965 37.2749 72.0855 37.2696 72.0741 37.2652L72.0324 37.2547L71.7768 37.1992L71.2655 37.0916C70.9178 37.0187 70.57 36.9493 70.2222 36.8504C70.0367 36.7994 69.8553 36.7345 69.6797 36.656C69.585 36.6121 69.4933 36.5622 69.4049 36.5067C69.3267 36.4581 69.2467 36.4078 69.1684 36.3523C68.8346 36.1307 68.5495 35.8438 68.3303 35.5088C68.1016 35.1501 67.9653 34.7405 67.9338 34.3165V34.2835C67.9167 34.1265 67.9606 33.9689 68.0564 33.8433C68.1523 33.7177 68.2929 33.6336 68.4491 33.6085C68.6053 33.5833 68.7652 33.619 68.8959 33.7081C69.0265 33.7972 69.1178 33.933 69.151 34.0874C69.2352 34.4283 69.2807 34.7776 69.2867 35.1287C69.2926 35.4785 69.2588 35.8279 69.1858 36.17C69.1128 36.5069 68.9995 36.8338 68.8485 37.1437C68.7015 37.4499 68.5086 37.732 68.2764 37.9802C68.2697 37.9871 68.2618 37.9925 68.2529 37.9963C68.2441 38 68.2347 38.0019 68.2251 38.0019C68.2155 38.0019 68.206 38 68.1972 37.9963C68.1884 37.9925 68.1804 37.9871 68.1738 37.9802C68.1632 37.9674 68.1571 37.9516 68.1564 37.9351Z" fill="white"/>
<path d="M76.997 44.2665C76.6292 44.0246 76.3484 43.672 76.1953 43.2599C76.1132 42.9558 76.1175 42.6349 76.2075 42.3331C76.297 42.0311 76.4201 41.74 76.5744 41.4653" stroke="white" stroke-linecap="round" stroke-linejoin="round"/>
<path d="M103.745 74.5152C102.816 75.2285 101.881 75.9348 100.924 76.61C99.9678 77.2851 99.0114 77.9567 98.0289 78.6076C96.0697 79.8953 94.0723 81.1264 92.0366 82.3008C91.0194 82.8874 90.0004 83.4705 88.9727 84.0363C88.451 84.3192 87.938 84.5969 87.4077 84.8538L86.6147 85.2391L85.8114 85.6018C85.2723 85.8361 84.7332 86.0669 84.189 86.2873L83.7786 86.4505L83.5699 86.532L83.3404 86.6153C82.5923 86.8583 81.7941 86.9049 81.0227 86.7508C80.2512 86.5967 79.5326 86.247 78.9357 85.7354C78.93 85.7298 78.9254 85.723 78.9222 85.7156C78.9191 85.7081 78.9175 85.7001 78.9175 85.692C78.9175 85.6839 78.9191 85.6759 78.9222 85.6685C78.9254 85.661 78.93 85.6543 78.9357 85.6486C78.9445 85.6389 78.9561 85.6322 78.9689 85.6294C78.9817 85.6266 78.995 85.6279 79.007 85.633C80.018 86.1167 81.1647 86.2392 82.2553 85.9801C82.5082 85.9109 82.7553 85.8221 82.9943 85.7146L83.1682 85.6278L83.3595 85.5271L83.7438 85.3206C84.2655 85.0499 84.7871 84.7878 85.2949 84.5119L86.8599 83.7257L88.4354 82.9707C88.957 82.7295 89.4891 82.4743 90.016 82.2244C90.5429 81.9745 91.0594 81.7038 91.581 81.4469C93.6573 80.3882 95.7034 79.27 97.7194 78.0921C99.7452 76.9345 101.719 75.6901 103.684 74.4163C103.697 74.4068 103.713 74.403 103.729 74.4056C103.745 74.4082 103.76 74.417 103.769 74.4301C103.778 74.4433 103.782 74.4596 103.78 74.4755C103.777 74.4915 103.768 74.5057 103.755 74.5152H103.745Z" fill="white"/>
<path d="M34.2998 11.2219C35.4552 9.24201 36.9292 7.46538 38.6627 5.96325L39.3304 5.41656L39.5043 5.27945L39.6782 5.15276L40.026 4.89937C40.4851 4.55226 40.9772 4.24854 41.4606 3.93268C42.4483 3.33451 43.4767 2.80619 44.5385 2.3516C45.6018 1.90432 46.6905 1.51953 47.7989 1.19921C48.9106 0.886502 50.0392 0.637337 51.1793 0.452928C53.463 0.0778879 55.7789 -0.0645791 58.0914 0.0277215C58.3818 0.0398702 58.6722 0.0572256 58.9609 0.0797875C59.1052 0.0919363 59.253 0.104085 59.4008 0.119705L59.6373 0.145738L59.853 0.185655L61.571 0.498051C62.6995 0.760117 63.8316 1.02913 64.9271 1.39879C67.1304 2.11084 69.2641 3.02171 71.3019 4.12011C73.3375 5.20883 75.2872 6.45043 77.1341 7.83416C77.3637 8.00771 77.5967 8.18127 77.8297 8.35482L78.5061 8.89457C78.7339 9.06812 78.953 9.25903 79.1739 9.44474C79.3947 9.63044 79.6173 9.8144 79.8312 10.0088L80.4746 10.5867L81.1093 11.1803L81.4205 11.484C81.5805 11.6385 81.4918 11.5499 81.4831 11.5586C81.4599 11.5515 81.4351 11.5515 81.4118 11.5586C81.3684 11.5705 81.33 11.596 81.3023 11.6315L81.9022 13.0061L80.798 12.9418L81.4936 11.6107C81.482 11.5958 81.4661 11.5848 81.4481 11.5792C81.43 11.5736 81.4107 11.5737 81.3927 11.5794C81.3782 11.5828 81.3642 11.5881 81.351 11.5951L81.3266 11.6107L81.3162 11.6211H81.3249L81.344 11.6055L81.6518 11.3451C82.0639 10.998 82.483 10.6666 82.9073 10.3455C83.7559 9.69639 84.6358 9.09416 85.5348 8.52317L86.2129 8.08928C86.439 7.9487 86.672 7.81854 86.9085 7.68317L87.6041 7.28052L88.2996 6.90391C88.5344 6.77895 88.7674 6.65226 89.0056 6.53077L89.7238 6.18366L90.442 5.83656L91.174 5.52069C93.1229 4.66899 95.1425 3.9884 97.2097 3.48664C99.2826 3.00085 101.396 2.71032 103.524 2.61888C105.642 2.65356 107.752 2.88598 109.827 3.31309C110.86 3.5283 111.891 3.76086 112.902 4.06805C113.411 4.20515 113.908 4.38391 114.411 4.54185C114.661 4.62515 114.908 4.7154 115.155 4.81259C115.402 4.90978 115.653 4.98615 115.896 5.09201C117.864 5.86715 119.741 6.8566 121.492 8.04242C123.243 9.23794 124.833 10.653 126.223 12.2528C127.619 13.855 128.806 15.6279 129.753 17.5289C130.713 19.4271 131.455 21.4275 131.965 23.4922C132.237 24.5215 132.455 25.5642 132.619 26.6161C132.767 27.6679 132.899 28.7265 132.948 29.7922C132.996 30.8578 133.008 31.9234 132.975 32.989L132.929 33.7891L132.902 34.1883L132.862 34.5874L132.784 35.384C132.751 35.6496 132.711 35.9134 132.676 36.1772C132.612 36.7083 132.502 37.2324 132.416 37.76C132.372 38.0238 132.308 38.2807 132.254 38.5445C132.2 38.8083 132.148 39.0651 132.08 39.3272C131.944 39.8478 131.823 40.3685 131.661 40.8753L131.424 41.6528L131.167 42.4112L131.037 42.7913L130.896 43.1679L130.612 43.909C130.418 44.4019 130.216 44.8896 130.007 45.3755C129.592 46.3497 129.149 47.313 128.679 48.2652C127.736 50.1675 126.687 52.0159 125.538 53.8015C124.385 55.5857 123.145 57.3067 121.82 58.9648L121.605 59.2338L121.257 59.3067L121.172 59.324L120.631 59.4351L120.205 58.9561L120.139 58.8815C120.116 58.8529 120.092 58.8256 120.066 58.7999C120.002 58.7391 119.949 58.6801 119.878 58.6177L119.669 58.4285L119.445 58.2393C119.139 57.9877 118.816 57.7395 118.485 57.4965C118.155 57.2535 117.817 57.0123 117.477 56.7763C117.136 56.5402 116.781 56.3059 116.449 56.082L116.425 56.0647L116.392 56.0404C114.041 54.2753 111.359 52.8644 108.74 51.2C107.401 50.3659 106.129 49.43 104.934 48.4006C104.644 48.1246 104.341 47.8608 104.064 47.5727L103.645 47.1354L103.437 46.9167L103.233 46.6859C102.976 46.3752 102.703 46.0697 102.466 45.7469L101.787 44.8236C101.4 44.2682 100.948 43.7618 100.439 43.3154C100.004 42.9441 99.4731 42.7033 98.9069 42.6212C98.7849 42.6099 98.662 42.6099 98.54 42.6212C98.3926 42.6406 98.2463 42.6678 98.1018 42.7028C97.7671 42.7972 97.4379 42.9102 97.1159 43.0412C96.6964 43.2087 96.2595 43.3292 95.8134 43.4005C95.5575 43.4341 95.2988 43.4417 95.0413 43.423C94.9127 43.4057 94.7822 43.3935 94.6588 43.3692C94.5353 43.3449 94.4049 43.3172 94.2988 43.2842C93.8658 43.1645 93.4746 42.9996 93.1477 42.8746C92.8777 42.7562 92.5918 42.6778 92.2991 42.6421C92.236 42.6377 92.1727 42.6377 92.1096 42.6421H92.0157L91.9374 42.6507C91.801 42.6724 91.6666 42.7055 91.5357 42.7497C91.2947 42.822 91.0698 42.9398 90.8732 43.0968C90.8447 43.1221 90.8185 43.15 90.7949 43.1801C90.7949 43.1905 90.7949 43.1801 90.7758 43.2061L90.7376 43.2651L90.6628 43.3797C90.5602 43.5341 90.4628 43.6903 90.3654 43.8448C90.1707 44.1572 89.9951 44.4626 89.8073 44.7976C89.7099 44.9711 89.6021 45.1586 89.4716 45.3495C89.3464 45.53 89.2117 45.7037 89.0682 45.8701C88.7952 46.1895 88.5239 46.4706 88.2544 46.7518L87.8823 47.1319C87.7903 47.2412 87.7066 47.3572 87.6319 47.479C87.5449 47.6178 87.458 47.7654 87.3884 47.9059C87.3356 47.9984 87.2941 48.0969 87.265 48.1992C87.2523 48.2694 87.2577 48.3417 87.2806 48.4092C87.3171 48.5305 87.3679 48.647 87.4319 48.7563C87.5797 49.0219 87.7971 49.3152 88.0249 49.6415C88.3004 50.0125 88.5201 50.4218 88.677 50.8563C88.7975 51.3006 88.8486 51.7607 88.8283 52.2205C88.8109 52.5675 88.8155 52.9153 88.8422 53.2618C88.872 53.5317 88.9649 53.7909 89.1134 54.0185C89.2785 54.2639 89.4843 54.4793 89.722 54.6554C89.9808 54.8443 90.2617 55.0011 90.5585 55.1223C91.2209 55.3557 91.9115 55.5004 92.6121 55.5527C93.395 55.6198 94.1735 55.7304 94.944 55.8842C95.7269 56.055 96.4906 56.3039 97.2237 56.627C98.6568 57.2757 99.9966 58.1127 101.207 59.1158C102.393 60.1014 103.514 61.1623 104.564 62.2918C105.619 63.3973 106.65 64.5219 107.713 65.5893C108.251 66.125 108.803 66.6457 109.37 67.1513C109.655 67.4029 109.938 67.6546 110.231 67.8924C110.523 68.1301 110.831 68.354 111.138 68.5762L111.032 68.7341C110.709 68.5328 110.385 68.3262 110.071 68.1041C109.756 67.8819 109.453 67.6459 109.153 67.4099C108.546 66.943 107.956 66.4484 107.386 65.9381C106.24 64.9211 105.153 63.8451 104.052 62.8003C102.972 61.7493 101.829 60.7641 100.63 59.8499C99.4533 58.9535 98.1614 58.2186 96.7889 57.6648C96.1141 57.3996 95.4154 57.1997 94.7023 57.0678C93.9703 56.9529 93.2324 56.8793 92.4921 56.8474C91.6682 56.8114 90.8528 56.6649 90.0681 56.4118C89.6526 56.2608 89.2577 56.0585 88.8926 55.8096C88.5069 55.5442 88.1718 55.2121 87.9032 54.829C87.7634 54.6268 87.6468 54.4097 87.5554 54.1816C87.4656 53.9529 87.402 53.7148 87.3658 53.4718C87.3173 53.0594 87.2976 52.6442 87.3067 52.2292C87.3158 51.9273 87.2783 51.6258 87.1954 51.3354C87.0757 51.0599 86.9202 50.8014 86.7329 50.5665C86.519 50.2732 86.2686 49.9643 86.0373 49.572C85.9799 49.4679 85.9208 49.3725 85.8634 49.2527C85.8356 49.1937 85.8095 49.1399 85.7852 49.0792L85.7174 48.8848C85.6213 48.5894 85.5933 48.2761 85.6356 47.9684L85.653 47.8469L85.6843 47.715C85.7069 47.6439 85.7295 47.5727 85.7521 47.5154C85.7973 47.394 85.8443 47.2933 85.8912 47.1909C85.9869 46.9896 86.086 46.8039 86.1973 46.6182C86.2512 46.5244 86.3086 46.4325 86.3712 46.337C86.4415 46.2312 86.5176 46.1292 86.599 46.0316L86.6772 45.9448L86.7242 45.8927L86.8216 45.7903L87.0146 45.5855C87.2667 45.313 87.5189 45.0388 87.7345 44.775C87.8368 44.6517 87.9326 44.5231 88.0214 44.3897C88.1014 44.263 88.1814 44.1225 88.2683 43.9611C88.4422 43.6278 88.6422 43.2668 88.8439 42.9319C88.9448 42.7583 89.0473 42.5848 89.1517 42.4268L89.2282 42.3019L89.2682 42.2411C89.2769 42.2238 89.3099 42.1787 89.3291 42.1492C89.4167 42.0236 89.5169 41.9073 89.6281 41.8021C90.0038 41.4557 90.4481 41.192 90.9323 41.028C91.1616 40.9466 91.3971 40.8839 91.6366 40.8406C91.6992 40.8302 91.7705 40.8197 91.8418 40.8128L92.033 40.7989C92.16 40.7989 92.2887 40.7989 92.4156 40.7989C92.8846 40.8358 93.3457 40.9411 93.7841 41.1113C94.1702 41.2502 94.4797 41.3734 94.7909 41.4584C95.0344 41.5284 95.2905 41.5432 95.5404 41.5018C95.8462 41.445 96.1447 41.3548 96.4307 41.2328C96.8158 41.0755 97.2094 40.94 97.6097 40.8267C97.8347 40.7684 98.0629 40.7232 98.2931 40.6913C98.5497 40.659 98.809 40.6526 99.0669 40.6722C99.5582 40.7169 100.038 40.8436 100.488 41.0471C100.91 41.2379 101.308 41.4798 101.672 41.7673C102.323 42.3105 102.902 42.9352 103.393 43.6261L104.073 44.5355C104.289 44.8271 104.529 45.0857 104.757 45.3599L104.93 45.563L105.118 45.7539L105.492 46.1392C105.744 46.3943 106.014 46.6303 106.282 46.8768C107.399 47.8339 108.589 48.7042 109.839 49.4801C112.354 51.0924 115.089 52.5329 117.597 54.4645L117.539 54.4229C117.906 54.6693 118.254 54.9106 118.609 55.1605C118.963 55.4104 119.304 55.6655 119.652 55.9258C120 56.1862 120.348 56.4604 120.695 56.7485L120.954 56.9724L121.214 57.2101C121.299 57.29 121.387 57.3837 121.476 57.4757C121.518 57.5156 121.567 57.5763 121.613 57.6301L121.751 57.8037L120.784 57.4358L120.871 57.4184L120.308 57.7655C121.608 56.1677 122.833 54.5143 123.982 52.8054C125.12 51.0921 126.16 49.3168 127.1 47.4877C127.563 46.5725 128.007 45.644 128.432 44.7021C128.644 44.2335 128.851 43.758 129.049 43.2842L129.334 42.5761L129.477 42.2203L129.605 41.8611C130.311 39.9464 130.838 37.9712 131.181 35.9602C131.223 35.7086 131.268 35.4569 131.306 35.2053L131.403 34.4451L131.452 34.065L131.485 33.685L131.557 32.9213C131.621 31.9026 131.668 30.8786 131.636 29.8564C131.605 28.8341 131.536 27.8119 131.428 26.7914C131.307 25.7729 131.133 24.7615 130.906 23.7612C130.054 19.7469 128.331 15.8922 125.689 12.7232C124.361 11.1405 122.829 9.73991 121.134 8.55788C119.428 7.37947 117.596 6.39673 115.67 5.62829C111.799 4.11911 107.675 3.36328 103.52 3.4016C101.467 3.56069 99.4346 3.91579 97.4497 4.46201C95.4693 5.03104 93.5418 5.76965 91.6887 6.66961L90.9932 7.00284L90.3115 7.3673L89.6316 7.73003L88.9656 8.11879L88.2996 8.50408L87.6475 8.91366C87.4302 9.0525 87.2111 9.18441 86.9972 9.32672L86.359 9.75887C85.9295 10.04 85.5209 10.3524 85.1035 10.6509C84.8966 10.8019 84.6949 10.9616 84.4914 11.1161C84.288 11.2705 84.0828 11.425 83.8846 11.5864C83.4829 11.904 83.0899 12.232 82.7056 12.5652L82.4187 12.8151L82.3717 12.8568L82.283 12.9262C82.2229 12.9702 82.1595 13.0096 82.0935 13.0442C81.9636 13.1106 81.8248 13.1579 81.6814 13.1848C81.4039 13.2349 81.1179 13.2087 80.8542 13.1091C80.5905 13.0094 80.3588 12.84 80.1842 12.619L79.0835 11.2202L80.8832 11.2913L81.9892 11.3347L83.6828 11.4007L82.5891 12.7093C82.3751 12.961 82.0833 13.1344 81.7596 13.2022C81.5331 13.25 81.2989 13.2471 81.0736 13.1937C80.8484 13.1403 80.6379 13.0377 80.4572 12.8932C80.3129 12.77 80.2972 12.7475 80.2416 12.6954L79.9407 12.4108L79.3304 11.8485L78.7061 11.2983C77.861 10.5798 77.0055 9.86647 76.1099 9.21564C74.3375 7.87214 72.469 6.65982 70.5194 5.58838C68.5696 4.52439 66.5337 3.62569 64.4332 2.90177C63.3899 2.52689 62.317 2.24921 61.2458 1.97673L59.6252 1.64698L59.4339 1.59838L59.2496 1.57408C59.1157 1.55673 58.98 1.54284 58.8426 1.52896C58.5714 1.50293 58.2949 1.48036 58.0201 1.46301C55.8021 1.31343 53.5747 1.38377 51.3706 1.67301C50.2681 1.81995 49.1749 2.02069 48.091 2.27524C47.0081 2.53952 45.9416 2.86635 44.8967 3.25408L44.1315 3.56301C43.8725 3.66367 43.6238 3.78863 43.3699 3.8997L42.9891 4.07325C42.8639 4.134 42.7404 4.19821 42.617 4.26069C42.37 4.38912 42.1196 4.51061 41.8745 4.64251C41.3945 4.92193 40.9024 5.18573 40.4433 5.5016L40.0956 5.73069L39.9217 5.84524L39.7478 5.96846L39.0748 6.46482C38.1834 7.14139 37.3504 7.89146 36.5847 8.70713L36.2961 9.01432L36.15 9.16531L36.0144 9.32672L35.4736 9.97234C35.2875 10.1841 35.1258 10.4149 34.9606 10.6405L34.4615 11.3243L34.2998 11.2219Z" fill="white"/>
</g>
<defs>
<clipPath id="clip0_545_2560">
<rect width="101.736" height="86.8479" fill="white" transform="translate(31.2637)"/>
</clipPath>
</defs>
</svg>
