<svg width="569" height="396" viewBox="0 0 569 396" fill="none" xmlns="http://www.w3.org/2000/svg">
<path d="M394.533 385.006C393.08 385.006 392.006 384.785 391.311 384.343C390.616 383.901 390.269 383.08 390.269 381.879C390.269 379.984 389.953 376.762 389.321 372.214L388.942 370.224L379.561 368.803C379.182 370.256 378.645 373.193 377.95 377.615C377.571 380.711 376.971 382.764 376.15 383.774C375.707 384.343 375.076 384.627 374.254 384.627C373.496 384.627 372.801 384.406 372.17 383.964C371.538 383.459 371.222 382.858 371.222 382.164L371.412 381.69L371.506 381.311C375.676 365.076 378.834 349.061 380.982 333.268C380.982 333.016 381.014 332.605 381.077 332.037C381.14 331.405 381.203 330.52 381.267 329.383C381.456 327.046 381.646 325.182 381.835 323.793C382.088 322.403 382.467 321.36 382.972 320.666H386.194C387.078 320.666 387.836 320.887 388.468 321.329C389.1 321.708 389.416 322.276 389.416 323.034C389.416 327.836 390.079 334.974 391.406 344.45C392.669 354.178 393.301 361.001 393.301 364.918C393.301 365.297 393.459 366.276 393.775 367.855C394.09 369.308 394.248 370.256 394.248 370.698C394.248 371.14 394.564 373.035 395.196 376.383C395.765 379.416 396.049 381.374 396.049 382.258V382.353C396.049 383.743 395.543 384.627 394.533 385.006ZM388.279 366.813C388.089 365.865 387.994 364.696 387.994 363.307C387.994 357.621 387.489 350.356 386.478 341.512L385.531 331.657C382.814 346.503 380.951 357.716 379.94 365.297C380.887 365.928 383.667 366.434 388.279 366.813Z" fill="black"/>
<path d="M354.325 384.912C354.262 384.659 354.136 384.217 353.946 383.585C353.82 382.953 353.788 382.416 353.851 381.974C353.978 374.646 354.167 369.182 354.42 365.581C354.483 364.254 354.515 362.296 354.515 359.706C354.515 355.031 354.293 349.377 353.851 342.744C353.472 334.658 353.283 328.53 353.283 324.361C353.283 323.414 353.662 322.561 354.42 321.803C355.178 321.045 356.094 320.666 357.168 320.666C360.769 320.666 363.896 320.95 366.549 321.518C367.812 321.771 368.634 322.213 369.013 322.845C369.392 323.414 369.518 324.393 369.392 325.782C368.507 326.351 367.591 326.635 366.644 326.635C366.328 326.635 365.854 326.572 365.222 326.446C364.654 326.319 363.138 326.193 360.674 326.067H360.484C359.6 326.067 359.158 326.541 359.158 327.488C358.842 336.648 358.684 341.86 358.684 343.123C358.81 349.693 358.937 354.652 359.063 358C359.063 358.442 359.095 358.979 359.158 359.611C359.221 360.243 359.221 360.78 359.158 361.222C358.968 364.128 358.873 367.192 358.873 370.414C358.873 375.657 358.968 379.321 359.158 381.406C359.095 382.795 358.873 383.743 358.494 384.248C358.115 384.817 357.42 385.101 356.41 385.101C356.157 385.101 355.462 385.038 354.325 384.912Z" fill="black"/>
<path d="M332.383 385.099C331.815 385.099 331.278 384.815 330.773 384.246C330.33 383.678 330.236 383.109 330.488 382.541C330.678 381.972 331.12 381.025 331.815 379.698C333.773 376.476 335.068 372.117 335.7 366.621C335.763 366.242 335.511 365.769 334.942 365.2C334.437 364.568 334.121 364.095 333.994 363.779L332.668 361.884C331.341 360.052 330.236 358.377 329.351 356.861C328.53 355.282 327.74 353.197 326.982 350.607C326.666 349.533 326.445 348.396 326.319 347.196C326.193 345.933 326.129 345.143 326.129 344.827L325.94 342.648C325.877 341.574 325.782 340.626 325.656 339.805C325.529 338.92 325.435 338.194 325.371 337.625C324.803 333.961 324.519 330.961 324.519 328.623C324.519 327.739 324.55 327.076 324.613 326.633C324.676 325.686 324.676 324.833 324.613 324.075C324.613 323.317 324.613 322.685 324.613 322.18C324.676 320.916 325.119 320.285 325.94 320.285C326.129 320.285 326.477 320.348 326.982 320.474C329.32 321.169 330.488 322.496 330.488 324.454C330.488 324.959 330.425 325.907 330.299 327.297L330.015 331.182C330.015 332.951 330.046 334.277 330.109 335.162C330.615 340.405 331.183 345.585 331.815 350.702C332.004 352.092 332.447 353.387 333.142 354.587C333.9 355.724 334.658 356.672 335.416 357.43C336.237 358.125 336.711 358.472 336.837 358.472C337.216 357.335 337.437 356.577 337.5 356.198C337.879 350.576 338.101 346.438 338.164 343.785C338.227 341.574 338.258 337.91 338.258 332.793V321.706C338.322 321.201 338.448 320.853 338.638 320.664C338.89 320.411 339.301 320.285 339.869 320.285C341.133 320.285 342.175 320.758 342.996 321.706C343.818 322.59 344.134 323.664 343.944 324.928C343.754 326.444 343.66 328.465 343.66 330.992C343.66 332.508 343.691 333.551 343.754 334.119C343.818 334.688 343.849 335.478 343.849 336.488C343.849 338.068 343.723 340.31 343.47 343.216C343.47 343.911 343.407 345.017 343.281 346.533C343.154 348.428 342.838 351.334 342.333 355.25L341.954 358.377C341.575 362.168 340.817 366.843 339.68 372.402C339.301 374.17 338.732 376.034 337.974 377.992C337.216 379.888 336.363 381.656 335.416 383.299C335.226 383.741 334.816 384.152 334.184 384.531C333.552 384.91 332.952 385.099 332.383 385.099Z" fill="black"/>
<path d="M303.46 384.815C302.639 381.467 302.229 376.824 302.229 370.885L302.418 362.452C302.544 359.925 302.608 357.114 302.608 354.018C302.229 353.134 302.039 352.344 302.039 351.65V351.365C302.671 350.165 302.987 347.449 302.987 343.216L303.081 338.857C303.145 337.467 303.176 335.92 303.176 334.214C303.176 330.487 302.923 327.549 302.418 325.402C302.608 324.517 302.923 323.759 303.366 323.127C303.808 322.432 304.345 322.085 304.977 322.085H309.146C310.915 322.085 312.462 322.496 313.789 323.317C315.116 324.075 316.126 325.18 316.821 326.633C318.085 329.223 318.716 332.287 318.716 335.825C318.716 338.352 318.685 340.342 318.622 341.795C318.495 343.627 318.18 345.301 317.674 346.817C317.485 347.638 317.2 348.333 316.821 348.902C316.505 349.407 316.032 350.039 315.4 350.797C314.516 351.871 313.063 352.881 311.041 353.829C310.22 354.271 309.146 354.682 307.819 355.061V365.2L308.009 371.264L308.198 374.202C308.451 377.74 308.577 380.74 308.577 383.204C308.577 383.962 308.261 384.594 307.63 385.099C306.998 385.668 306.272 385.952 305.45 385.952L303.46 384.815ZM307.914 351.176C311.641 350.607 313.505 345.269 313.505 335.162C313.505 333.33 313.41 331.908 313.22 330.897C313.031 330.139 312.778 329.539 312.462 329.097C312.147 328.592 311.673 328.181 311.041 327.865C310.346 327.486 309.588 327.297 308.767 327.297C308.767 327.233 308.419 327.202 307.725 327.202V332.603C307.725 336.33 307.756 339.647 307.819 342.553C307.819 345.838 307.851 347.986 307.914 348.996V350.986V351.176Z" fill="black"/>
<path d="M293.053 394.007C292.485 394.007 291.916 393.691 291.348 393.06C290.842 392.491 290.59 391.828 290.59 391.07C290.59 389.996 290.779 386.995 291.158 382.068C289.768 381.689 288.379 381.499 286.989 381.499C285.662 381.499 283.799 381.657 281.398 381.973L279.124 382.257C274.512 382.762 270.88 383.11 268.227 383.299C267.974 383.299 266.3 383.394 263.205 383.584C263.205 384.215 263.205 385.131 263.205 386.332C263.268 387.532 263.268 388.511 263.205 389.269C263.141 390.09 262.889 390.754 262.447 391.259C262.068 391.764 261.594 392.017 261.025 392.017C260.709 392.017 260.299 391.891 259.793 391.638C259.288 391.196 258.751 390.343 258.182 389.08C258.056 388.701 257.993 387.342 257.993 385.005L257.898 382.447C257.835 381.941 258.088 381.404 258.656 380.836C259.225 380.204 260.014 379.857 261.025 379.793C263.868 379.604 265.7 377.993 266.521 374.961C266.963 373.508 267.374 371.771 267.753 369.749C268.132 367.664 268.385 365.832 268.511 364.253C269.395 355.914 269.838 349.534 269.838 345.112C269.838 343.596 269.774 341.385 269.648 338.479C269.522 336.457 269.459 334.973 269.459 334.025C269.459 331.372 269.427 329.382 269.364 328.055C269.364 322.686 269.301 319.274 269.174 317.822C269.048 316.558 269.269 315.516 269.838 314.695C270.406 313.81 271.291 313.305 272.491 313.178C275.523 312.863 277.355 312.705 277.987 312.705C279.313 312.705 280.482 312.863 281.493 313.178C281.935 313.305 282.314 313.368 282.63 313.368C283.009 313.368 283.293 313.399 283.483 313.463C284.683 313.589 285.504 313.842 285.947 314.221C286.452 314.6 286.705 315.516 286.705 316.969L286.61 323.507C286.61 324.96 286.641 326.034 286.705 326.729C286.894 333.615 287.242 344.227 287.747 358.568L287.842 361.126C287.968 364.348 288.126 367.633 288.316 370.981C288.505 374.266 288.758 376.572 289.074 377.898C291.411 377.898 293.18 378.056 294.38 378.372C295.643 378.688 296.275 379.478 296.275 380.741C296.275 381.057 296.244 381.31 296.18 381.499C295.991 382.762 295.801 384.152 295.612 385.668C295.422 387.185 295.296 388.48 295.233 389.553C295.17 389.869 295.138 390.469 295.138 391.354C295.138 392.238 294.98 392.902 294.664 393.344C294.412 393.786 293.875 394.007 293.053 394.007ZM270.311 379.035C273.091 378.783 275.365 378.625 277.134 378.562L283.862 378.088C283.988 376.698 284.051 375.687 284.051 375.055C284.051 374.171 283.988 372.655 283.862 370.507C283.862 370.065 283.799 369.338 283.672 368.328C283.609 367.317 283.578 366.401 283.578 365.58L282.914 350.513V341.132L281.777 319.338C281.777 318.327 281.682 317.537 281.493 316.969C280.798 316.653 279.661 316.495 278.082 316.495C276.692 316.495 275.365 316.59 274.102 316.779V331.656V338.858C273.912 347.449 273.596 355.061 273.154 361.695C272.965 364.79 272.554 368.012 271.922 371.36C271.354 374.708 270.817 377.266 270.311 379.035Z" fill="black"/>
<path d="M214.619 385.006C214.05 384.879 213.576 384.69 213.197 384.437C212.882 384.248 212.692 383.869 212.629 383.3C212.692 382.921 212.85 382.51 213.103 382.068C213.355 381.626 213.608 381.373 213.861 381.31C214.429 381.247 214.84 381.057 215.093 380.742C215.345 380.426 215.566 379.983 215.756 379.415C215.819 379.036 216.009 378.088 216.324 376.572C216.64 375.056 216.83 373.603 216.893 372.213L216.988 370.602C216.988 369.844 216.925 368.77 216.798 367.381C216.672 365.991 216.609 364.98 216.609 364.348C216.609 360.684 217.967 357.084 220.683 353.546C217.019 350.198 215.187 346.534 215.187 342.554V339.522C215.187 336.237 215.44 333.773 215.945 332.131C216.388 330.425 217.209 328.561 218.409 326.54C218.851 325.592 219.451 324.866 220.21 324.36C220.968 323.792 221.789 323.287 222.673 322.844C223.621 322.402 224.347 322.055 224.853 321.802C225.232 321.612 225.769 321.423 226.464 321.233C227.222 321.044 227.822 320.696 228.264 320.191C229.085 319.875 229.906 319.717 230.728 319.717C231.928 319.717 232.97 320.002 233.855 320.57C234.802 321.139 235.276 321.802 235.276 322.56C235.276 325.276 235.213 329.541 235.087 335.352L234.802 348.808L234.708 354.114L234.802 359.421C234.929 362.327 235.181 366.433 235.56 371.74L235.939 377.899C236.003 378.467 236.097 379.099 236.224 379.794C236.35 380.489 236.413 381.057 236.413 381.5C236.413 383.205 235.529 384.058 233.76 384.058C233.002 384.058 232.307 383.869 231.675 383.49C231.107 383.11 230.791 382.574 230.728 381.879C230.538 380.426 230.443 378.941 230.443 377.425L230.159 353.83C227.948 354.209 226.306 354.62 225.232 355.062C224.158 355.504 223.368 356.104 222.863 356.862C222.421 357.557 222.073 358.568 221.82 359.895C221.631 360.716 221.536 361.948 221.536 363.59C221.536 364.412 221.599 365.58 221.726 367.096L221.82 370.697C221.82 373.414 221.663 375.719 221.347 377.615C221.031 379.447 220.336 381.184 219.262 382.826C218.757 383.647 218.062 384.248 217.177 384.627C216.293 385.006 215.44 385.132 214.619 385.006ZM224 350.987C224.253 351.051 224.663 351.082 225.232 351.082C226.558 351.082 228.264 350.798 230.349 350.229C230.349 348.587 230.285 346.06 230.159 342.649C229.97 339.427 229.875 336.237 229.875 333.078C229.875 330.425 229.97 327.74 230.159 325.024C228.454 325.276 226.937 325.719 225.611 326.35C224.284 326.982 223.4 327.677 222.958 328.435C221.315 331.53 220.462 334.563 220.399 337.532C220.399 340.88 220.462 343.344 220.589 344.923C220.652 346.313 220.968 347.608 221.536 348.808C222.105 350.008 222.926 350.735 224 350.987Z" fill="black"/>
<path d="M178.839 386.238C178.333 386.238 177.891 386.08 177.512 385.764C177.133 385.449 176.849 385.038 176.659 384.533C176.596 384.406 176.564 384.217 176.564 383.964C176.564 383.143 177.007 382.479 177.891 381.974C179.66 381.216 180.986 380.079 181.871 378.563C182.818 376.983 183.482 375.151 183.861 373.067C184.998 366.876 185.566 360.148 185.566 352.883C185.566 350.167 185.535 348.114 185.472 346.724C185.03 336.048 184.65 328.53 184.335 324.172V323.793C184.335 323.224 184.461 322.782 184.714 322.466C184.966 322.15 185.409 321.929 186.04 321.803C190.083 321.045 193.305 320.666 195.706 320.666C196.969 320.666 197.917 320.697 198.548 320.76C200.001 320.823 201.107 321.266 201.865 322.087C202.623 322.908 203.002 324.045 203.002 325.498L203.097 330.52C203.223 334.942 203.286 338.259 203.286 340.47L203.191 345.018C203.191 351.715 203.444 360.18 203.95 370.414C204.202 375.025 204.423 378.594 204.613 381.121C204.676 382.258 204.487 383.08 204.044 383.585C203.665 384.09 203.002 384.406 202.054 384.533C199.97 384.659 198.864 383.68 198.738 381.595C198.927 379.763 199.022 377.931 199.022 376.099C199.022 374.267 198.991 372.751 198.927 371.551L198.833 360.748C198.833 355.505 198.738 350.135 198.548 344.639C198.422 340.091 198.232 335.795 197.98 331.752C197.727 327.709 197.474 325.246 197.222 324.361C196.843 324.424 196.053 324.582 194.853 324.835C193.652 325.088 192.01 325.309 189.925 325.498C189.736 328.404 189.641 330.489 189.641 331.752C189.641 333.205 189.736 334.469 189.925 335.543C190.052 337.248 190.178 339.744 190.304 343.028V345.113C190.304 355.347 190.21 362.264 190.02 365.865C189.894 366.876 189.831 367.666 189.831 368.234C189.578 370.887 189.325 372.909 189.073 374.299C188.441 377.647 186.514 381.058 183.292 384.533C182.408 385.543 180.987 386.112 179.028 386.238H178.839Z" fill="black"/>
<path d="M171.46 395.808C170.955 395.934 170.576 395.997 170.323 395.997C169.565 395.997 169.028 395.523 168.712 394.576C168.459 393.818 168.333 392.87 168.333 391.733L168.428 385.195C168.428 384.816 168.396 384.468 168.333 384.152C168.27 383.836 168.207 383.521 168.143 383.205H157.246C157.878 383.205 156.362 383.521 152.698 384.152C149.097 384.721 146.286 385.1 144.264 385.289L140 385.668L135.262 386.142C135.262 386.711 135.262 387.406 135.262 388.227C135.326 389.048 135.326 390.027 135.262 391.164V391.638C135.262 392.649 135.01 393.407 134.504 393.912C133.999 394.418 133.525 394.67 133.083 394.67C132.83 394.67 132.451 394.544 131.946 394.291C130.809 393.47 130.177 392.333 130.051 390.88L129.766 383.963C129.64 381.499 130.651 380.267 132.799 380.267C133.999 380.204 134.946 379.888 135.641 379.32C136.336 378.751 137.158 377.867 138.105 376.666C139.053 375.403 139.779 374.013 140.285 372.497C140.853 370.918 141.39 369.023 141.895 366.812C142.464 364.411 142.875 362.074 143.127 359.799C143.38 357.525 143.696 354.272 144.075 350.039C144.643 343.406 144.928 336.742 144.928 330.045L144.833 324.739C144.833 323.539 145.18 322.559 145.875 321.801C146.57 320.98 147.518 320.57 148.718 320.57C149.097 320.57 149.381 320.601 149.571 320.664C152.477 321.17 154.846 321.486 156.678 321.612H157.151C157.973 321.612 158.447 321.454 158.573 321.138C159.141 320.38 159.836 320.001 160.658 320.001C161.226 320.001 161.731 320.127 162.174 320.38C163.184 320.759 163.848 321.707 164.164 323.223L163.69 339.426C163.69 348.207 163.721 354.777 163.785 359.136C163.785 361.41 163.848 364.885 163.974 369.559L164.069 374.771C164.069 375.277 164.1 375.75 164.164 376.193C164.227 376.635 164.29 377.077 164.353 377.519C165.617 377.646 166.564 377.709 167.196 377.709C167.701 377.709 168.08 377.677 168.333 377.614C169.723 377.424 170.955 377.772 172.028 378.656C173.166 379.478 173.734 380.551 173.734 381.878C173.734 383.584 173.608 386.142 173.355 389.553C173.355 390.438 173.292 391.701 173.166 393.344C173.039 394.67 172.471 395.492 171.46 395.808ZM144.17 380.741C147.707 380.425 150.487 380.141 152.508 379.888C154.593 379.572 156.646 379.098 158.668 378.467C159.299 370.823 159.615 362.642 159.615 353.924C159.615 345.838 159.299 336.963 158.668 327.297C157.025 327.234 153.961 327.076 149.476 326.824L149.381 331.277C148.876 341.006 148.528 348.271 148.339 353.072C148.086 360.273 146.854 367.348 144.643 374.297C144.517 374.676 144.233 375.624 143.791 377.14C143.412 378.593 142.811 379.857 141.99 380.93L144.17 380.741Z" fill="black"/>
<path d="M96.7005 384.912C96.6374 384.659 96.511 384.217 96.3215 383.585C96.1952 382.953 96.1636 382.416 96.2267 381.974C96.3531 374.646 96.5426 369.182 96.7953 365.581C96.8585 364.254 96.8901 362.296 96.8901 359.706C96.8901 355.031 96.669 349.377 96.2267 342.744C95.8477 334.658 95.6582 328.53 95.6582 324.361C95.6582 323.414 96.0372 322.561 96.7953 321.803C97.5534 321.045 98.4694 320.666 99.5433 320.666C103.144 320.666 106.271 320.95 108.924 321.518C110.188 321.771 111.009 322.213 111.388 322.845C111.767 323.414 111.893 324.393 111.767 325.782C110.883 326.351 109.967 326.635 109.019 326.635C108.703 326.635 108.229 326.572 107.598 326.446C107.029 326.319 105.513 326.193 103.049 326.067H102.86C101.975 326.067 101.533 326.541 101.533 327.488C101.217 336.648 101.059 341.86 101.059 343.123C101.186 349.693 101.312 354.652 101.438 358C101.438 358.442 101.47 358.979 101.533 359.611C101.596 360.243 101.596 360.78 101.533 361.222C101.344 364.128 101.249 367.192 101.249 370.414C101.249 375.657 101.344 379.321 101.533 381.406C101.47 382.795 101.249 383.743 100.87 384.248C100.491 384.817 99.796 385.101 98.7852 385.101C98.5325 385.101 97.8376 385.038 96.7005 384.912Z" fill="black"/>
<path d="M74.7595 385.099C74.1909 385.099 73.6539 384.815 73.1486 384.246C72.7064 383.678 72.6116 383.109 72.8643 382.541C73.0538 381.972 73.496 381.025 74.1909 379.698C76.1492 376.476 77.4443 372.117 78.076 366.621C78.1392 366.242 77.8865 365.769 77.3179 365.2C76.8125 364.568 76.4967 364.095 76.3703 363.779L75.0437 361.884C73.7171 360.052 72.6116 358.377 71.7272 356.861C70.906 355.282 70.1163 353.197 69.3582 350.607C69.0424 349.533 68.8213 348.396 68.6949 347.196C68.5686 345.933 68.5054 345.143 68.5054 344.827L68.3159 342.648C68.2527 341.574 68.158 340.626 68.0316 339.805C67.9053 338.92 67.8105 338.194 67.7474 337.625C67.1788 333.961 66.8945 330.961 66.8945 328.623C66.8945 327.739 66.9261 327.076 66.9893 326.633C67.0525 325.686 67.0525 324.833 66.9893 324.075C66.9893 323.317 66.9893 322.685 66.9893 322.18C67.0525 320.916 67.4947 320.285 68.3159 320.285C68.5054 320.285 68.8529 320.348 69.3582 320.474C71.6956 321.169 72.8643 322.496 72.8643 324.454C72.8643 324.959 72.8011 325.907 72.6748 327.297L72.3905 331.182C72.3905 332.951 72.4221 334.277 72.4853 335.162C72.9906 340.405 73.5592 345.585 74.1909 350.702C74.3804 352.092 74.8226 353.387 75.5175 354.587C76.2756 355.724 77.0336 356.672 77.7917 357.43C78.6129 358.125 79.0867 358.472 79.2131 358.472C79.5921 357.335 79.8132 356.577 79.8764 356.198C80.2554 350.576 80.4765 346.438 80.5397 343.785C80.6029 341.574 80.6345 337.91 80.6345 332.793V321.706C80.6976 321.201 80.824 320.853 81.0135 320.664C81.2662 320.411 81.6768 320.285 82.2453 320.285C83.5088 320.285 84.5511 320.758 85.3724 321.706C86.1936 322.59 86.5095 323.664 86.3199 324.928C86.1304 326.444 86.0357 328.465 86.0357 330.992C86.0357 332.508 86.0673 333.551 86.1304 334.119C86.1936 334.688 86.2252 335.478 86.2252 336.488C86.2252 338.068 86.0988 340.31 85.8461 343.216C85.8461 343.911 85.783 345.017 85.6566 346.533C85.5303 348.428 85.2144 351.334 84.7091 355.25L84.33 358.377C83.951 362.168 83.1929 366.843 82.0558 372.402C81.6768 374.17 81.1082 376.034 80.3502 377.992C79.5921 379.888 78.7393 381.656 77.7917 383.299C77.6022 383.741 77.1916 384.152 76.5599 384.531C75.9281 384.91 75.328 385.099 74.7595 385.099Z" fill="black"/>
<path d="M45.8359 384.815C45.0147 381.467 44.6041 376.824 44.6041 370.885L44.7936 362.452C44.9199 359.925 44.9831 357.114 44.9831 354.018C44.6041 353.134 44.4146 352.344 44.4146 351.65V351.365C45.0463 350.165 45.3621 347.449 45.3621 343.216L45.4569 338.857C45.5201 337.467 45.5516 335.92 45.5516 334.214C45.5516 330.487 45.299 327.549 44.7936 325.402C44.9831 324.517 45.299 323.759 45.7412 323.127C46.1834 322.432 46.7203 322.085 47.3521 322.085H51.5214C53.2902 322.085 54.8379 322.496 56.1646 323.317C57.4912 324.075 58.5019 325.18 59.1968 326.633C60.4603 329.223 61.092 332.287 61.092 335.825C61.092 338.352 61.0604 340.342 60.9972 341.795C60.8709 343.627 60.555 345.301 60.0496 346.817C59.8601 347.638 59.5758 348.333 59.1968 348.902C58.881 349.407 58.4072 350.039 57.7754 350.797C56.891 351.871 55.4381 352.881 53.4166 353.829C52.5953 354.271 51.5214 354.682 50.1948 355.061V365.2L50.3843 371.264L50.5738 374.202C50.8265 377.74 50.9529 380.74 50.9529 383.204C50.9529 383.962 50.637 384.594 50.0053 385.099C49.3736 385.668 48.6471 385.952 47.8258 385.952L45.8359 384.815ZM50.2896 351.176C54.0167 350.607 55.8803 345.269 55.8803 335.162C55.8803 333.33 55.7855 331.908 55.596 330.897C55.4065 330.139 55.1538 329.539 54.8379 329.097C54.5221 328.592 54.0483 328.181 53.4166 327.865C52.7217 327.486 51.9636 327.297 51.1424 327.297C51.1424 327.233 50.7949 327.202 50.1 327.202V332.603C50.1 336.33 50.1316 339.647 50.1948 342.553C50.1948 345.838 50.2264 347.986 50.2896 348.996V350.986V351.176Z" fill="black"/>
<path d="M35.4289 394.007C34.8603 394.007 34.2918 393.691 33.7233 393.06C33.2179 392.491 32.9652 391.828 32.9652 391.07C32.9652 389.996 33.1547 386.995 33.5337 382.068C32.144 381.689 30.7542 381.499 29.3644 381.499C28.0378 381.499 26.1742 381.657 23.7736 381.973L21.4995 382.257C16.8879 382.762 13.2555 383.11 10.6023 383.299C10.3496 383.299 8.67552 383.394 5.58009 383.584C5.58009 384.215 5.58009 385.131 5.58009 386.332C5.64326 387.532 5.64326 388.511 5.58009 389.269C5.51692 390.09 5.26423 390.754 4.82203 391.259C4.44299 391.764 3.9692 392.017 3.40065 392.017C3.08479 392.017 2.67417 391.891 2.1688 391.638C1.66342 391.196 1.12646 390.343 0.55791 389.08C0.431566 388.701 0.368394 387.342 0.368394 385.005L0.273636 382.447C0.210464 381.941 0.463152 381.404 1.0317 380.836C1.60025 380.204 2.3899 379.857 3.40065 379.793C6.2434 379.604 8.07539 377.993 8.89662 374.961C9.33883 373.508 9.74945 371.771 10.1285 369.749C10.5075 367.664 10.7602 365.832 10.8865 364.253C11.771 355.914 12.2132 349.534 12.2132 345.112C12.2132 343.596 12.15 341.385 12.0236 338.479C11.8973 336.457 11.8341 334.973 11.8341 334.025C11.8341 331.372 11.8025 329.382 11.7394 328.055C11.7394 322.686 11.6762 319.274 11.5499 317.822C11.4235 316.558 11.6446 315.516 12.2132 314.695C12.7817 313.81 13.6661 313.305 14.8664 313.178C17.8986 312.863 19.7306 312.705 20.3624 312.705C21.689 312.705 22.8577 312.863 23.8684 313.178C24.3106 313.305 24.6896 313.368 25.0055 313.368C25.3845 313.368 25.6688 313.399 25.8583 313.463C27.0586 313.589 27.8798 313.842 28.322 314.221C28.8274 314.6 29.0801 315.516 29.0801 316.969L28.9853 323.507C28.9853 324.96 29.0169 326.034 29.0801 326.729C29.2696 333.615 29.6171 344.227 30.1224 358.568L30.2172 361.126C30.3435 364.348 30.5015 367.633 30.691 370.981C30.8805 374.266 31.1332 376.572 31.4491 377.898C33.7864 377.898 35.5552 378.056 36.7555 378.372C38.019 378.688 38.6507 379.478 38.6507 380.741C38.6507 381.057 38.6191 381.31 38.5559 381.499C38.3664 382.762 38.1769 384.152 37.9874 385.668C37.7978 387.185 37.6715 388.48 37.6083 389.553C37.5452 389.869 37.5136 390.469 37.5136 391.354C37.5136 392.238 37.3556 392.902 37.0398 393.344C36.7871 393.786 36.2501 394.007 35.4289 394.007ZM12.6869 379.035C15.4665 378.783 17.7407 378.625 19.5095 378.562L26.2374 378.088C26.3637 376.698 26.4269 375.687 26.4269 375.055C26.4269 374.171 26.3637 372.655 26.2374 370.507C26.2374 370.065 26.1742 369.338 26.0478 368.328C25.9847 367.317 25.9531 366.401 25.9531 365.58L25.2898 350.513V341.132L24.1527 319.338C24.1527 318.327 24.0579 317.537 23.8684 316.969C23.1735 316.653 22.0364 316.495 20.4571 316.495C19.0673 316.495 17.7407 316.59 16.4773 316.779V331.656V338.858C16.2878 347.449 15.9719 355.061 15.5297 361.695C15.3402 364.79 14.9296 368.012 14.2978 371.36C13.7293 374.708 13.1923 377.266 12.6869 379.035Z" fill="black"/>
<g clip-path="url(#clip0_795_888)">
<path d="M429.452 224.019C429.708 224.019 430.053 224.019 430.258 224.019C430.463 224.019 430.727 224.019 430.99 224.019C431.455 223.976 431.917 223.908 432.375 223.815C433.286 223.608 434.176 223.319 435.034 222.952C435.879 222.593 436.685 222.147 437.437 221.621C438.134 221.167 438.71 220.549 439.114 219.823C439.847 218.441 439.81 216.671 438.763 215.816C437.492 214.602 436 213.641 434.367 212.986C432.731 212.272 431.007 211.78 429.239 211.524C428.338 211.401 427.431 211.326 426.522 211.297C425.569 211.246 424.624 211.217 423.686 211.202C419.965 211.144 416.258 211.436 413.225 212.738C412.849 212.892 412.483 213.068 412.126 213.264C411.775 213.451 411.435 213.659 411.108 213.886C410.786 214.111 410.478 214.355 410.185 214.617C409.933 214.818 409.707 215.048 409.511 215.304C409.184 215.701 408.962 216.174 408.866 216.679C408.823 217.067 408.889 217.459 409.057 217.812C409.315 218.438 409.637 219.035 410.017 219.596C410.439 220.258 410.91 220.888 411.423 221.482C411.951 222.104 412.522 222.718 413.13 223.332C413.738 223.946 414.383 224.502 415.115 225.197L415.577 225.65C415.709 225.767 415.833 225.891 415.987 226.023C416.28 226.271 416.61 226.52 416.947 226.754C417.621 227.259 418.353 227.726 419.093 228.172C419.804 228.598 420.537 228.984 421.291 229.328C421.616 229.47 421.949 229.594 422.287 229.701L422.8 229.832L423.327 229.913C424.74 230.14 426.186 229.801 427.349 228.969C427.936 228.468 428.379 227.819 428.631 227.09C428.922 226.222 429.083 225.315 429.108 224.4V224.093L429.247 224.027C429.314 224.01 429.384 224.007 429.452 224.019ZM429.569 224.663C429.593 224.671 429.618 224.671 429.642 224.663L429.811 224.297C430.283 225.262 430.557 226.311 430.617 227.383C430.668 228.596 430.379 229.798 429.781 230.856C429.117 231.944 428.18 232.841 427.064 233.459C425.97 234.061 424.772 234.453 423.533 234.614C423.232 234.614 422.917 234.68 422.61 234.694H421.708C421.086 234.655 420.466 234.572 419.855 234.446C418.738 234.207 417.643 233.877 416.58 233.459C415.576 233.063 414.598 232.607 413.65 232.091C413.159 231.821 412.683 231.536 412.185 231.207C411.943 231.046 411.694 230.863 411.452 230.688L410.808 230.183C410.075 229.635 409.233 228.962 408.449 228.238C407.63 227.501 406.864 226.707 406.156 225.862C405.409 224.977 404.749 224.022 404.185 223.01C403.893 222.485 403.632 221.943 403.401 221.387C403.135 220.778 402.922 220.147 402.764 219.501C402.591 218.761 402.512 218.002 402.53 217.242C402.547 216.443 402.688 215.651 402.947 214.895C403.42 213.534 404.208 212.304 405.248 211.305C405.709 210.847 406.215 210.435 406.757 210.076C407.255 209.762 407.731 209.426 408.222 209.162C408.721 208.885 409.237 208.641 409.768 208.431C410.284 208.202 410.812 208 411.35 207.824C413.419 207.151 415.571 206.768 417.745 206.684C419.803 206.591 421.865 206.65 423.914 206.859C424.917 206.969 425.906 207.093 426.888 207.232C427.869 207.371 428.932 207.532 429.95 207.788C431.998 208.278 433.97 209.046 435.811 210.069C436.728 210.581 437.605 211.163 438.433 211.809C439.303 212.476 440.086 213.25 440.763 214.112C440.934 214.337 441.095 214.58 441.246 214.843C441.432 215.146 441.579 215.47 441.686 215.809C441.863 216.406 441.942 217.028 441.92 217.651C441.874 218.841 441.482 219.992 440.792 220.963C440.465 221.433 440.076 221.856 439.635 222.221C439.216 222.569 438.762 222.873 438.279 223.127C437.375 223.621 436.419 224.016 435.43 224.305C434.457 224.59 433.458 224.779 432.448 224.868C431.943 224.9 431.437 224.9 430.932 224.868C430.675 224.868 430.426 224.868 430.199 224.809C429.986 224.775 429.775 224.726 429.569 224.663Z" fill="#F08C34"/>
<path d="M422.558 187.03C423.019 186.402 423.452 185.846 423.964 185.268C424.536 184.715 425.221 184.291 425.972 184.025C426.772 183.74 427.621 183.616 428.47 183.66C429.318 183.704 430.15 183.915 430.917 184.281C432.497 185.097 433.759 186.417 434.499 188.032C434.7 188.435 434.869 188.853 435.004 189.282C435.139 189.687 435.249 190.1 435.334 190.518C435.514 191.311 435.644 192.114 435.722 192.924C435.898 194.638 435.774 196.37 435.356 198.042C435.227 198.496 435.065 198.941 434.872 199.372L434.601 200.016L434.242 200.652L433.862 201.295L433.378 201.909C433.035 202.337 432.653 202.731 432.235 203.087C430.877 204.193 429.198 204.834 427.447 204.917C425.696 205 423.964 204.52 422.507 203.547C421.4 202.842 420.51 201.845 419.935 200.667L420.096 200.944C420.009 200.791 419.965 200.71 419.928 200.63C419.891 200.55 419.84 200.454 419.803 200.374C419.726 200.217 419.657 200.056 419.598 199.892C419.477 199.583 419.372 199.268 419.283 198.948C419.195 198.627 419.137 198.305 419.064 197.99L418.946 197.025C418.86 195.732 419.009 194.434 419.386 193.194C419.745 192.028 420.237 190.907 420.851 189.853C421.356 188.836 421.994 187.908 422.558 187.03ZM423.122 187.359C422.687 188.273 422.466 189.273 422.477 190.284C422.503 191.272 422.735 192.243 423.159 193.136C423.544 193.954 423.992 194.741 424.499 195.49L425.18 196.528C425.278 196.696 425.385 196.857 425.503 197.011L425.649 197.23L425.723 197.318L425.876 197.596C425.876 197.471 426.06 197.683 426.294 197.83C426.556 198.01 426.836 198.165 427.129 198.29C427.399 198.415 427.685 198.501 427.979 198.546C428.12 198.557 428.262 198.557 428.404 198.546C428.47 198.546 428.536 198.51 428.616 198.495C428.696 198.488 428.774 198.463 428.843 198.422C429.017 198.359 429.176 198.262 429.312 198.137L429.554 197.947L429.781 197.676L430.015 197.413L430.221 197.069C430.366 196.857 430.496 196.635 430.609 196.404C431.044 195.297 431.291 194.126 431.341 192.938C431.399 192.296 431.416 191.652 431.393 191.008C431.393 190.686 431.393 190.386 431.334 190.109C431.317 189.86 431.282 189.614 431.232 189.37C430.925 188.237 430.356 187.193 429.569 186.321C429.144 185.854 428.619 185.487 428.033 185.249C427.447 185.011 426.815 184.908 426.184 184.947C425.517 184.987 424.882 185.244 424.375 185.678C423.884 186.18 423.463 186.746 423.122 187.359Z" fill="#F08C34"/>
<path d="M402.449 198.539C403.23 199.061 404.134 199.373 405.071 199.445C405.967 199.509 406.86 199.286 407.621 198.809C407.923 198.592 408.176 198.312 408.362 197.989C408.547 197.666 408.662 197.308 408.698 196.937C408.795 196.202 408.735 195.454 408.522 194.744C408.307 194.032 407.967 193.364 407.518 192.77C407.012 192.136 406.44 191.558 405.811 191.044C404.517 189.959 403.061 189.081 401.496 188.441C401.142 188.31 400.78 188.2 400.412 188.112C400.054 188.026 399.689 187.972 399.321 187.951C398.661 187.908 398.361 188.134 398.5 188.215C398.639 188.295 398.5 188.39 398.449 188.624C398.325 188.986 398.268 189.368 398.28 189.75C398.28 190.306 398.339 191.103 398.405 191.885C398.45 192.69 398.598 193.486 398.845 194.254C399.167 195.139 399.643 195.961 400.251 196.682C400.905 197.388 401.643 198.011 402.449 198.539ZM402.126 199.116C401.206 198.692 400.262 198.321 399.299 198.005C398.256 197.635 397.242 197.188 396.266 196.667C395.177 196.051 394.22 195.226 393.453 194.239C392.658 193.241 392.086 192.084 391.775 190.847C391.387 189.32 391.468 187.713 392.01 186.233C392.325 185.371 392.812 184.582 393.441 183.913C394.071 183.245 394.83 182.711 395.672 182.344C396.533 181.999 397.457 181.84 398.383 181.876C399.129 181.908 399.868 182.038 400.581 182.263C401.161 182.45 401.729 182.675 402.28 182.936C402.828 183.174 403.362 183.445 403.877 183.747C405.777 184.887 407.485 186.318 408.939 187.988C409.673 188.863 410.307 189.817 410.829 190.832C411.362 191.921 411.688 193.098 411.789 194.305C411.871 195.536 411.596 196.765 410.998 197.844C410.705 198.389 410.302 198.868 409.816 199.252C409.33 199.636 408.769 199.915 408.17 200.074C407.635 200.215 407.082 200.272 406.529 200.242C406.012 200.231 405.498 200.175 404.991 200.074C404 199.874 403.038 199.553 402.126 199.116Z" fill="#F08C34"/>
<path d="M383.336 206.494C383.234 205.486 383.428 204.47 383.893 203.569C384.435 202.66 385.236 201.933 386.193 201.478C388.093 200.571 390.211 200.221 392.303 200.469C393.334 200.571 394.355 200.754 395.357 201.018C395.89 201.158 396.414 201.331 396.925 201.537C397.189 201.639 397.46 201.763 397.738 201.902C398.017 202.041 398.324 202.231 398.522 202.363C399.491 202.974 400.373 203.712 401.145 204.556C401.573 205.047 401.949 205.582 402.266 206.15C402.432 206.452 402.576 206.765 402.698 207.086C402.764 207.247 402.815 207.423 402.874 207.591C402.932 207.759 402.976 207.993 403.02 208.198C403.17 208.992 403.17 209.808 403.02 210.603C402.892 211.368 402.645 212.108 402.288 212.797C401.918 213.522 401.422 214.175 400.822 214.727C400.489 215.036 400.123 215.309 399.731 215.538L399.416 215.714L399.16 215.838C398.993 215.924 398.822 216 398.647 216.065C397.354 216.569 395.964 216.772 394.581 216.657C393.968 216.609 393.36 216.509 392.764 216.357C392.215 216.218 391.804 216.079 391.299 215.919C390.322 215.578 389.385 215.129 388.508 214.581C387.546 213.964 386.667 213.227 385.893 212.387C385.084 211.55 384.433 210.574 383.973 209.506C383.592 208.545 383.377 207.527 383.336 206.494ZM383.988 206.406C384.147 207.271 384.612 208.05 385.299 208.6C385.987 209.06 386.793 209.313 387.621 209.331C389.299 209.411 391.065 209.243 392.837 209.499L394.141 209.689L395.116 209.799C395.614 209.858 396.117 209.873 396.617 209.843H396.845C396.845 209.843 396.889 209.887 396.932 209.887C397.07 209.87 397.199 209.808 397.299 209.711C397.544 209.504 397.718 209.225 397.797 208.914C397.797 208.914 397.797 208.914 397.797 208.834C397.8 208.775 397.8 208.717 397.797 208.658C397.78 208.537 397.753 208.417 397.716 208.3C397.624 208.02 397.499 207.753 397.343 207.503C396.938 206.879 396.445 206.317 395.878 205.836C394.655 204.817 393.217 204.087 391.673 203.701C390.01 203.204 388.339 202.633 386.625 202.794C386.204 202.845 385.792 202.956 385.402 203.123C385.022 203.31 384.689 203.58 384.427 203.913C384.183 204.275 384.018 204.684 383.942 205.113C383.867 205.543 383.882 205.983 383.988 206.406Z" fill="#F08C34"/>
<path d="M395.219 227.149C395.864 226.89 396.467 226.535 397.006 226.096C397.224 225.895 397.389 225.644 397.49 225.365C397.605 225.087 397.663 224.788 397.658 224.488C397.681 224.235 397.631 223.981 397.516 223.754C397.401 223.528 397.224 223.339 397.006 223.208C396.914 223.168 396.814 223.147 396.713 223.147C396.612 223.147 396.512 223.168 396.42 223.208C396.323 223.244 396.222 223.271 396.12 223.288C396.032 223.288 395.929 223.347 395.827 223.391C395.094 223.72 394.237 224.268 393.438 224.641C393.043 224.846 392.655 225.021 392.347 225.175L392.134 225.27C392.076 225.306 392.01 225.328 391.988 225.35C391.966 225.372 391.922 225.394 391.988 225.387H392.025C392.085 225.374 392.144 225.354 392.2 225.328L392.259 225.292H392.193C392.149 225.294 392.105 225.294 392.061 225.292C391.982 225.311 391.899 225.311 391.819 225.292C391.651 225.241 391.563 225.102 391.431 224.809C391.35 224.644 391.252 224.487 391.138 224.341C391.08 224.265 391.008 224.2 390.926 224.151C390.845 224.124 390.761 224.109 390.677 224.107H390.523L390.391 224.063C390.284 224.049 390.176 224.049 390.069 224.063C389.973 224.058 389.878 224.074 389.789 224.109C389.701 224.144 389.621 224.199 389.556 224.268C389.518 224.301 389.487 224.341 389.466 224.387C389.444 224.432 389.432 224.481 389.431 224.531C389.416 224.643 389.416 224.756 389.431 224.868C389.493 225.135 389.613 225.384 389.783 225.599C390.188 226.118 390.717 226.527 391.321 226.791C391.95 227.084 392.624 227.267 393.314 227.332C393.955 227.407 394.604 227.345 395.219 227.149ZM395.504 227.749C394.094 228.236 392.597 228.425 391.109 228.304C390.365 228.277 389.627 228.161 388.911 227.961C388.148 227.764 387.447 227.376 386.875 226.835C386.576 226.552 386.329 226.221 386.142 225.855C386.063 225.664 385.994 225.469 385.937 225.27L385.842 224.97V224.67C385.71 223.858 385.836 223.025 386.201 222.287C386.961 220.902 388.177 219.822 389.644 219.231C390.381 218.97 391.155 218.826 391.937 218.806C392.683 218.769 393.431 218.8 394.171 218.902C395.704 219.071 397.147 219.71 398.303 220.729C398.45 220.864 398.582 221.013 398.698 221.175C398.823 221.332 398.936 221.499 399.035 221.673C399.233 222.033 399.362 222.428 399.416 222.835C399.496 223.624 399.343 224.42 398.977 225.124C398.807 225.466 398.598 225.788 398.354 226.081C398.093 226.369 397.789 226.616 397.453 226.813C396.821 227.159 396.17 227.472 395.504 227.749Z" fill="#F08C34"/>
<path d="M182.222 120.89C180.728 119.321 179.519 117.505 178.647 115.523L178.046 113.988C177.878 113.461 177.702 112.935 177.541 112.401C177.38 111.867 177.292 111.326 177.182 110.778C177.072 110.23 176.991 109.689 176.918 109.133C176.845 108.577 176.786 108.029 176.713 107.466L176.567 105.784C176.554 105.22 176.579 104.656 176.64 104.095C176.723 103.54 176.843 102.99 176.999 102.45C177.189 101.924 177.38 101.39 177.607 100.878C177.834 100.366 178.127 99.8692 178.427 99.4159C178.748 98.9178 179.096 98.437 179.468 97.9755C179.868 97.5397 180.31 97.1431 180.786 96.791C180.813 96.7704 180.843 96.7555 180.875 96.7472C180.908 96.739 180.942 96.7375 180.975 96.743C181.008 96.7485 181.039 96.7608 181.068 96.7792C181.096 96.7975 181.119 96.8214 181.138 96.8495C181.16 96.88 181.175 96.9149 181.182 96.9519C181.277 97.5324 181.333 98.1186 181.35 98.7066C181.35 99.2477 181.409 99.7814 181.394 100.293C181.38 100.805 181.394 101.31 181.394 101.807C181.394 102.304 181.394 102.794 181.328 103.269C181.317 103.759 181.27 104.248 181.189 104.731C181.13 105.209 181.041 105.683 180.925 106.15L180.625 107.576C180.537 108.051 180.493 108.533 180.442 109.038L180.398 110.5L180.442 111.963L180.552 113.425L180.764 114.887C181.101 116.88 181.715 118.817 182.588 120.641C182.607 120.689 182.609 120.742 182.594 120.791C182.579 120.84 182.547 120.883 182.505 120.912C182.462 120.941 182.411 120.954 182.359 120.95C182.308 120.946 182.26 120.925 182.222 120.89Z" fill="#F08C34"/>
<path d="M216.404 146.02C214.973 145.938 213.6 145.428 212.463 144.557C211.364 143.755 210.446 142.731 209.769 141.552C209.091 140.373 208.669 139.065 208.529 137.714C208.372 136.296 208.645 134.865 209.313 133.604C210.225 134.531 211.055 135.534 211.796 136.602C212.436 137.505 213.03 138.44 213.576 139.403C214.111 140.346 214.602 141.311 215.042 142.364C215.594 143.543 216.05 144.766 216.404 146.02Z" fill="#F08C34"/>
<path d="M225.246 147.548C224.391 147.916 223.432 147.966 222.543 147.687C221.624 147.421 220.783 146.94 220.089 146.283C218.781 144.979 217.909 143.304 217.591 141.487C217.265 139.85 217.265 138.166 217.591 136.529C217.905 134.856 218.664 133.298 219.788 132.018C220.302 133.502 220.723 135.016 221.048 136.551C221.363 137.948 221.642 139.322 221.891 140.638C222.093 141.851 222.404 143.043 222.821 144.199C223.043 144.791 223.333 145.356 223.686 145.881C224.111 146.518 224.638 147.081 225.246 147.548Z" fill="#F08C34"/>
<path d="M255.128 138.635C253.03 137.696 251.174 136.293 249.7 134.533C248.211 132.791 247.023 130.814 246.183 128.684C245.325 126.561 244.83 124.309 244.718 122.023C244.582 119.725 244.976 117.426 245.868 115.304C246.755 117.497 247.407 119.449 248.11 121.394C248.813 123.339 249.502 125.211 250.234 127.075C250.967 128.94 251.743 130.797 252.564 132.683C253.384 134.57 254.3 136.463 255.128 138.635Z" fill="#F08C34"/>
<path d="M301.918 101.997C301.275 102.199 300.579 102.152 299.969 101.865C299.383 101.591 298.86 101.2 298.431 100.717C297.689 99.8621 297.171 98.8374 296.922 97.7343C296.728 96.907 296.625 96.0612 296.614 95.2118C296.668 94.2485 296.564 93.2829 296.306 92.353C296.955 92.1795 297.645 92.2551 298.24 92.565C298.805 92.8555 299.303 93.2587 299.705 93.7495C300.417 94.5959 300.919 95.5979 301.17 96.6741C301.359 97.4875 301.465 98.318 301.485 99.1527C301.452 100.119 301.599 101.084 301.918 101.997Z" fill="#F08C34"/>
<path d="M342.81 122.769C342.233 122.95 341.614 122.951 341.036 122.774C340.458 122.596 339.947 122.248 339.572 121.774C338.796 120.895 338.377 119.758 338.4 118.587C338.411 117.534 338.752 116.512 339.374 115.662C340.012 114.816 340.894 114.186 341.901 113.856C342.308 114.75 342.57 115.702 342.678 116.678C342.765 117.328 342.804 117.983 342.795 118.638C342.795 119.128 342.729 119.639 342.663 120.246C342.535 121.088 342.584 121.947 342.81 122.769Z" fill="#F08C34"/>
<path d="M290.621 91.161C287.353 91.2599 284.083 91.1255 280.834 90.7588C277.635 90.4322 274.461 89.9911 271.311 89.4354C268.16 88.8871 265.025 88.2363 261.897 87.4613C258.721 86.7077 255.602 85.7304 252.564 84.5367C255.816 84.0431 259.111 83.8863 262.395 84.0687C265.638 84.2115 268.869 84.5681 272.065 85.1362C275.266 85.6925 278.428 86.4544 281.53 87.4174C284.679 88.3555 287.725 89.6098 290.621 91.161Z" fill="#F08C34"/>
<path d="M266.461 165.717C266.905 165.426 267.282 165.045 267.567 164.598C267.769 164.286 267.941 163.956 268.08 163.611C268.336 163.004 268.519 162.449 268.681 161.981L269.413 159.926C269.756 158.906 270.237 157.936 270.842 157.045C271.788 157.745 272.496 158.717 272.871 159.831C273.26 160.984 273.26 162.232 272.871 163.385C272.651 164.027 272.302 164.619 271.845 165.122C271.387 165.625 270.832 166.029 270.212 166.309C269.586 166.594 268.895 166.705 268.212 166.631C267.872 166.61 267.541 166.517 267.239 166.36C266.937 166.203 266.672 165.983 266.461 165.717Z" fill="#F08C34"/>
<path d="M277.193 120.437C279.303 121.277 281.127 122.199 282.944 123.061C283.852 123.5 284.739 123.946 285.581 124.304C286.389 124.663 287.225 124.956 288.079 125.182C289.804 125.655 291.588 125.879 293.376 125.847C295.281 125.847 297.347 125.613 299.617 125.65C298.066 127.296 296.127 128.53 293.977 129.24C291.693 130.001 289.233 130.062 286.915 129.415C286.333 129.249 285.763 129.046 285.208 128.808C284.661 128.565 284.133 128.284 283.625 127.967C282.672 127.363 281.783 126.662 280.973 125.876C279.328 124.362 278.038 122.505 277.193 120.437Z" fill="#F08C34"/>
<path d="M360.428 361.923C357.537 363.596 354.247 364.46 350.905 364.424C347.553 364.393 344.261 363.534 341.323 361.923C335.516 358.804 329.755 355.603 324.041 352.323C312.62 345.743 301.331 338.855 290.401 331.507C279.471 324.159 268.725 316.445 258.344 308.271C247.963 300.096 237.912 291.505 228.235 282.497C218.558 273.49 209.357 263.948 200.617 254.041C196.222 249.069 191.985 243.983 187.907 238.782C183.829 233.581 179.895 228.25 176.105 222.791C168.52 211.907 161.651 200.543 155.542 188.77C152.494 182.877 149.681 176.865 147.102 170.733C146.458 169.207 145.83 167.672 145.22 166.126L144.795 164.964L144.297 163.779C144.011 162.96 143.74 162.149 143.491 161.345C142.487 158.076 141.645 154.881 140.861 151.62C140.774 151.252 140.773 150.868 140.858 150.499C140.943 150.13 141.112 149.786 141.352 149.493C144.018 146.217 146.626 142.993 149.571 139.812L150.655 138.657C151.007 138.284 151.439 137.831 151.849 137.443C152.683 136.654 153.569 135.921 154.501 135.25C156.361 133.899 158.391 132.798 160.538 131.974C164.457 130.439 168.391 128.947 172.413 127.587C174.42 126.914 176.449 126.278 178.544 125.715C179.592 125.437 180.662 125.182 181.775 124.984C182.339 124.882 182.911 124.787 183.541 124.728C184.27 124.634 185.009 124.634 185.738 124.728C186.134 124.789 186.507 124.952 186.821 125.2C187.134 125.449 187.377 125.775 187.526 126.147V126.198C187.856 127.031 188.295 127.982 188.727 128.859C189.16 129.737 189.636 130.643 190.134 131.513C191.11 133.251 192.196 134.923 193.386 136.522C195.632 139.694 198.489 142.389 201.789 144.448C203.378 145.392 205.11 146.073 206.917 146.466C207.364 146.561 207.818 146.634 208.272 146.685C208.492 146.685 208.719 146.736 209.005 146.751H209.386L209.855 146.802C210.924 146.926 211.979 147.065 213.027 147.219C217.232 147.826 221.393 148.622 225.525 149.551C233.845 151.336 241.961 153.967 249.743 157.404C251.685 158.31 253.604 159.275 255.48 160.328L256.886 161.162C257.121 161.301 257.355 161.44 257.619 161.601L258.271 162.039L260.893 163.779C264.366 166.109 267.828 168.466 271.281 170.85C274.724 173.248 278.16 175.624 281.537 178.242C283.106 179.507 284.782 180.633 286.548 181.605C288.284 182.592 290.121 183.391 292.028 183.989C293.863 184.593 295.798 184.841 297.727 184.72C299.588 184.567 301.356 183.839 302.782 182.636C302.958 182.475 303.148 182.322 303.295 182.168L303.485 181.978C303.553 181.9 303.614 181.817 303.668 181.729C303.924 181.354 304.143 180.955 304.32 180.538C304.693 179.678 304.926 178.765 305.009 177.832C305.166 175.903 304.821 173.966 304.005 172.21C303.181 170.378 302.09 168.678 300.767 167.165C299.43 165.609 297.96 164.173 296.372 162.873C293.2 160.183 289.886 157.664 286.446 155.327C282.997 152.987 279.413 150.85 275.713 148.93L264.483 143.307L275.926 148.425C279.743 150.179 283.434 152.195 286.973 154.457C290.52 156.71 293.944 159.15 297.229 161.769C298.92 163.075 300.496 164.523 301.939 166.097C303.418 167.691 304.653 169.495 305.602 171.449C306.609 173.479 307.081 175.731 306.972 177.993C306.907 179.146 306.66 180.281 306.24 181.356C306.024 181.907 305.756 182.435 305.441 182.936C305.359 183.073 305.269 183.205 305.17 183.331L305.126 183.389C305.09 183.433 305.068 183.462 305.06 183.462L304.987 183.55L304.826 183.711C304.621 183.937 304.416 184.12 304.203 184.325C302.456 185.892 300.265 186.881 297.932 187.154C295.679 187.393 293.4 187.181 291.229 186.533C289.123 185.929 287.087 185.103 285.156 184.069C283.234 183.064 281.403 181.895 279.684 180.574C276.387 178.139 272.886 175.829 269.428 173.533C265.97 171.237 262.439 168.978 258.915 166.733L256.285 165.044L255.619 164.62C255.428 164.496 255.208 164.372 254.989 164.247L253.685 163.516C251.897 162.544 250.066 161.659 248.198 160.826C240.614 157.63 232.722 155.216 224.645 153.624C220.602 152.775 216.514 152.095 212.433 151.54C211.408 151.408 210.382 151.277 209.379 151.174H209.064H208.668C208.404 151.174 208.111 151.138 207.818 151.108C207.225 151.05 206.646 150.955 206.067 150.845C203.776 150.381 201.576 149.546 199.555 148.374C195.693 146.032 192.34 142.942 189.694 139.286C188.362 137.544 187.139 135.723 186.031 133.831C185.489 132.89 184.972 131.933 184.478 130.958C183.98 129.963 183.526 129.027 183.072 127.923L184.881 129.386C184.57 129.352 184.255 129.352 183.944 129.386C183.533 129.422 183.072 129.503 182.61 129.59C181.68 129.781 180.713 130.022 179.746 130.322C177.812 130.863 175.863 131.499 173.922 132.171C170.032 133.524 166.157 134.994 162.303 136.522C160.547 137.196 158.889 138.1 157.373 139.212C156.622 139.766 155.908 140.367 155.234 141.011C154.89 141.347 154.604 141.647 154.238 142.042L153.175 143.183C150.45 146.107 147.813 149.405 145.227 152.607L145.703 150.465C146.436 153.587 147.315 156.753 148.274 159.795C148.516 160.526 148.765 161.301 149.007 162.039L149.417 163.121L149.872 164.255C150.472 165.761 151.092 167.265 151.732 168.766C154.318 174.747 157.124 180.64 160.076 186.445C166.048 198.045 172.768 209.245 180.193 219.976C183.856 225.35 187.768 230.615 191.767 235.784C195.767 240.953 199.892 246.02 204.155 250.97C212.683 260.884 221.737 270.353 231.173 279.434C240.608 288.515 250.425 297.208 260.593 305.492C265.672 309.645 270.825 313.706 276.05 317.673C281.274 321.644 286.585 325.504 291.94 329.306C302.672 336.874 313.617 344.163 324.803 351.073C330.395 354.529 336.038 357.907 341.733 361.207C344.525 362.883 347.688 363.845 350.941 364.007C354.234 364.177 357.512 363.457 360.428 361.923Z" fill="#F08C34"/>
<path d="M278.439 148.702C278.892 145.705 278.596 142.643 277.574 139.789C277.457 139.438 277.34 139.094 277.208 138.751L277.017 138.246V138.312C277.032 138.364 277.054 138.413 277.083 138.458C277.138 138.545 277.207 138.622 277.288 138.685C277.369 138.741 277.458 138.783 277.552 138.809H277.618H277.574H277.413H276.783L275.523 138.714C274.688 138.619 273.875 138.451 273.039 138.305C272.204 138.158 271.428 137.888 270.629 137.639C267.51 136.59 264.551 135.114 261.838 133.252C260.493 132.35 259.199 131.374 257.963 130.328C256.714 129.266 255.532 128.128 254.425 126.921L257.524 124.859C258.373 127.264 259.362 129.633 260.454 131.987C261.011 133.165 261.582 134.342 262.19 135.512C262.798 136.681 263.428 137.851 264.051 139.05C262.989 138.215 261.983 137.311 261.04 136.345C260.091 135.373 259.198 134.348 258.366 133.274C256.685 131.115 255.229 128.79 254.022 126.336C253.811 125.945 253.746 125.493 253.839 125.059C253.933 124.625 254.178 124.239 254.531 123.97C254.884 123.7 255.322 123.565 255.765 123.589C256.209 123.612 256.63 123.793 256.952 124.098L257.157 124.274C258.227 125.195 259.428 126.167 260.622 127.052C261.816 127.937 263.047 128.822 264.285 129.633C266.743 131.269 269.341 132.684 272.051 133.859L274.087 134.642C274.776 134.832 275.464 135.073 276.168 135.256L277.222 135.482L277.75 135.607L277.882 135.643H277.984L278.197 135.687C278.481 135.75 278.752 135.864 278.995 136.023C279.377 136.267 279.673 136.622 279.845 137.04C279.845 137.106 279.904 137.179 279.926 137.244V137.354V137.398C279.962 137.603 280.006 137.807 280.043 138.02C280.109 138.429 280.167 138.838 280.211 139.255C280.403 140.897 280.371 142.557 280.116 144.19C279.892 145.798 279.319 147.337 278.439 148.702Z" fill="#F08C34"/>
<path d="M298.101 121.102C300.847 123.739 304.22 125.637 307.903 126.615C309.702 127.096 311.556 127.341 313.419 127.346C315.28 127.346 317.177 127.156 319.111 127.046C321.045 126.937 322.986 126.856 324.92 126.849H326.386C326.884 126.849 327.301 126.849 327.909 126.886C328.258 126.914 328.602 126.983 328.935 127.09C329.301 127.225 329.645 127.415 329.953 127.653C330.414 128.046 330.822 128.496 331.169 128.991C333.405 131.968 335.951 134.698 338.766 137.136C340.173 138.35 341.616 139.505 343.162 140.573C343.914 141.104 344.683 141.616 345.469 142.108C345.857 142.357 346.246 142.598 346.649 142.839L347.242 143.19C347.406 143.284 347.575 143.37 347.747 143.446C348.759 143.868 349.726 144.39 350.634 145.004C350.942 145.236 351.227 145.498 351.484 145.786C351.749 146.102 351.979 146.445 352.172 146.81C352.433 147.34 352.651 147.89 352.824 148.455C352.949 148.791 353.139 149.237 353.308 149.632C353.476 150.027 353.667 150.429 353.865 150.809C354.252 151.568 354.69 152.301 355.176 153.002C355.673 153.699 356.211 154.366 356.787 154.999C357.348 155.61 357.95 156.181 358.59 156.709C359.858 157.752 361.288 158.582 362.824 159.166C364.317 159.743 365.897 160.067 367.498 160.124C367.893 160.124 368.304 160.124 368.684 160.124C369.02 160.105 369.353 160.059 369.681 159.985C370.233 159.853 370.751 159.604 371.197 159.254C371.454 159.044 371.698 158.819 371.93 158.581C372.131 158.376 372.31 158.151 372.465 157.909C372.763 157.453 372.96 156.94 373.043 156.402C373.116 155.912 373.073 155.411 372.919 154.94C372.875 154.838 372.838 154.728 372.787 154.626L372.706 154.472C372.706 154.472 372.706 154.472 372.706 154.516L372.758 154.596L371.908 153.529C369.505 150.524 367.117 147.49 364.86 144.112C364.575 143.695 364.304 143.234 364.025 142.788L363.256 141.428C362.809 140.617 362.348 139.805 361.879 139.001C360.941 137.392 359.964 135.806 358.949 134.241C356.927 131.104 354.736 128.041 352.495 124.97L352.114 124.297C351.974 124.1 351.857 123.976 351.733 123.815C351.476 123.5 351.257 123.193 350.949 122.879C350.399 122.25 349.784 121.629 349.161 121.007C347.872 119.771 346.502 118.565 345.081 117.402C342.224 115.07 339.22 112.84 336.114 110.749C334.539 109.718 332.957 108.555 331.396 107.561C329.836 106.567 328.261 105.528 326.671 104.563C323.487 102.643 320.22 100.888 316.869 99.299C313.514 97.6904 310.049 96.2427 306.518 94.8097L295.896 90.5251C292.452 89.1456 288.938 87.9473 285.369 86.9351C281.823 85.9407 278.182 85.1803 274.483 84.493C270.783 83.8057 267.032 83.25 263.238 82.6871L251.861 80.9908L240.484 79.2945L229.114 77.5178C221.539 76.3187 213.957 75.1781 206.404 73.9351L195.02 72.0999C191.233 71.4711 187.497 70.8569 183.768 70.506C180.065 70.095 176.327 70.1294 172.633 70.6083C168.915 71.176 165.257 72.0791 161.703 73.3063C158.106 74.5127 154.553 75.9458 151 77.3789C147.447 78.8119 143.989 80.4278 140.399 81.7804C143.806 80.0183 147.132 78.1246 150.568 76.3699C154.003 74.6151 157.446 72.9334 161.014 71.4126C164.605 69.8452 168.346 68.6425 172.179 67.8226C176.067 67.05 180.034 66.7481 183.995 66.9233C187.929 67.0622 191.79 67.5228 195.599 67.9396L207.064 69.2118C214.69 70.0527 222.301 70.9958 229.92 71.8879L241.341 73.2405L252.762 74.7028L264.175 76.1651C267.977 76.6404 271.823 77.1303 275.684 77.7517C279.587 78.36 283.455 79.1703 287.273 80.1792C291.094 81.214 294.857 82.4489 298.548 83.8788L309.28 88.1488C312.855 89.6111 316.474 91.0734 320.042 92.7843C323.61 94.4917 327.089 96.3781 330.466 98.4362C332.151 99.4598 333.814 100.52 335.44 101.609C337.067 102.699 338.612 103.803 340.224 104.885C343.462 107.137 346.583 109.484 349.638 112.036C351.161 113.315 352.656 114.661 354.121 116.094L355.205 117.212C355.564 117.593 355.938 118.009 356.26 118.411C356.948 119.223 357.594 120.07 358.194 120.949C360.392 124.114 362.589 127.339 364.648 130.68C365.681 132.355 366.67 134.058 367.622 135.798C368.098 136.661 368.567 137.531 369.021 138.401L369.637 139.557C369.857 139.929 370.062 140.288 370.311 140.675C372.23 143.724 374.538 146.751 376.809 149.807L377.702 151.021L377.893 151.292L378.039 151.526C378.081 151.589 378.117 151.655 378.149 151.723L378.376 152.22C378.52 152.553 378.643 152.895 378.743 153.244C379.136 154.619 379.197 156.067 378.919 157.47C378.655 158.82 378.105 160.099 377.307 161.221C376.918 161.769 376.474 162.277 375.981 162.734C375.523 163.161 375.033 163.552 374.516 163.904C373.406 164.68 372.146 165.216 370.816 165.476C370.202 165.586 369.58 165.65 368.956 165.666C368.377 165.666 367.827 165.666 367.271 165.666C365.046 165.528 362.861 165.014 360.809 164.145C358.783 163.289 356.91 162.108 355.264 160.65C354.447 159.932 353.693 159.147 353.007 158.303C352.334 157.485 351.713 156.625 351.147 155.73C350.593 154.824 350.103 153.881 349.681 152.907C349.462 152.432 349.264 151.942 349.081 151.445C348.898 150.948 348.729 150.509 348.553 149.932C348.463 149.577 348.353 149.228 348.224 148.886C348.187 148.791 348.15 148.74 348.136 148.703C348.076 148.632 348.009 148.566 347.938 148.506C347.269 148.028 346.558 147.612 345.813 147.263C345.586 147.139 345.315 146.985 345.081 146.824L344.458 146.415C344.041 146.137 343.63 145.859 343.228 145.567C342.414 144.996 341.616 144.404 340.839 143.79C339.278 142.567 337.789 141.256 336.378 139.864C333.566 137.089 331.058 134.023 328.898 130.717C328.72 130.41 328.506 130.126 328.261 129.869C328.199 129.807 328.127 129.755 328.049 129.715C327.927 129.663 327.799 129.628 327.668 129.613C327.316 129.562 326.774 129.532 326.32 129.496L324.906 129.393C323.008 129.284 321.111 129.196 319.206 129.159C317.302 129.123 315.375 129.159 313.404 129.006C310.473 128.769 307.616 127.957 304.999 126.617C302.382 125.277 300.055 123.436 298.152 121.197L298.101 121.102Z" fill="#F08C34"/>
<path d="M374.128 158.903C371.791 157.126 369.556 154.954 368.699 152.147C368.018 149.953 368.267 147.555 368.516 145.252" stroke="#F08C34" stroke-linecap="round" stroke-linejoin="round"/>
<path d="M285.918 185.027C285.769 186.452 285.322 187.829 284.607 189.07C283.805 190.394 282.701 191.509 281.383 192.324C281.046 192.529 280.702 192.712 280.35 192.894C280.175 192.982 279.999 193.048 279.816 193.128L279.545 193.238L279.398 193.296L279.171 193.362C278.191 193.609 277.171 193.652 276.175 193.487C274.643 193.252 273.159 192.774 271.779 192.068C271.45 191.893 271.12 191.717 270.776 191.512L270.651 191.432L270.446 191.293C270.299 191.191 270.153 191.088 270.021 190.979C269.754 190.758 269.509 190.514 269.289 190.248C268.603 189.378 268.158 188.345 267.999 187.25C267.841 186.348 267.841 185.425 267.999 184.523C268.036 184.303 268.094 184.077 268.146 183.857C268.197 183.638 268.256 183.477 268.321 183.294C268.453 182.938 268.593 182.595 268.739 182.263C269.334 181.001 270.071 179.812 270.937 178.717C271.778 177.599 272.795 176.624 273.948 175.829C273.852 177.24 273.735 178.534 273.596 179.821C273.457 181.108 273.303 182.336 273.208 183.477C273.179 183.751 273.164 184.027 273.164 184.303V184.676C273.164 184.778 273.164 184.866 273.164 184.961C273.202 185.334 273.288 185.7 273.42 186.051C273.537 186.35 273.691 186.533 273.706 186.497C273.708 186.485 273.708 186.472 273.706 186.46C273.706 186.46 273.706 186.46 273.669 186.416C273.633 186.416 273.633 186.372 273.669 186.416L273.75 186.46C273.955 186.577 274.189 186.701 274.431 186.818C275.342 187.287 276.285 187.693 277.252 188.032C277.669 188.193 278.05 188.23 278.072 188.303H278.153H278.343L278.724 188.251C278.973 188.208 279.23 188.178 279.457 188.12C280.521 187.905 281.549 187.54 282.511 187.038C283.062 186.757 283.598 186.447 284.116 186.109C284.717 185.773 285.295 185.371 285.918 185.027Z" fill="#F08C34"/>
<path d="M280.93 190.036C279.53 189.224 279.464 187.535 279.97 186C280.564 184.498 281.488 183.149 282.673 182.051" stroke="#F08C34" stroke-linecap="round" stroke-linejoin="round"/>
<path d="M300.921 182.79C301.918 180.048 301.031 177.175 299.456 174.747C297.705 172.324 295.584 170.19 293.171 168.423C292.13 167.611 290.973 166.77 289.691 166.646C287.815 166.47 286.153 167.765 284.805 169.073C283.149 170.682 281.706 172.612 281.303 174.886C281.149 175.72 282.592 177.021 283.208 177.423C286.328 179.448 288.299 180.75 291.42 182.775C292.255 183.316 294.101 184.508 295.083 184.706C298.042 185.283 300.767 183.199 300.921 182.79Z" stroke="#F08C34" stroke-linecap="round" stroke-linejoin="round"/>
<path d="M305.068 136.244C306.088 137.519 307.328 138.601 308.73 139.439C310.091 140.229 311.546 140.846 313.06 141.275C316.085 142.152 319.309 142.415 322.723 142.795C323.279 142.859 323.797 143.111 324.19 143.51C324.582 143.91 324.824 144.432 324.876 144.989V145.172L325.367 151.372C325.528 153.412 325.668 155.43 325.895 157.441C326.089 159.45 326.477 161.435 327.052 163.37C327.213 163.845 327.404 164.313 327.572 164.833C327.741 165.352 327.968 165.761 328.202 166.214C328.677 167.126 329.223 167.999 329.836 168.825C330.451 169.695 331.125 170.557 331.711 171.53C332.313 172.516 332.771 173.582 333.074 174.696C333.389 175.785 333.579 176.889 333.806 177.906C334.005 178.898 334.274 179.876 334.612 180.83C334.9 181.63 335.375 182.349 335.997 182.929C336.648 183.477 337.392 183.903 338.195 184.186C339.045 184.501 339.923 184.733 340.817 184.881C341.718 185.034 342.629 185.117 343.542 185.129C343.747 185.129 343.96 185.129 344.084 185.129C344.084 185.129 343.967 185.129 344.011 185.129C344.055 185.129 344.092 185.129 344.136 185.071C344.294 184.998 344.435 184.891 344.546 184.757C344.662 184.634 344.747 184.486 344.795 184.325C344.823 184.247 344.84 184.166 344.846 184.084V183.711C344.942 181.708 344.971 179.668 344.846 177.65C344.705 173.619 344.304 169.601 343.645 165.622C343.572 165.11 343.462 164.664 343.381 164.16C343.337 163.933 343.293 163.663 343.249 163.473L343.059 162.741C342.788 161.703 342.546 160.665 342.326 159.627C341.865 157.536 341.374 155.459 340.978 153.346L340.4 150.18L339.909 146.992C339.58 144.834 339.428 142.653 339.455 140.47C339.458 140.392 339.493 140.318 339.55 140.265C339.608 140.212 339.684 140.183 339.762 140.185C339.82 140.189 339.875 140.209 339.921 140.243C339.968 140.276 340.004 140.322 340.026 140.375C340.759 142.342 341.638 144.302 342.487 146.225L343.725 149.149L344.942 152.074C345.762 154.041 346.517 156.022 347.308 157.989L348.451 160.957L348.736 161.732C348.846 162.047 348.912 162.295 349 162.588C349.169 163.136 349.344 163.714 349.469 164.248C350.613 168.573 351.126 173.04 350.993 177.511C350.946 179.74 350.768 181.964 350.458 184.172L350.377 184.705C350.337 184.93 350.286 185.152 350.223 185.371C350.102 185.804 349.935 186.223 349.725 186.621C349.316 187.418 348.75 188.123 348.06 188.695C347.37 189.267 346.571 189.693 345.711 189.948C345.498 190.014 345.279 190.05 345.066 190.101C344.978 190.101 344.751 190.145 344.597 190.16H344.341H344.187C343.837 190.153 343.487 190.129 343.139 190.087C341.928 189.926 340.738 189.64 339.586 189.231C338.415 188.84 337.3 188.3 336.268 187.623C335.168 186.934 334.207 186.046 333.433 185.005C332.685 183.945 332.184 182.731 331.968 181.452C331.779 180.349 331.662 179.235 331.616 178.118C331.561 177.09 331.439 176.066 331.25 175.054C331.06 174.098 330.703 173.182 330.195 172.349C329.641 171.482 329.021 170.658 328.341 169.885C323.793 164.869 320.927 158.56 320.144 151.84C319.907 149.676 319.79 147.502 319.792 145.325L321.99 147.731C320.298 147.424 318.562 147.087 316.811 146.605C315.019 146.135 313.285 145.471 311.639 144.623C309.957 143.759 308.442 142.606 307.163 141.216C305.882 139.866 304.971 138.209 304.518 136.405C304.509 136.367 304.508 136.327 304.515 136.288C304.522 136.249 304.536 136.212 304.557 136.179C304.578 136.146 304.606 136.117 304.638 136.094C304.67 136.072 304.707 136.055 304.745 136.047C304.813 136.039 304.882 136.055 304.94 136.09C304.999 136.126 305.043 136.18 305.068 136.244Z" fill="#F08C34"/>
<path d="M347.206 183.404C345.969 182.995 344.872 182.248 344.04 181.248C343.209 180.247 342.676 179.033 342.502 177.744C342.224 175.434 343.14 173.167 344.041 171.018L346.239 165.768" stroke="#F08C34" stroke-linecap="round" stroke-linejoin="round"/>
<path d="M295.823 159.817C295.998 158.442 296.152 157.141 296.211 155.854C296.28 154.6 296.28 153.343 296.211 152.088C296.151 150.875 296.019 149.667 295.815 148.469C295.611 147.304 295.337 146.151 294.995 145.018L300.123 144.053C300.308 145.132 300.615 146.187 301.039 147.197C301.524 148.317 302.125 149.383 302.833 150.378C303.024 150.641 303.229 150.904 303.441 151.167C303.616 151.402 303.807 151.625 304.013 151.833C304.473 152.286 304.987 152.682 305.544 153.01C306.737 153.715 308.028 154.24 309.375 154.567C310.057 154.743 310.753 154.874 311.448 154.984L312.503 155.123C312.622 155.136 312.739 155.155 312.855 155.181C312.982 155.208 313.106 155.242 313.229 155.284C313.464 155.362 313.689 155.465 313.903 155.591C314.325 155.827 314.704 156.134 315.023 156.497C315.192 156.69 315.342 156.898 315.47 157.119C315.587 157.339 315.69 157.566 315.778 157.799L316.635 159.824C317.207 161.184 317.763 162.515 318.342 163.772L320.086 167.552L320.525 168.51L320.745 168.985C320.791 169.082 320.845 169.175 320.906 169.263C321.214 169.718 321.555 170.151 321.924 170.557C322.521 171.231 323.044 171.966 323.485 172.751L323.668 173.117V173.16L323.712 173.285L323.8 173.548C323.857 173.73 323.904 173.916 323.939 174.104C323.944 174.189 323.944 174.274 323.939 174.359V174.542V174.901V175.252V175.5L323.866 175.983L323.792 176.363C323.734 176.626 323.682 176.823 323.624 177.036L323.038 179.075C322.885 179.552 322.778 180.041 322.715 180.538C322.704 180.72 322.704 180.904 322.715 181.086C322.715 181.086 322.679 181.086 322.715 181.137L322.811 181.305L322.987 181.649C323.126 181.868 323.258 182.095 323.411 182.322C324.8 184.222 326.678 185.71 328.847 186.628C329.387 186.859 329.946 187.043 330.517 187.177C330.904 187.323 331.326 187.346 331.726 187.242C332.239 187.022 332.673 186.653 332.972 186.182C333.374 185.649 333.741 185.027 334.129 184.391C334.17 184.322 334.237 184.271 334.315 184.251C334.393 184.23 334.476 184.241 334.547 184.281C334.59 184.309 334.626 184.346 334.652 184.391C334.677 184.436 334.691 184.486 334.693 184.537C334.728 185.308 334.677 186.081 334.539 186.84C334.467 187.261 334.341 187.672 334.166 188.061C333.978 188.519 333.708 188.938 333.367 189.297C332.977 189.691 332.511 190.002 331.997 190.211C331.526 190.393 331.034 190.518 330.532 190.584C329.666 190.69 328.79 190.69 327.924 190.584C324.463 190.192 321.256 188.582 318.877 186.043C318.569 185.707 318.283 185.349 318.005 184.991L317.609 184.42L317.412 184.135C317.353 184.047 317.25 183.843 317.177 183.704C316.637 182.564 316.398 181.306 316.481 180.048C316.559 179.115 316.738 178.193 317.016 177.299C317.258 176.509 317.522 175.785 317.749 175.23L317.939 174.667C317.936 174.696 317.936 174.725 317.939 174.754C317.936 174.783 317.936 174.813 317.939 174.842V174.886V175.018C317.953 175.117 317.978 175.215 318.012 175.31C318.029 175.355 318.048 175.399 318.071 175.442V175.5L318.034 175.368C317.824 174.876 317.561 174.408 317.25 173.972C316.743 173.236 316.299 172.458 315.925 171.647C315.82 171.409 315.73 171.164 315.653 170.916L315.485 170.389C315.368 170.038 315.258 169.658 315.155 169.329C314.718 167.892 314.383 166.426 314.152 164.942C313.917 163.436 313.807 161.974 313.654 160.555C313.573 159.824 313.485 159.129 313.375 158.428C313.375 158.201 313.375 158.186 313.324 158.084C313.298 157.983 313.261 157.885 313.214 157.791C313.093 157.585 312.937 157.402 312.752 157.25C312.666 157.175 312.57 157.112 312.467 157.06C312.422 157.035 312.375 157.013 312.328 156.994L312.152 156.951L311.075 156.717L308.921 156.263C307.456 155.956 305.991 155.664 304.526 155.247C303.744 155.033 302.98 154.759 302.24 154.428C301.841 154.243 301.455 154.033 301.083 153.799C300.753 153.595 300.416 153.383 300.086 153.149C298.68 152.215 297.479 151.006 296.555 149.595C295.592 148.084 295.018 146.358 294.885 144.572V144.433C294.813 143.772 294.998 143.108 295.402 142.579C295.806 142.05 296.398 141.695 297.056 141.589C297.714 141.483 298.388 141.634 298.938 142.009C299.488 142.384 299.873 142.957 300.013 143.607C300.368 145.043 300.559 146.515 300.584 147.994C300.61 149.468 300.467 150.939 300.16 152.381C299.852 153.8 299.375 155.177 298.738 156.483C298.119 157.773 297.306 158.961 296.328 160.007C296.3 160.036 296.267 160.059 296.229 160.075C296.192 160.09 296.152 160.098 296.112 160.098C296.072 160.098 296.032 160.09 295.995 160.075C295.958 160.059 295.924 160.036 295.896 160.007C295.852 159.953 295.826 159.886 295.823 159.817Z" fill="#F08C34"/>
<path d="M333.067 186.489C331.518 185.47 330.335 183.985 329.69 182.249C329.344 180.968 329.362 179.616 329.741 178.344C330.118 177.072 330.637 175.846 331.287 174.688" stroke="#F08C34" stroke-linecap="round" stroke-linejoin="round"/>
<path d="M445.751 313.923C441.839 316.928 437.898 319.903 433.869 322.748C429.84 325.592 425.81 328.421 421.671 331.163C413.418 336.588 405.003 341.775 396.427 346.722C392.141 349.194 387.848 351.65 383.519 354.034C381.321 355.226 379.16 356.396 376.926 357.478L373.585 359.101L370.201 360.629C367.93 361.616 365.659 362.588 363.366 363.517L361.637 364.204L360.758 364.548L359.791 364.899C356.639 365.922 353.276 366.119 350.027 365.47C346.777 364.82 343.749 363.347 341.235 361.192C341.21 361.168 341.191 361.14 341.178 361.108C341.165 361.077 341.158 361.043 341.158 361.009C341.158 360.975 341.165 360.941 341.178 360.91C341.191 360.879 341.21 360.85 341.235 360.826C341.272 360.785 341.32 360.757 341.374 360.745C341.428 360.733 341.484 360.739 341.535 360.761C345.794 362.798 350.625 363.314 355.22 362.223C356.285 361.931 357.326 361.557 358.333 361.104L359.066 360.739L359.871 360.315L361.49 359.444C363.688 358.304 365.886 357.2 368.025 356.037L374.618 352.725L381.255 349.545C383.453 348.528 385.695 347.453 387.914 346.401C390.134 345.348 392.31 344.207 394.508 343.125C403.254 338.665 411.874 333.954 420.367 328.992C428.902 324.115 437.217 318.873 445.495 313.506C445.55 313.466 445.619 313.45 445.686 313.461C445.754 313.472 445.814 313.509 445.854 313.564C445.894 313.62 445.91 313.688 445.899 313.756C445.888 313.823 445.85 313.883 445.795 313.923H445.751Z" fill="#F08C34"/>
<path d="M153.19 47.2769C158.057 38.9357 164.267 31.451 171.57 25.1228L174.383 22.8196L175.116 22.242L175.848 21.7083L177.314 20.6408C179.248 19.1785 181.321 17.8989 183.357 16.5682C187.518 14.0482 191.851 11.8225 196.324 9.90737C200.804 8.02303 205.39 6.40197 210.06 5.05249C214.743 3.7351 219.498 2.6854 224.301 1.90851C233.922 0.328516 243.679 -0.271679 253.421 0.117171C254.644 0.168352 255.868 0.241468 257.084 0.336519C257.692 0.3877 258.314 0.438881 258.937 0.504685L259.933 0.614358L260.842 0.782525L268.08 2.09861C272.834 3.20266 277.603 4.33595 282.218 5.89332C291.501 8.89305 300.49 12.7304 309.075 17.3579C317.65 21.9445 325.864 27.1752 333.645 33.0046C334.612 33.7358 335.594 34.467 336.575 35.1981L339.425 37.472C340.385 38.2032 341.308 39.0075 342.238 39.7898C343.169 40.5721 344.106 41.3472 345.007 42.1661L347.718 44.6008L350.392 47.1014L351.703 48.3809C352.377 49.0316 352.004 48.6587 351.967 48.6953C351.869 48.6654 351.764 48.6654 351.667 48.6953C351.484 48.7453 351.322 48.853 351.205 49.0024L353.732 54.7932L349.081 54.5226L352.011 48.9146C351.962 48.8519 351.895 48.8056 351.819 48.7821C351.743 48.7585 351.662 48.7589 351.586 48.783C351.525 48.7974 351.466 48.8195 351.41 48.8488L351.308 48.9146L351.264 48.9585H351.3L351.381 48.8927L352.677 47.796C354.414 46.3337 356.179 44.9371 357.967 43.5845C361.542 40.85 365.248 38.3129 369.036 35.9073L371.893 34.0794C372.845 33.4872 373.827 32.9388 374.823 32.3685L377.754 30.6723L380.684 29.0856C381.673 28.5592 382.654 28.0255 383.658 27.5137L386.684 26.0513L389.709 24.589L392.793 23.2583C401.004 19.6702 409.512 16.803 418.221 14.6891C426.953 12.6426 435.859 11.4186 444.821 11.0334C453.745 11.1795 462.635 12.1586 471.377 13.958C475.728 14.8646 480.072 15.8444 484.329 17.1385C486.475 17.7161 488.57 18.4692 490.687 19.1346C491.742 19.4855 492.782 19.8657 493.823 20.2752C494.863 20.6846 495.918 21.0063 496.944 21.4524C505.236 24.7179 513.141 28.8863 520.518 33.882C527.896 38.9186 534.595 44.88 540.451 51.6199C546.333 58.3695 551.33 65.8385 555.322 73.8471C559.367 81.844 562.493 90.2717 564.641 98.9697C565.787 103.306 566.706 107.699 567.395 112.131C568.018 116.561 568.575 121.021 568.78 125.511C568.985 130 569.036 134.489 568.897 138.979L568.699 142.349L568.589 144.031L568.421 145.713L568.091 149.069C567.952 150.187 567.783 151.299 567.637 152.41C567.366 154.647 566.904 156.855 566.538 159.078C566.355 160.19 566.084 161.272 565.857 162.383C565.63 163.494 565.41 164.576 565.124 165.681C564.553 167.874 564.04 170.067 563.359 172.202L562.362 175.478L561.278 178.673L560.729 180.274L560.135 181.861L558.941 184.983C558.121 187.06 557.271 189.114 556.392 191.161C554.644 195.266 552.778 199.324 550.795 203.335C546.823 211.349 542.406 219.136 537.565 226.659C532.705 234.175 527.485 241.426 521.902 248.411L520.994 249.544L519.529 249.851L519.17 249.925L516.892 250.392L515.097 248.374L514.818 248.06C514.723 247.94 514.62 247.825 514.511 247.716C514.24 247.461 514.02 247.212 513.719 246.949L512.84 246.152L511.895 245.355C510.606 244.295 509.243 243.249 507.852 242.225C506.46 241.202 505.038 240.186 503.603 239.191C502.167 238.197 500.672 237.21 499.273 236.267L499.171 236.193L499.031 236.091C489.127 228.655 477.831 222.711 466.798 215.699C461.157 212.185 455.796 208.242 450.762 203.905C449.539 202.743 448.264 201.632 447.099 200.418L445.334 198.575L444.454 197.654L443.597 196.682C442.513 195.373 441.363 194.086 440.367 192.726L437.502 188.836C435.875 186.497 433.968 184.363 431.825 182.483C429.994 180.918 427.756 179.904 425.371 179.558C424.857 179.51 424.339 179.51 423.825 179.558C423.204 179.639 422.588 179.754 421.979 179.902C420.569 180.299 419.182 180.775 417.825 181.327C416.058 182.033 414.218 182.54 412.338 182.841C411.26 182.982 410.17 183.014 409.086 182.936C408.544 182.863 407.994 182.812 407.474 182.709C406.954 182.607 406.405 182.49 405.958 182.351C404.134 181.846 402.485 181.152 401.108 180.625C399.971 180.126 398.766 179.796 397.533 179.646C397.267 179.627 397 179.627 396.735 179.646H396.339L396.009 179.682C395.434 179.773 394.868 179.913 394.317 180.099C393.302 180.404 392.354 180.9 391.526 181.561C391.406 181.668 391.295 181.786 391.196 181.912C391.196 181.956 391.196 181.912 391.116 182.022L390.955 182.271L390.64 182.753C390.207 183.404 389.797 184.062 389.387 184.713C388.566 186.029 387.826 187.315 387.035 188.727C386.625 189.458 386.171 190.247 385.621 191.052C385.094 191.812 384.526 192.544 383.922 193.245C382.772 194.591 381.629 195.775 380.493 196.959L378.926 198.561C378.538 199.021 378.185 199.51 377.871 200.023C377.504 200.608 377.138 201.229 376.845 201.822C376.623 202.211 376.448 202.626 376.325 203.057C376.272 203.353 376.294 203.657 376.391 203.942C376.545 204.453 376.759 204.944 377.028 205.404C377.651 206.523 378.567 207.759 379.526 209.133C380.687 210.697 381.613 212.421 382.274 214.251C382.781 216.123 382.996 218.061 382.911 219.998C382.838 221.46 382.857 222.926 382.969 224.385C383.095 225.522 383.487 226.614 384.112 227.573C384.807 228.607 385.675 229.514 386.676 230.256C387.767 231.052 388.95 231.713 390.2 232.223C392.991 233.206 395.9 233.816 398.852 234.036C402.15 234.319 405.43 234.785 408.676 235.433C411.974 236.153 415.191 237.201 418.28 238.562C424.317 241.295 429.962 244.821 435.063 249.047C440.059 253.2 444.781 257.669 449.202 262.427C453.648 267.085 457.992 271.823 462.469 276.319C464.735 278.576 467.062 280.77 469.45 282.9C470.651 283.96 471.845 285.02 473.076 286.022C474.307 287.023 475.604 287.967 476.9 288.903L476.453 289.568C475.091 288.72 473.728 287.85 472.402 286.914C471.076 285.978 469.802 284.984 468.534 283.989C465.978 282.022 463.494 279.939 461.091 277.789C456.264 273.504 451.685 268.971 447.048 264.57C442.496 260.142 437.681 255.991 432.631 252.14C427.673 248.364 422.23 245.268 416.448 242.935C413.605 241.817 410.661 240.975 407.657 240.419C404.574 239.935 401.465 239.625 398.346 239.491C394.875 239.339 391.44 238.722 388.134 237.656C386.384 237.02 384.72 236.167 383.182 235.119C381.557 234 380.145 232.601 379.014 230.988C378.425 230.136 377.934 229.221 377.548 228.26C377.17 227.297 376.902 226.294 376.75 225.27C376.546 223.533 376.462 221.783 376.501 220.035C376.539 218.763 376.381 217.493 376.032 216.269C375.528 215.109 374.873 214.02 374.083 213.03C373.182 211.795 372.127 210.493 371.153 208.841C370.911 208.402 370.662 208 370.42 207.495C370.303 207.247 370.193 207.02 370.091 206.764L369.805 205.945C369.4 204.701 369.282 203.381 369.461 202.085L369.534 201.573L369.666 201.017C369.761 200.718 369.856 200.418 369.952 200.177C370.142 199.665 370.34 199.241 370.538 198.809C370.941 197.961 371.358 197.179 371.827 196.396C372.054 196.002 372.296 195.614 372.56 195.212C372.856 194.766 373.176 194.337 373.519 193.925L373.849 193.56L374.047 193.34L374.457 192.909L375.27 192.046C376.332 190.898 377.395 189.743 378.303 188.632C378.734 188.112 379.137 187.57 379.512 187.008C379.849 186.475 380.186 185.882 380.552 185.202C381.285 183.799 382.127 182.278 382.977 180.867C383.402 180.136 383.834 179.404 384.273 178.739L384.596 178.213L384.764 177.957C384.801 177.884 384.94 177.693 385.021 177.569C385.39 177.04 385.812 176.55 386.281 176.107C387.863 174.648 389.735 173.537 391.775 172.846C392.741 172.503 393.733 172.239 394.742 172.056C395.006 172.012 395.306 171.969 395.606 171.939L396.412 171.881C396.947 171.881 397.489 171.881 398.024 171.881C400 172.036 401.942 172.48 403.789 173.197C405.416 173.782 406.72 174.301 408.031 174.659C409.057 174.954 410.135 175.016 411.188 174.842C412.476 174.603 413.734 174.223 414.939 173.709C416.561 173.046 418.22 172.475 419.906 171.998C420.854 171.752 421.815 171.562 422.785 171.427C423.866 171.291 424.958 171.264 426.045 171.347C428.114 171.535 430.138 172.069 432.03 172.926C433.811 173.73 435.487 174.749 437.019 175.961C439.764 178.249 442.201 180.881 444.271 183.791L447.136 187.623C448.044 188.851 449.055 189.94 450.015 191.096L450.747 191.951L451.538 192.755L453.114 194.378C454.176 195.453 455.311 196.448 456.439 197.486C461.148 201.518 466.159 205.185 471.428 208.453C482.021 215.246 493.544 221.314 504.108 229.452L503.866 229.277C505.412 230.315 506.877 231.331 508.372 232.384C509.866 233.437 511.302 234.512 512.767 235.608C514.232 236.705 515.697 237.86 517.163 239.074L518.254 240.017L519.346 241.019C519.705 241.355 520.078 241.75 520.452 242.138C520.628 242.306 520.833 242.562 521.031 242.788L521.609 243.52L517.536 241.97L517.902 241.896L515.529 243.359C521.009 236.627 526.168 229.662 531.008 222.462C535.801 215.245 540.186 207.765 544.143 200.06C546.097 196.204 547.967 192.292 549.755 188.325C550.649 186.35 551.52 184.347 552.355 182.351L553.557 179.368L554.158 177.869L554.7 176.355C557.67 168.289 559.892 159.968 561.337 151.496C561.513 150.436 561.703 149.376 561.864 148.316L562.275 145.113L562.48 143.512L562.619 141.911L562.919 138.694C563.19 134.402 563.388 130.088 563.256 125.781C563.124 121.475 562.831 117.168 562.377 112.869C561.868 108.578 561.135 104.317 560.179 100.103C556.59 83.1913 549.33 66.9523 538.202 53.6014C532.607 46.9337 526.153 41.0333 519.009 36.0536C511.825 31.0891 504.104 26.949 495.991 23.7116C479.686 17.3536 462.311 14.1694 444.806 14.3309C436.158 15.0011 427.594 16.4971 419.232 18.7983C410.889 21.1955 402.769 24.3071 394.962 28.0986L392.031 29.5024L389.16 31.0378L386.295 32.566L383.49 34.2037L380.684 35.8269L377.937 37.5524C377.021 38.1374 376.098 38.6931 375.197 39.2926L372.508 41.1132C370.699 42.2977 368.977 43.6137 367.219 44.8713C366.347 45.5074 365.498 46.1801 364.64 46.8308C363.783 47.4816 362.919 48.1323 362.084 48.8123C360.391 50.1503 358.736 51.5322 357.117 52.936L355.908 53.9889L355.71 54.1644L355.337 54.4568C355.083 54.6421 354.816 54.8082 354.538 54.954C353.991 55.2335 353.406 55.4329 352.802 55.5462C351.633 55.7573 350.428 55.647 349.317 55.2271C348.206 54.8072 347.23 54.0936 346.495 53.1627L341.857 47.2695L349.44 47.5693L354.099 47.7521L361.234 48.0299L356.626 53.5429C355.725 54.6033 354.495 55.3339 353.132 55.6194C352.178 55.821 351.191 55.8088 350.242 55.5837C349.293 55.3587 348.406 54.9264 347.645 54.3179C347.037 53.7988 346.971 53.7037 346.736 53.4844L345.469 52.2853L342.898 49.9163L340.268 47.5986C336.707 44.5716 333.103 41.5665 329.33 38.8247C321.863 33.1647 313.992 28.0573 305.778 23.5435C297.564 19.061 288.987 15.2749 280.138 12.2251C275.742 10.6458 271.222 9.47599 266.71 8.32807L259.882 6.93887L259.076 6.73415L258.3 6.63179C257.736 6.55867 257.164 6.50018 256.586 6.44169C255.443 6.33201 254.278 6.23696 253.121 6.16385C243.776 5.53367 234.392 5.83002 225.107 7.04855C220.462 7.66759 215.857 8.5133 211.29 9.58566C206.728 10.6991 202.235 12.0759 197.833 13.7094L194.61 15.0109C193.518 15.4349 192.471 15.9614 191.401 16.4293L189.797 17.1605C189.269 17.4164 188.749 17.6869 188.229 17.9501C187.189 18.4912 186.134 19.003 185.101 19.5587C183.079 20.7358 181.006 21.8472 179.072 23.1779L177.607 24.143L176.874 24.6256L176.142 25.1447L173.306 27.2358C169.551 30.0861 166.042 33.2461 162.816 36.6824L161.6 37.9765L160.985 38.6126L160.413 39.2926L158.135 42.0125C157.351 42.9045 156.67 43.877 155.974 44.8275L153.871 47.7082L153.19 47.2769Z" fill="#F08C34"/>
</g>
<defs>
<clipPath id="clip0_795_888">
<rect width="428.6" height="365.879" fill="white" transform="translate(140.399)"/>
</clipPath>
</defs>
</svg>
