<svg width="135" height="94" viewBox="0 0 135 94" fill="none" xmlns="http://www.w3.org/2000/svg">
<path d="M93.587 91.3882C93.2421 91.3882 92.9872 91.3357 92.8223 91.2307C92.6573 91.1258 92.5748 90.9308 92.5748 90.6459C92.5748 90.1961 92.4999 89.4313 92.3499 88.3517L92.2599 87.8793L90.0332 87.5419C89.9432 87.8868 89.8157 88.5841 89.6508 89.6338C89.5608 90.3685 89.4184 90.8558 89.2234 91.0958C89.1185 91.2307 88.9685 91.2982 88.7736 91.2982C88.5937 91.2982 88.4287 91.2457 88.2788 91.1408C88.1288 91.0208 88.0538 90.8783 88.0538 90.7134L88.0988 90.6009L88.1213 90.511C89.111 86.6572 89.8607 82.856 90.3706 79.1072C90.3706 79.0473 90.3781 78.9498 90.3931 78.8148C90.408 78.6649 90.423 78.4549 90.438 78.185C90.483 77.6302 90.528 77.1879 90.573 76.858C90.633 76.5281 90.7229 76.2807 90.8429 76.1157H91.6077C91.8176 76.1157 91.9975 76.1682 92.1475 76.2732C92.2974 76.3631 92.3724 76.4981 92.3724 76.678C92.3724 77.8177 92.5299 79.5121 92.8447 81.7614C93.1446 84.0706 93.2946 85.6901 93.2946 86.6197C93.2946 86.7097 93.3321 86.9421 93.4071 87.317C93.482 87.6619 93.5195 87.8868 93.5195 87.9918C93.5195 88.0968 93.5945 88.5466 93.7445 89.3413C93.8794 90.0611 93.9469 90.526 93.9469 90.7359V90.7584C93.9469 91.0883 93.8269 91.2982 93.587 91.3882ZM92.1025 87.0696C92.0575 86.8447 92.035 86.5673 92.035 86.2374C92.035 84.8878 91.9151 83.1634 91.6751 81.0641L91.4502 78.7249C90.8054 82.2487 90.3631 84.9103 90.1231 86.7097C90.3481 86.8597 91.0079 86.9796 92.1025 87.0696Z" fill="#F08C34"/>
<path d="M84.0427 91.3657C84.0277 91.3057 83.9977 91.2007 83.9527 91.0508C83.9227 90.9008 83.9152 90.7734 83.9302 90.6684C83.9602 88.929 84.0052 87.6319 84.0652 86.7772C84.0802 86.4623 84.0877 85.9975 84.0877 85.3827C84.0877 84.273 84.0352 82.931 83.9302 81.3565C83.8403 79.4371 83.7953 77.9826 83.7953 76.9929C83.7953 76.768 83.8853 76.5656 84.0652 76.3856C84.2451 76.2057 84.4626 76.1157 84.7175 76.1157C85.5722 76.1157 86.3145 76.1832 86.9442 76.3182C87.2441 76.3781 87.4391 76.4831 87.5291 76.6331C87.619 76.768 87.649 77.0004 87.619 77.3303C87.4091 77.4653 87.1917 77.5328 86.9667 77.5328C86.8918 77.5328 86.7793 77.5178 86.6294 77.4878C86.4944 77.4578 86.1345 77.4278 85.5497 77.3978H85.5047C85.2948 77.3978 85.1898 77.5103 85.1898 77.7352C85.1149 79.9095 85.0774 81.1466 85.0774 81.4465C85.1074 83.0059 85.1373 84.1831 85.1673 84.9778C85.1673 85.0828 85.1748 85.2102 85.1898 85.3602C85.2048 85.5101 85.2048 85.6376 85.1898 85.7425C85.1448 86.4323 85.1223 87.1596 85.1223 87.9243C85.1223 89.1689 85.1448 90.0386 85.1898 90.5335C85.1748 90.8633 85.1223 91.0883 85.0324 91.2082C84.9424 91.3432 84.7775 91.4107 84.5375 91.4107C84.4776 91.4107 84.3126 91.3957 84.0427 91.3657Z" fill="#F08C34"/>
<path d="M78.8347 91.4103C78.6997 91.4103 78.5722 91.3428 78.4523 91.2079C78.3473 91.0729 78.3248 90.938 78.3848 90.803C78.4298 90.668 78.5348 90.4431 78.6997 90.1282C79.1646 89.3635 79.4719 88.3288 79.6219 87.0243C79.6369 86.9343 79.5769 86.8218 79.442 86.6869C79.322 86.5369 79.247 86.4245 79.217 86.3495L78.9021 85.8996C78.5872 85.4648 78.3248 85.0674 78.1149 84.7075C77.92 84.3326 77.7325 83.8378 77.5526 83.223C77.4776 82.9681 77.4251 82.6982 77.3951 82.4133C77.3651 82.1134 77.3502 81.9259 77.3502 81.851L77.3052 81.3336C77.2902 81.0787 77.2677 80.8538 77.2377 80.6589C77.2077 80.4489 77.1852 80.2765 77.1702 80.1415C77.0353 79.2718 76.9678 78.5596 76.9678 78.0047C76.9678 77.7948 76.9753 77.6374 76.9903 77.5324C77.0053 77.3075 77.0053 77.105 76.9903 76.9251C76.9903 76.7452 76.9903 76.5952 76.9903 76.4752C77.0053 76.1753 77.1102 76.0254 77.3052 76.0254C77.3501 76.0254 77.4326 76.0404 77.5526 76.0704C78.1074 76.2353 78.3848 76.5502 78.3848 77.0151C78.3848 77.135 78.3698 77.3599 78.3398 77.6898L78.2723 78.612C78.2723 79.0319 78.2798 79.3468 78.2948 79.5567C78.4148 80.8013 78.5498 82.0309 78.6997 83.2455C78.7447 83.5754 78.8497 83.8828 79.0146 84.1677C79.1945 84.4376 79.3745 84.6625 79.5544 84.8425C79.7494 85.0074 79.8618 85.0899 79.8918 85.0899C79.9818 84.82 80.0343 84.64 80.0493 84.5501C80.1392 83.2155 80.1917 82.2333 80.2067 81.6035C80.2217 81.0787 80.2292 80.209 80.2292 78.9944V76.3628C80.2442 76.2428 80.2742 76.1603 80.3192 76.1154C80.3791 76.0554 80.4766 76.0254 80.6116 76.0254C80.9115 76.0254 81.1589 76.1379 81.3538 76.3628C81.5488 76.5727 81.6237 76.8276 81.5788 77.1275C81.5338 77.4874 81.5113 77.9672 81.5113 78.567C81.5113 78.9269 81.5188 79.1743 81.5338 79.3093C81.5488 79.4443 81.5563 79.6317 81.5563 79.8716C81.5563 80.2465 81.5263 80.7788 81.4663 81.4686C81.4663 81.6335 81.4513 81.8959 81.4213 82.2558C81.3913 82.7057 81.3163 83.3955 81.1964 84.3251L81.1064 85.0674C81.0164 85.9671 80.8365 87.0767 80.5666 88.3963C80.4766 88.8162 80.3417 89.2585 80.1617 89.7234C79.9818 90.1732 79.7793 90.5931 79.5544 90.9829C79.5094 91.0879 79.412 91.1854 79.262 91.2753C79.1121 91.3653 78.9696 91.4103 78.8347 91.4103Z" fill="#F08C34"/>
<path d="M71.9691 91.3427C71.7742 90.548 71.6767 89.4458 71.6767 88.0363L71.7217 86.0345C71.7517 85.4347 71.7667 84.7674 71.7667 84.0326C71.6767 83.8227 71.6317 83.6353 71.6317 83.4703V83.4028C71.7817 83.1179 71.8566 82.4731 71.8566 81.4685L71.8791 80.4338C71.8941 80.1039 71.9016 79.7366 71.9016 79.3317C71.9016 78.447 71.8416 77.7497 71.7217 77.2399C71.7667 77.0299 71.8416 76.85 71.9466 76.7001C72.0516 76.5351 72.179 76.4526 72.329 76.4526H73.3187C73.7385 76.4526 74.1059 76.5501 74.4208 76.745C74.7357 76.925 74.9756 77.1874 75.1405 77.5323C75.4405 78.1471 75.5904 78.8743 75.5904 79.7141C75.5904 80.3139 75.5829 80.7862 75.5679 81.1311C75.5379 81.5659 75.4629 81.9633 75.343 82.3232C75.298 82.5181 75.2305 82.6831 75.1405 82.818C75.0656 82.938 74.9531 83.0879 74.8032 83.2679C74.5932 83.5228 74.2483 83.7627 73.7685 83.9876C73.5736 84.0926 73.3187 84.1901 73.0038 84.28V86.6868L73.0487 88.1263L73.0937 88.8235C73.1537 89.6633 73.1837 90.3755 73.1837 90.9603C73.1837 91.1403 73.1087 91.2902 72.9588 91.4102C72.8088 91.5451 72.6364 91.6126 72.4414 91.6126L71.9691 91.3427ZM73.0263 83.3579C73.911 83.2229 74.3533 81.9558 74.3533 79.5566C74.3533 79.1218 74.3308 78.7844 74.2858 78.5444C74.2408 78.3645 74.1809 78.2221 74.1059 78.1171C74.0309 77.9971 73.9185 77.8997 73.7685 77.8247C73.6036 77.7347 73.4236 77.6897 73.2287 77.6897C73.2287 77.6747 73.1462 77.6672 72.9813 77.6672V78.9493C72.9813 79.834 72.9888 80.6213 73.0038 81.311C73.0038 82.0908 73.0113 82.6006 73.0263 82.8405V83.3129V83.3579Z" fill="#F08C34"/>
<path d="M69.4987 93.5247C69.3638 93.5247 69.2288 93.4497 69.0939 93.2998C68.9739 93.1648 68.9139 93.0074 68.9139 92.8274C68.9139 92.5725 68.9589 91.8602 69.0489 90.6906C68.719 90.6007 68.3891 90.5557 68.0592 90.5557C67.7443 90.5557 67.302 90.5932 66.7321 90.6681L66.1923 90.7356C65.0977 90.8556 64.2355 90.938 63.6057 90.983C63.5457 90.983 63.1483 91.0055 62.4136 91.0505C62.4136 91.2005 62.4136 91.4179 62.4136 91.7028C62.4286 91.9877 62.4286 92.2201 62.4136 92.4001C62.3986 92.595 62.3386 92.7524 62.2336 92.8724C62.1437 92.9924 62.0312 93.0524 61.8962 93.0524C61.8213 93.0524 61.7238 93.0224 61.6038 92.9624C61.4839 92.8574 61.3564 92.655 61.2215 92.3551C61.1915 92.2651 61.1765 91.9427 61.1765 91.3879L61.154 90.7806C61.139 90.6606 61.199 90.5332 61.3339 90.3982C61.4689 90.2483 61.6563 90.1658 61.8962 90.1508C62.571 90.1058 63.0059 89.7235 63.2008 89.0037C63.3058 88.6588 63.4032 88.2464 63.4932 87.7666C63.5832 87.2718 63.6432 86.8369 63.6732 86.462C63.8831 84.4827 63.988 82.9682 63.988 81.9185C63.988 81.5587 63.973 81.0338 63.9431 80.3441C63.9131 79.8642 63.8981 79.5118 63.8981 79.2869C63.8981 78.6571 63.8906 78.1848 63.8756 77.8699C63.8756 76.5953 63.8606 75.7856 63.8306 75.4407C63.8006 75.1408 63.8531 74.8934 63.988 74.6984C64.123 74.4885 64.3329 74.3685 64.6178 74.3385C65.3376 74.2636 65.7725 74.2261 65.9224 74.2261C66.2373 74.2261 66.5147 74.2636 66.7546 74.3385C66.8596 74.3685 66.9496 74.3835 67.0245 74.3835C67.1145 74.3835 67.182 74.391 67.227 74.406C67.5119 74.436 67.7068 74.496 67.8118 74.586C67.9317 74.6759 67.9917 74.8934 67.9917 75.2382L67.9692 76.7902C67.9692 77.1351 67.9767 77.39 67.9917 77.555C68.0367 79.1894 68.1192 81.7086 68.2391 85.1125L68.2616 85.7198C68.2916 86.4845 68.3291 87.2643 68.3741 88.059C68.4191 88.8387 68.4791 89.3861 68.554 89.701C69.1089 89.701 69.5287 89.7384 69.8136 89.8134C70.1135 89.8884 70.2635 90.0758 70.2635 90.3757C70.2635 90.4507 70.256 90.5107 70.241 90.5557C70.196 90.8556 70.151 91.1855 70.106 91.5453C70.061 91.9052 70.031 92.2126 70.0161 92.4675C70.0011 92.5425 69.9936 92.685 69.9936 92.8949C69.9936 93.1048 69.9561 93.2623 69.8811 93.3672C69.8211 93.4722 69.6937 93.5247 69.4987 93.5247ZM64.1005 89.9709C64.7603 89.9109 65.3001 89.8734 65.72 89.8584L67.3169 89.7459C67.3469 89.4161 67.3619 89.1761 67.3619 89.0262C67.3619 88.8162 67.3469 88.4564 67.3169 87.9465C67.3169 87.8416 67.3019 87.6691 67.272 87.4292C67.257 87.1893 67.2495 86.9719 67.2495 86.7769L67.092 83.2006V80.9738L66.8221 75.8006C66.8221 75.5606 66.7996 75.3732 66.7546 75.2382C66.5897 75.1633 66.3198 75.1258 65.9449 75.1258C65.615 75.1258 65.3001 75.1483 65.0002 75.1933V78.7246V80.434C64.9552 82.4733 64.8802 84.2803 64.7753 85.8547C64.7303 86.5895 64.6328 87.3542 64.4829 88.149C64.3479 88.9437 64.2205 89.551 64.1005 89.9709Z" fill="#F08C34"/>
<path d="M50.8809 91.388C50.746 91.358 50.6335 91.313 50.5435 91.253C50.4685 91.2081 50.4236 91.1181 50.4086 90.9831C50.4236 90.8932 50.4611 90.7957 50.521 90.6907C50.581 90.5858 50.641 90.5258 50.701 90.5108C50.8359 90.4958 50.9334 90.4508 50.9934 90.3758C51.0534 90.3009 51.1058 90.1959 51.1508 90.0609C51.1658 89.971 51.2108 89.746 51.2858 89.3862C51.3608 89.0263 51.4057 88.6814 51.4207 88.3515L51.4432 87.9691C51.4432 87.7892 51.4282 87.5343 51.3982 87.2044C51.3683 86.8745 51.3533 86.6346 51.3533 86.4846C51.3533 85.6149 51.6756 84.7602 52.3204 83.9205C51.4507 83.1257 51.0159 82.256 51.0159 81.3113V80.5916C51.0159 79.8118 51.0758 79.227 51.1958 78.8371C51.3008 78.4323 51.4957 77.9899 51.7806 77.5101C51.8856 77.2852 52.028 77.1127 52.208 76.9928C52.3879 76.8578 52.5828 76.7378 52.7928 76.6329C53.0177 76.5279 53.1902 76.4454 53.3101 76.3855C53.4001 76.3405 53.5275 76.2955 53.6925 76.2505C53.8724 76.2055 54.0149 76.123 54.1198 76.0031C54.3148 75.9281 54.5097 75.8906 54.7046 75.8906C54.9896 75.8906 55.237 75.9581 55.4469 76.0931C55.6718 76.228 55.7843 76.3855 55.7843 76.5654C55.7843 77.2102 55.7693 78.2224 55.7393 79.6019L55.6718 82.7958L55.6493 84.0554L55.6718 85.315C55.7018 86.0048 55.7618 86.9795 55.8518 88.239L55.9417 89.7011C55.9567 89.836 55.9792 89.986 56.0092 90.1509C56.0392 90.3159 56.0542 90.4508 56.0542 90.5558C56.0542 90.9606 55.8443 91.1631 55.4244 91.1631C55.2445 91.1631 55.0795 91.1181 54.9296 91.0281C54.7946 90.9381 54.7196 90.8107 54.7046 90.6457C54.6597 90.3009 54.6372 89.9485 54.6372 89.5886L54.5697 83.9879C54.0449 84.0779 53.655 84.1754 53.4001 84.2803C53.1452 84.3853 52.9577 84.5278 52.8378 84.7077C52.7328 84.8727 52.6503 85.1126 52.5903 85.4275C52.5454 85.6224 52.5229 85.9148 52.5229 86.3047C52.5229 86.4996 52.5379 86.777 52.5679 87.1369L52.5903 87.9916C52.5903 88.6364 52.5529 89.1837 52.4779 89.6336C52.4029 90.0684 52.238 90.4808 51.983 90.8707C51.8631 91.0656 51.6981 91.2081 51.4882 91.298C51.2783 91.388 51.0758 91.418 50.8809 91.388ZM53.1077 83.3132C53.1677 83.3282 53.2651 83.3357 53.4001 83.3357C53.715 83.3357 54.1198 83.2682 54.6147 83.1332C54.6147 82.7434 54.5997 82.1436 54.5697 81.3338C54.5247 80.5691 54.5022 79.8118 54.5022 79.0621C54.5022 78.4323 54.5247 77.795 54.5697 77.1502C54.1648 77.2102 53.8049 77.3152 53.49 77.4651C53.1752 77.6151 52.9652 77.78 52.8603 77.9599C52.4704 78.6947 52.268 79.4145 52.253 80.1192C52.253 80.914 52.268 81.4988 52.2979 81.8736C52.3129 82.2035 52.3879 82.5109 52.5229 82.7958C52.6578 83.0807 52.8528 83.2532 53.1077 83.3132Z" fill="#F08C34"/>
<path d="M42.3882 91.6806C42.2683 91.6806 42.1633 91.6431 42.0733 91.5681C41.9833 91.4931 41.9159 91.3957 41.8709 91.2757C41.8559 91.2457 41.8484 91.2007 41.8484 91.1408C41.8484 90.9458 41.9534 90.7884 42.1633 90.6684C42.5831 90.4885 42.898 90.2186 43.108 89.8587C43.3329 89.4838 43.4903 89.0489 43.5803 88.5541C43.8502 87.0846 43.9852 85.4876 43.9852 83.7632C43.9852 83.1184 43.9777 82.6311 43.9627 82.3012C43.8577 79.767 43.7678 77.9826 43.6928 76.9479V76.858C43.6928 76.723 43.7228 76.6181 43.7827 76.5431C43.8427 76.4681 43.9477 76.4156 44.0976 76.3856C45.0573 76.2057 45.8221 76.1157 46.3919 76.1157C46.6918 76.1157 46.9167 76.1232 47.0667 76.1382C47.4115 76.1532 47.674 76.2582 47.8539 76.4531C48.0338 76.648 48.1238 76.918 48.1238 77.2628L48.1463 78.4549C48.1763 79.5046 48.1913 80.2918 48.1913 80.8167L48.1688 81.8963C48.1688 83.4858 48.2288 85.4951 48.3487 87.9243C48.4087 89.019 48.4612 89.8662 48.5062 90.466C48.5212 90.7359 48.4762 90.9308 48.3712 91.0508C48.2813 91.1707 48.1238 91.2457 47.8989 91.2757C47.4041 91.3057 47.1416 91.0733 47.1116 90.5784C47.1566 90.1436 47.1791 89.7087 47.1791 89.2739C47.1791 88.839 47.1716 88.4791 47.1566 88.1942L47.1341 85.6301C47.1341 84.3855 47.1116 83.1109 47.0667 81.8063C47.0367 80.7267 46.9917 79.707 46.9317 78.7474C46.8717 77.7877 46.8117 77.2029 46.7518 76.9929C46.6618 77.0079 46.4744 77.0454 46.1895 77.1054C45.9045 77.1654 45.5147 77.2179 45.0198 77.2628C44.9749 77.9526 44.9524 78.4475 44.9524 78.7474C44.9524 79.0922 44.9749 79.3921 45.0198 79.6471C45.0498 80.0519 45.0798 80.6442 45.1098 81.424V81.9188C45.1098 84.348 45.0873 85.99 45.0423 86.8447C45.0123 87.0846 44.9973 87.272 44.9973 87.407C44.9374 88.0368 44.8774 88.5166 44.8174 88.8465C44.6675 89.6412 44.2101 90.451 43.4454 91.2757C43.2354 91.5156 42.898 91.6506 42.4332 91.6806H42.3882Z" fill="#F08C34"/>
<path d="M40.6367 93.9521C40.5167 93.982 40.4267 93.997 40.3667 93.997C40.1868 93.997 40.0593 93.8846 39.9844 93.6597C39.9244 93.4797 39.8944 93.2548 39.8944 92.9849L39.9169 91.4329C39.9169 91.3429 39.9094 91.2605 39.8944 91.1855C39.8794 91.1105 39.8644 91.0355 39.8494 90.9605H37.2628C37.4127 90.9605 37.0528 91.0355 36.1831 91.1855C35.3284 91.3204 34.6611 91.4104 34.1813 91.4554L33.1691 91.5454L32.0445 91.6578C32.0445 91.7928 32.0445 91.9577 32.0445 92.1527C32.0595 92.3476 32.0595 92.58 32.0445 92.8499V92.9624C32.0445 93.2023 31.9845 93.3822 31.8646 93.5022C31.7446 93.6222 31.6321 93.6821 31.5272 93.6821C31.4672 93.6821 31.3772 93.6522 31.2573 93.5922C30.9873 93.3972 30.8374 93.1273 30.8074 92.7824L30.7399 91.1405C30.7099 90.5557 30.9499 90.2633 31.4597 90.2633C31.7446 90.2483 31.9695 90.1733 32.1345 90.0384C32.2994 89.9034 32.4943 89.6935 32.7193 89.4086C32.9442 89.1087 33.1166 88.7788 33.2366 88.4189C33.3716 88.044 33.499 87.5942 33.619 87.0693C33.7539 86.4995 33.8514 85.9447 33.9114 85.4049C33.9714 84.8651 34.0463 84.0928 34.1363 83.0882C34.2713 81.5137 34.3387 79.9317 34.3387 78.3422L34.3162 77.0826C34.3162 76.7977 34.3987 76.5653 34.5637 76.3854C34.7286 76.1904 34.9535 76.093 35.2384 76.093C35.3284 76.093 35.3959 76.1005 35.4409 76.1155C36.1306 76.2354 36.693 76.3104 37.1278 76.3404H37.2403C37.4352 76.3404 37.5477 76.3029 37.5777 76.2279C37.7126 76.048 37.8776 75.958 38.0725 75.958C38.2075 75.958 38.3274 75.988 38.4324 76.048C38.6723 76.1379 38.8298 76.3629 38.9047 76.7228L38.7923 80.569C38.7923 82.6533 38.7998 84.2128 38.8148 85.2474C38.8148 85.7873 38.8298 86.612 38.8597 87.7216L38.8822 88.9587C38.8822 89.0787 38.8897 89.1911 38.9047 89.2961C38.9197 89.4011 38.9347 89.506 38.9497 89.611C39.2496 89.641 39.4745 89.656 39.6245 89.656C39.7444 89.656 39.8344 89.6485 39.8944 89.6335C40.2243 89.5885 40.5167 89.671 40.7716 89.8809C41.0415 90.0758 41.1765 90.3308 41.1765 90.6457C41.1765 91.0505 41.1465 91.6578 41.0865 92.4676C41.0865 92.6775 41.0715 92.9774 41.0415 93.3673C41.0115 93.6821 40.8766 93.8771 40.6367 93.9521ZM34.1588 90.3757C34.9985 90.3008 35.6583 90.2333 36.1381 90.1733C36.633 90.0983 37.1203 89.9859 37.6002 89.8359C37.7501 88.0215 37.8251 86.0797 37.8251 84.0103C37.8251 82.091 37.7501 79.9842 37.6002 77.6899C37.2103 77.6749 36.483 77.6375 35.4184 77.5775L35.3959 78.6346C35.2759 80.9439 35.1935 82.6683 35.1485 83.8079C35.0885 85.5173 34.7961 87.1968 34.2713 88.8462C34.2413 88.9362 34.1738 89.1611 34.0688 89.521C33.9789 89.8659 33.8364 90.1658 33.6415 90.4207L34.1588 90.3757Z" fill="#F08C34"/>
<path d="M22.891 91.3657C22.876 91.3057 22.846 91.2007 22.801 91.0508C22.771 90.9008 22.7635 90.7734 22.7785 90.6684C22.8085 88.929 22.8535 87.6319 22.9135 86.7772C22.9285 86.4623 22.936 85.9975 22.936 85.3827C22.936 84.273 22.8835 82.931 22.7785 81.3565C22.6885 79.4371 22.6436 77.9826 22.6436 76.9929C22.6436 76.768 22.7335 76.5656 22.9135 76.3856C23.0934 76.2057 23.3108 76.1157 23.5657 76.1157C24.4205 76.1157 25.1627 76.1832 25.7925 76.3182C26.0924 76.3781 26.2873 76.4831 26.3773 76.6331C26.4673 76.768 26.4973 77.0004 26.4673 77.3303C26.2574 77.4653 26.0399 77.5328 25.815 77.5328C25.74 77.5328 25.6276 77.5178 25.4776 77.4878C25.3427 77.4578 24.9828 77.4278 24.398 77.3978H24.353C24.1431 77.3978 24.0381 77.5103 24.0381 77.7352C23.9631 79.9095 23.9256 81.1466 23.9256 81.4465C23.9556 83.0059 23.9856 84.1831 24.0156 84.9778C24.0156 85.0828 24.0231 85.2102 24.0381 85.3602C24.0531 85.5101 24.0531 85.6376 24.0381 85.7425C23.9931 86.4323 23.9706 87.1596 23.9706 87.9243C23.9706 89.1689 23.9931 90.0386 24.0381 90.5335C24.0231 90.8633 23.9706 91.0883 23.8806 91.2082C23.7907 91.3432 23.6257 91.4107 23.3858 91.4107C23.3258 91.4107 23.1609 91.3957 22.891 91.3657Z" fill="#F08C34"/>
<path d="M17.6827 91.4103C17.5477 91.4103 17.4203 91.3428 17.3003 91.2079C17.1953 91.0729 17.1728 90.938 17.2328 90.803C17.2778 90.668 17.3828 90.4431 17.5477 90.1282C18.0126 89.3635 18.32 88.3288 18.4699 87.0243C18.4849 86.9343 18.4249 86.8218 18.29 86.6869C18.17 86.5369 18.095 86.4245 18.0651 86.3495L17.7502 85.8996C17.4353 85.4648 17.1728 85.0674 16.9629 84.7075C16.768 84.3326 16.5805 83.8378 16.4006 83.223C16.3256 82.9681 16.2731 82.6982 16.2432 82.4133C16.2132 82.1134 16.1982 81.9259 16.1982 81.851L16.1532 81.3336C16.1382 81.0787 16.1157 80.8538 16.0857 80.6589C16.0557 80.4489 16.0332 80.2765 16.0182 80.1415C15.8833 79.2718 15.8158 78.5596 15.8158 78.0047C15.8158 77.7948 15.8233 77.6374 15.8383 77.5324C15.8533 77.3075 15.8533 77.105 15.8383 76.9251C15.8383 76.7452 15.8383 76.5952 15.8383 76.4752C15.8533 76.1753 15.9582 76.0254 16.1532 76.0254C16.1982 76.0254 16.2806 76.0404 16.4006 76.0704C16.9554 76.2353 17.2328 76.5502 17.2328 77.0151C17.2328 77.135 17.2178 77.3599 17.1878 77.6898L17.1204 78.612C17.1204 79.0319 17.1279 79.3468 17.1429 79.5567C17.2628 80.8013 17.3978 82.0309 17.5477 83.2455C17.5927 83.5754 17.6977 83.8828 17.8626 84.1677C18.0426 84.4376 18.2225 84.6625 18.4024 84.8425C18.5974 85.0074 18.7098 85.0899 18.7398 85.0899C18.8298 84.82 18.8823 84.64 18.8973 84.5501C18.9872 83.2155 19.0397 82.2333 19.0547 81.6035C19.0697 81.0787 19.0772 80.209 19.0772 78.9944V76.3628C19.0922 76.2428 19.1222 76.1603 19.1672 76.1154C19.2272 76.0554 19.3246 76.0254 19.4596 76.0254C19.7595 76.0254 20.0069 76.1379 20.2018 76.3628C20.3968 76.5727 20.4718 76.8276 20.4268 77.1275C20.3818 77.4874 20.3593 77.9672 20.3593 78.567C20.3593 78.9269 20.3668 79.1743 20.3818 79.3093C20.3968 79.4443 20.4043 79.6317 20.4043 79.8716C20.4043 80.2465 20.3743 80.7788 20.3143 81.4686C20.3143 81.6335 20.2993 81.8959 20.2693 82.2558C20.2393 82.7057 20.1644 83.3955 20.0444 84.3251L19.9544 85.0674C19.8645 85.9671 19.6845 87.0767 19.4146 88.3963C19.3246 88.8162 19.1897 89.2585 19.0097 89.7234C18.8298 90.1732 18.6274 90.5931 18.4024 90.9829C18.3575 91.0879 18.26 91.1854 18.11 91.2753C17.9601 91.3653 17.8176 91.4103 17.6827 91.4103Z" fill="#F08C34"/>
<path d="M10.8174 91.3427C10.6224 90.548 10.525 89.4458 10.525 88.0363L10.57 86.0345C10.5999 85.4347 10.6149 84.7674 10.6149 84.0326C10.525 83.8227 10.48 83.6353 10.48 83.4703V83.4028C10.6299 83.1179 10.7049 82.4731 10.7049 81.4685L10.7274 80.4338C10.7424 80.1039 10.7499 79.7366 10.7499 79.3317C10.7499 78.447 10.6899 77.7497 10.57 77.2399C10.6149 77.0299 10.6899 76.85 10.7949 76.7001C10.8998 76.5351 11.0273 76.4526 11.1773 76.4526H12.1669C12.5868 76.4526 12.9542 76.5501 13.2691 76.745C13.584 76.925 13.8239 77.1874 13.9888 77.5323C14.2887 78.1471 14.4387 78.8743 14.4387 79.7141C14.4387 80.3139 14.4312 80.7862 14.4162 81.1311C14.3862 81.5659 14.3112 81.9633 14.1913 82.3232C14.1463 82.5181 14.0788 82.6831 13.9888 82.818C13.9138 82.938 13.8014 83.0879 13.6514 83.2679C13.4415 83.5228 13.0966 83.7627 12.6168 83.9876C12.4218 84.0926 12.1669 84.1901 11.852 84.28V86.6868L11.897 88.1263L11.942 88.8235C12.002 89.6633 12.032 90.3755 12.032 90.9603C12.032 91.1403 11.957 91.2902 11.807 91.4102C11.6571 91.5451 11.4846 91.6126 11.2897 91.6126L10.8174 91.3427ZM11.8745 83.3579C12.7592 83.2229 13.2016 81.9558 13.2016 79.5566C13.2016 79.1218 13.1791 78.7844 13.1341 78.5444C13.0891 78.3645 13.0291 78.2221 12.9542 78.1171C12.8792 77.9971 12.7667 77.8997 12.6168 77.8247C12.4518 77.7347 12.2719 77.6897 12.077 77.6897C12.077 77.6747 11.9945 77.6672 11.8295 77.6672V78.9493C11.8295 79.834 11.837 80.6213 11.852 81.311C11.852 82.0908 11.8595 82.6006 11.8745 82.8405V83.3129V83.3579Z" fill="#F08C34"/>
<path d="M8.34699 93.5247C8.21204 93.5247 8.07708 93.4497 7.94212 93.2998C7.82216 93.1648 7.76218 93.0074 7.76218 92.8274C7.76218 92.5725 7.80717 91.8602 7.89714 90.6906C7.56725 90.6007 7.23736 90.5557 6.90747 90.5557C6.59257 90.5557 6.15022 90.5932 5.58041 90.6681L5.04058 90.7356C3.94595 90.8556 3.08373 90.938 2.45394 90.983C2.39396 90.983 1.99659 91.0055 1.26183 91.0505C1.26183 91.2005 1.26183 91.4179 1.26183 91.7028C1.27683 91.9877 1.27683 92.2201 1.26183 92.4001C1.24684 92.595 1.18686 92.7524 1.08189 92.8724C0.991922 92.9924 0.879459 93.0524 0.744504 93.0524C0.669529 93.0524 0.572061 93.0224 0.452101 92.9624C0.33214 92.8574 0.204682 92.655 0.069727 92.3551C0.0397369 92.2651 0.0247418 91.9427 0.0247418 91.3879L0.00224926 90.7806C-0.0127458 90.6606 0.0472344 90.5332 0.18219 90.3982C0.317145 90.2483 0.504583 90.1658 0.744504 90.1508C1.41928 90.1058 1.85414 89.7235 2.04907 89.0037C2.15404 88.6588 2.25151 88.2464 2.34148 87.7666C2.43145 87.2718 2.49143 86.8369 2.52142 86.462C2.73135 84.4827 2.83631 82.9682 2.83631 81.9185C2.83631 81.5587 2.82132 81.0338 2.79133 80.3441C2.76134 79.8642 2.74634 79.5118 2.74634 79.2869C2.74634 78.6571 2.73884 78.1848 2.72385 77.8699C2.72385 76.5953 2.70885 75.7856 2.67886 75.4407C2.64887 75.1408 2.70136 74.8934 2.83631 74.6984C2.97127 74.4885 3.1812 74.3685 3.4661 74.3385C4.18587 74.2636 4.62072 74.2261 4.77067 74.2261C5.08557 74.2261 5.36298 74.2636 5.6029 74.3385C5.70786 74.3685 5.79783 74.3835 5.87281 74.3835C5.96278 74.3835 6.03026 74.391 6.07524 74.406C6.36015 74.436 6.55508 74.496 6.66005 74.586C6.78001 74.6759 6.83999 74.8934 6.83999 75.2382L6.8175 76.7902C6.8175 77.1351 6.82499 77.39 6.83999 77.555C6.88497 79.1894 6.96745 81.7086 7.08741 85.1125L7.1099 85.7198C7.13989 86.4845 7.17738 87.2643 7.22236 88.059C7.26735 88.8387 7.32733 89.3861 7.4023 89.701C7.95712 89.701 8.37698 89.7384 8.66189 89.8134C8.96179 89.8884 9.11174 90.0758 9.11174 90.3757C9.11174 90.4507 9.10424 90.5107 9.08925 90.5557C9.04426 90.8556 8.99928 91.1855 8.95429 91.5453C8.90931 91.9052 8.87932 92.2126 8.86432 92.4675C8.84933 92.5425 8.84183 92.685 8.84183 92.8949C8.84183 93.1048 8.80434 93.2623 8.72936 93.3672C8.66938 93.4722 8.54193 93.5247 8.34699 93.5247ZM2.94878 89.9709C3.60856 89.9109 4.14838 89.8734 4.56824 89.8584L6.16521 89.7459C6.1952 89.4161 6.2102 89.1761 6.2102 89.0262C6.2102 88.8162 6.1952 88.4564 6.16521 87.9465C6.16521 87.8416 6.15022 87.6691 6.12023 87.4292C6.10523 87.1893 6.09773 86.9719 6.09773 86.7769L5.94029 83.2006V80.9738L5.67038 75.8006C5.67038 75.5606 5.64788 75.3732 5.6029 75.2382C5.43795 75.1633 5.16804 75.1258 4.79317 75.1258C4.46327 75.1258 4.14838 75.1483 3.84848 75.1933V78.7246V80.434C3.80349 82.4733 3.72852 84.2803 3.62355 85.8547C3.57857 86.5895 3.4811 87.3542 3.33115 88.149C3.19619 88.9437 3.06874 89.551 2.94878 89.9709Z" fill="#F08C34"/>
<g clip-path="url(#clip0_548_548)">
<path d="M101.876 53.1749C101.936 53.1749 102.018 53.1749 102.067 53.1749C102.115 53.1749 102.178 53.1749 102.241 53.1749C102.351 53.1646 102.461 53.1484 102.569 53.1263C102.786 53.0772 102.997 53.0087 103.201 52.9215C103.401 52.8363 103.592 52.7304 103.771 52.6056C103.936 52.4977 104.073 52.3512 104.169 52.1787C104.343 51.8507 104.334 51.4307 104.086 51.2276C103.784 50.9394 103.43 50.7114 103.042 50.556C102.654 50.3863 102.245 50.2695 101.825 50.2088C101.611 50.1797 101.396 50.1618 101.18 50.155C100.954 50.1429 100.73 50.136 100.507 50.1325C99.6236 50.1186 98.7438 50.188 98.0238 50.4969C97.9346 50.5337 97.8475 50.5754 97.763 50.6219C97.6796 50.6663 97.5989 50.7156 97.5213 50.7694C97.4448 50.8228 97.3717 50.8808 97.3022 50.943C97.2424 50.9906 97.1887 51.0454 97.1422 51.1061C97.0645 51.2003 97.0119 51.3125 96.9892 51.4324C96.9788 51.5245 96.9945 51.6177 97.0344 51.7014C97.0957 51.8499 97.172 51.9918 97.2622 52.1249C97.3626 52.2819 97.4742 52.4316 97.5961 52.5726C97.7213 52.7202 97.8569 52.866 98.0012 53.0117C98.1456 53.1575 98.2986 53.2894 98.4725 53.4543L98.582 53.5619C98.6133 53.5897 98.6429 53.6192 98.6794 53.6504C98.749 53.7094 98.8272 53.7684 98.9072 53.824C99.0672 53.9437 99.2411 54.0548 99.4167 54.1607C99.5853 54.2617 99.7595 54.3532 99.9384 54.4349C100.016 54.4685 100.095 54.4981 100.175 54.5234L100.297 54.5546L100.422 54.5737C100.757 54.6278 101.1 54.5473 101.376 54.3498C101.516 54.2308 101.621 54.0768 101.681 53.9038C101.75 53.6976 101.788 53.4824 101.794 53.2651V53.1922L101.827 53.1766C101.843 53.1726 101.859 53.172 101.876 53.1749ZM101.903 53.3276C101.909 53.3295 101.915 53.3295 101.921 53.3276L101.961 53.2408C102.073 53.4698 102.138 53.7188 102.152 53.9732C102.164 54.2611 102.095 54.5466 101.954 54.7976C101.796 55.0559 101.574 55.2688 101.309 55.4154C101.049 55.5585 100.765 55.6515 100.47 55.6897C100.399 55.6897 100.324 55.7053 100.251 55.7088H100.037C99.8896 55.6994 99.7426 55.6797 99.5976 55.6497C99.3324 55.5931 99.0725 55.5147 98.8203 55.4154C98.582 55.3216 98.3497 55.2132 98.1247 55.0909C98.0082 55.0267 97.8952 54.959 97.7769 54.8809C97.7195 54.8427 97.6604 54.7993 97.603 54.7577L97.45 54.6379C97.2761 54.5078 97.0761 54.3481 96.8901 54.1763C96.6957 54.0012 96.5138 53.8127 96.3458 53.6122C96.1685 53.4021 96.0119 53.1754 95.878 52.9354C95.8087 52.8106 95.7466 52.6819 95.692 52.5501C95.6288 52.4054 95.5782 52.2556 95.5407 52.1023C95.4996 51.9266 95.4809 51.7464 95.4851 51.566C95.4893 51.3764 95.5227 51.1885 95.5842 51.0089C95.6965 50.686 95.8835 50.394 96.1302 50.1568C96.2397 50.0481 96.3597 49.9505 96.4884 49.8652C96.6066 49.7906 96.7197 49.7107 96.8362 49.6483C96.9546 49.5825 97.0771 49.5245 97.2031 49.4747C97.3258 49.4204 97.4511 49.3723 97.5787 49.3307C98.0698 49.1709 98.5806 49.0798 99.0967 49.0599C99.5852 49.0379 100.075 49.0518 100.561 49.1016C100.799 49.1276 101.034 49.1571 101.267 49.1901C101.5 49.2231 101.752 49.2612 101.994 49.322C102.48 49.4384 102.948 49.6206 103.385 49.8635C103.603 49.9851 103.811 50.1232 104.007 50.2765C104.214 50.4349 104.4 50.6186 104.56 50.8232C104.601 50.8764 104.639 50.9343 104.675 50.9968C104.719 51.0686 104.754 51.1455 104.779 51.2259C104.822 51.3677 104.84 51.5154 104.835 51.6632C104.824 51.9457 104.731 52.2188 104.567 52.4494C104.49 52.5609 104.397 52.6613 104.293 52.7479C104.193 52.8307 104.085 52.9028 103.971 52.9631C103.756 53.0804 103.529 53.1741 103.294 53.2426C103.064 53.3104 102.826 53.3552 102.587 53.3762C102.467 53.384 102.347 53.384 102.227 53.3762C102.166 53.3762 102.107 53.3762 102.053 53.3623C102.002 53.3543 101.952 53.3427 101.903 53.3276Z" fill="#F08C34"/>
<path d="M100.239 44.3949C100.349 44.2456 100.451 44.1137 100.573 43.9766C100.709 43.8452 100.871 43.7446 101.05 43.6816C101.239 43.6139 101.441 43.5844 101.642 43.5948C101.844 43.6052 102.041 43.6554 102.223 43.7423C102.598 43.9358 102.898 44.2493 103.074 44.6326C103.121 44.7283 103.161 44.8275 103.194 44.9294C103.225 45.0255 103.252 45.1235 103.272 45.2227C103.315 45.4109 103.345 45.6016 103.364 45.7937C103.406 46.2006 103.376 46.6117 103.277 47.0086C103.246 47.1165 103.208 47.222 103.162 47.3244L103.098 47.4772L103.013 47.6282L102.922 47.7809L102.808 47.9267C102.726 48.0282 102.635 48.1218 102.536 48.2061C102.214 48.4686 101.815 48.6209 101.4 48.6406C100.984 48.6603 100.573 48.5463 100.227 48.3154C99.9643 48.148 99.7531 47.9113 99.6166 47.6316L99.6549 47.6976C99.634 47.6611 99.6236 47.642 99.6149 47.623C99.6062 47.6039 99.594 47.5813 99.5853 47.5622C99.5669 47.525 99.5507 47.4868 99.5367 47.4477C99.5078 47.3744 99.4829 47.2997 99.4619 47.2238C99.441 47.1474 99.4271 47.0711 99.4097 46.9964L99.3819 46.7673C99.3613 46.4604 99.3967 46.1523 99.4862 45.8579C99.5716 45.5812 99.6882 45.3151 99.834 45.0648C99.954 44.8235 100.105 44.6031 100.239 44.3949ZM100.373 44.473C100.27 44.6897 100.217 44.9272 100.22 45.1672C100.226 45.4016 100.281 45.6321 100.382 45.844C100.473 46.0382 100.58 46.225 100.7 46.4029L100.862 46.6493C100.885 46.6891 100.91 46.7273 100.938 46.7639L100.973 46.8159L100.99 46.8368L101.027 46.9027C101.027 46.8732 101.07 46.9235 101.126 46.9582C101.188 47.0012 101.255 47.0378 101.324 47.0676C101.388 47.0971 101.456 47.1176 101.526 47.1283C101.56 47.1309 101.593 47.1309 101.627 47.1283C101.642 47.1283 101.658 47.1196 101.677 47.1162C101.696 47.1144 101.715 47.1085 101.731 47.0988C101.772 47.0839 101.81 47.0608 101.842 47.0311L101.9 46.986L101.954 46.9218L102.009 46.8593L102.058 46.7777C102.093 46.7274 102.123 46.6746 102.15 46.6198C102.253 46.3571 102.312 46.0791 102.324 45.7972C102.338 45.6448 102.342 45.4918 102.336 45.339C102.336 45.2626 102.336 45.1915 102.322 45.1255C102.318 45.0666 102.31 45.008 102.298 44.9502C102.225 44.6814 102.09 44.4334 101.903 44.2265C101.802 44.1155 101.678 44.0286 101.539 43.9721C101.4 43.9156 101.25 43.891 101.1 43.9002C100.942 43.9099 100.791 43.9708 100.67 44.0738C100.554 44.193 100.454 44.3273 100.373 44.473Z" fill="#F08C34"/>
<path d="M95.4659 47.1269C95.6514 47.2508 95.8658 47.3249 96.0884 47.3421C96.3011 47.3572 96.513 47.3043 96.6936 47.1911C96.7654 47.1394 96.8253 47.0731 96.8694 46.9965C96.9135 46.9198 96.9407 46.8347 96.9492 46.7468C96.9724 46.5722 96.9582 46.3948 96.9074 46.2261C96.8564 46.0571 96.7757 45.8985 96.6692 45.7575C96.549 45.6071 96.4132 45.4699 96.2641 45.348C95.9568 45.0903 95.6113 44.8818 95.2398 44.7301C95.1557 44.699 95.0697 44.6729 94.9825 44.652C94.8974 44.6315 94.8107 44.6188 94.7234 44.6138C94.5669 44.6034 94.4956 44.6572 94.5286 44.6763C94.5617 44.6954 94.5286 44.718 94.5165 44.7735C94.487 44.8594 94.4735 44.95 94.4765 45.0408C94.4765 45.1727 94.4904 45.3618 94.506 45.5475C94.5168 45.7386 94.5518 45.9276 94.6104 46.1098C94.687 46.3199 94.8 46.515 94.9442 46.686C95.0995 46.8536 95.2747 47.0017 95.4659 47.1269ZM95.3894 47.264C95.1709 47.1632 94.9468 47.0752 94.7182 47.0002C94.4706 46.9124 94.2299 46.8063 93.9983 46.6826C93.7397 46.5365 93.5127 46.3406 93.3305 46.1064C93.1418 45.8693 93.006 45.5948 92.9323 45.3011C92.8401 44.9388 92.8595 44.5571 92.988 44.206C93.0627 44.0013 93.1783 43.814 93.3278 43.6553C93.4772 43.4966 93.6574 43.3698 93.8574 43.2827C94.0617 43.2009 94.2809 43.1631 94.5008 43.1716C94.678 43.1792 94.8534 43.2101 95.0225 43.2636C95.1603 43.3079 95.2951 43.3613 95.4259 43.4232C95.556 43.4798 95.6826 43.5442 95.805 43.6159C96.2559 43.8864 96.6614 44.2261 97.0066 44.6225C97.1808 44.8302 97.3313 45.0566 97.4552 45.2976C97.5816 45.556 97.6589 45.8355 97.683 46.122C97.7024 46.4142 97.6372 46.7058 97.4952 46.962C97.4256 47.0914 97.3301 47.2051 97.2146 47.2962C97.0992 47.3873 96.9662 47.4537 96.824 47.4913C96.697 47.5248 96.5656 47.5383 96.4345 47.5313C96.3118 47.5286 96.1896 47.5153 96.0693 47.4913C95.8341 47.4439 95.6057 47.3676 95.3894 47.264Z" fill="#F08C34"/>
<path d="M90.9291 49.0149C90.905 48.7756 90.9509 48.5345 91.0613 48.3207C91.19 48.105 91.3801 47.9322 91.6073 47.8243C92.0582 47.609 92.5611 47.5259 93.0575 47.5848C93.3023 47.609 93.5448 47.6525 93.7826 47.715C93.9092 47.7482 94.0334 47.7894 94.1548 47.8382C94.2174 47.8625 94.2817 47.892 94.3478 47.925C94.4139 47.958 94.4869 48.0031 94.5338 48.0343C94.7637 48.1794 94.9731 48.3545 95.1564 48.555C95.258 48.6715 95.3472 48.7983 95.4224 48.9333C95.4618 49.0049 95.4961 49.0791 95.525 49.1555C95.5407 49.1937 95.5528 49.2353 95.5667 49.2752C95.5807 49.3152 95.5911 49.3707 95.6015 49.4193C95.6372 49.608 95.6372 49.8016 95.6015 49.9903C95.5711 50.1718 95.5124 50.3475 95.4276 50.5109C95.3399 50.6831 95.2221 50.8382 95.0799 50.9691C95.0008 51.0426 94.9139 51.1072 94.8208 51.1618L94.746 51.2034L94.6851 51.2329C94.6457 51.2533 94.605 51.2713 94.5634 51.2867C94.2567 51.4065 93.9265 51.4546 93.5983 51.4273C93.4528 51.4159 93.3085 51.3921 93.1671 51.3562C93.0366 51.3232 92.9393 51.2902 92.8193 51.252C92.5873 51.1711 92.3651 51.0646 92.1568 50.9344C91.9284 50.7881 91.7197 50.6131 91.536 50.4138C91.344 50.2152 91.1896 49.9835 91.0804 49.73C90.9899 49.5018 90.9388 49.2601 90.9291 49.0149ZM91.0839 48.9941C91.1215 49.1993 91.232 49.3842 91.3951 49.5147C91.5585 49.624 91.7498 49.6842 91.9464 49.6883C92.3446 49.7074 92.7636 49.6675 93.1845 49.7282L93.494 49.7733L93.7253 49.7994C93.8435 49.8135 93.9628 49.817 94.0817 49.8098H94.1356C94.1356 49.8098 94.1461 49.8202 94.1565 49.8202C94.1893 49.8162 94.2198 49.8015 94.2434 49.7786C94.3016 49.7293 94.3429 49.6632 94.3617 49.5894C94.3617 49.5894 94.3617 49.5894 94.3617 49.5703C94.3625 49.5564 94.3625 49.5425 94.3617 49.5286C94.3576 49.4998 94.3512 49.4714 94.3426 49.4436C94.3207 49.3772 94.291 49.3137 94.2539 49.2544C94.1579 49.1063 94.0408 48.973 93.9061 48.8587C93.6159 48.6169 93.2747 48.4437 92.908 48.3519C92.5132 48.2339 92.1168 48.0986 91.7099 48.1367C91.6098 48.1488 91.512 48.1751 91.4195 48.2148C91.3292 48.2592 91.2502 48.3233 91.1882 48.4023C91.1303 48.4881 91.091 48.5852 91.0731 48.6871C91.0551 48.7891 91.0588 48.8936 91.0839 48.9941Z" fill="#F08C34"/>
<path d="M93.7496 53.918C93.9029 53.8565 94.046 53.7723 94.1739 53.6681C94.2256 53.6202 94.2649 53.5607 94.2887 53.4945C94.3162 53.4286 94.3298 53.3577 94.3287 53.2863C94.3341 53.2262 94.3224 53.1659 94.295 53.1122C94.2676 53.0585 94.2257 53.0136 94.1739 52.9825C94.152 52.973 94.1283 52.968 94.1044 52.968C94.0804 52.968 94.0568 52.973 94.0348 52.9825C94.0117 52.9912 93.9879 52.9976 93.9635 53.0016C93.9427 53.0016 93.9183 53.0155 93.894 53.0259C93.7201 53.104 93.5166 53.2342 93.3271 53.3227C93.2332 53.3713 93.141 53.413 93.068 53.4494L93.0176 53.472C93.0037 53.4806 92.988 53.4858 92.9828 53.4911C92.9776 53.4963 92.9671 53.5015 92.9828 53.4997H92.9915C93.0059 53.4967 93.0199 53.492 93.0332 53.4858L93.0471 53.4772H93.0315C93.0211 53.4777 93.0106 53.4777 93.0002 53.4772C92.9813 53.4817 92.9617 53.4817 92.9428 53.4772C92.9028 53.465 92.8819 53.432 92.8506 53.3626C92.8314 53.3233 92.808 53.2861 92.7811 53.2515C92.7674 53.2334 92.7503 53.218 92.7307 53.2064C92.7116 53.2 92.6916 53.1965 92.6715 53.196H92.635L92.6037 53.1856C92.5783 53.1821 92.5526 53.1821 92.5272 53.1856C92.5046 53.1843 92.482 53.188 92.4609 53.1964C92.4399 53.2048 92.421 53.2177 92.4055 53.2342C92.3964 53.242 92.3891 53.2515 92.384 53.2623C92.379 53.2731 92.3762 53.2848 92.3759 53.2967C92.3724 53.3232 92.3724 53.35 92.3759 53.3765C92.3905 53.4398 92.419 53.4991 92.4594 53.5501C92.5556 53.6732 92.6811 53.7704 92.8245 53.833C92.9737 53.9025 93.1337 53.9459 93.2975 53.9614C93.4496 53.9793 93.6038 53.9645 93.7496 53.918ZM93.8175 54.0603C93.4826 54.176 93.1273 54.2209 92.7741 54.1922C92.5976 54.1857 92.4225 54.1583 92.2525 54.1106C92.0712 54.0639 91.9049 53.9719 91.769 53.8434C91.6983 53.7763 91.6395 53.6976 91.5951 53.6108C91.5763 53.5655 91.5601 53.5191 91.5465 53.472L91.5239 53.4008V53.3296C91.4927 53.1368 91.5225 52.9391 91.6091 52.7639C91.7895 52.4352 92.0782 52.1789 92.4263 52.0384C92.6013 51.9765 92.785 51.9425 92.9706 51.9378C93.1477 51.9288 93.3253 51.9363 93.501 51.9603C93.8649 52.0007 94.2074 52.1522 94.4817 52.3942C94.5166 52.4261 94.5481 52.4616 94.5756 52.5001C94.6052 52.5373 94.632 52.5768 94.6556 52.6181C94.7025 52.7037 94.7332 52.7973 94.746 52.894C94.765 53.0814 94.7287 53.2702 94.6417 53.4372C94.6015 53.5185 94.5519 53.5948 94.4939 53.6646C94.4318 53.733 94.3597 53.7915 94.28 53.8382C94.1299 53.9204 93.9755 53.9946 93.8175 54.0603Z" fill="#F08C34"/>
<path d="M43.1911 28.6954C42.8365 28.323 42.5493 27.8919 42.3425 27.4215L42.1999 27.057C42.1599 26.9321 42.1181 26.8071 42.0799 26.6804C42.0416 26.5537 42.0208 26.4253 41.9947 26.2951C41.9686 26.165 41.9495 26.0365 41.9321 25.9046C41.9147 25.7727 41.9008 25.6426 41.8834 25.5089L41.8486 25.1098C41.8457 24.9759 41.8515 24.842 41.866 24.7089C41.8857 24.577 41.9142 24.4465 41.9512 24.3184C41.9964 24.1934 42.0416 24.0667 42.0955 23.9452C42.1494 23.8237 42.219 23.7057 42.2903 23.5981C42.3665 23.4799 42.4489 23.3658 42.5372 23.2562C42.6324 23.1528 42.7372 23.0586 42.8502 22.9751C42.8565 22.9702 42.8637 22.9666 42.8714 22.9647C42.8791 22.9627 42.8872 22.9624 42.895 22.9637C42.9029 22.965 42.9104 22.9679 42.917 22.9722C42.9237 22.9766 42.9294 22.9823 42.9337 22.9889C42.9389 22.9962 42.9425 23.0045 42.9441 23.0132C42.9667 23.151 42.98 23.2902 42.9841 23.4298C42.9841 23.5582 42.998 23.6849 42.9946 23.8064C42.9911 23.9279 42.9946 24.0476 42.9946 24.1656C42.9946 24.2837 42.9946 24.3999 42.9789 24.5127C42.9762 24.6291 42.9652 24.7451 42.9459 24.8598C42.9317 24.9732 42.9108 25.0857 42.8833 25.1965L42.812 25.535C42.7911 25.6478 42.7807 25.7623 42.7685 25.8821L42.7581 26.2292L42.7685 26.5763L42.7946 26.9234L42.845 27.2705C42.9251 27.7437 43.0708 28.2034 43.278 28.6364C43.2825 28.6477 43.2829 28.6603 43.2793 28.6719C43.2757 28.6836 43.2682 28.6937 43.2581 28.7005C43.248 28.7074 43.2359 28.7106 43.2237 28.7097C43.2115 28.7087 43.2 28.7037 43.1911 28.6954Z" fill="#F08C34"/>
<path d="M51.3047 34.6603C50.965 34.6409 50.6391 34.52 50.3692 34.3132C50.1084 34.1227 49.8905 33.8796 49.7297 33.5998C49.5688 33.32 49.4686 33.0096 49.4354 32.6888C49.3982 32.3524 49.463 32.0126 49.6215 31.7134C49.8379 31.9334 50.0351 32.1714 50.2109 32.4249C50.3629 32.6393 50.5039 32.8612 50.6335 33.0897C50.7604 33.3135 50.8769 33.5426 50.9813 33.7926C51.1125 34.0726 51.2207 34.3628 51.3047 34.6603Z" fill="#F08C34"/>
<path d="M53.4036 35.0232C53.2006 35.1106 52.9729 35.1224 52.762 35.0562C52.5439 34.9931 52.3442 34.8788 52.1795 34.7229C51.8691 34.4134 51.6621 34.0158 51.5865 33.5844C51.5091 33.196 51.5091 32.7962 51.5865 32.4077C51.6612 32.0106 51.8413 31.6408 52.1082 31.3369C52.2301 31.6891 52.33 32.0484 52.4073 32.4129C52.482 32.7444 52.5481 33.0707 52.6072 33.3831C52.6552 33.6709 52.7291 33.9538 52.8281 34.2283C52.8807 34.3689 52.9496 34.5028 53.0333 34.6275C53.1342 34.7787 53.2593 34.9124 53.4036 35.0232Z" fill="#F08C34"/>
<path d="M60.4966 32.9072C59.9987 32.6844 59.5581 32.3514 59.2081 31.9336C58.8548 31.5201 58.5727 31.0509 58.3734 30.5452C58.1697 30.0413 58.0522 29.5068 58.0256 28.9641C57.9934 28.4186 58.0868 27.873 58.2986 27.3691C58.509 27.8898 58.6638 28.3532 58.8307 28.8148C58.9977 29.2765 59.1611 29.7208 59.335 30.1634C59.5089 30.6059 59.6932 31.0467 59.888 31.4945C60.0827 31.9423 60.3001 32.3918 60.4966 32.9072Z" fill="#F08C34"/>
<path d="M71.603 24.2107C71.4504 24.2587 71.2852 24.2476 71.1404 24.1795C71.0014 24.1144 70.8772 24.0217 70.7753 23.907C70.5993 23.704 70.4763 23.4608 70.4171 23.1989C70.3712 23.0025 70.3467 22.8018 70.344 22.6002C70.3568 22.3715 70.3322 22.1423 70.271 21.9216C70.4249 21.8804 70.5888 21.8983 70.7301 21.9719C70.8641 22.0409 70.9824 22.1365 71.0778 22.253C71.2468 22.454 71.3659 22.6918 71.4256 22.9473C71.4705 23.1403 71.4955 23.3375 71.5004 23.5356C71.4926 23.765 71.5274 23.9939 71.603 24.2107Z" fill="#F08C34"/>
<path d="M81.3095 29.1415C81.1725 29.1844 81.0257 29.1848 80.8884 29.1427C80.7512 29.1005 80.63 29.0178 80.5409 28.9055C80.3566 28.6968 80.2574 28.4268 80.2627 28.1488C80.2654 27.899 80.3463 27.6563 80.4939 27.4546C80.6453 27.2538 80.8547 27.1042 81.0938 27.0259C81.1904 27.238 81.2526 27.4642 81.2782 27.6958C81.2988 27.8499 81.3081 28.0054 81.306 28.1609C81.306 28.2772 81.2903 28.3987 81.2747 28.5427C81.2441 28.7426 81.256 28.9465 81.3095 29.1415Z" fill="#F08C34"/>
<path d="M68.9215 21.6384C68.1458 21.6619 67.3695 21.63 66.5984 21.543C65.839 21.4655 65.0855 21.3608 64.3378 21.2289C63.5901 21.0987 62.8458 20.9442 62.1033 20.7603C61.3493 20.5814 60.609 20.3494 59.8879 20.066C60.6599 19.9489 61.4419 19.9117 62.2215 19.955C62.9914 19.9889 63.7582 20.0735 64.5169 20.2084C65.2767 20.3404 66.0271 20.5213 66.7636 20.7498C67.5111 20.9725 68.2341 21.2702 68.9215 21.6384Z" fill="#F08C34"/>
<path d="M63.1866 39.3357C63.292 39.2667 63.3815 39.1762 63.4492 39.0702C63.4972 38.9961 63.5379 38.9176 63.5709 38.8359C63.6318 38.6918 63.6753 38.5599 63.7135 38.4488L63.8874 37.9611C63.9688 37.7189 64.0829 37.4888 64.2265 37.2773C64.451 37.4434 64.6191 37.6742 64.7082 37.9386C64.8004 38.2122 64.8004 38.5084 64.7082 38.7821C64.6561 38.9347 64.5732 39.075 64.4646 39.1944C64.356 39.3138 64.2241 39.4097 64.077 39.4763C63.9285 39.5438 63.7645 39.5701 63.6022 39.5526C63.5216 39.5476 63.4429 39.5257 63.3713 39.4883C63.2997 39.4509 63.2368 39.3989 63.1866 39.3357Z" fill="#F08C34"/>
<path d="M65.7341 28.5879C66.2349 28.7875 66.6679 29.0062 67.0992 29.2109C67.3148 29.3151 67.5252 29.4209 67.7252 29.506C67.917 29.5911 68.1152 29.6607 68.3181 29.7143C68.7275 29.8265 69.1509 29.8797 69.5754 29.8722C70.0275 29.8722 70.5178 29.8167 71.0569 29.8253C70.6885 30.2161 70.2283 30.509 69.718 30.6775C69.1759 30.8582 68.592 30.8727 68.0417 30.7191C67.9037 30.6797 67.7684 30.6316 67.6365 30.5751C67.5068 30.5173 67.3813 30.4506 67.2609 30.3755C67.0346 30.232 66.8236 30.0657 66.6314 29.8791C66.2409 29.5197 65.9345 29.0789 65.7341 28.5879Z" fill="#F08C34"/>
<path d="M85.4915 85.9087C84.8051 86.3057 84.0242 86.5108 83.231 86.5023C82.4353 86.4949 81.6539 86.291 80.9565 85.9087C79.5781 85.1682 78.2107 84.4086 76.8544 83.63C74.1435 82.068 71.4638 80.4331 68.8694 78.6889C66.2749 76.9447 63.724 75.1137 61.2599 73.1734C58.7959 71.233 56.4101 69.1938 54.1131 67.0556C51.816 64.9174 49.6319 62.6525 47.5574 60.3009C46.5141 59.1207 45.5084 57.9134 44.5404 56.6788C43.5724 55.4443 42.6386 54.1791 41.739 52.8832C39.9385 50.2997 38.3081 47.6022 36.8579 44.8078C36.1346 43.4089 35.4668 41.9817 34.8547 40.5262C34.7017 40.1641 34.5527 39.7996 34.4078 39.4328L34.307 39.1569L34.1887 38.8757C34.1209 38.6813 34.0566 38.4887 33.9975 38.2978C33.7592 37.522 33.5592 36.7636 33.3732 35.9895C33.3526 35.902 33.3523 35.811 33.3725 35.7235C33.3927 35.6359 33.4328 35.5541 33.4897 35.4845C34.1227 34.707 34.7417 33.9416 35.4407 33.1866L35.6981 32.9124C35.7816 32.8239 35.8842 32.7163 35.9815 32.6243C36.1795 32.4369 36.3898 32.263 36.611 32.1036C37.0525 31.783 37.5342 31.5216 38.0439 31.3261C38.9742 30.9617 39.908 30.6076 40.8626 30.2848C41.3391 30.1251 41.8208 29.9741 42.3181 29.8405C42.5668 29.7746 42.8206 29.7138 43.0849 29.667C43.2188 29.6427 43.3545 29.6201 43.504 29.6062C43.6772 29.5837 43.8525 29.5837 44.0257 29.6062C44.1197 29.6206 44.2082 29.6592 44.2827 29.7183C44.3571 29.7774 44.4148 29.8548 44.45 29.9429V29.9551C44.5282 30.1529 44.6326 30.3785 44.7352 30.5868C44.8378 30.7951 44.9508 31.0103 45.069 31.2168C45.3007 31.6291 45.5585 32.0262 45.8411 32.4056C46.3742 33.1587 47.0522 33.7983 47.8356 34.287C48.2128 34.5111 48.6239 34.6729 49.0529 34.766C49.1589 34.7885 49.2667 34.8059 49.3746 34.818C49.4267 34.818 49.4806 34.8302 49.5484 34.8336H49.6389L49.7502 34.8458C50.004 34.8753 50.2544 34.9083 50.5031 34.9447C51.5012 35.0888 52.4889 35.2779 53.4697 35.4984C55.4447 35.922 57.371 36.5466 59.2185 37.3623C59.6793 37.5775 60.1349 37.8066 60.58 38.0565L60.9139 38.2544C60.9695 38.2874 61.0252 38.3203 61.0878 38.3585L61.2425 38.4626L61.8651 38.8757C62.6893 39.4288 63.5112 39.9882 64.3308 40.554C65.1481 41.1232 65.9637 41.6873 66.7653 42.3086C67.1376 42.609 67.5356 42.8761 67.9547 43.1069C68.3668 43.3412 68.8029 43.5309 69.2554 43.6727C69.6911 43.8162 70.1504 43.8751 70.6083 43.8463C71.0501 43.8101 71.4695 43.6372 71.8081 43.3517C71.8498 43.3135 71.8951 43.277 71.9298 43.2406L71.975 43.1955C71.9912 43.177 72.0057 43.1573 72.0185 43.1364C72.0793 43.0475 72.1311 42.9527 72.1733 42.8536C72.2617 42.6496 72.3169 42.4328 72.3367 42.2114C72.3741 41.7535 72.292 41.2937 72.0985 40.8768C71.9029 40.4419 71.6439 40.0384 71.3299 39.6793C71.0125 39.31 70.6634 38.9691 70.2866 38.6605C69.5337 38.0221 68.7471 37.4242 67.9304 36.8694C67.1118 36.3138 66.2611 35.8068 65.3829 35.3508L62.7171 34.0162L65.4333 35.2311C66.3394 35.6475 67.2156 36.1259 68.0556 36.6629C68.8976 37.1976 69.7102 37.7769 70.49 38.3984C70.8914 38.7085 71.2654 39.0522 71.6081 39.4259C71.9592 39.8042 72.2522 40.2323 72.4776 40.6963C72.7166 41.178 72.8286 41.7126 72.8028 42.2496C72.7873 42.5232 72.7286 42.7926 72.6289 43.0479C72.5776 43.1786 72.5142 43.3041 72.4393 43.4228C72.4199 43.4554 72.3984 43.4867 72.375 43.5165L72.3646 43.5304C72.3559 43.5408 72.3507 43.5478 72.3489 43.5478L72.3315 43.5686L72.2933 43.6068C72.2446 43.6606 72.1959 43.704 72.1455 43.7526C71.7308 44.1246 71.2108 44.3593 70.657 44.4242C70.122 44.4807 69.5812 44.4306 69.0659 44.2767C68.566 44.1332 68.0827 43.9371 67.6243 43.6918C67.1681 43.4533 66.7335 43.1757 66.3254 42.8622C65.5429 42.2843 64.7117 41.7359 63.8909 41.1909C63.0701 40.646 62.232 40.1097 61.3956 39.5769L60.7713 39.176L60.6131 39.0753C60.5679 39.0458 60.5157 39.0163 60.4635 38.9868L60.154 38.8132C59.7297 38.5824 59.295 38.3724 58.8516 38.1746C57.0513 37.416 55.178 36.8431 53.261 36.465C52.3011 36.2637 51.3308 36.1023 50.3622 35.9704C50.1188 35.9392 49.8754 35.9079 49.6371 35.8836H49.5624H49.4685C49.4059 35.8836 49.3363 35.875 49.2667 35.868C49.1259 35.8541 48.9885 35.8316 48.8511 35.8055C48.3073 35.6953 47.7851 35.4971 47.3053 35.2189C46.3885 34.6631 45.5927 33.9296 44.9647 33.0617C44.6485 32.6483 44.3582 32.2159 44.0953 31.767C43.9666 31.5436 43.8437 31.3163 43.7266 31.0849C43.6084 30.8489 43.5005 30.6267 43.3927 30.3646L43.8222 30.7118C43.7483 30.7037 43.6736 30.7037 43.5997 30.7118C43.5023 30.7204 43.3927 30.7395 43.2832 30.7603C43.0623 30.8055 42.8328 30.8627 42.6033 30.9339C42.1442 31.0623 41.6817 31.2133 41.2208 31.373C40.2975 31.6941 39.3776 32.0429 38.463 32.4056C38.0461 32.5656 37.6525 32.7803 37.2927 33.0443C37.1145 33.1757 36.9449 33.3183 36.7849 33.4713C36.7032 33.5511 36.6354 33.6222 36.5484 33.716L36.2963 33.9867C35.6494 34.6809 35.0234 35.4636 34.4096 36.2238L34.5226 35.7153C34.6965 36.4564 34.9052 37.2079 35.133 37.9298C35.1903 38.1034 35.2495 38.2874 35.3068 38.4626L35.4042 38.7195L35.512 38.9885C35.6546 39.346 35.8019 39.703 35.9537 40.0593C36.5675 41.479 37.2335 42.8779 37.9343 44.2559C39.3519 47.0092 40.9469 49.6678 42.7093 52.215C43.5788 53.4906 44.5074 54.7402 45.4568 55.9673C46.4062 57.1943 47.3853 58.397 48.3973 59.572C50.4214 61.9254 52.5707 64.1729 54.8104 66.3284C57.0501 68.4839 59.3802 70.5475 61.7938 72.5139C62.9994 73.4996 64.2224 74.4634 65.4629 75.4053C66.7027 76.3476 67.9634 77.264 69.2345 78.1665C71.782 79.9628 74.3799 81.6931 77.0352 83.3332C78.3626 84.1535 79.7021 84.9553 81.0538 85.7386C81.7165 86.1365 82.4673 86.3648 83.2396 86.4033C84.0212 86.4438 84.7992 86.2729 85.4915 85.9087Z" fill="#F08C34"/>
<path d="M66.0298 35.2971C66.1376 34.5858 66.0671 33.859 65.8246 33.1815C65.7968 33.0982 65.769 33.0166 65.7377 32.9351L65.6925 32.8153V32.8309C65.6959 32.8432 65.7012 32.8549 65.7081 32.8657C65.7211 32.8863 65.7375 32.9045 65.7568 32.9195C65.7759 32.9328 65.797 32.9427 65.8194 32.949H65.8351H65.8246H65.7864H65.6368L65.3377 32.9264C65.1395 32.9038 64.9465 32.8639 64.7483 32.8292C64.55 32.7945 64.3657 32.7303 64.1762 32.6713C63.4356 32.4223 62.7334 32.0718 62.0895 31.63C61.7701 31.4158 61.463 31.1841 61.1696 30.9357C60.8731 30.6837 60.5926 30.4136 60.3297 30.127L61.0653 29.6376C61.267 30.2085 61.5017 30.7709 61.7608 31.3297C61.893 31.6091 62.0286 31.8885 62.1729 32.1662C62.3173 32.4439 62.4668 32.7216 62.6146 33.0062C62.3626 32.8079 62.1239 32.5934 61.8999 32.3641C61.6746 32.1334 61.4627 31.89 61.2652 31.6352C60.8662 31.1226 60.5207 30.5708 60.2341 29.9881C60.184 29.8955 60.1686 29.788 60.1908 29.6851C60.2129 29.5822 60.2711 29.4905 60.3549 29.4265C60.4387 29.3625 60.5426 29.3305 60.6479 29.3361C60.7532 29.3417 60.8531 29.3846 60.9296 29.4571L60.9783 29.4987C61.2322 29.7174 61.5174 29.9482 61.8008 30.1582C62.0843 30.3682 62.3764 30.5782 62.6703 30.7709C63.2536 31.1592 63.8705 31.495 64.5135 31.774L64.9969 31.9597C65.1604 32.0048 65.3238 32.0621 65.4908 32.1055L65.7412 32.1593L65.8664 32.1888L65.8977 32.1975H65.922L65.9724 32.2079C66.04 32.2227 66.1042 32.2498 66.162 32.2877C66.2525 32.3455 66.323 32.4297 66.3637 32.529C66.3637 32.5446 66.3776 32.5619 66.3828 32.5776V32.6036V32.614C66.3915 32.6626 66.402 32.7112 66.4106 32.7615C66.4263 32.8587 66.4402 32.9559 66.4506 33.0548C66.4962 33.4445 66.4886 33.8386 66.428 34.2263C66.3748 34.6079 66.2389 34.9733 66.0298 35.2971Z" fill="#F08C34"/>
<path d="M70.697 28.7458C71.3488 29.3718 72.1495 29.8221 73.0236 30.0544C73.4508 30.1685 73.8909 30.2268 74.333 30.228C74.7747 30.228 75.2251 30.1828 75.6842 30.1568C76.1432 30.1308 76.604 30.1117 77.0631 30.1099H77.4109C77.5291 30.1099 77.6282 30.1099 77.7726 30.1186C77.8553 30.1254 77.937 30.1417 78.016 30.1672C78.103 30.1991 78.1845 30.2442 78.2577 30.3008C78.367 30.3941 78.464 30.5008 78.5464 30.6184C79.077 31.325 79.6815 31.9731 80.3496 32.5518C80.6835 32.8399 81.0261 33.1141 81.393 33.3675C81.5715 33.4936 81.7541 33.6151 81.9407 33.732C82.0329 33.791 82.125 33.8483 82.2207 33.9055L82.3615 33.9889C82.4004 34.0112 82.4405 34.0315 82.4815 34.0496C82.7217 34.1497 82.9512 34.2736 83.1666 34.4193C83.2398 34.4744 83.3074 34.5366 83.3684 34.605C83.4313 34.68 83.4861 34.7614 83.5318 34.8479C83.5937 34.9738 83.6455 35.1044 83.6866 35.2384C83.7161 35.3183 83.7613 35.4241 83.8013 35.5179C83.8413 35.6116 83.8866 35.707 83.9335 35.7973C84.0256 35.9775 84.1295 36.1515 84.2448 36.3179C84.3628 36.4833 84.4905 36.6415 84.6273 36.7917C84.7604 36.9368 84.9033 37.0725 85.0551 37.1979C85.3563 37.4453 85.6957 37.6422 86.0602 37.781C86.4147 37.918 86.7897 37.9948 87.1696 38.0084C87.2635 38.0084 87.3609 38.0084 87.4513 38.0084C87.5309 38.0039 87.61 37.9929 87.6878 37.9754C87.8189 37.9441 87.9417 37.8849 88.0477 37.8018C88.1087 37.7519 88.1667 37.6986 88.2216 37.6422C88.2694 37.5935 88.3119 37.54 88.3486 37.4825C88.4194 37.3744 88.4662 37.2525 88.4859 37.125C88.5032 37.0085 88.4931 36.8897 88.4564 36.7779C88.4459 36.7536 88.4373 36.7275 88.4251 36.7032L88.4059 36.6668C88.4059 36.6668 88.4059 36.6668 88.4059 36.6772L88.4181 36.6963L88.2164 36.4429C87.646 35.7296 87.0792 35.0093 86.5436 34.2075C86.4758 34.1086 86.4114 33.9993 86.3454 33.8934L86.1628 33.5706C86.0567 33.3779 85.9471 33.1853 85.8359 32.9944C85.6133 32.6126 85.3814 32.236 85.1403 31.8646C84.6604 31.12 84.1404 30.3928 83.6083 29.6639L83.5179 29.5042C83.4849 29.4574 83.457 29.4279 83.4275 29.3897C83.3666 29.3151 83.3144 29.2422 83.2414 29.1675C83.111 29.0183 82.9649 28.8708 82.8171 28.7232C82.5111 28.4299 82.1859 28.1436 81.8486 27.8676C81.1704 27.314 80.4574 26.7846 79.7201 26.2883C79.3463 26.0436 78.9707 25.7676 78.6003 25.5316C78.2299 25.2956 77.856 25.0491 77.4787 24.82C76.7229 24.3642 75.9473 23.9476 75.1521 23.5704C74.3556 23.1886 73.5331 22.845 72.695 22.5048L70.1736 21.4878C69.3561 21.1603 68.5221 20.8759 67.6748 20.6356C66.8331 20.3996 65.9689 20.2191 65.0908 20.056C64.2126 19.8928 63.3223 19.7609 62.4216 19.6273L59.721 19.2247L57.0205 18.822L54.3218 18.4003C52.5237 18.1156 50.724 17.8449 48.9312 17.5499L46.2289 17.1142C45.3299 16.965 44.4431 16.8192 43.558 16.7359C42.6791 16.6384 41.7917 16.6465 40.9148 16.7602C40.0324 16.895 39.164 17.1093 38.3204 17.4006C37.4666 17.687 36.6232 18.0271 35.7799 18.3673C34.9365 18.7075 34.1157 19.091 33.2637 19.4121C34.0723 18.9938 34.8617 18.5443 35.6773 18.1278C36.4928 17.7113 37.3101 17.3121 38.1569 16.9511C39.0094 16.579 39.8973 16.2936 40.807 16.099C41.73 15.9156 42.6717 15.8439 43.6119 15.8855C44.5457 15.9185 45.4621 16.0278 46.3663 16.1267L49.0877 16.4287C50.8979 16.6283 52.7046 16.8522 54.513 17.0639L57.224 17.385L59.9349 17.7321L62.6441 18.0792C63.5466 18.192 64.4596 18.3083 65.3759 18.4558C66.3023 18.6002 67.2205 18.7925 68.1269 19.032C69.0338 19.2776 69.9271 19.5708 70.8031 19.9102L73.3505 20.9237C74.1991 21.2709 75.0582 21.618 75.905 22.0241C76.7519 22.4294 77.5778 22.8771 78.3795 23.3656C78.7794 23.6086 79.1741 23.8603 79.5602 24.1189C79.9462 24.3775 80.3131 24.6395 80.6957 24.8964C81.4643 25.4309 82.205 25.988 82.9302 26.5937C83.2918 26.8975 83.6466 27.2168 83.9944 27.557L84.2517 27.8225C84.3369 27.9127 84.4256 28.0117 84.5021 28.1071C84.6655 28.2998 84.8187 28.5008 84.9612 28.7094C85.4829 29.4608 86.0045 30.2262 86.4932 31.0194C86.7383 31.4168 86.9731 31.8212 87.1992 32.2342C87.3122 32.439 87.4235 32.6455 87.5313 32.8521L87.6774 33.1263C87.7295 33.2148 87.7782 33.2998 87.8373 33.3918C88.2929 34.1155 88.8407 34.8341 89.3797 35.5595L89.5919 35.8476L89.6371 35.9118L89.6719 35.9674C89.6817 35.9824 89.6904 35.998 89.698 36.0142L89.7519 36.1322C89.786 36.2113 89.815 36.2925 89.8388 36.3752C89.9322 36.7016 89.9465 37.0454 89.8805 37.3784C89.818 37.6989 89.6875 38.0025 89.498 38.2687C89.4057 38.3989 89.3003 38.5193 89.1832 38.6279C89.0746 38.7292 88.9583 38.8221 88.8355 38.9056C88.5721 39.0899 88.2729 39.217 87.9573 39.2788C87.8114 39.3049 87.6638 39.32 87.5156 39.3239C87.3783 39.3239 87.2478 39.3239 87.1157 39.3239C86.5877 39.2911 86.0691 39.169 85.582 38.9629C85.1009 38.7596 84.6563 38.4794 84.2656 38.1333C84.0718 37.9628 83.8927 37.7765 83.73 37.5762C83.5703 37.3819 83.4228 37.1778 83.2884 36.9653C83.1569 36.7504 83.0407 36.5265 82.9406 36.2954C82.8884 36.1826 82.8415 36.0663 82.798 35.9483C82.7545 35.8303 82.7145 35.7261 82.6728 35.589C82.6513 35.5049 82.6252 35.4221 82.5945 35.3408C82.5858 35.3183 82.5772 35.3061 82.5737 35.2974C82.5594 35.2805 82.5437 35.2648 82.5267 35.2506C82.3679 35.1372 82.1992 35.0384 82.0224 34.9555C81.9685 34.926 81.9042 34.8896 81.8486 34.8514L81.7007 34.7542C81.6016 34.6883 81.5043 34.6223 81.4086 34.5529C81.2156 34.4175 81.0261 34.277 80.8417 34.1312C80.4712 33.841 80.1176 33.5298 79.7827 33.1992C79.1152 32.5406 78.5201 31.8127 78.0073 31.028C77.9649 30.9553 77.9142 30.8877 77.856 30.8267C77.8412 30.812 77.8242 30.7997 77.8056 30.7903C77.7768 30.7779 77.7463 30.7697 77.7152 30.766C77.6317 30.7538 77.503 30.7469 77.3952 30.7382L77.0596 30.7139C76.6092 30.6879 76.1589 30.667 75.7068 30.6584C75.2546 30.6497 74.7973 30.6584 74.3296 30.6219C73.6336 30.5657 72.9557 30.373 72.3344 30.0549C71.7132 29.7369 71.1609 29.2997 70.7092 28.7684L70.697 28.7458Z" fill="#F08C34"/>
<path d="M88.7433 37.7183C88.1886 37.2965 87.6582 36.7811 87.4548 36.1146C87.293 35.594 87.3522 35.0247 87.4113 34.478" stroke="#F08C34" stroke-linecap="round" stroke-linejoin="round"/>
<path d="M67.8052 43.9196C67.7699 44.2578 67.6639 44.5847 67.494 44.8794C67.3038 45.1936 67.0416 45.4583 66.7289 45.6517C66.6489 45.7003 66.5671 45.7437 66.4837 45.7871C66.4419 45.8079 66.4002 45.8235 66.3567 45.8426L66.2924 45.8686L66.2576 45.8825L66.2037 45.8981C65.9712 45.9568 65.7291 45.9669 65.4925 45.9276C65.1289 45.8721 64.7766 45.7584 64.4492 45.591C64.3709 45.5493 64.2927 45.5076 64.2109 45.4591L64.1814 45.44L64.1327 45.407C64.0979 45.3827 64.0631 45.3584 64.0318 45.3324C63.9685 45.2801 63.9103 45.222 63.8579 45.1588C63.6952 44.9525 63.5896 44.7071 63.5519 44.4472C63.5144 44.2331 63.5144 44.014 63.5519 43.7999C63.5606 43.7478 63.5745 43.694 63.5867 43.6419C63.5988 43.5899 63.6127 43.5517 63.6284 43.5083C63.6597 43.4238 63.6927 43.3423 63.7275 43.2636C63.8687 42.9641 64.0437 42.6817 64.2492 42.4219C64.4489 42.1564 64.6902 41.9249 64.9639 41.7363C64.9413 42.0713 64.9134 42.3785 64.8804 42.6839C64.8474 42.9894 64.8108 43.281 64.7882 43.5517C64.7814 43.6169 64.778 43.6823 64.7778 43.7478V43.8363C64.7778 43.8606 64.7778 43.8815 64.7778 43.904C64.7868 43.9925 64.8073 44.0794 64.8387 44.1626C64.8665 44.2338 64.903 44.2772 64.9065 44.2685C64.907 44.2656 64.907 44.2627 64.9065 44.2598C64.9065 44.2598 64.9065 44.2598 64.8978 44.2494C64.8891 44.239 64.8891 44.2494 64.8978 44.2494L64.9169 44.2598C64.9656 44.2876 65.0213 44.3171 65.0786 44.3448C65.2949 44.4561 65.5186 44.5524 65.7481 44.6329C65.8472 44.6711 65.9377 44.6798 65.9429 44.6972H65.962H66.0072L66.0976 44.685C66.1568 44.6746 66.2176 44.6676 66.2715 44.6538C66.5242 44.6027 66.7683 44.5162 66.9966 44.3969C67.1274 44.3302 67.2545 44.2566 67.3775 44.1765C67.5201 44.0967 67.6574 44.0012 67.8052 43.9196Z" fill="#F08C34"/>
<path d="M66.621 45.1081C66.2889 44.9155 66.2733 44.5145 66.3932 44.1501C66.5342 43.7937 66.7535 43.4735 67.0349 43.2129" stroke="#F08C34" stroke-linecap="round" stroke-linejoin="round"/>
<path d="M71.3665 43.3881C71.603 42.7373 71.3926 42.0552 71.0187 41.479C70.6031 40.9039 70.0996 40.3973 69.5268 39.9778C69.2798 39.7851 69.0051 39.5856 68.7008 39.5561C68.2556 39.5144 67.8609 39.8216 67.5409 40.1323C67.1479 40.5141 66.8054 40.9723 66.7097 41.512C66.6732 41.7099 67.0158 42.0188 67.1619 42.1142C67.9026 42.595 68.3704 42.9039 69.1112 43.3846C69.3094 43.5131 69.7476 43.796 69.9806 43.8428C70.6831 43.9799 71.33 43.4853 71.3665 43.3881Z" stroke="#F08C34" stroke-linecap="round" stroke-linejoin="round"/>
<path d="M72.3507 32.3398C72.5929 32.6423 72.8873 32.8992 73.2201 33.0982C73.5431 33.2857 73.8884 33.432 74.2478 33.5338C74.966 33.7421 75.7311 33.8046 76.5414 33.8948C76.6736 33.9098 76.7966 33.9697 76.8897 34.0646C76.9828 34.1594 77.0403 34.2833 77.0527 34.4155V34.4589L77.1692 35.9306C77.2074 36.4148 77.2405 36.8938 77.2944 37.3711C77.3405 37.848 77.4325 38.3193 77.5691 38.7786C77.6074 38.8914 77.6526 39.0025 77.6926 39.1257C77.7326 39.249 77.7865 39.3461 77.8421 39.4538C77.9548 39.6701 78.0845 39.8773 78.2299 40.0733C78.376 40.2799 78.5359 40.4847 78.675 40.7155C78.8178 40.9495 78.9267 41.2025 78.9985 41.467C79.0733 41.7256 79.1185 41.9876 79.1724 42.2289C79.2194 42.4645 79.2834 42.6965 79.3636 42.9231C79.4319 43.1129 79.5446 43.2836 79.6923 43.4212C79.8468 43.5512 80.0235 43.6524 80.214 43.7197C80.4157 43.7944 80.6242 43.8496 80.8365 43.8846C81.0503 43.921 81.2665 43.9407 81.4834 43.9436C81.5321 43.9436 81.5825 43.9436 81.612 43.9436C81.612 43.9436 81.5842 43.9436 81.5947 43.9436C81.6051 43.9436 81.6138 43.9436 81.6242 43.9297C81.6619 43.9124 81.6952 43.8869 81.7216 43.8551C81.7491 43.826 81.7693 43.791 81.7807 43.7527C81.7873 43.7342 81.7913 43.7149 81.7929 43.6954V43.6069C81.8155 43.1313 81.8225 42.6471 81.7929 42.1681C81.7593 41.2114 81.6641 40.2577 81.5077 39.3132C81.4903 39.1917 81.4642 39.0858 81.4451 38.9661C81.4347 38.9123 81.4242 38.848 81.4138 38.8029L81.3686 38.6294C81.3043 38.3829 81.2469 38.1365 81.1947 37.89C81.0852 37.3937 80.9687 36.9008 80.8748 36.3992L80.7374 35.6477L80.6209 34.891C80.5428 34.3788 80.5067 33.861 80.5131 33.3429C80.514 33.3244 80.5221 33.3069 80.5358 33.2942C80.5494 33.2816 80.5675 33.2748 80.5861 33.2752C80.5997 33.2762 80.6128 33.2809 80.6239 33.2889C80.6349 33.2968 80.6435 33.3078 80.6487 33.3204C80.8226 33.7872 81.0313 34.2524 81.233 34.7088L81.5268 35.403L81.8155 36.0972C82.0103 36.5641 82.1894 37.0344 82.3772 37.5013L82.6484 38.2059L82.7163 38.3899C82.7423 38.4645 82.758 38.5235 82.7788 38.5929C82.8188 38.7231 82.8606 38.8602 82.8901 38.9869C83.1617 40.0135 83.2835 41.0738 83.2518 42.1352C83.2408 42.6642 83.1984 43.1922 83.1249 43.7162L83.1058 43.8429C83.0963 43.8961 83.0841 43.9489 83.0692 44.0009C83.0404 44.1037 83.0008 44.2031 82.951 44.2976C82.8539 44.4867 82.7194 44.6542 82.5556 44.79C82.3919 44.9257 82.2022 45.0268 81.9981 45.0873C81.9477 45.1029 81.8955 45.1116 81.8451 45.1237C81.8242 45.1237 81.7703 45.1342 81.7338 45.1376H81.6729H81.6364C81.5533 45.136 81.4703 45.1302 81.3877 45.1203C81.1003 45.0822 80.8176 45.0141 80.5444 44.9172C80.2664 44.8244 80.0016 44.6961 79.7566 44.5354C79.4956 44.3718 79.2674 44.1611 79.0837 43.9141C78.9061 43.6624 78.7872 43.3742 78.7359 43.0706C78.6912 42.8088 78.6633 42.5445 78.6524 42.2792C78.6394 42.0352 78.6104 41.7923 78.5655 41.552C78.5204 41.325 78.4357 41.1076 78.3151 40.9099C78.1835 40.704 78.0365 40.5085 77.8751 40.325C76.7955 39.1343 76.1152 37.6369 75.9293 36.0417C75.8732 35.5281 75.8453 35.0119 75.8459 34.4953L76.3675 35.0663C75.9658 34.9934 75.5537 34.9136 75.1381 34.799C74.7129 34.6875 74.3012 34.5298 73.9105 34.3287C73.5114 34.1236 73.1517 33.8498 72.848 33.52C72.5439 33.1995 72.3277 32.8061 72.2202 32.378C72.2182 32.3689 72.218 32.3594 72.2196 32.3502C72.2211 32.341 72.2245 32.3322 72.2296 32.3243C72.2346 32.3164 72.2411 32.3096 72.2487 32.3042C72.2564 32.2988 72.265 32.295 72.2742 32.2929C72.2903 32.2911 72.3066 32.2948 72.3205 32.3032C72.3343 32.3117 72.345 32.3246 72.3507 32.3398Z" fill="#F08C34"/>
<path d="M82.3528 43.5343C82.0592 43.4374 81.7988 43.2601 81.6014 43.0225C81.404 42.785 81.2775 42.4968 81.2364 42.191C81.1703 41.6425 81.3877 41.1045 81.6016 40.5943L82.1233 39.3481" stroke="#F08C34" stroke-linecap="round" stroke-linejoin="round"/>
<path d="M70.1562 37.9351C70.1979 37.6088 70.2344 37.2999 70.2483 36.9944C70.2648 36.6967 70.2648 36.3983 70.2483 36.1006C70.234 35.8126 70.2027 35.5258 70.1544 35.2415C70.1059 34.9648 70.0409 34.6913 69.9597 34.4223L71.1769 34.1933C71.2208 34.4494 71.2937 34.6998 71.3942 34.9395C71.5094 35.2054 71.6522 35.4584 71.8203 35.6945C71.8655 35.757 71.9142 35.8195 71.9646 35.8819C72.006 35.9378 72.0513 35.9905 72.1002 36.0399C72.2094 36.1476 72.3315 36.2414 72.4637 36.3193C72.7468 36.4868 73.0533 36.6114 73.3731 36.689C73.5348 36.7306 73.7 36.7619 73.8652 36.7879L74.1156 36.8209C74.1437 36.8239 74.1716 36.8286 74.1991 36.8347C74.2291 36.841 74.2588 36.8491 74.2878 36.859C74.3435 36.8776 74.3972 36.9021 74.4478 36.9319C74.548 36.9881 74.638 37.0609 74.7138 37.1471C74.7539 37.1928 74.7894 37.2422 74.8199 37.2947C74.8476 37.3469 74.872 37.4008 74.8929 37.4561L75.0964 37.9368C75.232 38.2596 75.3642 38.5755 75.5015 38.874L75.9154 39.7713L76.0197 39.9986L76.0719 40.1114C76.0829 40.1344 76.0957 40.1564 76.1101 40.1774C76.1833 40.2854 76.2641 40.388 76.3519 40.4846C76.4936 40.6445 76.6177 40.819 76.7222 41.0052L76.7657 41.092V41.1024L76.7761 41.1319L76.797 41.1944C76.8107 41.2377 76.8217 41.2817 76.8301 41.3263C76.8314 41.3465 76.8314 41.3668 76.8301 41.3871V41.4304V41.5155V41.5988V41.6578L76.8127 41.7723L76.7953 41.8626C76.7814 41.9251 76.7692 41.9719 76.7553 42.0223L76.6162 42.5065C76.58 42.6196 76.5544 42.7358 76.5397 42.8536C76.5369 42.8969 76.5369 42.9404 76.5397 42.9837C76.5397 42.9837 76.531 42.9837 76.5397 42.9959L76.5623 43.0358L76.604 43.1174C76.637 43.1694 76.6683 43.2232 76.7049 43.2771C77.0344 43.728 77.4803 44.0813 77.9951 44.2993C78.1232 44.3541 78.2559 44.3976 78.3916 44.4294C78.4833 44.4641 78.5835 44.4696 78.6785 44.4451C78.8002 44.3928 78.9032 44.3051 78.9741 44.1934C79.0698 44.0667 79.1567 43.9192 79.2489 43.7682C79.2587 43.7517 79.2745 43.7398 79.2931 43.7349C79.3116 43.7301 79.3313 43.7327 79.348 43.7422C79.3583 43.7487 79.3669 43.7576 79.3729 43.7682C79.379 43.7788 79.3824 43.7907 79.3828 43.8029C79.3911 43.9859 79.3789 44.1693 79.3462 44.3496C79.329 44.4496 79.2992 44.547 79.2576 44.6394C79.2131 44.7481 79.1488 44.8475 79.068 44.9327C78.9755 45.0263 78.8649 45.1002 78.7428 45.1497C78.6309 45.1929 78.5141 45.2227 78.3951 45.2382C78.1895 45.2633 77.9816 45.2633 77.776 45.2382C76.9546 45.1451 76.1932 44.763 75.6285 44.1604C75.5554 44.0806 75.4876 43.9956 75.4215 43.9105L75.3276 43.7751L75.2807 43.7075C75.2668 43.6866 75.2424 43.638 75.225 43.6051C75.0969 43.3346 75.04 43.0359 75.0599 42.7373C75.0783 42.5158 75.1209 42.297 75.1868 42.0847C75.2442 41.8973 75.3068 41.7255 75.3607 41.5936L75.4059 41.4599C75.405 41.4669 75.405 41.4739 75.4059 41.4808C75.4051 41.4877 75.4051 41.4947 75.4059 41.5016V41.512V41.5432C75.4093 41.5669 75.4151 41.5902 75.4233 41.6127C75.4272 41.6234 75.4318 41.6338 75.4372 41.6439V41.6578L75.4285 41.6266C75.3785 41.5098 75.3161 41.3986 75.2424 41.2951C75.1219 41.1204 75.0166 40.9358 74.9277 40.7432C74.9029 40.6866 74.8814 40.6286 74.8634 40.5696L74.8234 40.4447C74.7955 40.3614 74.7695 40.2711 74.7451 40.193C74.6414 39.8519 74.5618 39.5039 74.5069 39.1517C74.4512 38.7942 74.4252 38.4471 74.3886 38.1104C74.3695 37.9368 74.3486 37.7719 74.3226 37.6053C74.3226 37.5515 74.3226 37.548 74.3104 37.5238C74.3042 37.4997 74.2955 37.4765 74.2843 37.4543C74.2557 37.4054 74.2186 37.3619 74.1748 37.3259C74.1541 37.3081 74.1313 37.293 74.1069 37.2808C74.0963 37.2749 74.0852 37.2696 74.0739 37.2652L74.0322 37.2547L73.7765 37.1992L73.2653 37.0916C72.9175 37.0187 72.5697 36.9493 72.222 36.8504C72.0364 36.7994 71.8551 36.7345 71.6794 36.656C71.5848 36.6121 71.493 36.5622 71.4047 36.5067C71.3264 36.4581 71.2464 36.4078 71.1682 36.3523C70.8344 36.1307 70.5492 35.8438 70.33 35.5088C70.1013 35.1501 69.9651 34.7405 69.9336 34.3165V34.2835C69.9164 34.1265 69.9603 33.9689 70.0562 33.8433C70.1521 33.7177 70.2927 33.6336 70.4489 33.6085C70.6051 33.5833 70.765 33.619 70.8956 33.7081C71.0262 33.7972 71.1176 33.933 71.1508 34.0874C71.235 34.4283 71.2805 34.7776 71.2864 35.1287C71.2924 35.4785 71.2586 35.8279 71.1856 36.17C71.1125 36.5069 70.9993 36.8338 70.8482 37.1437C70.7013 37.4499 70.5084 37.732 70.2761 37.9802C70.2695 37.9871 70.2615 37.9925 70.2527 37.9963C70.2439 38 70.2344 38.0019 70.2248 38.0019C70.2153 38.0019 70.2058 38 70.197 37.9963C70.1882 37.9925 70.1802 37.9871 70.1735 37.9802C70.163 37.9674 70.1569 37.9516 70.1562 37.9351Z" fill="#F08C34"/>
<path d="M78.9967 44.2665C78.629 44.0246 78.3482 43.672 78.1951 43.2599C78.113 42.9558 78.1172 42.6349 78.2072 42.3331C78.2968 42.0311 78.4198 41.74 78.5742 41.4653" stroke="#F08C34" stroke-linecap="round" stroke-linejoin="round"/>
<path d="M105.745 74.5152C104.816 75.2285 103.88 75.9348 102.924 76.61C101.968 77.2851 101.011 77.9567 100.029 78.6076C98.0696 79.8953 96.0722 81.1264 94.0365 82.3008C93.0192 82.8874 92.0002 83.4705 90.9726 84.0363C90.4509 84.3192 89.9379 84.5969 89.4075 84.8538L88.6146 85.2391L87.8112 85.6018C87.2722 85.8361 86.7331 86.0669 86.1888 86.2873L85.7785 86.4505L85.5698 86.532L85.3403 86.6153C84.5921 86.8583 83.794 86.9049 83.0225 86.7508C82.2511 86.5967 81.5324 86.247 80.9356 85.7354C80.9298 85.7298 80.9252 85.723 80.9221 85.7156C80.919 85.7081 80.9174 85.7001 80.9174 85.692C80.9174 85.6839 80.919 85.6759 80.9221 85.6685C80.9252 85.661 80.9298 85.6543 80.9356 85.6486C80.9444 85.6389 80.956 85.6322 80.9688 85.6294C80.9815 85.6266 80.9949 85.6279 81.0069 85.633C82.0179 86.1167 83.1646 86.2392 84.2552 85.9801C84.5081 85.9109 84.7552 85.8221 84.9942 85.7146L85.1681 85.6278L85.3594 85.5271L85.7437 85.3206C86.2654 85.0499 86.787 84.7878 87.2948 84.5119L88.8598 83.7257L90.4352 82.9707C90.9569 82.7295 91.489 82.4743 92.0159 82.2244C92.5428 81.9745 93.0592 81.7038 93.5809 81.4469C95.6572 80.3882 97.7033 79.27 99.7192 78.0921C101.745 76.9345 103.719 75.6901 105.684 74.4163C105.697 74.4068 105.713 74.403 105.729 74.4056C105.745 74.4082 105.759 74.417 105.769 74.4301C105.778 74.4433 105.782 74.4596 105.78 74.4755C105.777 74.4915 105.768 74.5057 105.755 74.5152H105.745Z" fill="#F08C34"/>
<path d="M36.2998 11.2219C37.4552 9.24201 38.9292 7.46538 40.6627 5.96325L41.3304 5.41656L41.5043 5.27945L41.6782 5.15276L42.026 4.89937C42.4851 4.55226 42.9772 4.24854 43.4606 3.93268C44.4483 3.33451 45.4767 2.80619 46.5385 2.3516C47.6018 1.90432 48.6905 1.51953 49.7989 1.19921C50.9106 0.886502 52.0392 0.637337 53.1793 0.452928C55.463 0.0778879 57.7789 -0.0645791 60.0914 0.0277215C60.3818 0.0398702 60.6722 0.0572256 60.9609 0.0797875C61.1052 0.0919363 61.253 0.104085 61.4008 0.119705L61.6373 0.145738L61.853 0.185655L63.571 0.498051C64.6995 0.760117 65.8316 1.02913 66.9271 1.39879C69.1304 2.11084 71.2641 3.02171 73.3019 4.12011C75.3375 5.20883 77.2872 6.45043 79.1341 7.83416C79.3637 8.00771 79.5967 8.18127 79.8297 8.35482L80.5061 8.89457C80.7339 9.06812 80.953 9.25903 81.1739 9.44474C81.3947 9.63044 81.6173 9.8144 81.8312 10.0088L82.4746 10.5867L83.1093 11.1803L83.4205 11.484C83.5805 11.6385 83.4918 11.5499 83.4831 11.5586C83.4599 11.5515 83.4351 11.5515 83.4118 11.5586C83.3684 11.5705 83.33 11.596 83.3023 11.6315L83.9022 13.0061L82.798 12.9418L83.4936 11.6107C83.482 11.5958 83.4661 11.5848 83.4481 11.5792C83.43 11.5736 83.4107 11.5737 83.3927 11.5794C83.3782 11.5828 83.3642 11.5881 83.351 11.5951L83.3266 11.6107L83.3162 11.6211H83.3249L83.344 11.6055L83.6518 11.3451C84.0639 10.998 84.483 10.6666 84.9073 10.3455C85.7559 9.69639 86.6358 9.09416 87.5348 8.52317L88.2129 8.08928C88.439 7.9487 88.672 7.81854 88.9085 7.68317L89.6041 7.28052L90.2996 6.90391C90.5344 6.77895 90.7674 6.65226 91.0056 6.53077L91.7238 6.18366L92.442 5.83656L93.174 5.52069C95.1229 4.66899 97.1425 3.9884 99.2097 3.48664C101.283 3.00085 103.396 2.71032 105.524 2.61888C107.642 2.65356 109.752 2.88598 111.827 3.31309C112.86 3.5283 113.891 3.76086 114.902 4.06805C115.411 4.20515 115.908 4.38391 116.411 4.54185C116.661 4.62515 116.908 4.7154 117.155 4.81259C117.402 4.90978 117.653 4.98615 117.896 5.09201C119.864 5.86715 121.741 6.8566 123.492 8.04242C125.243 9.23794 126.833 10.653 128.223 12.2528C129.619 13.855 130.806 15.6279 131.753 17.5289C132.713 19.4271 133.455 21.4275 133.965 23.4922C134.237 24.5215 134.455 25.5642 134.619 26.6161C134.767 27.6679 134.899 28.7265 134.948 29.7922C134.996 30.8578 135.008 31.9234 134.975 32.989L134.929 33.7891L134.902 34.1883L134.862 34.5874L134.784 35.384C134.751 35.6496 134.711 35.9134 134.676 36.1772C134.612 36.7083 134.502 37.2324 134.416 37.76C134.372 38.0238 134.308 38.2807 134.254 38.5445C134.2 38.8083 134.148 39.0651 134.08 39.3272C133.944 39.8478 133.823 40.3685 133.661 40.8753L133.424 41.6528L133.167 42.4112L133.037 42.7913L132.896 43.1679L132.612 43.909C132.418 44.4019 132.216 44.8896 132.007 45.3755C131.592 46.3497 131.149 47.313 130.679 48.2652C129.736 50.1675 128.687 52.0159 127.538 53.8015C126.385 55.5857 125.145 57.3067 123.82 58.9648L123.605 59.2338L123.257 59.3067L123.172 59.324L122.631 59.4351L122.205 58.9561L122.139 58.8815C122.116 58.8529 122.092 58.8256 122.066 58.7999C122.002 58.7391 121.949 58.6801 121.878 58.6177L121.669 58.4285L121.445 58.2393C121.139 57.9877 120.816 57.7395 120.485 57.4965C120.155 57.2535 119.817 57.0123 119.477 56.7763C119.136 56.5402 118.781 56.3059 118.449 56.082L118.425 56.0647L118.392 56.0404C116.041 54.2753 113.359 52.8644 110.74 51.2C109.401 50.3659 108.129 49.43 106.934 48.4006C106.644 48.1246 106.341 47.8608 106.064 47.5727L105.645 47.1354L105.437 46.9167L105.233 46.6859C104.976 46.3752 104.703 46.0697 104.466 45.7469L103.787 44.8236C103.4 44.2682 102.948 43.7618 102.439 43.3154C102.004 42.9441 101.473 42.7033 100.907 42.6212C100.785 42.6099 100.662 42.6099 100.54 42.6212C100.393 42.6406 100.246 42.6678 100.102 42.7028C99.7671 42.7972 99.4379 42.9102 99.1159 43.0412C98.6964 43.2087 98.2595 43.3292 97.8134 43.4005C97.5575 43.4341 97.2988 43.4417 97.0413 43.423C96.9127 43.4057 96.7822 43.3935 96.6588 43.3692C96.5353 43.3449 96.4049 43.3172 96.2988 43.2842C95.8658 43.1645 95.4746 42.9996 95.1477 42.8746C94.8777 42.7562 94.5918 42.6778 94.2991 42.6421C94.236 42.6377 94.1727 42.6377 94.1096 42.6421H94.0157L93.9374 42.6507C93.801 42.6724 93.6666 42.7055 93.5357 42.7497C93.2947 42.822 93.0698 42.9398 92.8732 43.0968C92.8447 43.1221 92.8185 43.15 92.7949 43.1801C92.7949 43.1905 92.7949 43.1801 92.7758 43.2061L92.7376 43.2651L92.6628 43.3797C92.5602 43.5341 92.4628 43.6903 92.3654 43.8448C92.1707 44.1572 91.9951 44.4626 91.8073 44.7976C91.7099 44.9711 91.6021 45.1586 91.4716 45.3495C91.3464 45.53 91.2117 45.7037 91.0682 45.8701C90.7952 46.1895 90.5239 46.4706 90.2544 46.7518L89.8823 47.1319C89.7903 47.2412 89.7066 47.3572 89.6319 47.479C89.5449 47.6178 89.458 47.7654 89.3884 47.9059C89.3356 47.9984 89.2941 48.0969 89.265 48.1992C89.2523 48.2694 89.2577 48.3417 89.2806 48.4092C89.3171 48.5305 89.3679 48.647 89.4319 48.7563C89.5797 49.0219 89.7971 49.3152 90.0249 49.6415C90.3004 50.0125 90.5201 50.4218 90.677 50.8563C90.7975 51.3006 90.8486 51.7607 90.8283 52.2205C90.8109 52.5675 90.8155 52.9153 90.8422 53.2618C90.872 53.5317 90.9649 53.7909 91.1134 54.0185C91.2785 54.2639 91.4843 54.4793 91.722 54.6554C91.9808 54.8443 92.2617 55.0011 92.5585 55.1223C93.2209 55.3557 93.9115 55.5004 94.6121 55.5527C95.395 55.6198 96.1735 55.7304 96.944 55.8842C97.7269 56.055 98.4906 56.3039 99.2237 56.627C100.657 57.2757 101.997 58.1127 103.207 59.1158C104.393 60.1014 105.514 61.1623 106.564 62.2918C107.619 63.3973 108.65 64.5219 109.713 65.5893C110.251 66.125 110.803 66.6457 111.37 67.1513C111.655 67.4029 111.938 67.6546 112.231 67.8924C112.523 68.1301 112.831 68.354 113.138 68.5762L113.032 68.7341C112.709 68.5328 112.385 68.3262 112.071 68.1041C111.756 67.8819 111.453 67.6459 111.153 67.4099C110.546 66.943 109.956 66.4484 109.386 65.9381C108.24 64.9211 107.153 63.8451 106.052 62.8003C104.972 61.7493 103.829 60.7641 102.63 59.8499C101.453 58.9535 100.161 58.2186 98.7889 57.6648C98.1141 57.3996 97.4154 57.1997 96.7023 57.0678C95.9703 56.9529 95.2324 56.8793 94.4921 56.8474C93.6682 56.8114 92.8528 56.6649 92.0681 56.4118C91.6526 56.2608 91.2577 56.0585 90.8926 55.8096C90.5069 55.5442 90.1718 55.2121 89.9032 54.829C89.7634 54.6268 89.6468 54.4097 89.5554 54.1816C89.4656 53.9529 89.402 53.7148 89.3658 53.4718C89.3173 53.0594 89.2976 52.6442 89.3067 52.2292C89.3158 51.9273 89.2783 51.6258 89.1954 51.3354C89.0757 51.0599 88.9202 50.8014 88.7329 50.5665C88.519 50.2732 88.2686 49.9643 88.0373 49.572C87.9799 49.4679 87.9208 49.3725 87.8634 49.2527C87.8356 49.1937 87.8095 49.1399 87.7852 49.0792L87.7174 48.8848C87.6213 48.5894 87.5933 48.2761 87.6356 47.9684L87.653 47.8469L87.6843 47.715C87.7069 47.6439 87.7295 47.5727 87.7521 47.5154C87.7973 47.394 87.8443 47.2933 87.8912 47.1909C87.9869 46.9896 88.086 46.8039 88.1973 46.6182C88.2512 46.5244 88.3086 46.4325 88.3712 46.337C88.4415 46.2312 88.5176 46.1292 88.599 46.0316L88.6772 45.9448L88.7242 45.8927L88.8216 45.7903L89.0146 45.5855C89.2667 45.313 89.5189 45.0388 89.7345 44.775C89.8368 44.6517 89.9326 44.5231 90.0214 44.3897C90.1014 44.263 90.1814 44.1225 90.2683 43.9611C90.4422 43.6278 90.6422 43.2668 90.8439 42.9319C90.9448 42.7583 91.0473 42.5848 91.1517 42.4268L91.2282 42.3019L91.2682 42.2411C91.2769 42.2238 91.3099 42.1787 91.3291 42.1492C91.4167 42.0236 91.5169 41.9073 91.6281 41.8021C92.0038 41.4557 92.4481 41.192 92.9323 41.028C93.1616 40.9466 93.3971 40.8839 93.6366 40.8406C93.6992 40.8302 93.7705 40.8197 93.8418 40.8128L94.033 40.7989C94.16 40.7989 94.2887 40.7989 94.4156 40.7989C94.8846 40.8358 95.3457 40.9411 95.7841 41.1113C96.1702 41.2502 96.4797 41.3734 96.7909 41.4584C97.0344 41.5284 97.2905 41.5432 97.5404 41.5018C97.8462 41.445 98.1447 41.3548 98.4307 41.2328C98.8158 41.0755 99.2094 40.94 99.6097 40.8267C99.8347 40.7684 100.063 40.7232 100.293 40.6913C100.55 40.659 100.809 40.6526 101.067 40.6722C101.558 40.7169 102.038 40.8436 102.488 41.0471C102.91 41.2379 103.308 41.4798 103.672 41.7673C104.323 42.3105 104.902 42.9352 105.393 43.6261L106.073 44.5355C106.289 44.8271 106.529 45.0857 106.757 45.3599L106.93 45.563L107.118 45.7539L107.492 46.1392C107.744 46.3943 108.014 46.6303 108.282 46.8768C109.399 47.8339 110.589 48.7042 111.839 49.4801C114.354 51.0924 117.089 52.5329 119.597 54.4645L119.539 54.4229C119.906 54.6693 120.254 54.9106 120.609 55.1605C120.963 55.4104 121.304 55.6655 121.652 55.9258C122 56.1862 122.348 56.4604 122.695 56.7485L122.954 56.9724L123.214 57.2101C123.299 57.29 123.387 57.3837 123.476 57.4757C123.518 57.5156 123.567 57.5763 123.613 57.6301L123.751 57.8037L122.784 57.4358L122.871 57.4184L122.308 57.7655C123.608 56.1677 124.833 54.5143 125.982 52.8054C127.12 51.0921 128.16 49.3168 129.1 47.4877C129.563 46.5725 130.007 45.644 130.432 44.7021C130.644 44.2335 130.851 43.758 131.049 43.2842L131.334 42.5761L131.477 42.2203L131.605 41.8611C132.311 39.9464 132.838 37.9712 133.181 35.9602C133.223 35.7086 133.268 35.4569 133.306 35.2053L133.403 34.4451L133.452 34.065L133.485 33.685L133.557 32.9213C133.621 31.9026 133.668 30.8786 133.636 29.8564C133.605 28.8341 133.536 27.8119 133.428 26.7914C133.307 25.7729 133.133 24.7615 132.906 23.7612C132.054 19.7469 130.331 15.8922 127.689 12.7232C126.361 11.1405 124.829 9.73991 123.134 8.55788C121.428 7.37947 119.596 6.39673 117.67 5.62829C113.799 4.11911 109.675 3.36328 105.52 3.4016C103.467 3.56069 101.435 3.91579 99.4497 4.46201C97.4693 5.03104 95.5418 5.76965 93.6887 6.66961L92.9932 7.00284L92.3115 7.3673L91.6316 7.73003L90.9656 8.11879L90.2996 8.50408L89.6475 8.91366C89.4302 9.0525 89.2111 9.18441 88.9972 9.32672L88.359 9.75887C87.9295 10.04 87.5209 10.3524 87.1035 10.6509C86.8966 10.8019 86.6949 10.9616 86.4914 11.1161C86.288 11.2705 86.0828 11.425 85.8846 11.5864C85.4829 11.904 85.0899 12.232 84.7056 12.5652L84.4187 12.8151L84.3717 12.8568L84.283 12.9262C84.2229 12.9702 84.1595 13.0096 84.0935 13.0442C83.9636 13.1106 83.8248 13.1579 83.6814 13.1848C83.4039 13.2349 83.1179 13.2087 82.8542 13.1091C82.5905 13.0094 82.3588 12.84 82.1842 12.619L81.0835 11.2202L82.8832 11.2913L83.9892 11.3347L85.6828 11.4007L84.5891 12.7093C84.3751 12.961 84.0833 13.1344 83.7596 13.2022C83.5331 13.25 83.2989 13.2471 83.0736 13.1937C82.8484 13.1403 82.6379 13.0377 82.4572 12.8932C82.3129 12.77 82.2972 12.7475 82.2416 12.6954L81.9407 12.4108L81.3304 11.8485L80.7061 11.2983C79.861 10.5798 79.0055 9.86647 78.1099 9.21564C76.3375 7.87214 74.469 6.65982 72.5194 5.58838C70.5696 4.52439 68.5337 3.62569 66.4332 2.90177C65.3899 2.52689 64.317 2.24921 63.2458 1.97673L61.6252 1.64698L61.4339 1.59838L61.2496 1.57408C61.1157 1.55673 60.98 1.54284 60.8426 1.52896C60.5714 1.50293 60.2949 1.48036 60.0201 1.46301C57.8021 1.31343 55.5747 1.38377 53.3706 1.67301C52.2681 1.81995 51.1749 2.02069 50.091 2.27524C49.0081 2.53952 47.9416 2.86635 46.8967 3.25408L46.1315 3.56301C45.8725 3.66367 45.6238 3.78863 45.3699 3.8997L44.9891 4.07325C44.8639 4.134 44.7404 4.19821 44.617 4.26069C44.37 4.38912 44.1196 4.51061 43.8745 4.64251C43.3945 4.92193 42.9024 5.18573 42.4433 5.5016L42.0956 5.73069L41.9217 5.84524L41.7478 5.96846L41.0748 6.46482C40.1834 7.14139 39.3504 7.89146 38.5847 8.70713L38.2961 9.01432L38.15 9.16531L38.0144 9.32672L37.4736 9.97234C37.2875 10.1841 37.1258 10.4149 36.9606 10.6405L36.4615 11.3243L36.2998 11.2219Z" fill="#F08C34"/>
</g>
<defs>
<clipPath id="clip0_548_548">
<rect width="101.736" height="86.8479" fill="white" transform="translate(33.2637)"/>
</clipPath>
</defs>
</svg>
