<svg width="1920" height="76" viewBox="0 0 1920 76" fill="none" xmlns="http://www.w3.org/2000/svg">
<path d="M-34 40.7499C-26.7656 40.0272 -29.037 38.9418 -21.5 37.5C-2.78435 33.9197 -10.5 33.5 46.5444 29.0122C86.5 27 118.786 25.2018 155.508 36.9935C199.5 54 224.32 58.4917 242.723 60.494C282.225 65.3067 321.406 66.9234 361.228 66.9234C385.654 66.9234 405.982 59.8659 429.58 54.508C438.245 52.5406 485.876 26.806 469.526 15.0449C458.769 7.30761 435.183 12.933 428.026 23.4696C408.221 52.6269 470.821 66.8541 487.279 70.0272C554.793 83.0434 620.74 57.6455 683.346 34.0005C712.988 22.8056 741.026 9.05895 773.446 9.05895C792.273 9.05895 810.872 11.3291 829.481 14.1581C842.569 16.533 876.871 23.8707 909.373 34.2222C946.539 45.3612 983.07 59.4666 1021.22 66.9234C1048.48 72.2518 1077.25 77.4042 1105.11 73.7962C1131.23 70.4125 1146.46 58.6572 1165.14 40.9842C1205.1 3.16173 1269.48 -11.517 1319.7 13.1605C1336.47 21.3962 1366.23 34.9709 1359.54 58.7204C1355.16 74.259 1339.75 70.4067 1331.13 60.9374C1297.65 24.1398 1393.72 11.5663 1409.58 11.1651C1458.26 9.93392 1509.65 18.7292 1557.38 27.5711C1602.74 35.9743 1647.01 49.4305 1692.42 57.501C1771.41 71.5379 1842.43 52.2653 1920 36.9935" stroke="#7EABDF" stroke-width="2" stroke-linecap="round"/>
</svg>
