<svg width="1527" height="191" viewBox="0 0 1527 191" fill="none" xmlns="http://www.w3.org/2000/svg">
<path d="M-8.2737 112.751C39.9208 119.462 33.4817 198.994 81.6661 188.153C98.0391 184.469 112.436 180.83 149.23 151.074C175.854 129.542 185.082 112.531 240.843 107.467C304.709 112.395 324.13 153.402 304.634 176.424C299.617 182.349 290.248 185.129 287.087 175.983C282.255 162.004 300.158 152.97 310.225 147.529C340.389 131.226 380.45 137.992 406.185 159.343C418.21 169.319 427.936 175.868 444.117 177.076C461.371 178.365 478.917 174.393 495.532 170.362C518.784 164.721 540.84 155.159 563.375 147.35C572.767 144.095 582.652 142.496 591.986 139.133C598.557 136.765 605.046 134.255 611.934 132.88C623.301 130.611 634.678 128.677 646.264 128.091C666.215 127.083 683.884 134.423 702.463 140.188C741.704 152.366 783.054 165.487 824.209 155.612C834.241 153.205 872.335 142.759 859.267 125.958C854.544 119.886 839.86 117.259 833.474 122.216C823.767 129.75 853.856 143.641 859.248 144.547C873.931 147.014 880.396 149.29 901.685 149.838C927.86 150.511 950.254 146.415 974.419 142.312C982.968 140.86 994.71 135.853 1004.74 132.681C1012.31 130.284 1019.93 128.303 1027.38 125.562C1060.8 117.658 1070.87 118.294 1094.19 117.405C1106.03 116.955 1116.65 118.243 1128.27 119.799C1132.95 120.426 1141.45 122.808 1145.93 123.015C1176.68 129.415 1183.1 129.09 1187.19 128.884C1191.27 128.677 1226.68 122.911 1241 105.142C1255.32 87.3738 1272.02 81.9847 1277.27 81.7192C1293.03 80.9227 1313.51 92.388 1321.35 73.8104C1329.18 55.2329 1310.16 49.3762 1299.77 52.1741C1289.24 55.0075 1277.48 74.323 1302.09 98.0784C1326.7 121.834 1367.59 120.336 1376.26 118.193C1384.93 116.051 1416.57 105.361 1439.13 76.9489C1458.07 53.0948 1483.09 59.0424 1488.76 63.0777C1505.15 74.7491 1525.26 102.141 1491.37 114.649C1457.47 127.157 1459.3 94.0135 1460.22 88.9511C1463.89 68.8799 1494.91 11.0637 1525.42 0.999541" stroke="#5C9AE0" stroke-width="2" stroke-linecap="round"/>
</svg>
